<svg width="60" height="62" viewBox="0 0 60 62" fill="none" xmlns="http://www.w3.org/2000/svg" xmlns:xlink="http://www.w3.org/1999/xlink">
<path d="M21.709,60.339C12.779,60.288 5.393,42.059 5.393,32.775C5.393,17.611 16.769,14.291 21.153,14.291C23.129,14.291 25.238,15.067 27.099,15.753C28.4,16.232 29.746,16.727 30.495,16.727C30.943,16.727 31.998,16.306 32.93,15.937C34.918,15.146 37.392,14.162 40.272,14.162C40.277,14.162 40.284,14.162 40.289,14.162C42.44,14.162 48.962,14.634 52.883,20.522L53.801,21.902L52.479,22.9C50.591,24.324 47.146,26.923 47.146,32.071C47.146,38.169 51.047,40.514 52.922,41.642C53.749,42.14 54.606,42.653 54.606,43.776C54.606,44.509 48.756,60.248 40.26,60.248C38.181,60.248 36.712,59.623 35.416,59.072C34.105,58.514 32.973,58.034 31.104,58.034C30.156,58.034 28.958,58.482 27.689,58.957C25.956,59.604 23.994,60.339 21.767,60.339L21.709,60.339Z" fill="#FFFFFF"/>
<path d="M41.171,0.34C41.392,8.318 35.687,13.852 29.988,13.505C29.049,7.138 35.686,0.34 41.171,0.34Z" fill="#FFFFFF"/>
</svg>
