<svg width="70" height="70" viewBox="0 0 70 70" fill="none" xmlns="http://www.w3.org/2000/svg" xmlns:xlink="http://www.w3.org/1999/xlink">
<path d="M61.25,69.313C62.078,69.313 62.75,68.641 62.75,67.813C62.75,66.984 62.078,66.313 61.25,66.313L61.25,69.313ZM10.672,65.89L9.611,66.951L9.612,66.951L10.672,65.89ZM10.25,61.25C10.25,60.422 9.578,59.75 8.75,59.75C7.922,59.75 7.25,60.422 7.25,61.25L10.25,61.25ZM61.25,66.313L15.313,66.313L15.313,69.313L61.25,69.313L61.25,66.313ZM15.313,66.313C13.97,66.313 12.682,65.779 11.733,64.83L9.612,66.951C11.123,68.463 13.174,69.313 15.313,69.313L15.313,66.313ZM11.733,64.83C10.783,63.88 10.25,62.593 10.25,61.25L7.25,61.25C7.25,63.388 8.099,65.439 9.611,66.951L11.733,64.83Z" fill="#3BB77E"/>
<path d="M35,8.063C35.828,8.063 36.5,7.391 36.5,6.563C36.5,5.734 35.828,5.063 35,5.063L35,8.063ZM7.25,61.25C7.25,62.078 7.922,62.75 8.75,62.75C9.578,62.75 10.25,62.078 10.25,61.25L7.25,61.25ZM10.672,56.609L9.612,55.549L9.611,55.549L10.672,56.609ZM60.609,54.047L59.549,52.986L59.548,52.986L60.609,54.047ZM60.609,7.203L59.548,8.264L59.549,8.264L60.609,7.203ZM52.5,5.063C51.672,5.063 51,5.734 51,6.563C51,7.391 51.672,8.063 52.5,8.063L52.5,5.063ZM35,5.063L17.5,5.063L17.5,8.063L35,8.063L35,5.063ZM17.5,5.063C14.782,5.063 12.174,6.142 10.252,8.065L12.373,10.186C13.733,8.826 15.577,8.063 17.5,8.063L17.5,5.063ZM10.252,8.065C8.33,9.987 7.25,12.594 7.25,15.313L10.25,15.313C10.25,13.39 11.014,11.546 12.373,10.186L10.252,8.065ZM7.25,15.313L7.25,61.25L10.25,61.25L10.25,15.313L7.25,15.313ZM10.25,61.25C10.25,59.908 10.783,58.62 11.733,57.67L9.611,55.549C8.099,57.061 7.25,59.112 7.25,61.25L10.25,61.25ZM11.733,57.67C12.682,56.721 13.97,56.188 15.313,56.188L15.313,53.188C13.174,53.188 11.123,54.037 9.612,55.549L11.733,57.67ZM15.313,56.188L59.062,56.188L59.062,53.188L15.313,53.188L15.313,56.188ZM59.062,56.188C60.04,56.188 60.979,55.799 61.67,55.107L59.548,52.986C59.42,53.115 59.245,53.188 59.062,53.188L59.062,56.188ZM61.669,55.108C62.362,54.416 62.75,53.478 62.75,52.5L59.75,52.5C59.75,52.682 59.678,52.857 59.549,52.986L61.669,55.108ZM62.75,52.5L62.75,8.75L59.75,8.75L59.75,52.5L62.75,52.5ZM62.75,8.75C62.75,7.772 62.362,6.834 61.67,6.142L59.549,8.264C59.678,8.393 59.75,8.568 59.75,8.75L62.75,8.75ZM61.67,6.143C60.979,5.451 60.04,5.063 59.062,5.063L59.062,8.063C59.245,8.063 59.42,8.135 59.548,8.264L61.67,6.143ZM59.062,5.063L52.5,5.063L52.5,8.063L59.062,8.063L59.062,5.063Z" fill="#3BB77E"/>
<line x1="55.375" y1="54.688" x2="55.375" y2="67.813" stroke="#3BB77E" stroke-width="1.5" stroke-miterlimit="3.999327" stroke-linecap="round" stroke-linejoin="round"/>
<path d="M52.5,37.188L51.439,38.248C51.868,38.677 52.514,38.805 53.074,38.573C53.635,38.341 54,37.794 54,37.188L52.5,37.188ZM43.75,28.438L44.811,27.377C44.225,26.791 43.275,26.791 42.689,27.377L43.75,28.438ZM35,37.188L33.5,37.188C33.5,37.794 33.865,38.341 34.426,38.573C34.986,38.805 35.632,38.677 36.061,38.248L35,37.188ZM36.281,3.469L37.342,4.53L37.342,4.53L36.281,3.469ZM51.219,3.469L50.158,4.53L50.158,4.53L51.219,3.469ZM53.561,36.127L44.811,27.377L42.689,29.498L51.439,38.248L53.561,36.127ZM42.689,27.377L33.939,36.127L36.061,38.248L44.811,29.498L42.689,27.377ZM36.5,37.188L36.5,6.563L33.5,6.563L33.5,37.188L36.5,37.188ZM36.5,6.563C36.5,5.8 36.803,5.069 37.342,4.53L35.221,2.408C34.119,3.51 33.5,5.004 33.5,6.563L36.5,6.563ZM37.342,4.53C37.881,3.99 38.613,3.688 39.375,3.688L39.375,0.688C37.817,0.688 36.322,1.306 35.221,2.408L37.342,4.53ZM39.375,3.688L48.125,3.688L48.125,0.688L39.375,0.688L39.375,3.688ZM48.125,3.688C48.887,3.688 49.619,3.99 50.158,4.53L52.279,2.408C51.178,1.306 49.683,0.688 48.125,0.688L48.125,3.688ZM50.158,4.53C50.697,5.069 51,5.8 51,6.563L54,6.563C54,5.004 53.381,3.51 52.279,2.408L50.158,4.53ZM51,6.563L51,37.188L54,37.188L54,6.563L51,6.563Z" fill="#3BB77E"/>
</svg>
