<svg width="90" height="94" viewBox="0 0 90 94" fill="none" xmlns="http://www.w3.org/2000/svg" xmlns:xlink="http://www.w3.org/1999/xlink">
<g opacity="0.6" filter="url(#filter2993_1207)">
<path d="M84.618,59.855C84.618,78.001 67.04,92.711 45.357,92.711C23.674,92.711 6.096,78.001 6.096,59.855C6.096,41.71 23.674,27 45.357,27C67.04,27 84.618,41.71 84.618,59.855Z" fill="#3BB77E"/>
</g>
<path d="M90,45C90,69.853 69.853,90 45,90C20.147,90 0,69.853 0,45C0,20.147 20.147,0 45,0C69.853,0 90,20.147 90,45Z" fill="#3BB77E"/>
<path d="M60,52.38L58.001,52.331C58,52.347 58,52.364 58,52.38L60,52.38ZM60,56.88L58,56.88L58,56.888L60,56.88ZM56.73,59.88L56.514,61.868C56.526,61.87 56.538,61.871 56.55,61.872L56.73,59.88ZM43.785,55.275L44.873,53.597L44.858,53.587L43.785,55.275ZM34.785,46.275L36.473,45.202L36.464,45.188L34.785,46.275ZM30.18,33.27L28.188,33.45C28.189,33.461 28.19,33.471 28.191,33.481L30.18,33.27ZM33.165,30L33.165,28L33.163,28L33.165,30ZM37.665,30L37.665,32L37.685,32L37.665,30ZM40.665,32.58L42.648,32.319L42.645,32.3L40.665,32.58ZM41.715,36.795L39.841,37.494L39.843,37.499L41.715,36.795ZM41.04,39.96L42.454,41.374L42.462,41.366L41.04,39.96ZM39.135,41.865L37.721,40.451C37.084,41.088 36.952,42.071 37.397,42.854L39.135,41.865ZM48.135,50.865L47.147,52.604C47.929,53.049 48.913,52.916 49.549,52.279L48.135,50.865ZM50.04,48.96L48.634,47.538L48.626,47.546L50.04,48.96ZM53.205,48.285L52.501,50.157L52.506,50.159L53.205,48.285ZM57.42,49.335L57.7,47.355L57.682,47.352L57.42,49.335ZM58,52.38L58,56.88L62,56.88L62,52.38L58,52.38ZM58,56.888C58.001,57.028 57.972,57.165 57.916,57.293L61.581,58.895C61.86,58.257 62.003,57.568 62,56.872L58,56.888ZM57.916,57.293C57.861,57.421 57.779,57.535 57.676,57.629L60.38,60.577C60.893,60.106 61.303,59.533 61.581,58.895L57.916,57.293ZM57.676,57.629C57.574,57.723 57.452,57.795 57.321,57.84L58.602,61.629C59.262,61.406 59.867,61.047 60.38,60.577L57.676,57.629ZM57.321,57.84C57.189,57.884 57.049,57.901 56.91,57.888L56.55,61.872C57.244,61.935 57.942,61.852 58.602,61.629L57.321,57.84ZM56.946,57.892C52.641,57.424 48.506,55.953 44.873,53.597L42.697,56.953C46.855,59.65 51.587,61.333 56.514,61.868L56.946,57.892ZM44.858,53.587C41.481,51.442 38.619,48.579 36.473,45.203L33.097,47.348C35.558,51.22 38.84,54.503 42.713,56.963L44.858,53.587ZM36.464,45.188C34.099,41.538 32.628,37.383 32.169,33.059L28.191,33.481C28.717,38.43 30.401,43.186 33.107,47.363L36.464,45.188ZM32.172,33.09C32.16,32.952 32.176,32.813 32.22,32.681L28.43,31.404C28.208,32.062 28.126,32.759 28.188,33.45L32.172,33.09ZM32.22,32.681C32.265,32.549 32.336,32.428 32.429,32.326L29.475,29.629C29.007,30.142 28.651,30.746 28.43,31.404L32.22,32.681ZM32.429,32.326C32.523,32.223 32.637,32.141 32.764,32.085L31.148,28.426C30.513,28.707 29.943,29.117 29.475,29.629L32.429,32.326ZM32.764,32.085C32.891,32.029 33.028,32 33.167,32L33.163,28C32.469,28.001 31.783,28.146 31.148,28.426L32.764,32.085ZM33.165,32L37.665,32L37.665,28L33.165,28L33.165,32ZM37.685,32C37.927,31.998 38.163,32.084 38.347,32.242L40.955,29.209C40.035,28.418 38.859,27.988 37.645,28L37.685,32ZM38.347,32.242C38.531,32.4 38.651,32.62 38.685,32.86L42.645,32.3C42.476,31.099 41.875,30 40.955,29.209L38.347,32.242ZM38.682,32.842C38.892,34.431 39.281,35.992 39.841,37.494L43.589,36.096C43.134,34.876 42.818,33.609 42.648,32.319L38.682,32.842ZM39.843,37.499C39.91,37.678 39.925,37.872 39.885,38.059L43.797,38.894C43.996,37.959 43.924,36.986 43.587,36.091L39.843,37.499ZM39.885,38.059C39.845,38.246 39.752,38.418 39.618,38.554L42.462,41.366C43.134,40.687 43.598,39.829 43.797,38.894L39.885,38.059ZM39.626,38.546L37.721,40.451L40.549,43.279L42.454,41.374L39.626,38.546ZM37.397,42.854C39.71,46.922 43.078,50.29 47.147,52.604L49.124,49.127C45.681,47.169 42.831,44.319 40.874,40.877L37.397,42.854ZM49.549,52.279L51.454,50.374L48.626,47.546L46.721,49.451L49.549,52.279ZM51.446,50.382C51.582,50.248 51.754,50.155 51.941,50.115L51.107,46.203C50.172,46.403 49.314,46.866 48.634,47.538L51.446,50.382ZM51.941,50.115C52.128,50.075 52.322,50.09 52.501,50.157L53.909,46.413C53.014,46.077 52.042,46.004 51.107,46.203L51.941,50.115ZM52.506,50.159C54.008,50.719 55.569,51.108 57.159,51.318L57.682,47.352C56.391,47.182 55.124,46.866 53.904,46.411L52.506,50.159ZM57.141,51.316C57.384,51.35 57.605,51.472 57.764,51.659L60.816,49.074C60.023,48.138 58.914,47.526 57.7,47.355L57.141,51.316ZM57.764,51.659C57.923,51.846 58.007,52.085 58.001,52.331L62,52.43C62.03,51.204 61.609,50.009 60.816,49.074L57.764,51.659Z" fill="#FFFFFF"/>
<defs>
<filter id="filter2993_1207" x="-23.904297" y="-3" width="99.261272" height="92.855278" filterUnits="userSpaceOnUse" color-interpolation-filters="sRGB">
<feFlood flood-opacity="0" result="BackgroundImageFix"/>
<feBlend mode="normal" in="SourceGraphic" in2="BackgroundImageFix" result="shape"/>
<feGaussianBlur stdDeviation="15" result="0foregroundblur"/>
</filter>
</defs>
</svg>
