<svg width="70" height="70" viewBox="0 0 70 70" fill="none" xmlns="http://www.w3.org/2000/svg" xmlns:xlink="http://www.w3.org/1999/xlink">
<path d="M23.952,45.608L24.164,47.093C24.485,47.047 24.783,46.898 25.012,46.668L23.952,45.608ZM13.125,47.154L11.64,46.942C11.573,47.409 11.731,47.88 12.064,48.214C12.398,48.548 12.87,48.706 13.337,48.639L13.125,47.154ZM14.671,36.327L13.61,35.267C13.381,35.496 13.232,35.794 13.186,36.115L14.671,36.327ZM42.513,8.485L43.574,9.545L43.574,9.545L42.513,8.485ZM44.642,7.062L45.217,8.448L45.217,8.448L44.642,7.062ZM49.665,7.062L49.091,8.448L49.091,8.448L49.665,7.062ZM51.794,8.485L52.855,7.424L52.855,7.424L51.794,8.485ZM53.217,10.614L51.831,11.187L51.831,11.188L53.217,10.614ZM53.217,15.636L51.831,15.062L51.831,15.063L53.217,15.636ZM51.794,17.765L52.855,18.826L52.855,18.826L51.794,17.765ZM23.74,44.123L12.913,45.669L13.337,48.639L24.164,47.093L23.74,44.123ZM14.61,47.366L16.156,36.539L13.186,36.115L11.64,46.942L14.61,47.366ZM15.732,37.388L43.574,9.545L41.453,7.424L13.61,35.267L15.732,37.388ZM43.574,9.545C44.044,9.075 44.602,8.702 45.217,8.448L44.068,5.676C43.09,6.081 42.201,6.675 41.453,7.424L43.574,9.545ZM45.217,8.448C45.831,8.193 46.489,8.063 47.154,8.063L47.154,5.063C46.095,5.063 45.046,5.271 44.068,5.676L45.217,8.448ZM47.154,8.063C47.819,8.063 48.477,8.193 49.091,8.448L50.239,5.676C49.261,5.271 48.213,5.063 47.154,5.063L47.154,8.063ZM49.091,8.448C49.705,8.702 50.264,9.075 50.733,9.545L52.855,7.424C52.106,6.675 51.217,6.081 50.239,5.676L49.091,8.448ZM50.733,9.545C51.204,10.015 51.577,10.574 51.831,11.187L54.603,10.04C54.197,9.061 53.603,8.173 52.855,7.424L50.733,9.545ZM51.831,11.188C52.085,11.802 52.216,12.46 52.216,13.125L55.216,13.125C55.216,12.066 55.008,11.018 54.602,10.04L51.831,11.188ZM52.216,13.125C52.216,13.79 52.085,14.448 51.831,15.062L54.602,16.211C55.008,15.232 55.216,14.184 55.216,13.125L52.216,13.125ZM51.831,15.063C51.577,15.677 51.204,16.235 50.733,16.705L52.855,18.826C53.603,18.078 54.197,17.189 54.603,16.21L51.831,15.063ZM50.734,16.705L22.891,44.547L25.012,46.668L52.855,18.826L50.734,16.705Z" fill="#3BB77E"/>
<path d="M15.313,25.563C16.141,25.563 16.813,24.891 16.813,24.063C16.813,23.234 16.141,22.563 15.313,22.563L15.313,25.563ZM3.469,25.344L4.53,26.405L4.53,26.405L3.469,25.344ZM3.469,62.156L4.53,61.095L4.53,61.095L3.469,62.156ZM59.063,22.563C58.234,22.563 57.563,23.234 57.563,24.063C57.563,24.891 58.234,25.563 59.063,25.563L59.063,22.563ZM15.313,22.563L6.563,22.563L6.563,25.563L15.313,25.563L15.313,22.563ZM6.563,22.563C5.004,22.563 3.51,23.181 2.408,24.283L4.53,26.405C5.069,25.865 5.8,25.563 6.563,25.563L6.563,22.563ZM2.408,24.283C1.306,25.385 0.688,26.879 0.688,28.438L3.688,28.438C3.688,27.675 3.99,26.944 4.53,26.405L2.408,24.283ZM0.688,28.438L0.688,59.063L3.688,59.063L3.688,28.438L0.688,28.438ZM0.688,59.063C0.688,60.621 1.306,62.115 2.408,63.217L4.53,61.095C3.99,60.556 3.688,59.825 3.688,59.063L0.688,59.063ZM2.408,63.217C3.51,64.319 5.004,64.938 6.563,64.938L6.563,61.938C5.8,61.938 5.069,61.635 4.53,61.095L2.408,63.217ZM6.563,64.938L63.438,64.938L63.438,61.938L6.563,61.938L6.563,64.938ZM63.438,64.938C64.996,64.938 66.49,64.319 67.592,63.217L65.47,61.095C64.931,61.635 64.2,61.938 63.438,61.938L63.438,64.938ZM67.592,63.217C68.694,62.115 69.313,60.621 69.313,59.063L66.313,59.063C66.313,59.825 66.01,60.556 65.47,61.095L67.592,63.217ZM69.313,59.063L69.313,28.438L66.313,28.438L66.313,59.063L69.313,59.063ZM69.313,28.438C69.313,26.879 68.694,25.385 67.592,24.283L65.47,26.405C66.01,26.944 66.313,27.675 66.313,28.438L69.313,28.438ZM67.592,24.283C66.49,23.181 64.996,22.563 63.438,22.563L63.438,25.563C64.2,25.563 64.931,25.865 65.47,26.405L67.592,24.283ZM63.438,22.563L59.063,22.563L59.063,25.563L63.438,25.563L63.438,22.563Z" fill="#3BB77E"/>
<line x1="37.188" y1="51" x2="59.063" y2="51" stroke="#3BB77E" stroke-width="1.5" stroke-miterlimit="3.999327" stroke-linecap="round" stroke-linejoin="round"/>
<line x1="45.938" y1="40.063" x2="59.063" y2="40.063" stroke="#3BB77E" stroke-width="1.5" stroke-miterlimit="3.999327" stroke-linecap="round" stroke-linejoin="round"/>
</svg>
