<svg width="92" height="90" viewBox="0 0 92 90" fill="none" xmlns="http://www.w3.org/2000/svg" xmlns:xlink="http://www.w3.org/1999/xlink">
<path d="M90.215,44.354C90.215,69.207 70.068,89.354 45.215,89.354C20.362,89.354 0.215,69.207 0.215,44.354C0.215,19.502 20.362,-0.646 45.215,-0.646C70.068,-0.646 90.215,19.502 90.215,44.354Z" fill="#FFFFFF" stroke="#3BB77E" stroke-width="1" stroke-miterlimit="3.999327"/>
<path d="M47.532,49.663L41.842,43.811L30.882,49.81L42.896,37.191L48.585,43.043L59.541,37.044L47.529,49.663L47.532,49.663ZM45.214,22.354C33.064,22.354 23.215,31.471 23.215,42.72C23.215,49.117 26.402,54.826 31.389,58.56L31.389,66.354L38.896,62.232C40.896,62.786 43.018,63.085 45.214,63.085C57.365,63.085 67.215,53.966 67.215,42.72C67.215,31.471 57.365,22.354 45.214,22.354L45.214,22.354Z" clip-rule="evenodd" fill-rule="evenodd" fill="#3BB77E"/>
</svg>
