<svg width="106" height="62" viewBox="0 0 106 62" fill="none" xmlns="http://www.w3.org/2000/svg" xmlns:xlink="http://www.w3.org/1999/xlink">
<path d="M37.996,56.367C42.534,56.367 46.212,53.171 46.212,49.227C46.212,45.284 42.534,42.088 37.996,42.088C33.458,42.088 29.779,45.284 29.779,49.227C29.779,53.171 33.458,56.367 37.996,56.367Z" transform="rotate(-85.98 37.996 49.227)" fill="url(#pf_0_2934_958)"/>
<path d="M81.916,56.371C86.453,56.371 90.132,53.175 90.132,49.231C90.132,45.288 86.453,42.092 81.916,42.092C77.378,42.092 73.699,45.288 73.699,49.231C73.699,53.175 77.378,56.371 81.916,56.371Z" transform="rotate(-85.98 81.916 49.231)" fill="url(#pf_0_2934_959)"/>
<path d="M8.036,16.582C8.036,14.666 6.483,13.113 4.568,13.113C2.652,13.113 1.1,14.666 1.1,16.582C1.1,18.497 2.652,20.05 4.568,20.05C6.483,20.05 8.036,18.497 8.036,16.582Z" fill="url(#pf_0_2934_960)"/>
<path d="M70.379,48.503C71.612,42.41 77.368,37.567 83.555,37.567C89.513,37.567 93.807,42.058 93.689,47.833C100.132,48.002 101.926,39.517 101.926,39.517C102.468,37.145 103.279,32.519 103.957,27.98C104.18,26.578 104.009,25.142 103.464,23.832C101.779,19.9 99.744,16.128 97.382,12.562C95.148,9.229 91.4,7.255 87.122,7.184C84.571,7.143 82.066,7.119 80.175,7.119L80.159,7.102C79.915,3.024 76.942,-0.1 72.767,-0.474C70.052,-0.716 59.294,-0.893 54.131,-0.893C52.079,-0.893 49.136,-0.864 46.158,-0.815L46.158,-0.828L46.134,-0.828L10.331,-0.828C9.875,-0.828 9.424,-0.738 9.003,-0.564C8.582,-0.39 8.199,-0.134 7.877,0.188C7.555,0.51 7.299,0.893 7.125,1.314C6.951,1.735 6.861,2.186 6.861,2.642L6.861,2.658C6.861,3.574 7.225,4.452 7.873,5.1C8.52,5.747 9.399,6.111 10.315,6.111L17.532,6.111C18.401,6.175 19.213,6.566 19.807,7.204C20.4,7.842 20.73,8.681 20.731,9.552L20.731,9.57C20.732,10.027 20.644,10.478 20.47,10.9C20.297,11.322 20.042,11.706 19.72,12.029C19.398,12.352 19.015,12.608 18.594,12.784C18.173,12.959 17.722,13.049 17.266,13.05L13.565,13.05C12.645,13.05 11.763,13.415 11.113,14.065C10.463,14.716 10.097,15.598 10.097,16.517C10.097,16.973 10.186,17.424 10.361,17.845C10.535,18.266 10.79,18.648 11.112,18.97C11.434,19.293 11.816,19.548 12.237,19.722C12.658,19.897 13.109,19.987 13.565,19.987L17.266,19.987C18.186,19.987 19.068,20.352 19.719,21.003C20.369,21.653 20.735,22.536 20.735,23.456C20.735,24.376 20.369,25.259 19.719,25.909C19.068,26.56 18.186,26.925 17.266,26.925L3.421,26.925C2.501,26.925 1.619,27.291 0.968,27.941C0.317,28.591 -0.048,29.473 -0.049,30.393L-0.049,30.393C-0.049,31.313 0.317,32.195 0.967,32.846C1.618,33.497 2.5,33.862 3.421,33.862L17.266,33.862C18.186,33.862 19.068,34.228 19.719,34.878C20.369,35.529 20.735,36.411 20.735,37.331L20.735,37.331C20.734,38.251 20.368,39.132 19.717,39.782C19.067,40.432 18.185,40.797 17.266,40.797L12.984,40.797C12.064,40.797 11.182,41.162 10.532,41.812C9.882,42.463 9.516,43.345 9.516,44.264C9.516,45.184 9.882,46.066 10.532,46.717C11.182,47.367 12.064,47.733 12.984,47.733L26.646,47.723L27.781,44.894C30.107,40.604 34.734,37.565 39.634,37.565C45.823,37.565 50.219,42.412 49.735,48.509L70.377,48.509L70.379,48.503ZM35.967,14.665L31.312,14.665C31.307,14.665 31.303,14.667 31.3,14.67C31.297,14.673 31.294,14.677 31.293,14.681L30.865,17.728C30.864,17.73 30.864,17.733 30.865,17.735C30.865,17.738 30.866,17.74 30.868,17.742C30.869,17.744 30.871,17.746 30.874,17.747C30.876,17.748 30.879,17.748 30.881,17.748L34.346,17.748C34.516,17.743 34.685,17.777 34.841,17.845C34.997,17.914 35.135,18.017 35.246,18.146C35.357,18.275 35.438,18.427 35.482,18.591C35.527,18.755 35.534,18.927 35.504,19.095C35.445,19.463 35.259,19.799 34.979,20.045C34.698,20.29 34.341,20.431 33.969,20.442L30.499,20.442C30.495,20.442 30.491,20.443 30.487,20.445C30.484,20.448 30.482,20.452 30.481,20.456L29.859,24.882C29.8,25.25 29.614,25.586 29.334,25.832C29.054,26.077 28.696,26.218 28.324,26.229C28.154,26.234 27.985,26.2 27.829,26.132C27.674,26.063 27.535,25.96 27.425,25.831C27.314,25.702 27.233,25.55 27.189,25.386C27.144,25.221 27.137,25.049 27.168,24.882L28.781,13.401C28.845,13.013 29.042,12.658 29.338,12.399C29.635,12.139 30.012,11.991 30.406,11.979L36.343,11.979C36.513,11.975 36.682,12.008 36.838,12.077C36.993,12.145 37.131,12.248 37.242,12.377C37.353,12.506 37.434,12.658 37.478,12.823C37.522,12.987 37.529,13.159 37.499,13.326C37.439,13.692 37.253,14.026 36.973,14.27C36.694,14.515 36.338,14.654 35.967,14.665L35.967,14.665ZM48.411,12.894C48.894,13.323 49.235,13.89 49.386,14.519C49.555,15.231 49.582,15.969 49.467,16.692C49.326,17.817 48.865,18.877 48.141,19.749C47.698,20.272 47.136,20.681 46.501,20.941C46.498,20.944 46.497,20.948 46.497,20.952C46.497,20.957 46.498,20.961 46.501,20.964L47.655,24.293C47.966,25.187 47.168,26.229 46.174,26.229L46.109,26.229C45.868,26.236 45.631,26.166 45.433,26.029C45.234,25.893 45.084,25.696 45.004,25.469L43.609,21.406C43.607,21.403 43.604,21.401 43.601,21.399C43.598,21.397 43.594,21.396 43.591,21.396L40.625,21.396C40.621,21.397 40.617,21.398 40.614,21.401C40.61,21.403 40.608,21.407 40.607,21.411L40.119,24.88C40.06,25.248 39.874,25.584 39.594,25.83C39.313,26.075 38.956,26.216 38.584,26.227C38.414,26.232 38.245,26.198 38.089,26.13C37.933,26.061 37.795,25.958 37.684,25.829C37.574,25.7 37.493,25.548 37.449,25.383C37.404,25.219 37.397,25.047 37.428,24.88L39.041,13.399C39.104,13.011 39.302,12.656 39.598,12.397C39.894,12.137 40.272,11.989 40.666,11.977L45.256,11.977C45.256,11.977 47.271,11.914 48.411,12.894L48.411,12.894ZM61.045,13.231C60.99,13.574 60.816,13.888 60.555,14.118C60.293,14.347 59.959,14.478 59.611,14.488L54.271,14.488C54.267,14.488 54.263,14.49 54.26,14.492C54.256,14.495 54.254,14.498 54.253,14.502L53.828,17.517C53.827,17.519 53.827,17.522 53.828,17.524C53.828,17.527 53.83,17.529 53.831,17.531C53.833,17.533 53.835,17.534 53.837,17.535C53.839,17.537 53.842,17.537 53.844,17.537L57.992,17.537C58.151,17.532 58.309,17.563 58.454,17.627C58.6,17.691 58.729,17.787 58.832,17.908C58.936,18.028 59.011,18.17 59.053,18.324C59.094,18.477 59.101,18.638 59.073,18.794C59.018,19.138 58.844,19.452 58.582,19.681C58.32,19.911 57.987,20.042 57.639,20.052L53.489,20.052C53.485,20.052 53.481,20.053 53.477,20.056C53.474,20.058 53.472,20.062 53.471,20.066L52.961,23.694C52.961,23.699 52.963,23.704 52.966,23.707C52.969,23.711 52.974,23.713 52.979,23.714L58.315,23.714C58.474,23.709 58.632,23.74 58.777,23.804C58.923,23.868 59.052,23.964 59.155,24.085C59.259,24.205 59.334,24.347 59.376,24.501C59.417,24.654 59.424,24.815 59.396,24.971L59.396,24.971C59.341,25.315 59.167,25.629 58.905,25.858C58.643,26.088 58.31,26.219 57.962,26.229L51.34,26.229C51.161,26.231 50.984,26.194 50.821,26.121C50.658,26.047 50.514,25.939 50.397,25.803C50.281,25.667 50.196,25.508 50.148,25.336C50.101,25.164 50.091,24.983 50.121,24.807L51.724,13.407C51.788,13.019 51.985,12.664 52.281,12.405C52.578,12.146 52.955,11.997 53.349,11.986L59.969,11.986C60.126,11.982 60.282,12.013 60.426,12.077C60.57,12.14 60.698,12.235 60.801,12.354C60.903,12.473 60.979,12.614 61.021,12.765C61.063,12.917 61.072,13.076 61.045,13.231ZM72.138,13.231C72.083,13.574 71.909,13.888 71.647,14.118C71.385,14.347 71.052,14.478 70.704,14.488L65.364,14.488C65.359,14.488 65.355,14.49 65.352,14.492C65.349,14.495 65.346,14.498 65.345,14.502L64.923,17.517C64.922,17.519 64.922,17.522 64.923,17.524C64.923,17.527 64.924,17.529 64.926,17.531C64.927,17.533 64.929,17.534 64.932,17.535C64.934,17.537 64.936,17.537 64.939,17.537L69.087,17.537C69.246,17.532 69.404,17.563 69.549,17.627C69.694,17.691 69.824,17.787 69.927,17.908C70.031,18.028 70.106,18.17 70.148,18.324C70.189,18.477 70.196,18.638 70.167,18.794C70.112,19.138 69.939,19.452 69.677,19.681C69.415,19.911 69.081,20.042 68.733,20.052L64.581,20.052C64.577,20.052 64.573,20.053 64.57,20.056C64.567,20.058 64.564,20.062 64.563,20.066L64.053,23.694C64.053,23.699 64.055,23.704 64.059,23.707C64.062,23.711 64.067,23.713 64.072,23.714L69.408,23.714C69.567,23.709 69.724,23.74 69.87,23.804C70.015,23.868 70.144,23.964 70.248,24.085C70.352,24.205 70.427,24.347 70.469,24.501C70.51,24.654 70.517,24.815 70.488,24.971C70.433,25.315 70.26,25.629 69.998,25.858C69.736,26.088 69.402,26.219 69.054,26.229L62.432,26.229C62.254,26.231 62.077,26.194 61.914,26.121C61.751,26.047 61.606,25.939 61.49,25.803C61.374,25.667 61.289,25.508 61.241,25.336C61.193,25.164 61.184,24.983 61.214,24.807L62.816,13.407C62.88,13.019 63.077,12.664 63.374,12.405C63.67,12.146 64.048,11.997 64.441,11.986L71.061,11.986C71.218,11.982 71.375,12.013 71.518,12.077C71.662,12.14 71.79,12.235 71.893,12.354C71.996,12.473 72.071,12.614 72.114,12.765C72.156,12.917 72.164,13.076 72.138,13.231ZM79.856,11.929C81.67,11.929 84.019,11.953 86.375,11.992C89.231,12.038 91.729,13.351 93.228,15.589C94.829,18.003 96.269,20.52 97.536,23.125C98.207,24.49 96.974,26.267 95.359,26.267L78.043,26.267L79.856,11.929Z" fill="url(#pf_0_2934_961)"/>
<path d="M44.17,18.884L40.961,18.884L41.57,14.488L44.778,14.488C44.778,14.488 47.132,14.336 46.746,16.686C46.756,16.686 46.486,18.884 44.17,18.884Z" fill="url(#pf_0_2934_962)"/>
<defs>
<linearGradient id="pf_0_2934_958" x1="33.127" y1="44.005" x2="42.864" y2="54.45" gradientUnits="userSpaceOnUse">
<stop stop-color="#00B59C"/>
<stop offset="1" stop-color="#9CFFAC"/>
</linearGradient>
<linearGradient id="pf_0_2934_959" x1="77.047" y1="44.009" x2="86.784" y2="54.454" gradientUnits="userSpaceOnUse">
<stop stop-color="#00B59C"/>
<stop offset="1" stop-color="#9CFFAC"/>
</linearGradient>
<linearGradient id="pf_0_2934_960" x1="4.568" y1="13.113" x2="4.568" y2="20.05" gradientUnits="userSpaceOnUse">
<stop stop-color="#00B59C"/>
<stop offset="1" stop-color="#9CFFAC"/>
</linearGradient>
<linearGradient id="pf_0_2934_961" x1="52.002" y1="-0.893" x2="52.002" y2="48.509" gradientUnits="userSpaceOnUse">
<stop stop-color="#00B59C"/>
<stop offset="1" stop-color="#9CFFAC"/>
</linearGradient>
<linearGradient id="pf_0_2934_962" x1="43.875" y1="14.486" x2="43.875" y2="18.884" gradientUnits="userSpaceOnUse">
<stop stop-color="#00B59C"/>
<stop offset="1" stop-color="#9CFFAC"/>
</linearGradient>
</defs>
</svg>
