<svg width="48" height="50" viewBox="0 0 48 50" fill="none" xmlns="http://www.w3.org/2000/svg" xmlns:xlink="http://www.w3.org/1999/xlink">
<path d="M47.328,14.137C47.215,11.582 46.802,9.826 46.21,8.304C45.6,6.688 44.66,5.242 43.43,4.039C42.227,2.818 40.771,1.869 39.175,1.268C37.644,0.676 35.896,0.263 33.341,0.15C30.767,0.028 29.95,0 23.422,0C16.894,0 16.076,0.028 13.512,0.141C10.957,0.254 9.201,0.667 7.679,1.259C6.063,1.869 4.617,2.808 3.414,4.039C2.193,5.242 1.244,6.698 0.643,8.294C0.051,9.826 -0.362,11.573 -0.475,14.127C-0.597,16.701 -0.625,17.519 -0.625,24.047C-0.625,30.575 -0.597,31.392 -0.484,33.957C-0.371,36.512 0.042,38.268 0.634,39.79C1.244,41.406 2.193,42.852 3.414,44.055C4.617,45.276 6.073,46.225 7.669,46.826C9.201,47.418 10.948,47.831 13.503,47.943C16.067,48.057 16.884,48.084 23.413,48.084C29.941,48.084 30.758,48.057 33.323,47.943C35.878,47.831 37.634,47.418 39.156,46.826C42.387,45.576 44.942,43.022 46.192,39.79C46.783,38.259 47.197,36.512 47.309,33.957C47.422,31.392 47.45,30.575 47.45,24.047C47.45,17.519 47.441,16.701 47.328,14.137ZM42.998,33.769C42.894,36.117 42.5,37.386 42.171,38.231C41.363,40.326 39.701,41.988 37.606,42.796C36.761,43.125 35.483,43.519 33.144,43.623C30.608,43.736 29.847,43.763 23.432,43.763C17.016,43.763 16.246,43.736 13.719,43.623C11.37,43.519 10.102,43.125 9.257,42.796C8.214,42.411 7.265,41.8 6.495,41.002C5.697,40.222 5.086,39.283 4.701,38.24C4.372,37.395 3.978,36.117 3.875,33.779C3.762,31.242 3.734,30.481 3.734,24.066C3.734,17.65 3.762,16.88 3.875,14.353C3.978,12.005 4.372,10.737 4.701,9.891C5.086,8.848 5.697,7.9 6.505,7.129C7.284,6.331 8.223,5.72 9.266,5.336C10.112,5.007 11.389,4.612 13.728,4.509C16.264,4.396 17.025,4.368 23.441,4.368C29.866,4.368 30.627,4.396 33.154,4.509C35.502,4.612 36.77,5.007 37.615,5.336C38.658,5.72 39.607,6.331 40.377,7.129C41.175,7.909 41.786,8.848 42.171,9.891C42.5,10.737 42.894,12.014 42.998,14.353C43.111,16.889 43.139,17.65 43.139,24.066C43.139,30.481 43.111,31.233 42.998,33.769Z" fill="#FFFFFF"/>
<path d="M23.423,11.695C16.603,11.695 11.07,17.228 11.07,24.048C11.07,30.867 16.603,36.4 23.423,36.4C30.242,36.4 35.775,30.867 35.775,24.048C35.775,17.228 30.242,11.695 23.423,11.695ZM23.423,32.06C18.999,32.06 15.41,28.472 15.41,24.048C15.41,19.623 18.999,16.035 23.423,16.035C27.847,16.035 31.435,19.623 31.435,24.048C31.435,28.472 27.847,32.06 23.423,32.06L23.423,32.06Z" fill="#FFFFFF"/>
<path d="M39.147,11.208C39.147,12.8 37.855,14.092 36.263,14.092C34.67,14.092 33.379,12.8 33.379,11.208C33.379,9.615 34.67,8.324 36.263,8.324C37.855,8.324 39.147,9.615 39.147,11.208L39.147,11.208Z" fill="#FFFFFF"/>
</svg>
