<svg width="56" height="60" viewBox="0 0 56 60" fill="none" xmlns="http://www.w3.org/2000/svg" xmlns:xlink="http://www.w3.org/1999/xlink">
<path d="M9.902,15.963C11.458,15.317 13.126,14.984 14.811,14.984C16.495,14.984 18.163,15.317 19.719,15.963C21.275,16.609 22.688,17.556 23.877,18.749L23.884,18.756L24.001,18.874L24.117,18.756L24.124,18.749C25.313,17.556 26.726,16.609 28.282,15.963C29.838,15.317 31.506,14.984 33.191,14.984C34.875,14.984 36.543,15.317 38.099,15.963C39.655,16.609 41.067,17.555 42.256,18.748C47.346,23.839 47.459,32.258 41.428,38.402L41.415,38.415L25.415,54.415C25.04,54.79 24.531,55.001 24.001,55.001C23.47,55.001 22.961,54.79 22.586,54.415L6.573,38.402C0.542,32.258 0.655,23.839 5.745,18.748C6.934,17.555 8.347,16.609 9.902,15.963ZM14.811,18.984C13.652,18.984 12.506,19.213 11.436,19.657C10.366,20.101 9.395,20.752 8.577,21.573L8.575,21.575C5.188,24.962 4.78,30.859 9.422,35.594L24.001,50.172L38.58,35.594C43.221,30.859 42.814,24.962 39.426,21.575L39.424,21.573C38.606,20.752 37.635,20.101 36.565,19.657C35.496,19.213 34.349,18.984 33.191,18.984C32.032,18.984 30.886,19.213 29.816,19.657C28.748,20.101 27.777,20.751 26.961,21.569C26.959,21.57 26.958,21.572 26.957,21.573L25.424,23.126C25.048,23.507 24.536,23.721 24.001,23.721C23.466,23.721 22.953,23.507 22.577,23.126L21.044,21.573C21.043,21.572 21.042,21.57 21.041,21.569C20.224,20.751 19.254,20.101 18.185,19.657C17.116,19.213 15.969,18.984 14.811,18.984Z" clip-rule="evenodd" fill-rule="evenodd" fill="#000000"/>
<circle cx="39" cy="16" r="17" fill="#3BB77E" stroke="#FFFFFF" stroke-width="2" stroke-miterlimit="3.999327"/>
</svg>
