<svg width="106" height="104" viewBox="0 0 106 104" fill="none" xmlns="http://www.w3.org/2000/svg" xmlns:xlink="http://www.w3.org/1999/xlink">
<path d="M102.338,40.104L100.136,18.082C100.066,17.383 99.756,16.728 99.259,16.231L87.768,4.741C87.271,4.243 86.617,3.933 85.917,3.863L63.895,1.661C58.722,1.143 53.646,2.956 49.969,6.633L4.462,52.139C1.585,55.016 0,58.842 0,62.911C0,66.98 1.585,70.806 4.462,73.683L30.316,99.537C33.193,102.414 37.019,103.999 41.088,103.999C45.157,103.999 48.983,102.414 51.86,99.537L97.367,54.031C101.044,50.354 102.855,45.278 102.338,40.104L102.338,40.104ZM82.741,32.749C79.568,35.922 74.423,35.922 71.25,32.749C68.077,29.575 68.077,24.431 71.25,21.258C74.423,18.085 79.568,18.085 82.741,21.258C85.914,24.431 85.914,29.575 82.741,32.749Z" fill="url(#pf_0_3092_5116)"/>
<path d="M63.096,44.875L64.619,43.352C65.809,42.162 65.809,40.233 64.619,39.043C63.429,37.853 61.5,37.853 60.31,39.043L58.537,40.816C58.259,40.648 57.974,40.482 57.675,40.321C54.021,38.359 49.523,38.662 45.936,41.111C42.656,43.351 40.88,46.907 41.301,50.391C41.512,52.143 42.016,54.057 42.916,56.437L31.974,67.379C30.772,65.911 30.233,64.621 29.713,62.134C29.369,60.487 27.755,59.432 26.108,59.775C24.46,60.12 23.404,61.734 23.749,63.381C24.574,67.33 25.726,69.489 27.651,71.702L25.838,73.515C24.648,74.705 24.648,76.634 25.838,77.824C27.028,79.013 28.957,79.013 30.147,77.824L32.152,75.819C34.118,77.065 36.335,77.765 38.691,77.865C38.881,77.873 39.071,77.877 39.261,77.877C42.102,77.877 44.914,76.981 47.237,75.328C49.535,73.691 51.214,71.378 51.963,68.815C52.799,65.954 52.492,62.874 51.076,59.909C50.755,59.238 50.432,58.55 50.116,57.854L58.696,49.274C59.512,50.702 59.518,51.839 59.517,51.919C59.412,53.591 60.676,55.036 62.35,55.151C64.028,55.266 65.483,53.999 65.598,52.32C65.719,50.569 65.182,47.673 63.096,44.875L63.096,44.875ZM45.578,62.536C47.725,67.031 44.685,69.664 43.702,70.364C41.88,71.662 39.194,72.278 36.67,71.301L45.531,62.439C45.547,62.472 45.562,62.503 45.578,62.536L45.578,62.536ZM47.351,49.66C47.206,48.461 48,47.081 49.373,46.143C50.528,45.355 52.276,44.803 53.999,45.355L47.744,51.609C47.562,50.924 47.424,50.268 47.351,49.66ZM77.715,26.286C76.525,25.096 76.525,23.167 77.715,21.977L98.8,0.892C99.99,-0.297 101.919,-0.297 103.109,0.892C104.299,2.082 104.299,4.011 103.109,5.201L82.024,26.286C80.835,27.476 78.905,27.476 77.715,26.286L77.715,26.286Z" fill="url(#pf_0_3092_5117)"/>
<defs>
<linearGradient id="pf_0_3092_5116" x1="17.389" y1="86.61" x2="93.513" y2="10.486" gradientUnits="userSpaceOnUse">
<stop stop-color="#00B59C"/>
<stop offset="1" stop-color="#9CFFAC"/>
</linearGradient>
<linearGradient id="pf_0_3092_5117" x1="26.007" y1="77.992" x2="103.108" y2="0.891" gradientUnits="userSpaceOnUse">
<stop stop-color="#C3FFE8"/>
<stop offset="0.997" stop-color="#F0FFF4"/>
</linearGradient>
</defs>
</svg>
