<svg width="64" height="64" viewBox="0 0 64 64" fill="none" xmlns="http://www.w3.org/2000/svg" xmlns:xlink="http://www.w3.org/1999/xlink">
<path d="M14,57C14,54.791 15.791,53 18,53C20.209,53 22,54.791 22,57C22,59.209 20.209,61 18,61C15.791,61 14,59.209 14,57Z" clip-rule="evenodd" fill-rule="evenodd" fill="#000000"/>
<path d="M36,57C36,54.791 37.791,53 40,53C42.209,53 44,54.791 44,57C44,59.209 42.209,61 40,61C37.791,61 36,59.209 36,57Z" clip-rule="evenodd" fill-rule="evenodd" fill="#000000"/>
<path d="M0,17C0,15.895 0.895,15 2,15L10,15C10.953,15 11.774,15.673 11.961,16.607L13.641,25L46,25C46.596,25 47.161,25.266 47.541,25.725C47.921,26.184 48.076,26.789 47.965,27.375L44.762,44.17C44.487,45.551 43.736,46.792 42.639,47.675C41.548,48.553 40.183,49.022 38.783,49L19.377,49C17.977,49.022 16.612,48.553 15.521,47.675C14.424,46.792 13.673,45.552 13.399,44.171C13.399,44.171 13.399,44.172 13.399,44.171L10.058,27.478C10.044,27.423 10.033,27.367 10.024,27.31L8.361,19L2,19C0.895,19 0,18.105 0,17ZM14.441,29L17.322,43.39C17.413,43.851 17.664,44.264 18.029,44.559C18.395,44.853 18.852,45.009 19.322,45L19.36,45L38.8,45L38.838,45C39.308,45.009 39.765,44.853 40.131,44.559C40.495,44.266 40.745,43.855 40.837,43.397L43.583,29L14.441,29Z" clip-rule="evenodd" fill-rule="evenodd" fill="#000000"/>
<circle cx="47" cy="18" r="17" fill="#3BB77E" stroke="#FFFFFF" stroke-width="2" stroke-miterlimit="3.999327"/>
</svg>
