<svg width="160" height="160" viewBox="0 0 160 160" fill="none" xmlns="http://www.w3.org/2000/svg" xmlns:xlink="http://www.w3.org/1999/xlink">
<path d="M157.443,61.698L154.055,27.819C153.947,26.742 153.471,25.736 152.706,24.971L135.028,7.293C134.263,6.528 133.257,6.051 132.18,5.944L98.3,2.556C90.341,1.759 82.532,4.547 76.875,10.204L6.865,80.214C2.438,84.64 0,90.526 0,96.786C0,103.047 2.438,108.933 6.865,113.359L46.639,153.134C51.066,157.561 56.952,159.999 63.212,159.999C69.473,159.999 75.358,157.561 79.785,153.134L149.795,83.124C155.452,77.467 158.239,69.658 157.443,61.698L157.443,61.698ZM127.294,50.382C122.412,55.264 114.497,55.264 109.616,50.382C104.734,45.501 104.734,37.586 109.616,32.704C114.497,27.823 122.412,27.823 127.294,32.704C132.175,37.586 132.175,45.501 127.294,50.382Z" fill="url(#pf_0_3100_9393)"/>
<path d="M97.068,69.039L99.411,66.695C101.241,64.865 101.241,61.897 99.411,60.066C97.58,58.236 94.612,58.236 92.782,60.066L90.054,62.794C89.626,62.535 89.188,62.28 88.728,62.033C83.107,59.014 76.187,59.48 70.668,63.247C65.622,66.693 62.889,72.164 63.537,77.525C63.863,80.22 64.637,83.164 66.023,86.825L49.188,103.66C47.338,101.402 46.51,99.417 45.71,95.591C45.181,93.057 42.697,91.433 40.163,91.962C37.629,92.492 36.004,94.975 36.534,97.51C37.804,103.585 39.575,106.906 42.538,110.31L39.748,113.1C37.918,114.93 37.918,117.898 39.748,119.729C41.579,121.559 44.547,121.559 46.378,119.729L49.462,116.645C52.487,118.561 55.898,119.639 59.521,119.792C59.814,119.805 60.106,119.81 60.398,119.81C64.77,119.81 69.096,118.433 72.669,115.889C76.205,113.37 78.788,109.812 79.94,105.87C81.226,101.467 80.755,96.729 78.576,92.168C78.083,91.136 77.585,90.076 77.099,89.007L90.299,75.806C91.555,78.003 91.564,79.752 91.563,79.876C91.4,82.448 93.346,84.671 95.92,84.848C98.502,85.025 100.74,83.075 100.917,80.492C101.103,77.798 100.277,73.343 97.068,69.039L97.068,69.039ZM70.117,96.21C73.42,103.125 68.743,107.175 67.231,108.252C64.428,110.249 60.296,111.197 56.412,109.694L70.046,96.06C70.07,96.11 70.093,96.159 70.117,96.21L70.117,96.21ZM72.844,76.4C72.622,74.556 73.843,72.432 75.955,70.99C77.732,69.776 80.421,68.928 83.072,69.776L73.45,79.399C73.169,78.344 72.958,77.336 72.844,76.4ZM119.559,40.44C117.729,38.61 117.729,35.642 119.559,33.811L151.998,1.373C153.828,-0.458 156.796,-0.458 158.627,1.373C160.457,3.204 160.457,6.171 158.627,8.002L126.189,40.44C124.358,42.271 121.39,42.271 119.559,40.44L119.559,40.44Z" fill="url(#pf_0_3100_9394)"/>
<defs>
<linearGradient id="pf_0_3100_9393" x1="26.752" y1="133.246" x2="143.867" y2="16.132" gradientUnits="userSpaceOnUse">
<stop stop-color="#00B59C"/>
<stop offset="1" stop-color="#9CFFAC"/>
</linearGradient>
<linearGradient id="pf_0_3100_9394" x1="40.008" y1="119.988" x2="158.625" y2="1.371" gradientUnits="userSpaceOnUse">
<stop stop-color="#C3FFE8"/>
<stop offset="0.997" stop-color="#F0FFF4"/>
</linearGradient>
</defs>
</svg>
