<svg width="52" height="62" viewBox="0 0 52 62" fill="none" xmlns="http://www.w3.org/2000/svg" xmlns:xlink="http://www.w3.org/1999/xlink">
<path d="M38.357,39.509C44.95,35.606 49.949,32.632 50.38,32.401C51.758,31.611 53.181,29.52 50.38,27.895C49.475,27.384 44.605,24.503 38.357,20.787L29.695,30.217L38.357,39.509Z" fill="#FFFFFF" stroke="#081C27" stroke-width="1.8" stroke-miterlimit="3.999327"/>
<path d="M29.689,30.219L2.109,60.184C2.757,60.277 3.488,60.092 4.349,59.581C6.158,58.514 25.336,47.223 38.351,39.513L29.689,30.219Z" fill="#FFFFFF" stroke="#081C27" stroke-width="1.8" stroke-miterlimit="3.999327"/>
<path d="M29.691,30.218L38.353,20.834C38.353,20.834 6.291,1.972 4.351,0.858C3.62,0.391 2.801,0.252 2.068,0.391L29.691,30.218Z" fill="#FFFFFF" stroke="#081C27" stroke-width="1.8" stroke-miterlimit="3.999327"/>
<path d="M29.691,30.218L2.068,0.391C0.947,0.67 0,1.738 0,3.921C0,7.406 0,53.771 0,56.652C0,58.651 0.733,60.091 2.111,60.229L29.691,30.218Z" fill="#FFFFFF" stroke="#081C27" stroke-width="1.8" stroke-miterlimit="3.999327"/>
</svg>
