<svg width="106" height="62" viewBox="0 0 106 62" fill="none" xmlns="http://www.w3.org/2000/svg" xmlns:xlink="http://www.w3.org/1999/xlink">
<path d="M38,56.369C42.537,56.369 46.216,53.173 46.216,49.229C46.216,45.286 42.537,42.09 38,42.09C33.462,42.09 29.783,45.286 29.783,49.229C29.783,53.173 33.462,56.369 38,56.369Z" transform="rotate(-85.98 38 49.229)" fill="url(#pf_0_2740_2103)"/>
<path d="M81.918,56.373C86.455,56.373 90.134,53.177 90.134,49.233C90.134,45.29 86.455,42.094 81.918,42.094C77.38,42.094 73.701,45.29 73.701,49.233C73.701,53.177 77.38,56.373 81.918,56.373Z" transform="rotate(-85.98 81.918 49.233)" fill="url(#pf_0_2740_2104)"/>
<path d="M8.038,16.582C8.038,14.666 6.485,13.113 4.57,13.113C2.654,13.113 1.102,14.666 1.102,16.582C1.102,18.497 2.654,20.05 4.57,20.05C6.485,20.05 8.038,18.497 8.038,16.582Z" fill="url(#pf_0_2740_2105)"/>
<path d="M70.381,48.505C71.614,42.412 77.37,37.569 83.557,37.569C89.515,37.569 93.809,42.06 93.691,47.835C100.134,48.004 101.928,39.519 101.928,39.519C102.47,37.147 103.281,32.521 103.959,27.982C104.182,26.58 104.011,25.144 103.466,23.834C101.781,19.902 99.746,16.13 97.384,12.564C95.15,9.231 91.402,7.257 87.124,7.186C84.573,7.145 82.068,7.121 80.177,7.121L80.161,7.104C79.917,3.026 76.944,-0.098 72.769,-0.472C70.054,-0.714 59.296,-0.891 54.133,-0.891C52.081,-0.891 49.138,-0.862 46.16,-0.813L46.16,-0.826L46.136,-0.826L10.333,-0.826C9.877,-0.826 9.426,-0.736 9.005,-0.562C8.584,-0.388 8.201,-0.132 7.879,0.19C7.557,0.512 7.301,0.895 7.127,1.316C6.953,1.737 6.863,2.188 6.863,2.644L6.863,2.66C6.863,3.576 7.227,4.454 7.875,5.102C8.522,5.749 9.401,6.113 10.317,6.113L17.534,6.113C18.403,6.177 19.215,6.567 19.809,7.206C20.402,7.844 20.732,8.683 20.733,9.554L20.733,9.572C20.734,10.028 20.646,10.48 20.472,10.902C20.299,11.324 20.044,11.708 19.722,12.031C19.4,12.354 19.017,12.61 18.596,12.786C18.175,12.961 17.724,13.051 17.268,13.052L13.567,13.052C12.647,13.052 11.765,13.417 11.115,14.067C10.465,14.718 10.099,15.6 10.099,16.519C10.099,16.975 10.188,17.426 10.363,17.847C10.537,18.268 10.792,18.65 11.114,18.972C11.436,19.295 11.818,19.55 12.239,19.724C12.66,19.899 13.111,19.989 13.567,19.989L17.268,19.989C18.188,19.989 19.07,20.354 19.721,21.005C20.371,21.655 20.737,22.538 20.737,23.458C20.737,24.378 20.371,25.261 19.721,25.911C19.07,26.562 18.188,26.927 17.268,26.927L3.423,26.927C2.503,26.927 1.621,27.293 0.97,27.943C0.319,28.593 -0.046,29.475 -0.047,30.395L-0.047,30.395C-0.047,31.315 0.319,32.197 0.969,32.848C1.62,33.499 2.502,33.864 3.423,33.864L17.268,33.864C18.188,33.864 19.07,34.23 19.721,34.88C20.371,35.531 20.737,36.413 20.737,37.333L20.737,37.333C20.736,38.253 20.37,39.134 19.719,39.784C19.069,40.434 18.187,40.799 17.268,40.799L12.986,40.799C12.066,40.799 11.184,41.164 10.534,41.814C9.884,42.465 9.518,43.347 9.518,44.266C9.518,45.186 9.884,46.068 10.534,46.719C11.184,47.369 12.066,47.735 12.986,47.735L26.648,47.725L27.783,44.896C30.109,40.606 34.736,37.567 39.636,37.567C45.825,37.567 50.221,42.414 49.737,48.511L70.379,48.511L70.381,48.505ZM35.969,14.667L31.314,14.667C31.309,14.667 31.305,14.669 31.302,14.672C31.299,14.675 31.296,14.679 31.295,14.683L30.867,17.73C30.866,17.732 30.866,17.735 30.867,17.737C30.867,17.74 30.868,17.742 30.87,17.744C30.871,17.746 30.873,17.748 30.876,17.749C30.878,17.75 30.881,17.75 30.883,17.75L34.348,17.75C34.518,17.745 34.687,17.778 34.843,17.847C34.999,17.916 35.137,18.019 35.248,18.148C35.359,18.277 35.44,18.429 35.484,18.593C35.529,18.757 35.536,18.929 35.506,19.097C35.447,19.465 35.261,19.801 34.981,20.047C34.7,20.292 34.343,20.433 33.971,20.444L30.501,20.444C30.497,20.444 30.493,20.445 30.489,20.447C30.486,20.45 30.484,20.454 30.483,20.458L29.861,24.884C29.802,25.252 29.616,25.588 29.336,25.834C29.056,26.079 28.698,26.22 28.326,26.231C28.156,26.236 27.987,26.202 27.831,26.134C27.676,26.065 27.537,25.962 27.427,25.833C27.316,25.704 27.235,25.552 27.191,25.388C27.146,25.223 27.139,25.051 27.17,24.884L28.783,13.403C28.847,13.015 29.044,12.66 29.34,12.401C29.637,12.141 30.014,11.993 30.408,11.981L36.345,11.981C36.515,11.976 36.684,12.01 36.84,12.078C36.995,12.147 37.133,12.25 37.244,12.379C37.355,12.508 37.436,12.66 37.48,12.825C37.524,12.989 37.531,13.161 37.501,13.328C37.441,13.694 37.255,14.028 36.975,14.272C36.696,14.517 36.34,14.656 35.969,14.667L35.969,14.667ZM48.413,12.895C48.896,13.325 49.237,13.892 49.388,14.52C49.557,15.233 49.584,15.971 49.469,16.694C49.328,17.819 48.867,18.879 48.143,19.751C47.7,20.274 47.138,20.683 46.503,20.943C46.5,20.946 46.499,20.95 46.499,20.954C46.499,20.959 46.5,20.963 46.503,20.966L47.657,24.295C47.968,25.189 47.17,26.231 46.176,26.231L46.111,26.231C45.87,26.238 45.633,26.168 45.435,26.031C45.236,25.895 45.086,25.698 45.006,25.471L43.611,21.408C43.609,21.405 43.606,21.403 43.603,21.401C43.6,21.399 43.596,21.398 43.593,21.398L40.627,21.398C40.623,21.399 40.619,21.4 40.616,21.403C40.612,21.405 40.61,21.409 40.609,21.413L40.121,24.882C40.062,25.25 39.876,25.586 39.596,25.832C39.315,26.077 38.958,26.218 38.586,26.229C38.416,26.234 38.247,26.2 38.091,26.132C37.935,26.063 37.797,25.96 37.686,25.831C37.576,25.702 37.495,25.55 37.451,25.385C37.406,25.221 37.399,25.049 37.43,24.882L39.043,13.401C39.106,13.013 39.304,12.658 39.6,12.399C39.896,12.139 40.274,11.991 40.668,11.979L45.258,11.979C45.258,11.979 47.273,11.916 48.413,12.895L48.413,12.895ZM61.047,13.233C60.992,13.576 60.818,13.89 60.557,14.12C60.295,14.349 59.961,14.48 59.613,14.49L54.273,14.49C54.269,14.49 54.265,14.492 54.262,14.494C54.258,14.497 54.256,14.5 54.255,14.504L53.83,17.519C53.829,17.521 53.829,17.524 53.83,17.526C53.83,17.529 53.832,17.531 53.833,17.533C53.835,17.535 53.837,17.536 53.839,17.537C53.841,17.538 53.844,17.539 53.846,17.539L57.994,17.539C58.153,17.534 58.311,17.565 58.456,17.629C58.602,17.693 58.731,17.789 58.834,17.91C58.938,18.03 59.013,18.172 59.055,18.326C59.096,18.479 59.103,18.64 59.075,18.796C59.02,19.14 58.846,19.454 58.584,19.683C58.322,19.913 57.989,20.044 57.641,20.054L53.491,20.054C53.487,20.054 53.483,20.055 53.479,20.058C53.476,20.06 53.474,20.064 53.473,20.068L52.963,23.696C52.963,23.701 52.965,23.706 52.968,23.709C52.971,23.713 52.976,23.715 52.981,23.716L58.317,23.716C58.476,23.711 58.634,23.742 58.779,23.806C58.925,23.87 59.054,23.966 59.157,24.087C59.261,24.207 59.336,24.349 59.378,24.503C59.419,24.656 59.426,24.817 59.398,24.973L59.398,24.973C59.343,25.317 59.169,25.631 58.907,25.86C58.645,26.09 58.312,26.221 57.964,26.231L51.342,26.231C51.163,26.233 50.986,26.196 50.823,26.123C50.66,26.049 50.516,25.941 50.399,25.805C50.283,25.669 50.198,25.51 50.15,25.338C50.103,25.166 50.093,24.985 50.123,24.809L51.726,13.409C51.79,13.021 51.987,12.666 52.283,12.407C52.58,12.147 52.957,11.999 53.351,11.987L59.971,11.987C60.128,11.984 60.284,12.015 60.428,12.079C60.572,12.142 60.7,12.237 60.803,12.356C60.905,12.475 60.981,12.615 61.023,12.767C61.065,12.919 61.074,13.078 61.047,13.233ZM72.14,13.233C72.085,13.576 71.911,13.89 71.649,14.12C71.387,14.349 71.054,14.48 70.706,14.49L65.366,14.49C65.361,14.49 65.357,14.492 65.354,14.494C65.351,14.497 65.348,14.5 65.347,14.504L64.925,17.519C64.924,17.521 64.924,17.524 64.925,17.526C64.925,17.529 64.926,17.531 64.928,17.533C64.929,17.535 64.931,17.536 64.934,17.537C64.936,17.538 64.938,17.539 64.941,17.539L69.089,17.539C69.248,17.534 69.406,17.565 69.551,17.629C69.696,17.693 69.826,17.789 69.929,17.91C70.033,18.03 70.108,18.172 70.15,18.326C70.191,18.479 70.198,18.64 70.169,18.796C70.114,19.14 69.941,19.454 69.679,19.683C69.417,19.913 69.083,20.044 68.735,20.054L64.583,20.054C64.579,20.054 64.575,20.055 64.572,20.058C64.569,20.06 64.566,20.064 64.565,20.068L64.055,23.696C64.055,23.701 64.057,23.706 64.061,23.709C64.064,23.713 64.069,23.715 64.074,23.716L69.41,23.716C69.569,23.711 69.726,23.742 69.872,23.806C70.017,23.87 70.146,23.966 70.25,24.087C70.354,24.207 70.429,24.349 70.471,24.503C70.512,24.656 70.519,24.817 70.49,24.973C70.435,25.317 70.262,25.631 70,25.86C69.738,26.09 69.404,26.221 69.056,26.231L62.434,26.231C62.256,26.233 62.079,26.196 61.916,26.123C61.753,26.049 61.608,25.941 61.492,25.805C61.376,25.669 61.291,25.51 61.243,25.338C61.195,25.166 61.186,24.985 61.216,24.809L62.818,13.409C62.882,13.021 63.079,12.666 63.376,12.407C63.672,12.147 64.05,11.999 64.443,11.987L71.063,11.987C71.22,11.984 71.377,12.015 71.52,12.079C71.664,12.142 71.792,12.237 71.895,12.356C71.998,12.475 72.073,12.615 72.116,12.767C72.158,12.919 72.166,13.078 72.14,13.233ZM79.858,11.931C81.672,11.931 84.021,11.955 86.377,11.994C89.233,12.04 91.731,13.352 93.23,15.591C94.831,18.005 96.271,20.522 97.538,23.127C98.209,24.492 96.976,26.269 95.361,26.269L78.045,26.269L79.858,11.931Z" fill="url(#pf_0_2740_2106)"/>
<path d="M44.17,18.886L40.961,18.886L41.57,14.49L44.778,14.49C44.778,14.49 47.132,14.338 46.746,16.688C46.756,16.688 46.486,18.886 44.17,18.886Z" fill="url(#pf_0_2740_2107)"/>
<defs>
<linearGradient id="pf_0_2740_2103" x1="33.131" y1="44.007" x2="42.868" y2="54.452" gradientUnits="userSpaceOnUse">
<stop stop-color="#00B59C"/>
<stop offset="1" stop-color="#9CFFAC"/>
</linearGradient>
<linearGradient id="pf_0_2740_2104" x1="77.049" y1="44.011" x2="86.786" y2="54.456" gradientUnits="userSpaceOnUse">
<stop stop-color="#00B59C"/>
<stop offset="1" stop-color="#9CFFAC"/>
</linearGradient>
<linearGradient id="pf_0_2740_2105" x1="4.57" y1="13.113" x2="4.57" y2="20.05" gradientUnits="userSpaceOnUse">
<stop stop-color="#00B59C"/>
<stop offset="1" stop-color="#9CFFAC"/>
</linearGradient>
<linearGradient id="pf_0_2740_2106" x1="52.004" y1="-0.891" x2="52.004" y2="48.511" gradientUnits="userSpaceOnUse">
<stop stop-color="#00B59C"/>
<stop offset="1" stop-color="#9CFFAC"/>
</linearGradient>
<linearGradient id="pf_0_2740_2107" x1="43.875" y1="14.488" x2="43.875" y2="18.886" gradientUnits="userSpaceOnUse">
<stop stop-color="#00B59C"/>
<stop offset="1" stop-color="#9CFFAC"/>
</linearGradient>
</defs>
</svg>
