<svg width="56" height="60" viewBox="0 0 56 60" fill="none" xmlns="http://www.w3.org/2000/svg" xmlns:xlink="http://www.w3.org/1999/xlink">
<path d="M9.902,16.963C11.458,16.317 13.126,15.984 14.811,15.984C16.495,15.984 18.163,16.317 19.719,16.963C21.275,17.609 22.688,18.556 23.877,19.749L23.884,19.756L24.001,19.874L24.117,19.756L24.124,19.749C25.313,18.556 26.726,17.609 28.282,16.963C29.838,16.317 31.506,15.984 33.191,15.984C34.875,15.984 36.543,16.317 38.099,16.963C39.655,17.609 41.067,18.555 42.256,19.748C47.346,24.839 47.459,33.258 41.428,39.402L41.415,39.415L25.415,55.415C25.04,55.79 24.531,56.001 24.001,56.001C23.47,56.001 22.961,55.79 22.586,55.415L6.573,39.402C0.542,33.258 0.655,24.839 5.745,19.748C6.934,18.555 8.347,17.609 9.902,16.963ZM14.811,19.984C13.652,19.984 12.506,20.213 11.436,20.657C10.366,21.101 9.395,21.752 8.577,22.573L8.575,22.575C5.188,25.962 4.78,31.859 9.422,36.594L24.001,51.172L38.58,36.594C43.221,31.859 42.814,25.962 39.426,22.575L39.424,22.573C38.606,21.752 37.635,21.101 36.565,20.657C35.496,20.213 34.349,19.984 33.191,19.984C32.032,19.984 30.886,20.213 29.816,20.657C28.748,21.101 27.777,21.751 26.961,22.569C26.959,22.57 26.958,22.572 26.957,22.573L25.424,24.126C25.048,24.507 24.536,24.721 24.001,24.721C23.466,24.721 22.953,24.507 22.577,24.126L21.044,22.573C21.043,22.572 21.042,22.57 21.041,22.569C20.224,21.751 19.254,21.101 18.185,20.657C17.116,20.213 15.969,19.984 14.811,19.984Z" clip-rule="evenodd" fill-rule="evenodd" fill="#000000"/>
<circle cx="39" cy="17" r="17" fill="#3BB77E" stroke="#FFFFFF" stroke-width="2" stroke-miterlimit="3.999327"/>
</svg>
