<svg width="56" height="62" viewBox="0 0 56 62" fill="none" xmlns="http://www.w3.org/2000/svg" xmlns:xlink="http://www.w3.org/1999/xlink">
<path d="M9.902,17.963C11.458,17.317 13.126,16.984 14.811,16.984C16.495,16.984 18.163,17.317 19.719,17.963C21.275,18.609 22.688,19.556 23.877,20.749L23.884,20.756L24.001,20.874L24.117,20.756L24.124,20.749C25.313,19.556 26.726,18.609 28.282,17.963C29.838,17.317 31.506,16.984 33.191,16.984C34.875,16.984 36.543,17.317 38.099,17.963C39.655,18.609 41.067,19.555 42.256,20.748C47.346,25.839 47.459,34.258 41.428,40.402L41.415,40.415L25.415,56.415C25.04,56.79 24.531,57.001 24.001,57.001C23.47,57.001 22.961,56.79 22.586,56.415L6.573,40.402C0.542,34.258 0.655,25.839 5.745,20.748C6.934,19.555 8.347,18.609 9.902,17.963ZM14.811,20.984C13.652,20.984 12.506,21.213 11.436,21.657C10.366,22.101 9.395,22.752 8.577,23.573L8.575,23.575C5.188,26.962 4.78,32.859 9.422,37.594L24.001,52.172L38.58,37.594C43.221,32.859 42.814,26.962 39.426,23.575L39.424,23.573C38.606,22.752 37.635,22.101 36.565,21.657C35.496,21.213 34.349,20.984 33.191,20.984C32.032,20.984 30.886,21.213 29.816,21.657C28.748,22.101 27.777,22.751 26.961,23.569C26.959,23.57 26.958,23.572 26.957,23.573L25.424,25.126C25.048,25.507 24.536,25.721 24.001,25.721C23.466,25.721 22.953,25.507 22.577,25.126L21.044,23.573C21.043,23.572 21.042,23.57 21.041,23.569C20.224,22.751 19.254,22.101 18.185,21.657C17.116,21.213 15.969,20.984 14.811,20.984Z" clip-rule="evenodd" fill-rule="evenodd" fill="#000000"/>
<circle cx="39" cy="18" r="17" fill="#3BB77E" stroke="#FFFFFF" stroke-width="2" stroke-miterlimit="3.999327"/>
</svg>
