<svg width="134" height="76" viewBox="0 0 134 76" fill="none" xmlns="http://www.w3.org/2000/svg" xmlns:xlink="http://www.w3.org/1999/xlink">
<path d="M48.225,71.042C53.904,71.042 58.508,67.05 58.508,62.126C58.508,57.202 53.904,53.21 48.225,53.21C42.546,53.21 37.943,57.202 37.943,62.126C37.943,67.05 42.546,71.042 48.225,71.042Z" transform="rotate(-84.223 48.225 62.126)" fill="url(#pf_0_2887_481)"/>
<path d="M103.969,71.046C109.649,71.046 114.252,67.054 114.252,62.13C114.252,57.206 109.649,53.214 103.969,53.214C98.29,53.214 93.687,57.206 93.687,62.13C93.687,67.054 98.29,71.046 103.969,71.046Z" transform="rotate(-84.223 103.97 62.13)" fill="url(#pf_0_2887_482)"/>
<path d="M10.199,21.946C10.199,19.589 8.228,17.678 5.797,17.678C3.365,17.678 1.395,19.589 1.395,21.946C1.395,24.304 3.365,26.215 5.797,26.215C8.228,26.215 10.199,24.304 10.199,21.946Z" fill="url(#pf_0_2887_483)"/>
<path d="M89.326,61.234C90.891,53.734 98.197,47.774 106.051,47.774C113.612,47.774 119.062,53.302 118.913,60.409C127.09,60.617 129.367,50.174 129.367,50.174C130.055,47.254 131.084,41.562 131.945,35.974C132.228,34.249 132.011,32.482 131.319,30.869C129.181,26.03 126.598,21.388 123.6,16.999C120.764,12.897 116.007,10.467 110.578,10.379C107.339,10.329 104.161,10.299 101.761,10.299L101.74,10.279C101.43,5.259 97.656,1.414 92.358,0.954C88.911,0.657 75.257,0.439 68.704,0.439C66.1,0.439 62.364,0.474 58.585,0.534L58.585,0.519L58.554,0.519L13.112,0.519C12.533,0.519 11.961,0.629 11.426,0.844C10.892,1.058 10.406,1.373 9.997,1.769C9.588,2.166 9.264,2.637 9.043,3.155C8.822,3.673 8.708,4.229 8.708,4.789L8.708,4.809C8.708,5.937 9.17,7.018 9.992,7.815C10.814,8.612 11.929,9.059 13.091,9.059L22.251,9.059C23.354,9.138 24.386,9.619 25.139,10.404C25.892,11.189 26.311,12.222 26.312,13.294L26.312,13.317C26.314,13.878 26.201,14.435 25.981,14.954C25.761,15.473 25.437,15.945 25.028,16.343C24.62,16.74 24.135,17.056 23.6,17.272C23.066,17.487 22.492,17.599 21.913,17.599L17.216,17.599C16.049,17.599 14.93,18.049 14.104,18.849C13.279,19.65 12.815,20.735 12.815,21.867C12.815,22.428 12.928,22.983 13.149,23.501C13.371,24.019 13.695,24.49 14.103,24.886C14.512,25.283 14.997,25.597 15.531,25.812C16.065,26.026 16.638,26.137 17.216,26.137L21.913,26.137C23.081,26.137 24.201,26.587 25.027,27.388C25.853,28.188 26.317,29.274 26.317,30.407C26.317,31.539 25.853,32.625 25.027,33.426C24.201,34.227 23.081,34.677 21.913,34.677L4.341,34.677C3.174,34.677 2.054,35.126 1.228,35.927C0.402,36.727 -0.062,37.812 -0.063,38.944L-0.063,38.944C-0.063,40.077 0.401,41.163 1.227,41.964C2.053,42.765 3.173,43.214 4.341,43.214L21.913,43.214C23.081,43.214 24.201,43.664 25.027,44.465C25.853,45.266 26.317,46.352 26.317,47.484L26.317,47.484C26.316,48.616 25.851,49.701 25.025,50.501C24.2,51.3 23.081,51.749 21.913,51.749L16.479,51.749C15.312,51.749 14.192,52.199 13.367,52.999C12.542,53.8 12.078,54.885 12.078,56.017C12.078,57.149 12.541,58.235 13.367,59.035C14.192,59.836 15.311,60.286 16.479,60.287L33.819,60.274L35.26,56.792C38.212,51.512 44.085,47.772 50.304,47.772C58.159,47.772 63.738,53.737 63.125,61.242L89.324,61.242L89.326,61.234ZM45.65,19.587L39.741,19.587C39.735,19.587 39.73,19.59 39.726,19.593C39.722,19.597 39.719,19.602 39.718,19.607L39.174,23.357C39.173,23.36 39.173,23.363 39.174,23.366C39.175,23.369 39.176,23.372 39.178,23.374C39.18,23.377 39.182,23.379 39.185,23.38C39.188,23.381 39.191,23.382 39.195,23.382L43.593,23.382C43.809,23.376 44.023,23.417 44.221,23.501C44.418,23.586 44.594,23.712 44.735,23.871C44.875,24.03 44.978,24.217 45.035,24.419C45.091,24.622 45.101,24.833 45.063,25.039C44.987,25.492 44.751,25.906 44.395,26.208C44.04,26.511 43.586,26.684 43.113,26.697L38.71,26.697C38.704,26.697 38.699,26.698 38.695,26.702C38.691,26.705 38.688,26.709 38.687,26.714L37.898,32.162C37.822,32.615 37.587,33.028 37.231,33.331C36.875,33.633 36.422,33.806 35.949,33.819C35.733,33.825 35.518,33.785 35.321,33.7C35.124,33.615 34.948,33.489 34.807,33.33C34.667,33.171 34.565,32.984 34.508,32.782C34.452,32.58 34.443,32.368 34.482,32.162L36.529,18.032C36.61,17.554 36.86,17.117 37.236,16.798C37.612,16.479 38.091,16.296 38.591,16.282L46.127,16.282C46.343,16.276 46.557,16.317 46.755,16.401C46.952,16.486 47.128,16.612 47.268,16.771C47.409,16.93 47.511,17.118 47.568,17.32C47.624,17.522 47.633,17.734 47.594,17.939C47.518,18.39 47.282,18.801 46.927,19.102C46.572,19.402 46.121,19.574 45.65,19.587L45.65,19.587ZM61.444,17.407C62.058,17.935 62.49,18.633 62.681,19.407C62.896,20.284 62.931,21.192 62.785,22.082C62.605,23.466 62.021,24.772 61.101,25.844C60.539,26.489 59.825,26.992 59.02,27.312C59.017,27.316 59.015,27.321 59.015,27.326C59.015,27.331 59.017,27.336 59.02,27.339L60.485,31.437C60.879,32.537 59.866,33.819 58.605,33.819L58.523,33.819C58.217,33.828 57.916,33.742 57.664,33.574C57.412,33.406 57.221,33.164 57.12,32.884L55.349,27.884C55.347,27.881 55.343,27.878 55.339,27.875C55.335,27.873 55.331,27.872 55.326,27.872L51.562,27.872C51.557,27.872 51.552,27.874 51.548,27.877C51.543,27.88 51.54,27.885 51.539,27.889L50.92,32.159C50.844,32.612 50.609,33.026 50.253,33.328C49.897,33.631 49.444,33.804 48.971,33.817C48.755,33.823 48.54,33.782 48.343,33.697C48.146,33.613 47.97,33.486 47.829,33.327C47.689,33.169 47.587,32.981 47.531,32.779C47.474,32.577 47.465,32.365 47.504,32.159L49.551,18.029C49.632,17.551 49.882,17.115 50.258,16.796C50.635,16.476 51.114,16.294 51.613,16.279L57.44,16.279C57.44,16.279 59.998,16.202 61.444,17.407L61.444,17.407ZM77.48,17.822C77.41,18.245 77.19,18.631 76.857,18.914C76.525,19.196 76.101,19.357 75.66,19.369L68.882,19.369C68.876,19.37 68.872,19.372 68.867,19.375C68.863,19.378 68.86,19.382 68.858,19.387L68.32,23.097C68.319,23.1 68.319,23.103 68.32,23.106C68.32,23.109 68.321,23.112 68.323,23.114C68.325,23.117 68.328,23.119 68.331,23.12C68.334,23.121 68.337,23.122 68.34,23.122L73.605,23.122C73.806,23.116 74.007,23.154 74.191,23.233C74.376,23.312 74.54,23.43 74.671,23.578C74.803,23.727 74.898,23.902 74.951,24.09C75.004,24.279 75.013,24.477 74.976,24.669C74.906,25.093 74.686,25.479 74.354,25.761C74.021,26.044 73.598,26.205 73.156,26.217L67.889,26.217C67.884,26.217 67.879,26.219 67.875,26.222C67.871,26.225 67.868,26.23 67.866,26.234L67.219,30.699C67.219,30.706 67.221,30.712 67.226,30.716C67.23,30.721 67.236,30.724 67.242,30.724L74.015,30.724C74.216,30.719 74.417,30.757 74.601,30.836C74.786,30.915 74.95,31.032 75.081,31.181C75.213,31.329 75.308,31.504 75.361,31.693C75.414,31.882 75.423,32.079 75.386,32.272L75.386,32.272C75.316,32.695 75.096,33.081 74.764,33.364C74.431,33.646 74.008,33.807 73.566,33.819L65.161,33.819C64.935,33.822 64.71,33.777 64.503,33.687C64.297,33.596 64.113,33.463 63.965,33.296C63.818,33.129 63.71,32.932 63.649,32.72C63.589,32.508 63.577,32.286 63.614,32.069L65.649,18.039C65.73,17.561 65.98,17.125 66.356,16.806C66.732,16.486 67.212,16.304 67.711,16.289L76.113,16.289C76.313,16.285 76.511,16.323 76.694,16.402C76.876,16.48 77.039,16.597 77.169,16.743C77.3,16.89 77.395,17.062 77.449,17.249C77.503,17.435 77.513,17.631 77.48,17.822ZM91.559,17.822C91.489,18.245 91.269,18.631 90.936,18.914C90.604,19.196 90.18,19.357 89.739,19.369L82.961,19.369C82.956,19.37 82.95,19.372 82.946,19.375C82.942,19.378 82.939,19.382 82.938,19.387L82.401,23.097C82.4,23.1 82.4,23.103 82.401,23.106C82.402,23.109 82.403,23.112 82.405,23.114C82.407,23.117 82.41,23.119 82.413,23.12C82.416,23.121 82.419,23.122 82.422,23.122L87.686,23.122C87.888,23.116 88.089,23.154 88.273,23.233C88.458,23.312 88.622,23.43 88.753,23.578C88.885,23.727 88.98,23.902 89.033,24.09C89.086,24.279 89.094,24.477 89.058,24.669C88.988,25.093 88.768,25.479 88.435,25.761C88.103,26.044 87.68,26.205 87.238,26.217L81.968,26.217C81.963,26.217 81.958,26.219 81.954,26.222C81.95,26.225 81.947,26.23 81.945,26.234L81.298,30.699C81.298,30.706 81.3,30.712 81.304,30.716C81.309,30.721 81.315,30.724 81.321,30.724L88.094,30.724C88.296,30.719 88.496,30.757 88.68,30.836C88.865,30.915 89.029,31.032 89.161,31.181C89.292,31.329 89.388,31.504 89.44,31.693C89.493,31.882 89.502,32.079 89.465,32.272C89.395,32.695 89.175,33.081 88.843,33.364C88.511,33.646 88.087,33.807 87.645,33.819L79.241,33.819C79.014,33.822 78.789,33.777 78.583,33.687C78.376,33.596 78.192,33.463 78.044,33.296C77.897,33.129 77.789,32.932 77.728,32.72C77.668,32.508 77.656,32.286 77.694,32.069L79.728,18.039C79.809,17.561 80.059,17.125 80.435,16.806C80.812,16.486 81.291,16.304 81.79,16.289L90.193,16.289C90.392,16.285 90.59,16.323 90.773,16.402C90.956,16.48 91.118,16.597 91.249,16.743C91.379,16.89 91.475,17.062 91.528,17.249C91.582,17.435 91.592,17.631 91.559,17.822ZM101.356,16.219C103.658,16.219 106.638,16.249 109.629,16.297C113.254,16.354 116.425,17.969 118.327,20.724C120.36,23.695 122.186,26.794 123.796,29.999C124.646,31.679 123.082,33.867 121.032,33.867L99.054,33.867L101.356,16.219Z" fill="url(#pf_0_2887_484)"/>
<path d="M56.06,24.78L51.986,24.78L52.76,19.37L56.831,19.37C56.831,19.37 59.819,19.182 59.329,22.075C59.342,22.075 58.999,24.78 56.06,24.78Z" fill="url(#pf_0_2887_485)"/>
<defs>
<linearGradient id="pf_0_2887_481" x1="42.246" y1="55.512" x2="54.204" y2="68.741" gradientUnits="userSpaceOnUse">
<stop stop-color="#00B59C"/>
<stop offset="1" stop-color="#9CFFAC"/>
</linearGradient>
<linearGradient id="pf_0_2887_482" x1="97.99" y1="55.516" x2="109.949" y2="68.744" gradientUnits="userSpaceOnUse">
<stop stop-color="#00B59C"/>
<stop offset="1" stop-color="#9CFFAC"/>
</linearGradient>
<linearGradient id="pf_0_2887_483" x1="5.797" y1="17.678" x2="5.797" y2="26.215" gradientUnits="userSpaceOnUse">
<stop stop-color="#00B59C"/>
<stop offset="1" stop-color="#9CFFAC"/>
</linearGradient>
<linearGradient id="pf_0_2887_484" x1="66.001" y1="0.439" x2="66.001" y2="61.242" gradientUnits="userSpaceOnUse">
<stop stop-color="#00B59C"/>
<stop offset="1" stop-color="#9CFFAC"/>
</linearGradient>
<linearGradient id="pf_0_2887_485" x1="55.685" y1="19.367" x2="55.685" y2="24.78" gradientUnits="userSpaceOnUse">
<stop stop-color="#00B59C"/>
<stop offset="1" stop-color="#9CFFAC"/>
</linearGradient>
</defs>
</svg>
