<svg width="88" height="88" viewBox="0 0 88 88" fill="none" xmlns="http://www.w3.org/2000/svg" xmlns:xlink="http://www.w3.org/1999/xlink">
<path d="M5.972,36.222L4.911,35.161L4.911,35.161L5.972,36.222ZM18.445,65.194L17.384,64.134L17.384,64.134L18.445,65.194ZM16.5,64.5L13.75,64.5L13.75,67.5L16.5,67.5L16.5,64.5ZM13.75,64.5C11.23,64.5 8.814,63.499 7.032,61.717L4.911,63.839C7.255,66.183 10.435,67.5 13.75,67.5L13.75,64.5ZM7.032,61.717C5.251,59.936 4.25,57.519 4.25,55L1.25,55C1.25,58.315 2.567,61.495 4.911,63.839L7.032,61.717ZM4.25,55L4.25,44L1.25,44L1.25,55L4.25,55ZM4.25,44C4.25,41.481 5.251,39.064 7.033,37.282L4.911,35.161C2.567,37.505 1.25,40.685 1.25,44L4.25,44ZM7.032,37.282C8.814,35.501 11.23,34.5 13.75,34.5L13.75,31.5C10.435,31.5 7.255,32.817 4.911,35.161L7.032,37.282ZM13.75,34.5L16.5,34.5L16.5,31.5L13.75,31.5L13.75,34.5ZM16.5,34.5C16.832,34.5 17.149,34.632 17.384,34.866L19.505,32.745C18.708,31.948 17.627,31.5 16.5,31.5L16.5,34.5ZM17.384,34.866C17.618,35.101 17.75,35.418 17.75,35.75L20.75,35.75C20.75,34.623 20.302,33.542 19.505,32.745L17.384,34.866ZM17.75,35.75L17.75,63.25L20.75,63.25L20.75,35.75L17.75,35.75ZM17.75,63.25C17.75,63.582 17.618,63.9 17.384,64.134L19.505,66.255C20.302,65.458 20.75,64.377 20.75,63.25L17.75,63.25ZM17.384,64.134C17.149,64.368 16.832,64.5 16.5,64.5L16.5,67.5C17.627,67.5 18.708,67.052 19.505,66.255L17.384,64.134Z" fill="#0FBC9D"/>
<path d="M69.556,65.194L70.617,64.134L70.616,64.133L69.556,65.194ZM69.556,33.805L70.616,34.866L70.616,34.866L69.556,33.805ZM82.028,36.222L83.089,35.161L83.089,35.161L82.028,36.222ZM74.25,64.5L71.5,64.5L71.5,67.5L74.25,67.5L74.25,64.5ZM71.5,64.5C71.168,64.5 70.851,64.368 70.617,64.134L68.495,66.255C69.292,67.052 70.373,67.5 71.5,67.5L71.5,64.5ZM70.616,64.133C70.382,63.899 70.25,63.582 70.25,63.25L67.25,63.25C67.25,64.377 67.698,65.458 68.495,66.255L70.616,64.133ZM70.25,63.25L70.25,35.75L67.25,35.75L67.25,63.25L70.25,63.25ZM70.25,35.75C70.25,35.418 70.382,35.101 70.616,34.866L68.495,32.745C67.698,33.542 67.25,34.623 67.25,35.75L70.25,35.75ZM70.616,34.866C70.851,34.632 71.168,34.5 71.5,34.5L71.5,31.5C70.373,31.5 69.292,31.948 68.495,32.745L70.616,34.866ZM71.5,34.5L74.25,34.5L74.25,31.5L71.5,31.5L71.5,34.5ZM74.25,34.5C76.769,34.5 79.186,35.501 80.967,37.282L83.089,35.161C80.745,32.817 77.565,31.5 74.25,31.5L74.25,34.5ZM80.967,37.282C82.749,39.064 83.75,41.481 83.75,44L86.75,44C86.75,40.685 85.433,37.505 83.089,35.161L80.967,37.282ZM83.75,44L83.75,55L86.75,55L86.75,44L83.75,44ZM83.75,55C83.75,57.519 82.749,59.936 80.967,61.717L83.089,63.839C85.433,61.495 86.75,58.315 86.75,55L83.75,55ZM80.967,61.717C79.186,63.499 76.769,64.5 74.25,64.5L74.25,67.5C77.565,67.5 80.745,66.183 83.089,63.839L80.967,61.717Z" fill="#0FBC9D"/>
<path d="M12.25,33C12.25,33.828 12.922,34.5 13.75,34.5C14.578,34.5 15.25,33.828 15.25,33L12.25,33ZM22.61,11.61L23.671,12.671L23.671,12.671L22.61,11.61ZM65.39,11.61L64.329,12.671L64.329,12.671L65.39,11.61ZM72.75,33C72.75,33.828 73.422,34.5 74.25,34.5C75.078,34.5 75.75,33.828 75.75,33L72.75,33ZM15.25,33C15.25,25.375 18.279,18.062 23.671,12.671L21.549,10.549C15.595,16.504 12.25,24.579 12.25,33L15.25,33ZM23.671,12.671C29.062,7.279 36.375,4.25 44,4.25L44,1.25C35.579,1.25 27.504,4.595 21.549,10.549L23.671,12.671ZM44,4.25C51.625,4.25 58.938,7.279 64.329,12.671L66.451,10.549C60.497,4.595 52.42,1.25 44,1.25L44,4.25ZM64.329,12.671C69.721,18.062 72.75,25.375 72.75,33L75.75,33C75.75,24.579 72.405,16.504 66.451,10.549L64.329,12.671Z" fill="#0FBC9D"/>
<path d="M55,78.25C54.172,78.25 53.5,78.922 53.5,79.75C53.5,80.578 54.172,81.25 55,81.25L55,78.25ZM75.75,66C75.75,65.172 75.078,64.5 74.25,64.5C73.422,64.5 72.75,65.172 72.75,66L75.75,66ZM55,81.25L63.25,81.25L63.25,78.25L55,78.25L55,81.25ZM63.25,81.25C66.565,81.25 69.745,79.933 72.089,77.589L69.967,75.467C68.186,77.249 65.769,78.25 63.25,78.25L63.25,81.25ZM72.089,77.589C74.433,75.245 75.75,72.065 75.75,68.75L72.75,68.75C72.75,71.269 71.749,73.686 69.967,75.467L72.089,77.589ZM75.75,68.75L75.75,66L72.75,66L72.75,68.75L75.75,68.75Z" fill="#0FBC9D"/>
<path d="M49.5,83.75L44,83.75L44,86.75L49.5,86.75L49.5,83.75ZM44,83.75C42.939,83.75 41.921,83.329 41.171,82.579L39.05,84.7C40.363,86.013 42.144,86.75 44,86.75L44,83.75ZM41.171,82.579C40.421,81.829 40,80.811 40,79.75L37,79.75C37,81.606 37.737,83.387 39.05,84.7L41.171,82.579ZM40,79.75C40,78.689 40.421,77.671 41.171,76.921L39.05,74.8C37.737,76.113 37,77.894 37,79.75L40,79.75ZM41.171,76.921C41.921,76.171 42.939,75.75 44,75.75L44,72.75C42.144,72.75 40.363,73.487 39.05,74.8L41.171,76.921ZM44,75.75L49.5,75.75L49.5,72.75L44,72.75L44,75.75ZM49.5,75.75C50.561,75.75 51.579,76.171 52.329,76.921L54.45,74.8C53.137,73.487 51.356,72.75 49.5,72.75L49.5,75.75ZM52.329,76.921C53.079,77.671 53.5,78.689 53.5,79.75L56.5,79.75C56.5,77.894 55.763,76.113 54.45,74.8L52.329,76.921ZM53.5,79.75C53.5,80.811 53.079,81.829 52.329,82.579L54.45,84.7C55.763,83.387 56.5,81.606 56.5,79.75L53.5,79.75ZM52.329,82.579C51.579,83.329 50.561,83.75 49.5,83.75L49.5,86.75C51.356,86.75 53.137,86.013 54.45,84.7L52.329,82.579Z" fill="#0FBC9D"/>
<path d="M31.5,30.25C31.5,31.078 32.171,31.75 33,31.75C33.828,31.75 34.5,31.079 34.5,30.25L31.5,30.25ZM38.945,20.482L39.634,21.815L39.634,21.815L38.945,20.482ZM44.759,19.278L44.655,20.775L44.655,20.775L44.759,19.278ZM54.094,25.881L52.717,26.477L52.718,26.477L54.094,25.881ZM52.523,37.206L53.685,38.155L53.685,38.155L52.523,37.206ZM47.667,40.623L47.167,39.208L47.166,39.209L47.667,40.623ZM45.008,42.634L43.783,41.768L43.783,41.768L45.008,42.634ZM44,45.811L45.5,45.811L45.5,45.81L44,45.811ZM42.5,46.75C42.5,47.578 43.172,48.25 44,48.25C44.828,48.25 45.5,47.578 45.5,46.75L42.5,46.75ZM34.5,30.25C34.5,28.509 34.979,26.801 35.885,25.313L33.322,23.753C32.131,25.711 31.5,27.958 31.5,30.25L34.5,30.25ZM35.885,25.313C36.79,23.825 38.087,22.615 39.634,21.815L38.255,19.15C36.22,20.203 34.514,21.796 33.322,23.753L35.885,25.313ZM39.634,21.815C41.181,21.014 42.918,20.654 44.655,20.775L44.862,17.782C42.576,17.624 40.29,18.097 38.255,19.15L39.634,21.815ZM44.655,20.775C46.393,20.895 48.064,21.49 49.486,22.496L51.218,20.046C49.347,18.723 47.148,17.94 44.862,17.782L44.655,20.775ZM49.486,22.496C50.907,23.501 52.026,24.879 52.717,26.477L55.47,25.285C54.56,23.182 53.089,21.37 51.218,20.046L49.486,22.496ZM52.718,26.477C53.41,28.075 53.649,29.832 53.41,31.558L56.381,31.97C56.696,29.7 56.381,27.387 55.47,25.284L52.718,26.477ZM53.41,31.558C53.17,33.283 52.462,34.909 51.361,36.258L53.685,38.155C55.134,36.379 56.066,34.24 56.381,31.97L53.41,31.558ZM51.361,36.258C50.26,37.607 48.809,38.628 47.167,39.208L48.167,42.037C50.327,41.273 52.236,39.93 53.685,38.155L51.361,36.258ZM47.166,39.209C45.801,39.691 44.619,40.586 43.783,41.768L46.233,43.5C46.711,42.824 47.386,42.313 48.167,42.037L47.166,39.209ZM43.783,41.768C42.948,42.951 42.499,44.364 42.5,45.812L45.5,45.81C45.499,44.983 45.756,44.176 46.233,43.499L43.783,41.768ZM42.5,45.811L42.5,46.75L45.5,46.75L45.5,45.811L42.5,45.811Z" fill="#0FBC9D"/>
<path d="M44,59C44.069,59 44.125,59.056 44.125,59.125L41.125,59.125C41.125,60.713 42.412,62 44,62L44,59ZM44.125,59.125C44.125,59.194 44.069,59.25 44,59.25L44,56.25C42.412,56.25 41.125,57.537 41.125,59.125L44.125,59.125Z" fill="#0FBC9D"/>
<path d="M44,62C45.588,62 46.875,60.713 46.875,59.125L43.875,59.125C43.875,59.056 43.931,59 44,59L44,62ZM46.875,59.125C46.875,57.537 45.588,56.25 44,56.25L44,59.25C43.931,59.25 43.875,59.194 43.875,59.125L46.875,59.125Z" fill="#0FBC9D"/>
</svg>
