<svg width="22" height="40" viewBox="0 0 22 40" fill="none" xmlns="http://www.w3.org/2000/svg" xmlns:xlink="http://www.w3.org/1999/xlink">
<path d="M5.393,22.496C5.249,22.496 2.081,22.496 0.641,22.496C-0.127,22.496 -0.367,22.208 -0.367,21.488C-0.367,19.568 -0.367,17.6 -0.367,15.68C-0.367,14.912 -0.079,14.672 0.641,14.672L5.393,14.672C5.393,14.528 5.393,11.744 5.393,10.448C5.393,8.528 5.729,6.704 6.689,5.024C7.697,3.296 9.137,2.144 10.961,1.472C12.161,1.04 13.361,0.848 14.657,0.848L19.361,0.848C20.033,0.848 20.321,1.136 20.321,1.808L20.321,7.28C20.321,7.952 20.033,8.24 19.361,8.24C18.065,8.24 16.769,8.24 15.473,8.288C14.177,8.288 13.505,8.912 13.505,10.256C13.457,11.696 13.505,13.088 13.505,14.576L19.073,14.576C19.841,14.576 20.129,14.864 20.129,15.632L20.129,21.44C20.129,22.208 19.889,22.448 19.073,22.448C17.345,22.448 13.649,22.448 13.505,22.448L13.505,38.096C13.505,38.912 13.265,39.2 12.401,39.2C10.385,39.2 8.417,39.2 6.401,39.2C5.681,39.2 5.393,38.912 5.393,38.192C5.393,33.152 5.393,22.64 5.393,22.496L5.393,22.496Z" fill="#FFFFFF"/>
</svg>
