<svg width="48" height="48" viewBox="0 0 48 48" fill="none" xmlns="http://www.w3.org/2000/svg" xmlns:xlink="http://www.w3.org/1999/xlink">
<path d="M43.611,20.083L42,20.083L42,20L24,20L24,28L35.303,28C33.654,32.657 29.223,36 24,36C17.373,36 12,30.627 12,24C12,17.373 17.373,12 24,12C27.059,12 29.842,13.154 31.961,15.039L37.618,9.382C34.046,6.053 29.268,4 24,4C12.955,4 4,12.955 4,24C4,35.045 12.955,44 24,44C35.045,44 44,35.045 44,24C44,22.659 43.862,21.35 43.611,20.083Z" fill="#FFC107"/>
<path d="M6.307,14.691L12.878,19.51C14.656,15.108 18.962,12 24.001,12C27.06,12 29.843,13.154 31.962,15.039L37.619,9.382C34.047,6.053 29.269,4 24.001,4C16.319,4 9.657,8.337 6.307,14.691Z" fill="#FF3D00"/>
<path d="M24,44.001C29.166,44.001 33.86,42.024 37.409,38.809L31.219,33.571C29.211,35.092 26.715,36.001 24,36.001C18.798,36.001 14.381,32.684 12.717,28.055L6.195,33.08C9.505,39.557 16.227,44.001 24,44.001Z" fill="#4CAF50"/>
<path d="M43.611,20.083L42,20.083L42,20L24,20L24,28L35.303,28C34.511,30.237 33.072,32.166 31.216,33.571L31.219,33.569L37.409,38.807C36.971,39.205 44,34 44,24C44,22.659 43.862,21.35 43.611,20.083Z" fill="#1976D2"/>
</svg>
