<svg width="70" height="70" viewBox="0 0 70 70" fill="none" xmlns="http://www.w3.org/2000/svg" xmlns:xlink="http://www.w3.org/1999/xlink">
<path d="M16.041,15.354L28.437,15.354L28.437,12.354L16.041,12.354L16.041,15.354ZM28.437,13.854C28.437,15.354 28.436,15.354 28.435,15.354C28.435,15.354 28.434,15.354 28.434,15.354C28.433,15.354 28.432,15.354 28.431,15.354C28.43,15.353 28.428,15.353 28.427,15.353C28.424,15.353 28.421,15.353 28.419,15.353C28.415,15.353 28.412,15.353 28.411,15.353C28.41,15.353 28.414,15.353 28.424,15.354C28.444,15.355 28.482,15.359 28.532,15.367C28.639,15.385 28.758,15.418 28.86,15.469C28.955,15.516 29.005,15.564 29.034,15.608C29.058,15.643 29.124,15.757 29.124,16.041L32.124,16.041C32.124,15.232 31.918,14.525 31.531,13.944C31.15,13.373 30.653,13.011 30.201,12.785C29.756,12.563 29.329,12.459 29.025,12.408C28.87,12.382 28.737,12.369 28.638,12.362C28.588,12.358 28.545,12.356 28.511,12.355C28.495,12.354 28.48,12.354 28.467,12.354C28.461,12.354 28.455,12.354 28.45,12.354C28.448,12.354 28.445,12.354 28.443,12.354C28.442,12.354 28.441,12.354 28.44,12.354C28.439,12.354 28.439,12.354 28.438,12.354C28.438,12.354 28.437,12.354 28.437,13.854ZM29.124,16.041L29.124,32.812L32.124,32.812L32.124,16.041L29.124,16.041ZM30.624,32.812C29.124,32.812 29.124,32.811 29.124,32.81C29.124,32.81 29.124,32.809 29.124,32.809C29.124,32.808 29.124,32.807 29.124,32.806C29.124,32.805 29.124,32.803 29.124,32.802C29.124,32.799 29.124,32.796 29.124,32.794C29.125,32.79 29.125,32.787 29.125,32.786C29.125,32.785 29.125,32.789 29.124,32.799C29.122,32.819 29.119,32.857 29.111,32.907C29.093,33.014 29.06,33.133 29.009,33.235C28.962,33.33 28.913,33.38 28.869,33.409C28.835,33.433 28.721,33.499 28.437,33.499L28.437,36.499C29.246,36.499 29.953,36.293 30.534,35.906C31.105,35.525 31.467,35.028 31.693,34.577C31.915,34.131 32.019,33.704 32.07,33.4C32.096,33.245 32.109,33.112 32.116,33.013C32.12,32.963 32.122,32.92 32.123,32.886C32.124,32.87 32.124,32.855 32.124,32.842C32.124,32.836 32.124,32.83 32.124,32.825C32.124,32.823 32.124,32.82 32.124,32.818C32.124,32.817 32.124,32.816 32.124,32.815C32.124,32.814 32.124,32.814 32.124,32.813C32.124,32.813 32.124,32.812 30.624,32.812ZM28.437,33.499L16.041,33.499L16.041,36.499L28.437,36.499L28.437,33.499ZM16.041,34.999C16.041,33.499 16.042,33.499 16.042,33.499C16.043,33.499 16.043,33.499 16.044,33.499C16.045,33.499 16.046,33.499 16.047,33.499C16.048,33.499 16.05,33.499 16.051,33.499C16.054,33.499 16.057,33.499 16.059,33.499C16.063,33.5 16.066,33.5 16.066,33.5C16.068,33.5 16.064,33.5 16.054,33.499C16.034,33.497 15.996,33.494 15.946,33.486C15.839,33.468 15.719,33.435 15.618,33.384C15.523,33.337 15.473,33.288 15.443,33.244C15.42,33.21 15.354,33.096 15.354,32.812L12.354,32.812C12.354,33.621 12.56,34.328 12.947,34.909C13.328,35.48 13.825,35.842 14.276,36.068C14.722,36.29 15.149,36.394 15.453,36.445C15.608,36.471 15.74,36.484 15.84,36.491C15.89,36.495 15.933,36.497 15.966,36.498C15.983,36.499 15.998,36.499 16.011,36.499C16.017,36.499 16.022,36.499 16.028,36.499C16.03,36.499 16.032,36.499 16.035,36.499C16.036,36.499 16.037,36.499 16.038,36.499C16.038,36.499 16.039,36.499 16.04,36.499C16.04,36.499 16.041,36.499 16.041,34.999ZM15.354,32.812L15.354,16.041L12.354,16.041L12.354,32.812L15.354,32.812ZM13.854,16.041C15.354,16.041 15.354,16.042 15.354,16.042C15.354,16.043 15.354,16.043 15.354,16.044C15.354,16.045 15.354,16.046 15.354,16.047C15.353,16.048 15.353,16.05 15.353,16.051C15.353,16.054 15.353,16.057 15.353,16.059C15.353,16.063 15.353,16.066 15.353,16.066C15.353,16.068 15.353,16.064 15.354,16.054C15.355,16.034 15.359,15.996 15.367,15.946C15.385,15.839 15.418,15.719 15.469,15.618C15.516,15.523 15.564,15.473 15.608,15.443C15.643,15.42 15.757,15.354 16.041,15.354L16.041,12.354C15.232,12.354 14.525,12.56 13.944,12.947C13.373,13.328 13.011,13.825 12.785,14.276C12.563,14.722 12.459,15.149 12.408,15.453C12.382,15.608 12.369,15.74 12.362,15.84C12.358,15.89 12.356,15.933 12.355,15.966C12.354,15.983 12.354,15.998 12.354,16.011C12.354,16.017 12.354,16.022 12.354,16.028C12.354,16.03 12.354,16.032 12.354,16.035C12.354,16.036 12.354,16.037 12.354,16.038C12.354,16.038 12.354,16.039 12.354,16.04C12.354,16.04 12.354,16.041 13.854,16.041Z" fill="#3BB77E"/>
<path d="M16.041,45.25L28.437,45.25L28.437,42.25L16.041,42.25L16.041,45.25ZM28.437,43.75C28.437,45.25 28.436,45.25 28.435,45.25C28.435,45.25 28.434,45.25 28.434,45.25C28.433,45.25 28.432,45.25 28.431,45.25C28.43,45.25 28.428,45.25 28.427,45.25C28.424,45.25 28.421,45.25 28.419,45.25C28.415,45.25 28.412,45.25 28.411,45.25C28.41,45.25 28.414,45.25 28.424,45.25C28.444,45.252 28.482,45.255 28.532,45.264C28.639,45.282 28.758,45.314 28.86,45.365C28.955,45.413 29.005,45.461 29.034,45.505C29.058,45.54 29.124,45.653 29.124,45.938L32.124,45.938C32.124,45.128 31.918,44.421 31.531,43.841C31.15,43.27 30.653,42.907 30.201,42.682C29.756,42.459 29.329,42.355 29.025,42.305C28.87,42.279 28.737,42.265 28.638,42.258C28.588,42.255 28.545,42.252 28.511,42.251C28.495,42.251 28.48,42.25 28.467,42.25C28.461,42.25 28.455,42.25 28.45,42.25C28.448,42.25 28.445,42.25 28.443,42.25C28.442,42.25 28.441,42.25 28.44,42.25C28.439,42.25 28.439,42.25 28.438,42.25C28.438,42.25 28.437,42.25 28.437,43.75ZM29.124,45.938L29.124,53.958L32.124,53.958L32.124,45.938L29.124,45.938ZM30.624,53.958C29.124,53.958 29.124,53.958 29.124,53.957C29.124,53.957 29.124,53.956 29.124,53.956C29.124,53.955 29.124,53.954 29.124,53.953C29.124,53.951 29.124,53.949 29.124,53.948C29.124,53.945 29.124,53.943 29.124,53.94C29.125,53.936 29.125,53.934 29.125,53.933C29.125,53.931 29.125,53.936 29.124,53.945C29.122,53.965 29.119,54.004 29.111,54.054C29.093,54.16 29.06,54.28 29.009,54.381C28.962,54.477 28.913,54.527 28.869,54.556C28.835,54.579 28.721,54.646 28.437,54.646L28.437,57.646C29.246,57.646 29.953,57.439 30.534,57.052C31.105,56.671 31.467,56.174 31.693,55.723C31.915,55.277 32.019,54.85 32.07,54.547C32.096,54.392 32.109,54.259 32.116,54.159C32.12,54.109 32.122,54.067 32.123,54.033C32.124,54.016 32.124,54.001 32.124,53.989C32.124,53.983 32.124,53.977 32.124,53.972C32.124,53.969 32.124,53.967 32.124,53.965C32.124,53.964 32.124,53.962 32.124,53.961C32.124,53.961 32.124,53.96 32.124,53.96C32.124,53.959 32.124,53.958 30.624,53.958ZM28.437,54.646L16.041,54.646L16.041,57.646L28.437,57.646L28.437,54.646ZM16.041,56.146C16.041,54.646 16.042,54.646 16.042,54.646C16.043,54.646 16.043,54.646 16.044,54.646C16.045,54.646 16.046,54.646 16.047,54.646C16.048,54.646 16.05,54.646 16.051,54.646C16.054,54.646 16.057,54.646 16.059,54.646C16.063,54.646 16.066,54.646 16.066,54.646C16.068,54.646 16.064,54.646 16.054,54.645C16.034,54.644 15.996,54.64 15.946,54.632C15.839,54.614 15.719,54.581 15.618,54.531C15.523,54.483 15.473,54.435 15.443,54.391C15.42,54.356 15.354,54.243 15.354,53.958L12.354,53.958C12.354,54.768 12.56,55.474 12.947,56.055C13.328,56.626 13.825,56.988 14.276,57.214C14.722,57.437 15.149,57.541 15.453,57.591C15.608,57.617 15.74,57.631 15.84,57.638C15.89,57.641 15.933,57.643 15.966,57.644C15.983,57.645 15.998,57.645 16.011,57.646C16.017,57.646 16.022,57.646 16.028,57.646C16.03,57.646 16.032,57.646 16.035,57.646C16.036,57.646 16.037,57.646 16.038,57.646C16.038,57.646 16.039,57.646 16.04,57.646C16.04,57.646 16.041,57.646 16.041,56.146ZM15.354,53.958L15.354,45.938L12.354,45.938L12.354,53.958L15.354,53.958ZM13.854,45.938C15.354,45.938 15.354,45.938 15.354,45.939C15.354,45.939 15.354,45.94 15.354,45.94C15.354,45.941 15.354,45.942 15.354,45.943C15.353,45.945 15.353,45.946 15.353,45.948C15.353,45.951 15.353,45.953 15.353,45.955C15.353,45.96 15.353,45.962 15.353,45.963C15.353,45.965 15.353,45.96 15.354,45.95C15.355,45.93 15.359,45.892 15.367,45.842C15.385,45.735 15.418,45.616 15.469,45.515C15.516,45.419 15.564,45.369 15.608,45.34C15.643,45.317 15.757,45.25 16.041,45.25L16.041,42.25C15.232,42.25 14.525,42.457 13.944,42.844C13.373,43.225 13.011,43.722 12.785,44.173C12.563,44.618 12.459,45.046 12.408,45.349C12.382,45.504 12.369,45.637 12.362,45.737C12.358,45.787 12.356,45.829 12.355,45.863C12.354,45.88 12.354,45.895 12.354,45.907C12.354,45.913 12.354,45.919 12.354,45.924C12.354,45.927 12.354,45.929 12.354,45.931C12.354,45.932 12.354,45.933 12.354,45.934C12.354,45.935 12.354,45.936 12.354,45.936C12.354,45.937 12.354,45.938 13.854,45.938Z" fill="#3BB77E"/>
<path d="M41.563,36.5L53.958,36.5L53.958,33.5L41.563,33.5L41.563,36.5ZM53.958,35C53.958,36.5 53.958,36.5 53.957,36.5C53.957,36.5 53.956,36.5 53.956,36.5C53.955,36.5 53.954,36.5 53.953,36.5C53.951,36.5 53.949,36.5 53.948,36.5C53.945,36.5 53.943,36.5 53.94,36.5C53.936,36.5 53.934,36.5 53.933,36.5C53.931,36.5 53.936,36.5 53.945,36.5C53.965,36.502 54.004,36.505 54.054,36.514C54.16,36.532 54.28,36.564 54.381,36.615C54.477,36.663 54.527,36.711 54.556,36.755C54.579,36.79 54.646,36.903 54.646,37.188L57.646,37.188C57.646,36.378 57.439,35.671 57.052,35.091C56.671,34.52 56.174,34.157 55.723,33.932C55.277,33.709 54.85,33.605 54.547,33.555C54.392,33.529 54.259,33.515 54.159,33.508C54.109,33.505 54.067,33.502 54.033,33.501C54.016,33.501 54.001,33.5 53.989,33.5C53.983,33.5 53.977,33.5 53.972,33.5C53.969,33.5 53.967,33.5 53.965,33.5C53.964,33.5 53.962,33.5 53.961,33.5C53.961,33.5 53.96,33.5 53.96,33.5C53.959,33.5 53.958,33.5 53.958,35ZM54.646,37.188L54.646,53.958L57.646,53.958L57.646,37.188L54.646,37.188ZM56.146,53.958C54.646,53.958 54.646,53.958 54.646,53.957C54.646,53.957 54.646,53.956 54.646,53.956C54.646,53.955 54.646,53.954 54.646,53.953C54.646,53.951 54.646,53.949 54.646,53.948C54.646,53.945 54.646,53.943 54.646,53.94C54.646,53.936 54.646,53.934 54.646,53.933C54.646,53.931 54.646,53.936 54.645,53.945C54.644,53.965 54.64,54.004 54.632,54.054C54.614,54.16 54.581,54.28 54.531,54.381C54.483,54.477 54.435,54.527 54.391,54.556C54.356,54.579 54.243,54.646 53.958,54.646L53.958,57.646C54.768,57.646 55.474,57.439 56.055,57.052C56.626,56.671 56.988,56.174 57.214,55.723C57.437,55.277 57.541,54.85 57.591,54.547C57.617,54.392 57.631,54.259 57.638,54.159C57.641,54.109 57.643,54.067 57.644,54.033C57.645,54.016 57.645,54.001 57.646,53.989C57.646,53.983 57.646,53.977 57.646,53.972C57.646,53.969 57.646,53.967 57.646,53.965C57.646,53.964 57.646,53.962 57.646,53.961C57.646,53.961 57.646,53.96 57.646,53.96C57.646,53.959 57.646,53.958 56.146,53.958ZM53.958,54.646L41.563,54.646L41.563,57.646L53.958,57.646L53.958,54.646ZM41.563,56.146C41.563,54.646 41.563,54.646 41.564,54.646C41.564,54.646 41.565,54.646 41.565,54.646C41.566,54.646 41.567,54.646 41.568,54.646C41.57,54.646 41.571,54.646 41.573,54.646C41.576,54.646 41.578,54.646 41.58,54.646C41.585,54.646 41.587,54.646 41.588,54.646C41.59,54.646 41.585,54.646 41.575,54.645C41.555,54.644 41.517,54.64 41.467,54.632C41.36,54.614 41.241,54.581 41.14,54.531C41.044,54.483 40.994,54.435 40.965,54.391C40.942,54.356 40.875,54.243 40.875,53.958L37.875,53.958C37.875,54.768 38.082,55.474 38.469,56.055C38.85,56.626 39.347,56.988 39.798,57.214C40.243,57.437 40.671,57.541 40.974,57.591C41.129,57.617 41.262,57.631 41.362,57.638C41.412,57.641 41.454,57.643 41.488,57.644C41.505,57.645 41.52,57.645 41.532,57.646C41.538,57.646 41.544,57.646 41.549,57.646C41.552,57.646 41.554,57.646 41.556,57.646C41.557,57.646 41.558,57.646 41.559,57.646C41.56,57.646 41.561,57.646 41.561,57.646C41.562,57.646 41.563,57.646 41.563,56.146ZM40.875,53.958L40.875,37.188L37.875,37.188L37.875,53.958L40.875,53.958ZM39.375,37.188C40.875,37.188 40.875,37.188 40.875,37.189C40.875,37.189 40.875,37.19 40.875,37.19C40.875,37.191 40.875,37.192 40.875,37.193C40.875,37.195 40.875,37.196 40.875,37.198C40.875,37.201 40.875,37.203 40.875,37.205C40.875,37.21 40.875,37.212 40.875,37.213C40.875,37.215 40.875,37.21 40.875,37.2C40.877,37.18 40.88,37.142 40.889,37.092C40.907,36.985 40.939,36.866 40.99,36.765C41.038,36.669 41.086,36.619 41.13,36.59C41.165,36.567 41.278,36.5 41.563,36.5L41.563,33.5C40.753,33.5 40.046,33.707 39.466,34.094C38.895,34.475 38.532,34.972 38.307,35.423C38.084,35.868 37.98,36.296 37.93,36.599C37.904,36.754 37.89,36.887 37.883,36.987C37.88,37.037 37.877,37.079 37.876,37.113C37.876,37.13 37.875,37.145 37.875,37.157C37.875,37.163 37.875,37.169 37.875,37.174C37.875,37.177 37.875,37.179 37.875,37.181C37.875,37.182 37.875,37.183 37.875,37.184C37.875,37.185 37.875,37.186 37.875,37.186C37.875,37.187 37.875,37.188 39.375,37.188Z" fill="#3BB77E"/>
<path d="M41.563,15.354L53.958,15.354L53.958,12.354L41.563,12.354L41.563,15.354ZM53.958,13.854C53.958,15.354 53.958,15.354 53.957,15.354C53.957,15.354 53.956,15.354 53.956,15.354C53.955,15.354 53.954,15.354 53.953,15.354C53.951,15.353 53.949,15.353 53.948,15.353C53.945,15.353 53.943,15.353 53.94,15.353C53.936,15.353 53.934,15.353 53.933,15.353C53.931,15.353 53.936,15.353 53.945,15.354C53.965,15.355 54.004,15.359 54.054,15.367C54.16,15.385 54.28,15.418 54.381,15.469C54.477,15.516 54.527,15.564 54.556,15.608C54.579,15.643 54.646,15.757 54.646,16.041L57.646,16.041C57.646,15.232 57.439,14.525 57.052,13.944C56.671,13.373 56.174,13.011 55.723,12.785C55.277,12.563 54.85,12.459 54.547,12.408C54.392,12.382 54.259,12.369 54.159,12.362C54.109,12.358 54.067,12.356 54.033,12.355C54.016,12.354 54.001,12.354 53.989,12.354C53.983,12.354 53.977,12.354 53.972,12.354C53.969,12.354 53.967,12.354 53.965,12.354C53.964,12.354 53.962,12.354 53.961,12.354C53.961,12.354 53.96,12.354 53.96,12.354C53.959,12.354 53.958,12.354 53.958,13.854ZM54.646,16.041L54.646,24.062L57.646,24.062L57.646,16.041L54.646,16.041ZM56.146,24.062C54.646,24.062 54.646,24.061 54.646,24.06C54.646,24.06 54.646,24.059 54.646,24.059C54.646,24.058 54.646,24.057 54.646,24.056C54.646,24.055 54.646,24.053 54.646,24.052C54.646,24.049 54.646,24.046 54.646,24.044C54.646,24.04 54.646,24.037 54.646,24.036C54.646,24.035 54.646,24.039 54.645,24.049C54.644,24.069 54.64,24.107 54.632,24.157C54.614,24.264 54.581,24.383 54.531,24.485C54.483,24.58 54.435,24.63 54.391,24.659C54.356,24.683 54.243,24.749 53.958,24.749L53.958,27.749C54.768,27.749 55.474,27.543 56.055,27.156C56.626,26.775 56.988,26.278 57.214,25.826C57.437,25.381 57.541,24.954 57.591,24.65C57.617,24.495 57.631,24.362 57.638,24.263C57.641,24.213 57.643,24.17 57.644,24.136C57.645,24.12 57.645,24.105 57.646,24.092C57.646,24.086 57.646,24.08 57.646,24.075C57.646,24.073 57.646,24.07 57.646,24.068C57.646,24.067 57.646,24.066 57.646,24.065C57.646,24.064 57.646,24.064 57.646,24.063C57.646,24.063 57.646,24.062 56.146,24.062ZM53.958,24.749L41.563,24.749L41.563,27.749L53.958,27.749L53.958,24.749ZM41.563,26.249C41.563,24.749 41.563,24.749 41.564,24.749C41.564,24.749 41.565,24.749 41.565,24.749C41.566,24.749 41.567,24.749 41.568,24.749C41.57,24.749 41.571,24.749 41.573,24.749C41.576,24.749 41.578,24.749 41.58,24.749C41.585,24.75 41.587,24.75 41.588,24.75C41.59,24.75 41.585,24.75 41.575,24.749C41.555,24.747 41.517,24.744 41.467,24.736C41.36,24.718 41.241,24.685 41.14,24.634C41.044,24.587 40.994,24.538 40.965,24.494C40.942,24.46 40.875,24.346 40.875,24.062L37.875,24.062C37.875,24.871 38.082,25.578 38.469,26.159C38.85,26.73 39.347,27.092 39.798,27.318C40.243,27.54 40.671,27.644 40.974,27.695C41.129,27.721 41.262,27.734 41.362,27.741C41.412,27.745 41.454,27.747 41.488,27.748C41.505,27.749 41.52,27.749 41.532,27.749C41.538,27.749 41.544,27.749 41.549,27.749C41.552,27.749 41.554,27.749 41.556,27.749C41.557,27.749 41.558,27.749 41.559,27.749C41.56,27.749 41.561,27.749 41.561,27.749C41.562,27.749 41.563,27.749 41.563,26.249ZM40.875,24.062L40.875,16.041L37.875,16.041L37.875,24.062L40.875,24.062ZM39.375,16.041C40.875,16.041 40.875,16.042 40.875,16.042C40.875,16.043 40.875,16.043 40.875,16.044C40.875,16.045 40.875,16.046 40.875,16.047C40.875,16.048 40.875,16.05 40.875,16.051C40.875,16.054 40.875,16.057 40.875,16.059C40.875,16.063 40.875,16.066 40.875,16.066C40.875,16.068 40.875,16.064 40.875,16.054C40.877,16.034 40.88,15.996 40.889,15.946C40.907,15.839 40.939,15.719 40.99,15.618C41.038,15.523 41.086,15.473 41.13,15.443C41.165,15.42 41.278,15.354 41.563,15.354L41.563,12.354C40.753,12.354 40.046,12.56 39.466,12.947C38.895,13.328 38.532,13.825 38.307,14.276C38.084,14.722 37.98,15.149 37.93,15.453C37.904,15.608 37.89,15.74 37.883,15.84C37.88,15.89 37.877,15.933 37.876,15.966C37.876,15.983 37.875,15.998 37.875,16.011C37.875,16.017 37.875,16.022 37.875,16.028C37.875,16.03 37.875,16.032 37.875,16.035C37.875,16.036 37.875,16.037 37.875,16.038C37.875,16.038 37.875,16.039 37.875,16.04C37.875,16.04 37.875,16.041 39.375,16.041Z" fill="#3BB77E"/>
<path d="M6.563,3.688L63.438,3.688L63.438,0.688L6.563,0.688L6.563,3.688ZM63.438,2.188C63.438,3.688 63.437,3.688 63.436,3.688C63.436,3.688 63.435,3.687 63.435,3.687C63.434,3.687 63.433,3.687 63.432,3.687C63.431,3.687 63.43,3.687 63.429,3.687C63.427,3.687 63.426,3.687 63.426,3.687C63.426,3.687 63.429,3.687 63.437,3.688C63.451,3.688 63.479,3.689 63.519,3.692C63.598,3.698 63.722,3.71 63.875,3.735C64.186,3.787 64.579,3.889 64.954,4.076C65.323,4.26 65.646,4.514 65.881,4.865C66.109,5.208 66.313,5.731 66.313,6.563L69.313,6.563C69.313,5.206 68.969,4.089 68.377,3.201C67.791,2.322 67.021,1.755 66.296,1.393C65.577,1.033 64.876,0.861 64.368,0.776C64.11,0.733 63.892,0.711 63.732,0.7C63.652,0.694 63.586,0.691 63.537,0.689C63.512,0.689 63.491,0.688 63.474,0.688C63.466,0.688 63.459,0.688 63.452,0.688C63.449,0.688 63.447,0.688 63.444,0.688C63.443,0.688 63.442,0.688 63.441,0.688C63.44,0.688 63.439,0.688 63.439,0.688C63.438,0.688 63.438,0.688 63.438,2.188ZM66.313,6.563L66.313,63.438L69.313,63.438L69.313,6.563L66.313,6.563ZM67.813,63.438C66.313,63.438 66.313,63.437 66.313,63.436C66.313,63.436 66.313,63.435 66.313,63.435C66.313,63.434 66.313,63.433 66.313,63.432C66.313,63.431 66.313,63.43 66.313,63.429C66.313,63.427 66.313,63.426 66.313,63.426C66.313,63.426 66.313,63.429 66.312,63.437C66.312,63.451 66.311,63.479 66.308,63.519C66.302,63.598 66.29,63.722 66.265,63.875C66.213,64.186 66.111,64.579 65.924,64.954C65.739,65.323 65.486,65.646 65.135,65.881C64.792,66.109 64.269,66.313 63.438,66.313L63.438,69.313C64.794,69.313 65.911,68.969 66.799,68.377C67.678,67.791 68.245,67.021 68.607,66.296C68.967,65.577 69.139,64.876 69.224,64.368C69.267,64.11 69.289,63.892 69.3,63.732C69.306,63.652 69.309,63.586 69.311,63.537C69.311,63.512 69.312,63.491 69.312,63.474C69.312,63.466 69.312,63.459 69.313,63.452C69.313,63.449 69.313,63.447 69.313,63.444C69.313,63.443 69.313,63.442 69.313,63.441C69.313,63.44 69.313,63.439 69.313,63.439C69.313,63.438 69.313,63.438 67.813,63.438ZM63.438,66.313L6.563,66.313L6.563,69.313L63.438,69.313L63.438,66.313ZM6.563,67.813C6.563,66.313 6.563,66.313 6.564,66.313C6.564,66.313 6.565,66.313 6.565,66.313C6.566,66.313 6.567,66.313 6.568,66.313C6.569,66.313 6.57,66.313 6.571,66.313C6.573,66.313 6.574,66.313 6.574,66.313C6.574,66.313 6.571,66.313 6.563,66.312C6.549,66.312 6.521,66.311 6.481,66.308C6.402,66.302 6.278,66.29 6.125,66.265C5.814,66.213 5.421,66.111 5.046,65.924C4.677,65.739 4.354,65.486 4.119,65.135C3.891,64.792 3.688,64.269 3.688,63.438L0.688,63.438C0.688,64.794 1.031,65.911 1.623,66.799C2.209,67.678 2.979,68.245 3.704,68.607C4.423,68.967 5.124,69.139 5.632,69.224C5.89,69.267 6.108,69.289 6.268,69.3C6.348,69.306 6.414,69.309 6.463,69.311C6.488,69.311 6.509,69.312 6.526,69.312C6.534,69.312 6.541,69.312 6.547,69.313C6.551,69.313 6.553,69.313 6.556,69.313C6.557,69.313 6.558,69.313 6.559,69.313C6.56,69.313 6.561,69.313 6.561,69.313C6.562,69.313 6.563,69.313 6.563,67.813ZM3.688,63.438L3.688,6.563L0.688,6.563L0.688,63.438L3.688,63.438ZM2.188,6.563C3.688,6.563 3.688,6.563 3.688,6.564C3.688,6.564 3.687,6.565 3.687,6.565C3.687,6.566 3.687,6.567 3.687,6.568C3.687,6.569 3.687,6.57 3.687,6.571C3.687,6.573 3.687,6.574 3.687,6.574C3.687,6.574 3.687,6.571 3.688,6.563C3.688,6.549 3.689,6.521 3.692,6.481C3.698,6.402 3.71,6.278 3.735,6.125C3.787,5.814 3.889,5.421 4.076,5.046C4.26,4.677 4.514,4.354 4.865,4.119C5.208,3.891 5.731,3.688 6.563,3.688L6.563,0.688C5.206,0.688 4.089,1.031 3.201,1.623C2.322,2.209 1.755,2.979 1.393,3.704C1.033,4.423 0.861,5.124 0.776,5.632C0.733,5.89 0.711,6.108 0.7,6.268C0.694,6.348 0.691,6.414 0.689,6.463C0.689,6.488 0.688,6.509 0.688,6.526C0.688,6.534 0.688,6.541 0.688,6.547C0.688,6.551 0.688,6.553 0.688,6.556C0.688,6.557 0.688,6.558 0.688,6.559C0.688,6.56 0.688,6.561 0.688,6.561C0.688,6.562 0.688,6.563 2.188,6.563Z" fill="#3BB77E"/>
</svg>
