<svg width="48" height="48" viewBox="0 0 48 48" fill="none" xmlns="http://www.w3.org/2000/svg" xmlns:xlink="http://www.w3.org/1999/xlink">
<path d="M8,24C8,22.895 8.895,22 10,22L38,22C39.105,22 40,22.895 40,24C40,25.105 39.105,26 38,26L10,26C8.895,26 8,25.105 8,24Z" clip-rule="evenodd" fill-rule="evenodd" fill="#000000"/>
<path d="M22.586,8.586C23.367,7.805 24.633,7.805 25.414,8.586L39.414,22.586C40.195,23.367 40.195,24.633 39.414,25.414L25.414,39.414C24.633,40.195 23.367,40.195 22.586,39.414C21.805,38.633 21.805,37.367 22.586,36.586L35.172,24L22.586,11.414C21.805,10.633 21.805,9.367 22.586,8.586Z" clip-rule="evenodd" fill-rule="evenodd" fill="#000000"/>
</svg>
