<svg width="48" height="48" viewBox="0 0 48 48" fill="none" xmlns="http://www.w3.org/2000/svg" xmlns:xlink="http://www.w3.org/1999/xlink">
<path d="M8,24C8,22.895 8.895,22 10,22L38,22C39.105,22 40,22.895 40,24C40,25.105 39.105,26 38,26L10,26C8.895,26 8,25.105 8,24Z" clip-rule="evenodd" fill-rule="evenodd" transform="rotate(-360 24 24)" fill="#000000"/>
<path d="M8.586,8.586C9.367,7.805 10.633,7.805 11.414,8.586L25.414,22.586C26.195,23.367 26.195,24.633 25.414,25.414L11.414,39.414C10.633,40.195 9.367,40.195 8.586,39.414C7.805,38.633 7.805,37.367 8.586,36.586L21.172,24L8.586,11.414C7.805,10.633 7.805,9.367 8.586,8.586Z" clip-rule="evenodd" fill-rule="evenodd" transform="rotate(-360 17 24)" fill="#000000"/>
</svg>
