<svg width="36" height="36" viewBox="0 0 36 36" fill="none" xmlns="http://www.w3.org/2000/svg" xmlns:xlink="http://www.w3.org/1999/xlink">
<path d="M18,4.5C10.544,4.5 4.5,10.544 4.5,18C4.5,25.456 10.544,31.5 18,31.5C25.456,31.5 31.5,25.456 31.5,18C31.5,10.544 25.456,4.5 18,4.5ZM1.5,18C1.5,8.887 8.887,1.5 18,1.5C27.113,1.5 34.5,8.887 34.5,18C34.5,27.113 27.113,34.5 18,34.5C8.887,34.5 1.5,27.113 1.5,18Z" clip-rule="evenodd" fill-rule="evenodd" fill="#3BB77E"/>
<path d="M18,7.5C18.828,7.5 19.5,8.172 19.5,9L19.5,18C19.5,18.828 18.828,19.5 18,19.5L11.25,19.5C10.422,19.5 9.75,18.828 9.75,18C9.75,17.172 10.422,16.5 11.25,16.5L16.5,16.5L16.5,9C16.5,8.172 17.172,7.5 18,7.5Z" clip-rule="evenodd" fill-rule="evenodd" fill="#3BB77E"/>
</svg>
