<svg width="36" height="36" viewBox="0 0 36 36" fill="none" xmlns="http://www.w3.org/2000/svg" xmlns:xlink="http://www.w3.org/1999/xlink">
<path d="M18,3C14.817,3 11.765,4.264 9.515,6.515C7.264,8.765 6,11.817 6,15C6,19.647 9.024,24.156 12.339,27.656C13.966,29.373 15.598,30.779 16.825,31.756C17.282,32.12 17.681,32.423 18,32.659C18.319,32.423 18.718,32.12 19.175,31.756C20.402,30.779 22.034,29.373 23.661,27.656C26.976,24.156 30,19.647 30,15C30,11.817 28.736,8.765 26.485,6.515C24.235,4.264 21.183,3 18,3ZM18,34.5C17.168,35.748 17.168,35.748 17.167,35.748L17.163,35.745L17.153,35.738L17.118,35.715C17.089,35.695 17.048,35.666 16.994,35.629C16.888,35.556 16.735,35.448 16.542,35.309C16.156,35.03 15.61,34.623 14.956,34.103C13.652,33.065 11.909,31.564 10.161,29.719C6.726,26.094 3,20.853 3,15C3,11.022 4.58,7.206 7.393,4.393C10.206,1.58 14.022,0 18,0C21.978,0 25.794,1.58 28.607,4.393C31.42,7.206 33,11.022 33,15C33,20.853 29.274,26.094 25.839,29.719C24.091,31.564 22.348,33.065 21.044,34.103C20.39,34.623 19.844,35.03 19.458,35.309C19.265,35.448 19.112,35.556 19.006,35.629C18.952,35.666 18.911,35.695 18.882,35.715L18.847,35.738L18.837,35.745L18.834,35.747C18.834,35.747 18.832,35.748 18,34.5ZM18,34.5L18.832,35.748C18.328,36.084 17.671,36.083 17.167,35.748L18,34.5Z" clip-rule="evenodd" fill-rule="evenodd" fill="#3BB77E"/>
<path d="M18,12C16.343,12 15,13.343 15,15C15,16.657 16.343,18 18,18C19.657,18 21,16.657 21,15C21,13.343 19.657,12 18,12ZM12,15C12,11.686 14.686,9 18,9C21.314,9 24,11.686 24,15C24,18.314 21.314,21 18,21C14.686,21 12,18.314 12,15Z" clip-rule="evenodd" fill-rule="evenodd" fill="#3BB77E"/>
</svg>
