<svg width="36" height="36" viewBox="0 0 36 36" fill="none" xmlns="http://www.w3.org/2000/svg" xmlns:xlink="http://www.w3.org/1999/xlink">
<path d="M6,7.5C5.178,7.5 4.5,8.178 4.5,9L4.5,27C4.5,27.822 5.178,28.5 6,28.5L30,28.5C30.822,28.5 31.5,27.822 31.5,27L31.5,9C31.5,8.178 30.822,7.5 30,7.5L6,7.5ZM1.5,9C1.5,6.522 3.522,4.5 6,4.5L30,4.5C32.478,4.5 34.5,6.522 34.5,9L34.5,27C34.5,29.478 32.478,31.5 30,31.5L6,31.5C3.522,31.5 1.5,29.478 1.5,27L1.5,9Z" clip-rule="evenodd" fill-rule="evenodd" fill="#3BB77E"/>
<path d="M1.771,8.14C2.246,7.461 3.181,7.296 3.86,7.771L18,17.669L32.14,7.771C32.818,7.296 33.754,7.461 34.229,8.14C34.704,8.819 34.539,9.754 33.86,10.229L18.86,20.729C18.344,21.091 17.656,21.091 17.14,20.729L2.14,10.229C1.461,9.754 1.296,8.819 1.771,8.14Z" clip-rule="evenodd" fill-rule="evenodd" fill="#3BB77E"/>
</svg>
