<svg width="48" height="48" viewBox="0 0 48 48" fill="none" xmlns="http://www.w3.org/2000/svg" xmlns:xlink="http://www.w3.org/1999/xlink">
<path d="M21,8C13.268,8 7,14.268 7,22C7,29.732 13.268,36 21,36C28.732,36 35,29.732 35,22C35,14.268 28.732,8 21,8ZM3,22C3,12.059 11.059,4 21,4C30.941,4 39,12.059 39,22C39,31.941 30.941,40 21,40C11.059,40 3,31.941 3,22Z" clip-rule="evenodd" fill-rule="evenodd" fill="#FFFFFF"/>
<path d="M30.886,31.887C31.667,31.106 32.933,31.106 33.714,31.887L42.414,40.587C43.195,41.368 43.195,42.634 42.414,43.415C41.633,44.196 40.367,44.196 39.586,43.415L30.886,34.715C30.105,33.934 30.105,32.668 30.886,31.887Z" clip-rule="evenodd" fill-rule="evenodd" fill="#FFFFFF"/>
</svg>
