<svg width="48" height="48" viewBox="0 0 48 48" fill="none" xmlns="http://www.w3.org/2000/svg" xmlns:xlink="http://www.w3.org/1999/xlink">
<path d="M21,8C13.268,8 7,14.268 7,22C7,29.732 13.268,36 21,36C28.732,36 35,29.732 35,22C35,14.268 28.732,8 21,8ZM3,22C3,12.059 11.059,4 21,4C30.941,4 39,12.059 39,22C39,31.941 30.941,40 21,40C11.059,40 3,31.941 3,22Z" clip-rule="evenodd" fill-rule="evenodd" fill="#FFFFFF"/>
<path d="M30.887,31.886C31.668,31.105 32.934,31.105 33.715,31.886L42.415,40.586C43.196,41.367 43.196,42.633 42.415,43.414C41.634,44.195 40.368,44.195 39.587,43.414L30.887,34.714C30.106,33.933 30.106,32.667 30.887,31.886Z" clip-rule="evenodd" fill-rule="evenodd" fill="#FFFFFF"/>
</svg>
