<svg width="48" height="48" viewBox="0 0 48 48" fill="none" xmlns="http://www.w3.org/2000/svg" xmlns:xlink="http://www.w3.org/1999/xlink">
<path d="M21,8C13.268,8 7,14.268 7,22C7,29.732 13.268,36 21,36C28.732,36 35,29.732 35,22C35,14.268 28.732,8 21,8ZM3,22C3,12.059 11.059,4 21,4C30.941,4 39,12.059 39,22C39,31.941 30.941,40 21,40C11.059,40 3,31.941 3,22Z" clip-rule="evenodd" fill-rule="evenodd" fill="#FFFFFF"/>
<path d="M30.887,31.887C31.668,31.106 32.934,31.106 33.715,31.887L42.415,40.587C43.196,41.368 43.196,42.634 42.415,43.415C41.634,44.196 40.368,44.196 39.587,43.415L30.887,34.715C30.106,33.934 30.106,32.668 30.887,31.887Z" clip-rule="evenodd" fill-rule="evenodd" fill="#FFFFFF"/>
</svg>
