<svg width="36" height="36" viewBox="0 0 36 36" fill="none" xmlns="http://www.w3.org/2000/svg" xmlns:xlink="http://www.w3.org/1999/xlink">
<path d="M34.061,1.939C34.646,2.525 34.646,3.475 34.061,4.061L17.561,20.561C16.975,21.146 16.025,21.146 15.439,20.561C14.854,19.975 14.854,19.025 15.439,18.439L31.939,1.939C32.525,1.354 33.475,1.354 34.061,1.939Z" clip-rule="evenodd" fill-rule="evenodd" fill="#ADADAD"/>
<path d="M34.061,1.939C34.468,2.347 34.606,2.952 34.416,3.496L23.916,33.496C23.713,34.076 23.176,34.474 22.561,34.499C21.947,34.524 21.379,34.171 21.129,33.609L15.364,20.636L2.391,14.871C1.829,14.621 1.476,14.053 1.501,13.439C1.526,12.824 1.924,12.287 2.504,12.084L32.504,1.584C33.048,1.394 33.653,1.532 34.061,1.939ZM7.067,13.666L17.109,18.129C17.449,18.28 17.72,18.551 17.871,18.891L22.334,28.933L30.555,5.445L7.067,13.666Z" clip-rule="evenodd" fill-rule="evenodd" fill="#ADADAD"/>
</svg>
