<svg width="26" height="26" viewBox="0 0 26 26" fill="none" xmlns="http://www.w3.org/2000/svg" xmlns:xlink="http://www.w3.org/1999/xlink">
<path d="M7.5,21.668C7.5,20.563 8.395,19.668 9.5,19.668C10.605,19.668 11.5,20.563 11.5,21.668C11.5,22.773 10.605,23.668 9.5,23.668C8.395,23.668 7.5,22.773 7.5,21.668Z" clip-rule="evenodd" fill-rule="evenodd" fill="#3BB77E"/>
<path d="M18.5,21.668C18.5,20.563 19.395,19.668 20.5,19.668C21.605,19.668 22.5,20.563 22.5,21.668C22.5,22.773 21.605,23.668 20.5,23.668C19.395,23.668 18.5,22.773 18.5,21.668Z" clip-rule="evenodd" fill-rule="evenodd" fill="#3BB77E"/>
<path d="M0.5,1.668C0.5,1.116 0.948,0.668 1.5,0.668L5.5,0.668C5.977,0.668 6.387,1.004 6.481,1.472L7.32,5.668L23.5,5.668C23.798,5.668 24.081,5.801 24.27,6.031C24.46,6.26 24.538,6.563 24.482,6.855L22.881,15.253C22.744,15.943 22.368,16.564 21.82,17.005C21.274,17.445 20.592,17.679 19.891,17.668L10.189,17.668C9.488,17.679 8.806,17.445 8.26,17.005C7.712,16.564 7.337,15.944 7.199,15.254C7.199,15.253 7.199,15.254 7.199,15.254L5.529,6.907C5.522,6.88 5.516,6.852 5.512,6.823L4.68,2.668L1.5,2.668C0.948,2.668 0.5,2.22 0.5,1.668ZM7.721,7.668L9.161,14.863C9.207,15.093 9.332,15.3 9.515,15.447C9.697,15.594 9.926,15.673 10.161,15.668L10.18,15.668L19.9,15.668L19.919,15.668C20.154,15.673 20.383,15.594 20.565,15.447C20.747,15.301 20.872,15.095 20.919,14.866L22.291,7.668L7.721,7.668Z" clip-rule="evenodd" fill-rule="evenodd" fill="#3BB77E"/>
</svg>
