<svg width="40" height="36" viewBox="0 0 40 36" fill="none" xmlns="http://www.w3.org/2000/svg" xmlns:xlink="http://www.w3.org/1999/xlink">
<path d="M11.668,31.5C11.668,29.843 13.16,28.5 15.001,28.5C16.842,28.5 18.335,29.843 18.335,31.5C18.335,33.157 16.842,34.5 15.001,34.5C13.16,34.5 11.668,33.157 11.668,31.5Z" clip-rule="evenodd" fill-rule="evenodd" fill="#3BB77E"/>
<path d="M30,31.5C30,29.843 31.492,28.5 33.333,28.5C35.174,28.5 36.667,29.843 36.667,31.5C36.667,33.157 35.174,34.5 33.333,34.5C31.492,34.5 30,33.157 30,31.5Z" clip-rule="evenodd" fill-rule="evenodd" fill="#3BB77E"/>
<path d="M0,1.5C0,0.672 0.746,0 1.667,0L8.333,0C9.128,0 9.812,0.505 9.968,1.206L11.367,7.5L38.333,7.5C38.83,7.5 39.301,7.699 39.617,8.044C39.934,8.388 40.064,8.842 39.97,9.281L37.301,21.877C37.073,22.913 36.447,23.844 35.533,24.506C34.623,25.165 33.486,25.516 32.319,25.5L16.148,25.5C14.981,25.516 13.844,25.165 12.934,24.506C12.02,23.844 11.394,22.914 11.166,21.878C11.165,21.878 11.166,21.879 11.166,21.878L8.381,9.359C8.37,9.317 8.361,9.275 8.353,9.233L6.967,3L1.667,3C0.746,3 0,2.328 0,1.5ZM12.035,10.5L14.435,21.293C14.511,21.638 14.72,21.948 15.024,22.169C15.329,22.39 15.71,22.507 16.101,22.5L16.133,22.5L32.333,22.5L32.365,22.5C32.756,22.507 33.138,22.39 33.442,22.169C33.746,21.949 33.954,21.641 34.031,21.298L36.319,10.5L12.035,10.5Z" clip-rule="evenodd" fill-rule="evenodd" fill="#3BB77E"/>
</svg>
