<svg width="24" height="24" viewBox="0 0 24 24" fill="none" xmlns="http://www.w3.org/2000/svg" xmlns:xlink="http://www.w3.org/1999/xlink">
<path d="M6.5,20.667C6.5,19.562 7.395,18.667 8.5,18.667C9.605,18.667 10.5,19.562 10.5,20.667C10.5,21.772 9.605,22.667 8.5,22.667C7.395,22.667 6.5,21.772 6.5,20.667Z" clip-rule="evenodd" fill-rule="evenodd" fill="#3BB77E"/>
<path d="M17.5,20.667C17.5,19.562 18.395,18.667 19.5,18.667C20.605,18.667 21.5,19.562 21.5,20.667C21.5,21.772 20.605,22.667 19.5,22.667C18.395,22.667 17.5,21.772 17.5,20.667Z" clip-rule="evenodd" fill-rule="evenodd" fill="#3BB77E"/>
<path d="M-0.5,0.667C-0.5,0.115 -0.052,-0.333 0.5,-0.333L4.5,-0.333C4.977,-0.333 5.387,0.003 5.481,0.471L6.32,4.667L22.5,4.667C22.798,4.667 23.081,4.8 23.27,5.03C23.46,5.259 23.538,5.562 23.482,5.854L21.881,14.252C21.744,14.942 21.368,15.563 20.82,16.004C20.274,16.444 19.592,16.678 18.891,16.667L9.189,16.667C8.488,16.678 7.806,16.444 7.26,16.004C6.712,15.563 6.337,14.943 6.199,14.253C6.199,14.252 6.199,14.253 6.199,14.253L4.529,5.906C4.522,5.879 4.516,5.851 4.512,5.822L3.68,1.667L0.5,1.667C-0.052,1.667 -0.5,1.219 -0.5,0.667ZM6.721,6.667L8.161,13.862C8.207,14.092 8.332,14.299 8.515,14.446C8.697,14.593 8.926,14.672 9.161,14.667L9.18,14.667L18.9,14.667L18.919,14.667C19.154,14.672 19.383,14.593 19.565,14.446C19.747,14.3 19.872,14.094 19.919,13.865L21.291,6.667L6.721,6.667Z" clip-rule="evenodd" fill-rule="evenodd" fill="#3BB77E"/>
</svg>
