<svg width="26" height="26" viewBox="0 0 26 26" fill="none" xmlns="http://www.w3.org/2000/svg" xmlns:xlink="http://www.w3.org/1999/xlink">
<path d="M7.5,22C7.5,20.895 8.395,20 9.5,20C10.605,20 11.5,20.895 11.5,22C11.5,23.105 10.605,24 9.5,24C8.395,24 7.5,23.105 7.5,22Z" clip-rule="evenodd" fill-rule="evenodd" fill="#3BB77E"/>
<path d="M18.5,22C18.5,20.895 19.395,20 20.5,20C21.605,20 22.5,20.895 22.5,22C22.5,23.105 21.605,24 20.5,24C19.395,24 18.5,23.105 18.5,22Z" clip-rule="evenodd" fill-rule="evenodd" fill="#3BB77E"/>
<path d="M0.5,2C0.5,1.448 0.948,1 1.5,1L5.5,1C5.977,1 6.387,1.336 6.481,1.804L7.32,6L23.5,6C23.798,6 24.081,6.133 24.27,6.363C24.46,6.592 24.538,6.895 24.482,7.187L22.881,15.585C22.744,16.275 22.368,16.896 21.82,17.337C21.274,17.777 20.592,18.011 19.891,18L10.189,18C9.488,18.011 8.806,17.777 8.26,17.337C7.712,16.896 7.337,16.276 7.199,15.586C7.199,15.585 7.199,15.586 7.199,15.586L5.529,7.239C5.522,7.212 5.516,7.184 5.512,7.155L4.68,3L1.5,3C0.948,3 0.5,2.552 0.5,2ZM7.721,8L9.161,15.195C9.207,15.425 9.332,15.632 9.515,15.779C9.697,15.926 9.926,16.005 10.161,16L10.18,16L19.9,16L19.919,16C20.154,16.005 20.383,15.926 20.565,15.779C20.747,15.633 20.872,15.427 20.919,15.198L22.291,8L7.721,8Z" clip-rule="evenodd" fill-rule="evenodd" fill="#3BB77E"/>
</svg>
