<svg width="26" height="24" viewBox="0 0 26 24" fill="none" xmlns="http://www.w3.org/2000/svg" xmlns:xlink="http://www.w3.org/1999/xlink">
<path d="M7.5,20C7.5,18.895 8.395,18 9.5,18C10.605,18 11.5,18.895 11.5,20C11.5,21.105 10.605,22 9.5,22C8.395,22 7.5,21.105 7.5,20Z" clip-rule="evenodd" fill-rule="evenodd" fill="#3BB77E"/>
<path d="M18.5,20C18.5,18.895 19.395,18 20.5,18C21.605,18 22.5,18.895 22.5,20C22.5,21.105 21.605,22 20.5,22C19.395,22 18.5,21.105 18.5,20Z" clip-rule="evenodd" fill-rule="evenodd" fill="#3BB77E"/>
<path d="M0.5,0C0.5,-0.552 0.948,-1 1.5,-1L5.5,-1C5.977,-1 6.387,-0.664 6.481,-0.196L7.32,4L23.5,4C23.798,4 24.081,4.133 24.27,4.363C24.46,4.592 24.538,4.895 24.482,5.187L22.881,13.585C22.744,14.275 22.368,14.896 21.82,15.337C21.274,15.777 20.592,16.011 19.891,16L10.189,16C9.488,16.011 8.806,15.777 8.26,15.337C7.712,14.896 7.337,14.276 7.199,13.586C7.199,13.585 7.199,13.586 7.199,13.586L5.529,5.239C5.522,5.212 5.516,5.184 5.512,5.155L4.68,1L1.5,1C0.948,1 0.5,0.552 0.5,0ZM7.721,6L9.161,13.195C9.207,13.425 9.332,13.632 9.515,13.779C9.697,13.927 9.926,14.005 10.161,14L10.18,14L19.9,14L19.919,14C20.154,14.005 20.383,13.927 20.565,13.779C20.747,13.633 20.872,13.427 20.919,13.198L22.291,6L7.721,6Z" clip-rule="evenodd" fill-rule="evenodd" fill="#3BB77E"/>
</svg>
