<svg width="24" height="24" viewBox="0 0 24 24" fill="none" xmlns="http://www.w3.org/2000/svg" xmlns:xlink="http://www.w3.org/1999/xlink">
<path d="M7,21C7,19.895 7.895,19 9,19C10.105,19 11,19.895 11,21C11,22.105 10.105,23 9,23C7.895,23 7,22.105 7,21Z" clip-rule="evenodd" fill-rule="evenodd" fill="#FFFFFF"/>
<path d="M18,21C18,19.895 18.895,19 20,19C21.105,19 22,19.895 22,21C22,22.105 21.105,23 20,23C18.895,23 18,22.105 18,21Z" clip-rule="evenodd" fill-rule="evenodd" fill="#FFFFFF"/>
<path d="M0,1C0,0.448 0.448,0 1,0L5,0C5.477,0 5.887,0.336 5.981,0.804L6.82,5L23,5C23.298,5 23.581,5.133 23.77,5.363C23.96,5.592 24.038,5.895 23.982,6.187L22.381,14.585C22.244,15.275 21.868,15.896 21.32,16.337C20.774,16.777 20.092,17.011 19.391,17L9.689,17C8.988,17.011 8.306,16.777 7.76,16.337C7.212,15.896 6.837,15.276 6.699,14.586C6.699,14.585 6.699,14.586 6.699,14.586L5.029,6.239C5.022,6.212 5.016,6.184 5.012,6.155L4.18,2L1,2C0.448,2 0,1.552 0,1ZM7.221,7L8.661,14.195C8.707,14.425 8.832,14.632 9.015,14.779C9.197,14.927 9.426,15.005 9.661,15L9.68,15L19.4,15L19.419,15C19.654,15.005 19.883,14.927 20.065,14.779C20.247,14.633 20.372,14.427 20.419,14.198L21.791,7L7.221,7Z" clip-rule="evenodd" fill-rule="evenodd" fill="#FFFFFF"/>
</svg>
