<svg width="24" height="24" viewBox="0 0 24 24" fill="none" xmlns="http://www.w3.org/2000/svg" xmlns:xlink="http://www.w3.org/1999/xlink">
<path d="M6.5,20.668C6.5,19.563 7.395,18.668 8.5,18.668C9.605,18.668 10.5,19.563 10.5,20.668C10.5,21.773 9.605,22.668 8.5,22.668C7.395,22.668 6.5,21.773 6.5,20.668Z" clip-rule="evenodd" fill-rule="evenodd" fill="#3BB77E"/>
<path d="M17.5,20.668C17.5,19.563 18.395,18.668 19.5,18.668C20.605,18.668 21.5,19.563 21.5,20.668C21.5,21.773 20.605,22.668 19.5,22.668C18.395,22.668 17.5,21.773 17.5,20.668Z" clip-rule="evenodd" fill-rule="evenodd" fill="#3BB77E"/>
<path d="M-0.5,0.668C-0.5,0.116 -0.052,-0.332 0.5,-0.332L4.5,-0.332C4.977,-0.332 5.387,0.004 5.481,0.472L6.32,4.668L22.5,4.668C22.798,4.668 23.081,4.801 23.27,5.031C23.46,5.26 23.538,5.563 23.482,5.855L21.881,14.253C21.744,14.943 21.368,15.564 20.82,16.005C20.274,16.445 19.592,16.679 18.891,16.668L9.189,16.668C8.488,16.679 7.806,16.445 7.26,16.005C6.712,15.564 6.337,14.944 6.199,14.254C6.199,14.253 6.199,14.254 6.199,14.254L4.529,5.907C4.522,5.88 4.516,5.852 4.512,5.823L3.68,1.668L0.5,1.668C-0.052,1.668 -0.5,1.22 -0.5,0.668ZM6.721,6.668L8.161,13.863C8.207,14.093 8.332,14.3 8.515,14.447C8.697,14.594 8.926,14.673 9.161,14.668L9.18,14.668L18.9,14.668L18.919,14.668C19.154,14.673 19.383,14.594 19.565,14.447C19.747,14.301 19.872,14.095 19.919,13.866L21.291,6.668L6.721,6.668Z" clip-rule="evenodd" fill-rule="evenodd" fill="#3BB77E"/>
</svg>
