<svg width="22" height="20" viewBox="0 0 22 20" fill="none" xmlns="http://www.w3.org/2000/svg" xmlns:xlink="http://www.w3.org/1999/xlink">
<line x1="8.998" y1="0.804" x2="8.998" y2="4.247" stroke="#FFFFFF" stroke-width="1" stroke-miterlimit="3.999327" stroke-linecap="round" stroke-linejoin="round"/>
<line x1="8.998" y1="14.574" x2="8.998" y2="18.016" stroke="#FFFFFF" stroke-width="1" stroke-miterlimit="3.999327" stroke-linecap="round" stroke-linejoin="round"/>
<path d="M4.621,2.619C4.231,2.228 3.597,2.228 3.207,2.619C2.816,3.009 2.816,3.642 3.207,4.033L4.621,2.619ZM5.642,6.468C6.033,6.859 6.666,6.859 7.057,6.468C7.447,6.078 7.447,5.445 7.057,5.054L5.642,6.468ZM3.207,4.033L5.642,6.468L7.057,5.054L4.621,2.619L3.207,4.033Z" fill="#FFFFFF"/>
<path d="M14.356,12.351C13.965,11.961 13.332,11.961 12.941,12.351C12.551,12.742 12.551,13.375 12.941,13.766L14.356,12.351ZM15.377,16.201C15.767,16.592 16.4,16.592 16.791,16.201C17.182,15.811 17.182,15.177 16.791,14.787L15.377,16.201ZM12.941,13.766L15.377,16.201L16.791,14.787L14.356,12.351L12.941,13.766Z" fill="#FFFFFF"/>
<line x1="1.393" y1="8.41" x2="4.835" y2="8.41" stroke="#FFFFFF" stroke-width="1" stroke-miterlimit="3.999327" stroke-linecap="round" stroke-linejoin="round"/>
<line x1="15.162" y1="8.41" x2="18.604" y2="8.41" stroke="#FFFFFF" stroke-width="1" stroke-miterlimit="3.999327" stroke-linecap="round" stroke-linejoin="round"/>
<path d="M3.207,14.787C2.816,15.177 2.816,15.811 3.207,16.201C3.597,16.592 4.231,16.592 4.621,16.201L3.207,14.787ZM7.057,13.766C7.447,13.375 7.447,12.742 7.057,12.351C6.666,11.961 6.033,11.961 5.642,12.351L7.057,13.766ZM4.621,16.201L7.057,13.766L5.642,12.351L3.207,14.787L4.621,16.201Z" fill="#FFFFFF"/>
<path d="M12.941,5.054C12.551,5.445 12.551,6.078 12.941,6.468C13.332,6.859 13.965,6.859 14.356,6.468L12.941,5.054ZM16.791,4.033C17.182,3.642 17.182,3.009 16.791,2.619C16.4,2.228 15.767,2.228 15.377,2.619L16.791,4.033ZM14.356,6.468L16.791,4.033L15.377,2.619L12.941,5.054L14.356,6.468Z" fill="#FFFFFF"/>
</svg>
