<svg width="70" height="70" viewBox="0 0 70 70" fill="none" xmlns="http://www.w3.org/2000/svg" xmlns:xlink="http://www.w3.org/1999/xlink">
<path d="M10.938,16.813L59.063,16.813L59.063,13.813L10.938,13.813L10.938,16.813ZM59.063,15.313C59.063,16.813 59.062,16.813 59.061,16.813C59.061,16.813 59.06,16.812 59.06,16.812C59.059,16.812 59.059,16.812 59.058,16.812C59.057,16.812 59.057,16.812 59.057,16.812C59.057,16.812 59.059,16.813 59.064,16.813C59.072,16.813 59.088,16.813 59.111,16.814C59.157,16.815 59.232,16.819 59.332,16.826C59.531,16.84 59.826,16.869 60.183,16.929C60.905,17.049 61.845,17.287 62.767,17.748C63.682,18.206 64.553,18.869 65.197,19.836C65.836,20.793 66.313,22.137 66.313,24.063L69.313,24.063C69.313,21.613 68.696,19.675 67.693,18.172C66.697,16.678 65.38,15.7 64.108,15.065C62.842,14.432 61.595,14.123 60.676,13.97C60.214,13.892 59.824,13.853 59.545,13.833C59.406,13.823 59.292,13.818 59.211,13.815C59.17,13.814 59.137,13.813 59.112,13.813C59.099,13.813 59.089,13.813 59.081,13.813C59.077,13.813 59.073,13.813 59.07,13.813C59.069,13.813 59.067,13.813 59.066,13.813C59.065,13.813 59.064,13.813 59.064,13.813C59.063,13.813 59.063,13.813 59.063,15.313ZM66.313,24.063L66.313,59.063L69.313,59.063L69.313,24.063L66.313,24.063ZM67.813,59.063C66.313,59.063 66.313,59.062 66.313,59.061C66.313,59.061 66.313,59.06 66.313,59.06C66.313,59.059 66.313,59.059 66.313,59.058C66.313,59.057 66.313,59.057 66.313,59.057C66.313,59.057 66.313,59.059 66.313,59.064C66.312,59.072 66.312,59.088 66.311,59.111C66.31,59.157 66.306,59.232 66.299,59.332C66.285,59.531 66.256,59.826 66.196,60.183C66.076,60.905 65.838,61.845 65.377,62.767C64.919,63.682 64.256,64.553 63.289,65.197C62.332,65.836 60.987,66.313 59.063,66.313L59.063,69.313C61.513,69.313 63.45,68.696 64.953,67.693C66.447,66.697 67.425,65.38 68.06,64.108C68.693,62.842 69.002,61.595 69.155,60.676C69.232,60.214 69.272,59.824 69.292,59.545C69.302,59.406 69.307,59.292 69.309,59.211C69.311,59.17 69.312,59.137 69.312,59.112C69.312,59.099 69.312,59.089 69.313,59.081C69.313,59.077 69.313,59.073 69.313,59.07C69.313,59.069 69.313,59.067 69.313,59.066C69.313,59.065 69.313,59.064 69.313,59.064C69.313,59.063 69.313,59.063 67.813,59.063ZM59.063,66.313L10.938,66.313L10.938,69.313L59.063,69.313L59.063,66.313ZM10.938,67.813C10.938,66.313 10.938,66.313 10.939,66.313C10.939,66.313 10.94,66.313 10.94,66.313C10.941,66.313 10.941,66.313 10.942,66.313C10.943,66.313 10.943,66.313 10.943,66.313C10.943,66.313 10.941,66.313 10.937,66.313C10.928,66.312 10.912,66.312 10.889,66.311C10.843,66.31 10.768,66.306 10.668,66.299C10.469,66.285 10.174,66.256 9.817,66.196C9.095,66.076 8.155,65.838 7.233,65.377C6.318,64.919 5.447,64.256 4.803,63.289C4.164,62.332 3.688,60.987 3.688,59.063L0.688,59.063C0.688,61.513 1.304,63.45 2.307,64.953C3.303,66.447 4.62,67.425 5.892,68.06C7.158,68.693 8.405,69.002 9.324,69.155C9.787,69.232 10.176,69.272 10.455,69.291C10.594,69.302 10.707,69.307 10.789,69.309C10.83,69.311 10.863,69.312 10.888,69.312C10.901,69.312 10.911,69.312 10.919,69.313C10.923,69.313 10.927,69.313 10.93,69.313C10.932,69.313 10.933,69.313 10.934,69.313C10.935,69.313 10.936,69.313 10.936,69.313C10.937,69.313 10.938,69.313 10.938,67.813ZM3.688,59.063L3.688,24.063L0.688,24.063L0.688,59.063L3.688,59.063ZM2.188,24.063C3.688,24.063 3.688,24.063 3.688,24.064C3.688,24.064 3.687,24.065 3.687,24.065C3.687,24.066 3.687,24.066 3.687,24.067C3.687,24.068 3.687,24.068 3.687,24.068C3.687,24.068 3.688,24.066 3.688,24.062C3.688,24.053 3.688,24.037 3.689,24.014C3.69,23.968 3.694,23.893 3.701,23.793C3.715,23.594 3.744,23.299 3.804,22.942C3.924,22.22 4.162,21.28 4.623,20.358C5.081,19.443 5.744,18.572 6.711,17.928C7.668,17.289 9.012,16.813 10.938,16.813L10.938,13.813C8.488,13.813 6.55,14.429 5.047,15.432C3.553,16.428 2.575,17.745 1.94,19.017C1.307,20.283 0.998,21.53 0.845,22.449C0.767,22.912 0.728,23.301 0.708,23.58C0.698,23.719 0.693,23.832 0.69,23.914C0.689,23.955 0.688,23.988 0.688,24.013C0.688,24.026 0.688,24.036 0.688,24.044C0.688,24.048 0.688,24.052 0.688,24.055C0.688,24.057 0.688,24.058 0.688,24.059C0.688,24.06 0.688,24.061 0.688,24.061C0.688,24.062 0.688,24.063 2.188,24.063Z" fill="#797979"/>
<path d="M42.734,5.391L43.795,4.33L43.795,4.33L42.734,5.391ZM27.266,5.391L28.327,6.452L28.327,6.452L27.266,5.391ZM24.063,15.313L22.563,15.313C22.563,16.141 23.234,16.813 24.063,16.813L24.063,15.313ZM45.938,15.313L45.938,16.813C46.766,16.813 47.438,16.141 47.438,15.313L45.938,15.313ZM47.438,13.125C47.438,9.826 46.127,6.663 43.795,4.33L41.673,6.452C43.443,8.222 44.438,10.622 44.438,13.125L47.438,13.125ZM43.795,4.33C41.462,1.998 38.299,0.688 35,0.688L35,3.688C37.503,3.688 39.903,4.682 41.674,6.452L43.795,4.33ZM35,0.688C31.701,0.688 28.538,1.998 26.205,4.33L28.327,6.452C30.097,4.682 32.497,3.688 35,3.688L35,0.688ZM26.205,4.33C23.873,6.663 22.563,9.826 22.563,13.125L25.563,13.125C25.563,10.622 26.557,8.222 28.327,6.452L26.205,4.33ZM22.563,13.125L22.563,15.313L25.563,15.313L25.563,13.125L22.563,13.125ZM24.063,16.813L45.938,16.813L45.938,13.813L24.063,13.813L24.063,16.813ZM47.438,15.313L47.438,13.125L44.438,13.125L44.438,15.313L47.438,15.313Z" fill="#797979"/>
<path d="M30.25,47.75L29.189,46.689L29.189,46.689L30.25,47.75ZM30.25,35.375L29.189,36.436L29.189,36.436L30.25,35.375ZM13.813,41.563C13.813,44.281 14.892,46.888 16.815,48.81L18.936,46.689C17.576,45.329 16.813,43.485 16.813,41.563L13.813,41.563ZM16.815,48.81C18.737,50.732 21.344,51.813 24.063,51.813L24.063,48.813C22.14,48.813 20.296,48.049 18.936,46.689L16.815,48.81ZM24.063,51.813C26.781,51.813 29.388,50.732 31.31,48.81L29.189,46.689C27.829,48.049 25.985,48.813 24.063,48.813L24.063,51.813ZM31.31,48.81C33.232,46.888 34.313,44.281 34.313,41.563L31.313,41.563C31.313,43.485 30.549,45.329 29.189,46.689L31.31,48.81ZM34.313,41.563C34.313,38.844 33.232,36.237 31.31,34.315L29.189,36.436C30.549,37.796 31.313,39.64 31.313,41.563L34.313,41.563ZM31.31,34.315C29.388,32.393 26.781,31.313 24.063,31.313L24.063,34.313C25.985,34.313 27.829,35.076 29.189,36.436L31.31,34.315ZM24.063,31.313C21.344,31.313 18.737,32.393 16.815,34.315L18.936,36.436C20.296,35.076 22.14,34.313 24.063,34.313L24.063,31.313ZM16.815,34.315C14.892,36.237 13.813,38.844 13.813,41.563L16.813,41.563C16.813,39.64 17.576,37.796 18.936,36.436L16.815,34.315Z" fill="#797979"/>
<path d="M32.813,40.063C31.984,40.063 31.313,40.734 31.313,41.563C31.313,42.391 31.984,43.063 32.813,43.063L32.813,40.063ZM54.688,41.563L56.188,41.563C56.188,40.734 55.516,40.063 54.688,40.063L54.688,41.563ZM53.188,48.125C53.188,48.953 53.859,49.625 54.688,49.625C55.516,49.625 56.188,48.953 56.188,48.125L53.188,48.125ZM32.813,43.063L54.688,43.063L54.688,40.063L32.813,40.063L32.813,43.063ZM53.188,41.563L53.188,48.125L56.188,48.125L56.188,41.563L53.188,41.563Z" fill="#797979"/>
<line x1="44.438" y1="41.563" x2="44.438" y2="45.938" stroke="#797979" stroke-width="1.5" stroke-miterlimit="3.999327" stroke-linecap="round" stroke-linejoin="round"/>
<line x1="18.188" y1="15.313" x2="18.188" y2="24.063" stroke="#797979" stroke-width="1.5" stroke-miterlimit="3.999327" stroke-linecap="round" stroke-linejoin="round"/>
<line x1="18.188" y1="59.063" x2="18.188" y2="67.813" stroke="#797979" stroke-width="1.5" stroke-miterlimit="3.999327" stroke-linecap="round" stroke-linejoin="round"/>
<line x1="48.813" y1="15.313" x2="48.813" y2="28.438" stroke="#797979" stroke-width="1.5" stroke-miterlimit="3.999327" stroke-linecap="round" stroke-linejoin="round"/>
<line x1="48.813" y1="59.063" x2="48.813" y2="67.813" stroke="#797979" stroke-width="1.5" stroke-miterlimit="3.999327" stroke-linecap="round" stroke-linejoin="round"/>
</svg>
