<svg width="72" height="58" viewBox="0 0 72 58" fill="none" xmlns="http://www.w3.org/2000/svg" xmlns:xlink="http://www.w3.org/1999/xlink">
<path d="M70.563,9.14L70.563,47.629C70.563,54.044 66.829,57.251 59.363,57.251L36.963,57.251C29.496,57.251 25.762,54.044 25.762,47.629L25.762,44.422L25.762,30.79L45.135,30.79L38.713,36.307C37.62,37.247 37.62,38.77 38.713,39.71C39.259,40.178 39.975,40.416 40.692,40.416C41.409,40.416 42.126,40.181 42.671,39.71L53.871,30.088C54.128,29.866 54.334,29.6 54.476,29.305C54.759,28.718 54.759,28.054 54.476,27.467C54.334,27.172 54.128,26.906 53.871,26.685L42.671,17.062C41.577,16.122 39.804,16.122 38.71,17.062C37.616,18.002 37.616,19.526 38.71,20.465L45.131,25.982L25.762,25.982L25.762,12.347L25.762,9.14C25.762,2.725 29.496,-0.482 36.963,-0.482L59.363,-0.482C66.829,-0.482 70.563,2.725 70.563,9.14ZM3.363,25.979C1.817,25.979 0.563,27.057 0.563,28.385C0.563,29.712 1.817,30.79 3.363,30.79L25.762,30.79L25.762,25.979L3.363,25.979Z" fill="#797979"/>
</svg>
