<svg width="186" height="114" viewBox="0 0 186 114" fill="none" xmlns="http://www.w3.org/2000/svg" xmlns:xlink="http://www.w3.org/1999/xlink">
<path d="M92.058,98.685C82.253,106.997 69.534,112.014 55.636,112.014C24.626,112.014 -0.514,87.032 -0.514,56.215C-0.514,25.398 24.626,0.416 55.636,0.416C69.534,0.416 82.253,5.434 92.058,13.746C101.863,5.434 114.581,0.416 128.479,0.416C159.49,0.416 184.629,25.398 184.629,56.215C184.629,87.032 159.49,112.014 128.479,112.014C114.581,112.014 101.863,106.997 92.058,98.685Z" clip-rule="evenodd" fill-rule="evenodd" fill="#ED0006"/>
<path d="M92.059,98.685C104.132,88.45 111.787,73.221 111.787,56.215C111.787,39.209 104.132,23.98 92.059,13.746C101.864,5.434 114.582,0.416 128.48,0.416C159.491,0.416 184.63,25.398 184.63,56.215C184.63,87.032 159.491,112.014 128.48,112.014C114.582,112.014 101.864,106.997 92.059,98.685Z" clip-rule="evenodd" fill-rule="evenodd" fill="#F9A000"/>
<path d="M92.058,98.685C79.985,88.45 72.33,73.221 72.33,56.215C72.33,39.21 79.985,23.981 92.058,13.746C104.131,23.981 111.786,39.21 111.786,56.215C111.786,73.221 104.131,88.45 92.058,98.685Z" clip-rule="evenodd" fill-rule="evenodd" fill="#FF5E00"/>
</svg>
