<svg width="88" height="76" viewBox="0 0 88 76" fill="none" xmlns="http://www.w3.org/2000/svg" xmlns:xlink="http://www.w3.org/1999/xlink">
<path d="M16,48.864L15.022,50.002L15.022,50.002L16,48.864ZM33.5,48.864L34.478,50.002L34.478,50.002L33.5,48.864ZM33.5,33.829L34.478,32.691L34.478,32.691L33.5,33.829ZM16,33.829L15.022,32.691L15.022,32.691L16,33.829ZM10.875,41.347C10.875,44.644 12.402,47.751 15.022,50.002L16.977,47.727C14.956,45.99 13.875,43.689 13.875,41.347L10.875,41.347ZM15.022,50.002C17.636,52.247 21.137,53.478 24.75,53.478L24.75,50.478C21.798,50.478 19.005,49.469 16.977,47.727L15.022,50.002ZM24.75,53.478C28.363,53.478 31.864,52.247 34.478,50.002L32.523,47.727C30.495,49.469 27.702,50.478 24.75,50.478L24.75,53.478ZM34.478,50.002C37.098,47.751 38.625,44.644 38.625,41.347L35.625,41.347C35.625,43.689 34.544,45.99 32.523,47.727L34.478,50.002ZM38.625,41.347C38.625,38.049 37.098,34.943 34.478,32.691L32.523,34.966C34.544,36.703 35.625,39.005 35.625,41.347L38.625,41.347ZM34.478,32.691C31.864,30.446 28.363,29.215 24.75,29.215L24.75,32.215C27.702,32.215 30.495,33.224 32.523,34.967L34.478,32.691ZM24.75,29.215C21.137,29.215 17.636,30.446 15.022,32.691L16.977,34.967C19.005,33.224 21.798,32.215 24.75,32.215L24.75,29.215ZM15.022,32.691C12.402,34.943 10.875,38.049 10.875,41.347L13.875,41.347C13.875,39.005 14.956,36.703 16.977,34.966L15.022,32.691Z" fill="#444444"/>
<path d="M45.268,73.472C45.396,74.291 46.164,74.851 46.982,74.722C47.8,74.594 48.36,73.827 48.232,73.008L45.268,73.472ZM39.363,61.426L38.462,62.626L38.462,62.626L39.363,61.426ZM10.137,61.426L11.038,62.626L11.038,62.626L10.137,61.426ZM1.268,73.008C1.14,73.827 1.7,74.594 2.518,74.722C3.337,74.851 4.104,74.291 4.232,73.472L1.268,73.008ZM48.232,73.008C47.449,68.009 44.591,63.478 40.264,60.227L38.462,62.626C42.227,65.454 44.618,69.319 45.268,73.472L48.232,73.008ZM40.264,60.227C35.942,56.98 30.428,55.211 24.75,55.211L24.75,58.211C29.821,58.211 34.693,59.793 38.462,62.626L40.264,60.227ZM24.75,55.211C19.072,55.211 13.558,56.98 9.236,60.227L11.038,62.626C14.807,59.793 19.679,58.211 24.75,58.211L24.75,55.211ZM9.236,60.227C4.909,63.478 2.051,68.009 1.268,73.008L4.232,73.472C4.882,69.319 7.273,65.454 11.038,62.626L9.236,60.227Z" fill="#444444"/>
</svg>
