<svg width="166" height="142" viewBox="0 0 166 142" fill="none" xmlns="http://www.w3.org/2000/svg" xmlns:xlink="http://www.w3.org/1999/xlink">
<path d="M19.463,97.197L6.663,97.197C5.787,97.197 5.042,97.823 4.905,98.672L-0.272,130.917C-0.375,131.553 0.127,132.127 0.784,132.127L6.895,132.127C7.771,132.127 8.516,131.501 8.653,130.65L10.049,121.954C10.184,121.102 10.93,120.477 11.805,120.477L15.857,120.477C24.289,120.477 29.155,116.469 30.427,108.526C30.999,105.051 30.451,102.32 28.794,100.408C26.975,98.309 23.747,97.197 19.463,97.197ZM20.94,108.974C20.24,113.486 16.731,113.487 13.338,113.487L11.406,113.487L12.761,105.059C12.841,104.551 13.291,104.175 13.815,104.175L14.7,104.175C17.012,104.175 19.192,104.175 20.319,105.47C20.99,106.242 21.197,107.389 20.94,108.974ZM57.727,108.83L51.597,108.83C51.075,108.83 50.624,109.205 50.543,109.715L50.272,111.398L49.843,110.788C48.516,108.896 45.558,108.264 42.604,108.264C35.83,108.264 30.045,113.304 28.918,120.373C28.332,123.899 29.165,127.272 31.201,129.623C33.069,131.785 35.742,132.687 38.922,132.687C44.38,132.687 47.407,129.239 47.407,129.239L47.133,130.912C47.03,131.552 47.532,132.126 48.185,132.126L53.706,132.126C54.585,132.126 55.325,131.5 55.464,130.65L58.777,110.04C58.882,109.406 58.382,108.83 57.727,108.83ZM49.182,120.55C48.591,123.99 45.811,126.299 42.267,126.299C40.487,126.299 39.064,125.738 38.151,124.675C37.245,123.62 36.9,122.118 37.189,120.445C37.741,117.034 40.568,114.65 44.058,114.65C45.798,114.65 47.214,115.217 48.146,116.289C49.079,117.372 49.45,118.884 49.182,120.55ZM84.214,108.829L90.374,108.829C91.237,108.829 91.74,109.779 91.25,110.474L70.762,139.525C70.43,139.996 69.884,140.276 69.3,140.276L63.148,140.276C62.282,140.276 61.776,139.317 62.277,138.621L68.657,129.775L61.872,110.215C61.637,109.535 62.148,108.829 62.884,108.829L68.937,108.829C69.724,108.829 70.417,109.336 70.644,110.075L74.245,121.889L82.741,109.595C83.074,109.116 83.627,108.829 84.214,108.829Z" clip-rule="evenodd" fill-rule="evenodd" fill="#253B80"/>
<path d="M151.001,130.917L156.255,98.082C156.335,97.572 156.785,97.197 157.307,97.195L163.221,97.195C163.874,97.195 164.376,97.771 164.273,98.407L159.092,130.65C158.957,131.501 158.212,132.127 157.335,132.127L152.053,132.127C151.4,132.127 150.898,131.553 151.001,130.917ZM110.769,97.197L97.966,97.197C97.092,97.197 96.347,97.822 96.21,98.672L91.033,130.917C90.93,131.553 91.431,132.127 92.085,132.127L98.654,132.127C99.265,132.127 99.787,131.689 99.883,131.094L101.352,121.953C101.487,121.102 102.233,120.477 103.107,120.477L107.158,120.477C115.592,120.477 120.457,116.469 121.729,108.526C122.303,105.051 121.752,102.32 120.096,100.407C118.278,98.308 115.053,97.197 110.769,97.197ZM112.246,108.974C111.547,113.486 108.038,113.486 104.642,113.486L102.712,113.486L104.07,105.059C104.15,104.55 104.595,104.175 105.121,104.175L106.006,104.175C108.317,104.175 110.499,104.175 111.625,105.469C112.297,106.242 112.502,107.389 112.246,108.974ZM149.029,108.829L142.904,108.829C142.377,108.829 141.93,109.205 141.851,109.714L141.58,111.398L141.15,110.788C139.823,108.896 136.865,108.264 133.912,108.264C127.138,108.264 121.354,113.303 120.227,120.373C119.643,123.899 120.472,127.271 122.509,129.623C124.381,131.785 127.05,132.686 130.23,132.686C135.687,132.686 138.714,129.239 138.714,129.239L138.441,130.912C138.338,131.552 138.839,132.126 139.497,132.126L145.016,132.126C145.89,132.126 146.635,131.5 146.772,130.649L150.087,110.039C150.188,109.405 149.686,108.829 149.029,108.829ZM140.485,120.549C139.897,123.99 137.114,126.299 133.569,126.299C131.792,126.299 130.367,125.738 129.453,124.675C128.547,123.62 128.206,122.118 128.491,120.445C129.047,117.034 131.869,114.649 135.36,114.649C137.101,114.649 138.516,115.217 139.448,116.289C140.386,117.372 140.756,118.883 140.485,120.549Z" clip-rule="evenodd" fill-rule="evenodd" fill="#179BD7"/>
<path d="M66.836,85.663L68.41,75.843L64.905,75.763L48.166,75.763L59.799,3.306C59.834,3.087 59.952,2.883 60.123,2.738C60.295,2.593 60.515,2.514 60.744,2.514L88.968,2.514C98.338,2.514 104.804,4.429 108.18,8.21C109.763,9.983 110.771,11.836 111.258,13.876C111.77,16.016 111.779,18.573 111.279,21.691L111.243,21.919L111.243,23.917L112.826,24.798C114.159,25.493 115.218,26.288 116.03,27.198C117.385,28.715 118.261,30.642 118.63,32.927C119.012,35.277 118.886,38.073 118.261,41.239C117.538,44.88 116.371,48.052 114.794,50.647C113.343,53.039 111.496,55.022 109.303,56.559C107.208,58.019 104.72,59.128 101.906,59.837C99.18,60.534 96.072,60.887 92.663,60.887L90.466,60.887C88.896,60.887 87.37,61.442 86.173,62.439C84.972,63.455 84.177,64.844 83.934,66.364L83.768,67.248L80.988,84.554L80.861,85.189C80.828,85.391 80.771,85.492 80.687,85.56C80.612,85.621 80.503,85.663 80.398,85.663L66.836,85.663Z" fill="#253B80"/>
<path d="M114.325,22.15C114.24,22.679 114.144,23.22 114.036,23.776C110.313,42.549 97.58,49.034 81.316,49.034L73.035,49.034C71.046,49.034 69.37,50.453 69.06,52.38L64.82,78.794L63.62,86.281C63.418,87.546 64.412,88.687 65.711,88.687L80.398,88.687C82.138,88.687 83.615,87.446 83.888,85.761L84.033,85.028L86.799,67.789L86.976,66.844C87.246,65.153 88.727,63.912 90.466,63.912L92.663,63.912C106.892,63.912 118.032,58.236 121.288,41.813C122.648,34.952 121.943,29.224 118.344,25.195C117.256,23.98 115.904,22.972 114.325,22.15Z" fill="#179BD7"/>
<path d="M110.429,20.627C109.861,20.464 109.274,20.316 108.672,20.183C108.067,20.053 107.447,19.938 106.81,19.838C104.577,19.483 102.131,19.314 99.51,19.314L77.388,19.314C76.843,19.314 76.326,19.436 75.862,19.654C74.842,20.136 74.084,21.085 73.9,22.247L69.194,51.528L69.059,52.382C69.369,50.455 71.045,49.036 73.033,49.036L81.314,49.036C97.578,49.036 110.312,42.548 114.034,23.778C114.145,23.222 114.239,22.681 114.323,22.152C113.381,21.661 112.361,21.242 111.263,20.884C110.992,20.795 110.713,20.71 110.429,20.627Z" fill="#222D65"/>
<path d="M73.901,22.246C74.084,21.084 74.843,20.135 75.863,19.656C76.329,19.437 76.844,19.316 77.388,19.316L99.511,19.316C102.132,19.316 104.578,19.485 106.81,19.839C107.448,19.94 108.068,20.055 108.673,20.185C109.275,20.318 109.861,20.466 110.43,20.629C110.713,20.711 110.993,20.797 111.266,20.883C112.365,21.241 113.385,21.663 114.326,22.151C115.434,15.214 114.318,10.49 110.5,6.213C106.29,1.504 98.692,-0.512 88.97,-0.512L60.745,-0.512C58.759,-0.512 57.066,0.907 56.758,2.837L45.003,76.04C44.771,77.488 45.908,78.795 47.394,78.795L64.82,78.795L69.195,51.527L73.901,22.246Z" fill="#253B80"/>
</svg>
