<svg width="26" height="36" viewBox="0 0 26 36" fill="none" xmlns="http://www.w3.org/2000/svg" xmlns:xlink="http://www.w3.org/1999/xlink">
<path d="M4,20L4,18L-0.828,18L2.586,21.414L4,20ZM19.414,32.586L5.414,18.586L2.586,21.414L16.586,35.414L19.414,32.586ZM2,13L26,13L26,9L2,9L2,13ZM2,2C2,4 2,4 2,4C2,4 2,4 2,4C2,4 2,4 2,4C2,4 2.001,4 2.001,4C2.001,4 2.001,4 2.001,4C2.001,4 2.001,4 2.001,4C2.002,4 2.002,4 2.002,4C2.002,4 2.002,4 2.003,4C2.003,4 2.003,4 2.003,4C2.003,4 2.004,4 2.004,4C2.004,4 2.005,4 2.005,4C2.005,4 2.005,4 2.006,4C2.006,4 2.006,4 2.007,4C2.007,4 2.007,4 2.008,4C2.008,4 2.008,4 2.009,4C2.009,4 2.01,4 2.01,4C2.011,4 2.011,4 2.011,4C2.012,4 2.012,4 2.013,4C2.013,4 2.014,4 2.014,4C2.015,4 2.015,4 2.016,4C2.016,4 2.017,4 2.017,4C2.018,4 2.018,4 2.019,4C2.02,4 2.02,4 2.021,4C2.021,4 2.022,4 2.023,4C2.023,4 2.024,4 2.025,4C2.025,4 2.026,4 2.027,4C2.027,4 2.028,4 2.029,4C2.029,4 2.03,4 2.031,4C2.031,4 2.032,4 2.033,4C2.034,4 2.034,4 2.035,4C2.036,4 2.037,4 2.038,4C2.038,4 2.039,4 2.04,4C2.041,4 2.042,4 2.043,4C2.043,4 2.044,4 2.045,4C2.046,4 2.047,4 2.048,4C2.049,4 2.05,4 2.05,4C2.051,4 2.052,4 2.053,4C2.054,4 2.055,4 2.056,4C2.057,4 2.058,4 2.059,4C2.06,4 2.061,4 2.062,4C2.063,4 2.064,4 2.065,4C2.066,4 2.067,4 2.068,4C2.07,4 2.071,4 2.072,4C2.073,4 2.074,4 2.075,4C2.076,4 2.077,4 2.078,4C2.08,4 2.081,4 2.082,4C2.083,4 2.084,4 2.085,4C2.087,4 2.088,4 2.089,4C2.09,4 2.091,4 2.093,4C2.094,4 2.095,4 2.096,4C2.098,4 2.099,4 2.1,4C2.102,4 2.103,4 2.104,4C2.106,4 2.107,4 2.108,4C2.11,4 2.111,4 2.112,4C2.114,4 2.115,4 2.116,4C2.118,4 2.119,4 2.121,4C2.122,4 2.123,4 2.125,4C2.126,4 2.128,4 2.129,4C2.131,4 2.132,4 2.134,4C2.135,4 2.137,4 2.138,4C2.14,4 2.141,4 2.143,4C2.144,4 2.146,4 2.147,4C2.149,4 2.15,4 2.152,4C2.153,4 2.155,4 2.157,4C2.158,4 2.16,4 2.161,4C2.163,4 2.165,4 2.166,4C2.168,4 2.17,4 2.171,4C2.173,4 2.175,4 2.176,4C2.178,4 2.18,4 2.181,4C2.183,4 2.185,4 2.187,4C2.188,4 2.19,4 2.192,4C2.194,4 2.195,4 2.197,4C2.199,4 2.201,4 2.203,4C2.204,4 2.206,4 2.208,4C2.21,4 2.212,4 2.213,4C2.215,4 2.217,4 2.219,4C2.221,4 2.223,4 2.225,4C2.227,4 2.229,4 2.23,4C2.232,4 2.234,4 2.236,4C2.238,4 2.24,4 2.242,4C2.244,4 2.246,4 2.248,4C2.25,4 2.252,4 2.254,4C2.256,4 2.258,4 2.26,4C2.262,4 2.264,4 2.266,4C2.268,4 2.27,4 2.272,4C2.274,4 2.277,4 2.279,4C2.281,4 2.283,4 2.285,4C2.287,4 2.289,4 2.291,4C2.293,4 2.296,4 2.298,4C2.3,4 2.302,4 2.304,4C2.306,4 2.309,4 2.311,4C2.313,4 2.315,4 2.318,4C2.32,4 2.322,4 2.324,4C2.327,4 2.329,4 2.331,4C2.333,4 2.336,4 2.338,4C2.34,4 2.342,4 2.345,4C2.347,4 2.349,4 2.352,4C2.354,4 2.356,4 2.359,4C2.361,4 2.364,4 2.366,4C2.368,4 2.371,4 2.373,4C2.376,4 2.378,4 2.38,4C2.383,4 2.385,4 2.388,4C2.39,4 2.393,4 2.395,4C2.397,4 2.4,4 2.402,4C2.405,4 2.407,4 2.41,4C2.412,4 2.415,4 2.417,4C2.42,4 2.423,4 2.425,4C2.428,4 2.43,4 2.433,4C2.435,4 2.438,4 2.441,4C2.443,4 2.446,4 2.448,4C2.451,4 2.454,4 2.456,4C2.459,4 2.462,4 2.464,4C2.467,4 2.469,4 2.472,4C2.475,4 2.478,4 2.48,4C2.483,4 2.486,4 2.488,4C2.491,4 2.494,4 2.497,4C2.499,4 2.502,4 2.505,4C2.508,4 2.51,4 2.513,4C2.516,4 2.519,4 2.521,4C2.524,4 2.527,4 2.53,4C2.533,4 2.536,4 2.538,4C2.541,4 2.544,4 2.547,4C2.55,4 2.553,4 2.556,4C2.558,4 2.561,4 2.564,4C2.567,4 2.57,4 2.573,4C2.576,4 2.579,4 2.582,4C2.585,4 2.588,4 2.591,4C2.594,4 2.597,4 2.599,4C2.602,4 2.605,4 2.608,4C2.611,4 2.614,4 2.618,4C2.621,4 2.624,4 2.627,4C2.63,4 2.633,4 2.636,4C2.639,4 2.642,4 2.645,4C2.648,4 2.651,4 2.654,4C2.657,4 2.66,4 2.664,4C2.667,4 2.67,4 2.673,4C2.676,4 2.679,4 2.682,4C2.686,4 2.689,4 2.692,4C2.695,4 2.698,4 2.701,4C2.705,4 2.708,4 2.711,4C2.714,4 2.718,4 2.721,4C2.724,4 2.727,4 2.731,4C2.734,4 2.737,4 2.74,4C2.744,4 2.747,4 2.75,4C2.753,4 2.757,4 2.76,4C2.763,4 2.767,4 2.77,4C2.773,4 2.777,4 2.78,4C2.783,4 2.787,4 2.79,4C2.794,4 2.797,4 2.8,4C2.804,4 2.807,4 2.811,4C2.814,4 2.817,4 2.821,4C2.824,4 2.828,4 2.831,4C2.835,4 2.838,4 2.841,4C2.845,4 2.848,4 2.852,4C2.855,4 2.859,4 2.862,4C2.866,4 2.869,4 2.873,4C2.876,4 2.88,4 2.884,4C2.887,4 2.891,4 2.894,4C2.898,4 2.901,4 2.905,4C2.908,4 2.912,4 2.916,4C2.919,4 2.923,4 2.926,4C2.93,4 2.934,4 2.937,4C2.941,4 2.945,4 2.948,4C2.952,4 2.956,4 2.959,4C2.963,4 2.967,4 2.97,4C2.974,4 2.978,4 2.981,4C2.985,4 2.989,4 2.992,4C2.996,4 3,4 3.004,4C3.007,4 3.011,4 3.015,4C3.019,4 3.022,4 3.026,4C3.03,4 3.034,4 3.038,4C3.041,4 3.045,4 3.049,4C3.053,4 3.057,4 3.06,4C3.064,4 3.068,4 3.072,4C3.076,4 3.08,4 3.084,4C3.087,4 3.091,4 3.095,4C3.099,4 3.103,4 3.107,4C3.111,4 3.115,4 3.119,4C3.122,4 3.126,4 3.13,4C3.134,4 3.138,4 3.142,4C3.146,4 3.15,4 3.154,4C3.158,4 3.162,4 3.166,4C3.17,4 3.174,4 3.178,4C3.182,4 3.186,4 3.19,4C3.194,4 3.198,4 3.202,4C3.206,4 3.21,4 3.214,4C3.218,4 3.222,4 3.226,4C3.23,4 3.235,4 3.239,4C3.243,4 3.247,4 3.251,4C3.255,4 3.259,4 3.263,4C3.267,4 3.272,4 3.276,4C3.28,4 3.284,4 3.288,4C3.292,4 3.296,4 3.301,4C3.305,4 3.309,4 3.313,4C3.317,4 3.322,4 3.326,4C3.33,4 3.334,4 3.338,4C3.343,4 3.347,4 3.351,4C3.355,4 3.36,4 3.364,4C3.368,4 3.372,4 3.377,4C3.381,4 3.385,4 3.389,4C3.394,4 3.398,4 3.402,4C3.407,4 3.411,4 3.415,4C3.42,4 3.424,4 3.428,4C3.433,4 3.437,4 3.441,4C3.446,4 3.45,4 3.454,4C3.459,4 3.463,4 3.468,4C3.472,4 3.476,4 3.481,4C3.485,4 3.49,4 3.494,4C3.498,4 3.503,4 3.507,4C3.512,4 3.516,4 3.521,4C3.525,4 3.529,4 3.534,4C3.538,4 3.543,4 3.547,4C3.552,4 3.556,4 3.561,4C3.565,4 3.57,4 3.574,4C3.579,4 3.583,4 3.588,4C3.592,4 3.597,4 3.601,4C3.606,4 3.611,4 3.615,4C3.62,4 3.624,4 3.629,4C3.633,4 3.638,4 3.643,4C3.647,4 3.652,4 3.656,4C3.661,4 3.666,4 3.67,4C3.675,4 3.679,4 3.684,4C3.689,4 3.693,4 3.698,4C3.703,4 3.707,4 3.712,4C3.717,4 3.721,4 3.726,4C3.731,4 3.735,4 3.74,4C3.745,4 3.749,4 3.754,4C3.759,4 3.764,4 3.768,4C3.773,4 3.778,4 3.782,4C3.787,4 3.792,4 3.797,4C3.801,4 3.806,4 3.811,4C3.816,4 3.821,4 3.825,4C3.83,4 3.835,4 3.84,4C3.844,4 3.849,4 3.854,4C3.859,4 3.864,4 3.869,4C3.873,4 3.878,4 3.883,4C3.888,4 3.893,4 3.898,4C3.902,4 3.907,4 3.912,4C3.917,4 3.922,4 3.927,4C3.932,4 3.937,4 3.941,4C3.946,4 3.951,4 3.956,4C3.961,4 3.966,4 3.971,4C3.976,4 3.981,4 3.986,4C3.991,4 3.996,4 4.001,4C4.006,4 4.011,4 4.016,4C4.02,4 4.025,4 4.03,4C4.035,4 4.04,4 4.045,4C4.05,4 4.055,4 4.06,4C4.065,4 4.07,4 4.075,4C4.08,4 4.086,4 4.091,4C4.096,4 4.101,4 4.106,4C4.111,4 4.116,4 4.121,4C4.126,4 4.131,4 4.136,4C4.141,4 4.146,4 4.151,4C4.156,4 4.162,4 4.167,4C4.172,4 4.177,4 4.182,4C4.187,4 4.192,4 4.197,4C4.202,4 4.208,4 4.213,4C4.218,4 4.223,4 4.228,4C4.233,4 4.239,4 4.244,4C4.249,4 4.254,4 4.259,4C4.264,4 4.27,4 4.275,4C4.28,4 4.285,4 4.29,4C4.296,4 4.301,4 4.306,4C4.311,4 4.317,4 4.322,4C4.327,4 4.332,4 4.338,4C4.343,4 4.348,4 4.353,4C4.359,4 4.364,4 4.369,4C4.374,4 4.38,4 4.385,4C4.39,4 4.396,4 4.401,4C4.406,4 4.411,4 4.417,4C4.422,4 4.427,4 4.433,4C4.438,4 4.443,4 4.449,4C4.454,4 4.459,4 4.465,4C4.47,4 4.476,4 4.481,4C4.486,4 4.492,4 4.497,4C4.502,4 4.508,4 4.513,4C4.519,4 4.524,4 4.529,4C4.535,4 4.54,4 4.546,4C4.551,4 4.556,4 4.562,4C4.567,4 4.573,4 4.578,4C4.584,4 4.589,4 4.594,4C4.6,4 4.605,4 4.611,4C4.616,4 4.622,4 4.627,4C4.633,4 4.638,4 4.644,4C4.649,4 4.655,4 4.66,4C4.666,4 4.671,4 4.677,4C4.682,4 4.688,4 4.693,4C4.699,4 4.704,4 4.71,4C4.715,4 4.721,4 4.726,4C4.732,4 4.738,4 4.743,4C4.749,4 4.754,4 4.76,4C4.765,4 4.771,4 4.776,4C4.782,4 4.788,4 4.793,4C4.799,4 4.804,4 4.81,4C4.816,4 4.821,4 4.827,4C4.833,4 4.838,4 4.844,4C4.849,4 4.855,4 4.861,4C4.866,4 4.872,4 4.878,4C4.883,4 4.889,4 4.895,4C4.9,4 4.906,4 4.912,4C4.917,4 4.923,4 4.929,4C4.934,4 4.94,4 4.946,4C4.951,4 4.957,4 4.963,4C4.968,4 4.974,4 4.98,4C4.986,4 4.991,4 4.997,4C5.003,4 5.008,4 5.014,4C5.02,4 5.026,4 5.031,4C5.037,4 5.043,4 5.049,4C5.054,4 5.06,4 5.066,4C5.072,4 5.078,4 5.083,4C5.089,4 5.095,4 5.101,4C5.106,4 5.112,4 5.118,4C5.124,4 5.13,4 5.135,4C5.141,4 5.147,4 5.153,4C5.159,4 5.165,4 5.17,4C5.176,4 5.182,4 5.188,4C5.194,4 5.2,4 5.205,4C5.211,4 5.217,4 5.223,4C5.229,4 5.235,4 5.241,4C5.246,4 5.252,4 5.258,4C5.264,4 5.27,4 5.276,4C5.282,4 5.288,4 5.294,4C5.3,4 5.305,4 5.311,4C5.317,4 5.323,4 5.329,4C5.335,4 5.341,4 5.347,4C5.353,4 5.359,4 5.365,4C5.371,4 5.377,4 5.382,4C5.388,4 5.394,4 5.4,4C5.406,4 5.412,4 5.418,4C5.424,4 5.43,4 5.436,4C5.442,4 5.448,4 5.454,4C5.46,4 5.466,4 5.472,4C5.478,4 5.484,4 5.49,4C5.496,4 5.502,4 5.508,4C5.514,4 5.52,4 5.526,4C5.532,4 5.538,4 5.544,4C5.55,4 5.556,4 5.562,4C5.569,4 5.575,4 5.581,4C5.587,4 5.593,4 5.599,4C5.605,4 5.611,4 5.617,4C5.623,4 5.629,4 5.635,4C5.641,4 5.647,4 5.654,4C5.66,4 5.666,4 5.672,4C5.678,4 5.684,4 5.69,4C5.696,4 5.702,4 5.708,4C5.715,4 5.721,4 5.727,4C5.733,4 5.739,4 5.745,4C5.751,4 5.757,4 5.764,4C5.77,4 5.776,4 5.782,4C5.788,4 5.794,4 5.801,4C5.807,4 5.813,4 5.819,4C5.825,4 5.831,4 5.838,4C5.844,4 5.85,4 5.856,4C5.862,4 5.868,4 5.875,4C5.881,4 5.887,4 5.893,4C5.899,4 5.906,4 5.912,4C5.918,4 5.924,4 5.931,4C5.937,4 5.943,4 5.949,4C5.955,4 5.962,4 5.968,4C5.974,4 5.98,4 5.987,4C5.993,4 5.999,4 6.005,4C6.012,4 6.018,4 6.024,4C6.03,4 6.037,4 6.043,4C6.049,4 6.055,4 6.062,4C6.068,4 6.074,4 6.081,4C6.087,4 6.093,4 6.099,4C6.106,4 6.112,4 6.118,4C6.125,4 6.131,4 6.137,4C6.144,4 6.15,4 6.156,4C6.162,4 6.169,4 6.175,4C6.181,4 6.188,4 6.194,4C6.2,4 6.207,4 6.213,4C6.219,4 6.226,4 6.232,4C6.238,4 6.245,4 6.251,4C6.257,4 6.264,4 6.27,4C6.277,4 6.283,4 6.289,4C6.296,4 6.302,4 6.308,4C6.315,4 6.321,4 6.328,4C6.334,4 6.34,4 6.347,4C6.353,4 6.359,4 6.366,4C6.372,4 6.379,4 6.385,4C6.391,4 6.398,4 6.404,4C6.411,4 6.417,4 6.423,4C6.43,4 6.436,4 6.443,4C6.449,4 6.456,4 6.462,4C6.468,4 6.475,4 6.481,4C6.488,4 6.494,4 6.501,4C6.507,4 6.514,4 6.52,4C6.526,4 6.533,4 6.539,4C6.546,4 6.552,4 6.559,4C6.565,4 6.572,4 6.578,4C6.585,4 6.591,4 6.597,4C6.604,4 6.61,4 6.617,4C6.623,4 6.63,4 6.636,4C6.643,4 6.649,4 6.656,4C6.662,4 6.669,4 6.675,4C6.682,4 6.688,4 6.695,4C6.701,4 6.708,4 6.714,4C6.721,4 6.727,4 6.734,4C6.74,4 6.747,4 6.753,4C6.76,4 6.766,4 6.773,4C6.78,4 6.786,4 6.793,4C6.799,4 6.806,4 6.812,4C6.819,4 6.825,4 6.832,4C6.838,4 6.845,4 6.851,4C6.858,4 6.865,4 6.871,4C6.878,4 6.884,4 6.891,4C6.897,4 6.904,4 6.911,4C6.917,4 6.924,4 6.93,4C6.937,4 6.943,4 6.95,4C6.957,4 6.963,4 6.97,4C6.976,4 6.983,4 6.989,4C6.996,4 7.003,4 7.009,4C7.016,4 7.022,4 7.029,4C7.036,4 7.042,4 7.049,4C7.055,4 7.062,4 7.069,4C7.075,4 7.082,4 7.089,4C7.095,4 7.102,4 7.108,4C7.115,4 7.122,4 7.128,4C7.135,4 7.142,4 7.148,4C7.155,4 7.161,4 7.168,4C7.175,4 7.181,4 7.188,4C7.195,4 7.201,4 7.208,4C7.215,4 7.221,4 7.228,4C7.234,4 7.241,4 7.248,4C7.254,4 7.261,4 7.268,4C7.274,4 7.281,4 7.288,4C7.294,4 7.301,4 7.308,4C7.314,4 7.321,4 7.328,4C7.334,4 7.341,4 7.348,4C7.354,4 7.361,4 7.368,4C7.375,4 7.381,4 7.388,4C7.395,4 7.401,4 7.408,4C7.415,4 7.421,4 7.428,4C7.435,4 7.441,4 7.448,4C7.455,4 7.462,4 7.468,4C7.475,4 7.482,4 7.488,4C7.495,4 7.502,4 7.508,4C7.515,4 7.522,4 7.529,4C7.535,4 7.542,4 7.549,4C7.555,4 7.562,4 7.569,4C7.576,4 7.582,4 7.589,4C7.596,4 7.603,4 7.609,4C7.616,4 7.623,4 7.629,4C7.636,4 7.643,4 7.65,4C7.656,4 7.663,4 7.67,4C7.677,4 7.683,4 7.69,4C7.697,4 7.704,4 7.71,4C7.717,4 7.724,4 7.731,4C7.737,4 7.744,4 7.751,4C7.758,4 7.764,4 7.771,4C7.778,4 7.785,4 7.791,4C7.798,4 7.805,4 7.812,4C7.818,4 7.825,4 7.832,4C7.839,4 7.846,4 7.852,4C7.859,4 7.866,4 7.873,4C7.879,4 7.886,4 7.893,4C7.9,4 7.907,4 7.913,4C7.92,4 7.927,4 7.934,4C7.94,4 7.947,4 7.954,4C7.961,4 7.968,4 7.974,4C7.981,4 7.988,4 7.995,4C8.002,4 8.008,4 8.015,4C8.022,4 8.029,4 8.036,4C8.042,4 8.049,4 8.056,4C8.063,4 8.07,4 8.076,4C8.083,4 8.09,4 8.097,4C8.104,4 8.11,4 8.117,4C8.124,4 8.131,4 8.138,4C8.144,4 8.151,4 8.158,4C8.165,4 8.172,4 8.178,4C8.185,4 8.192,4 8.199,4C8.206,4 8.213,4 8.219,4C8.226,4 8.233,4 8.24,4C8.247,4 8.253,4 8.26,4C8.267,4 8.274,4 8.281,4C8.288,4 8.294,4 8.301,4C8.308,4 8.315,4 8.322,4C8.329,4 8.335,4 8.342,4C8.349,4 8.356,4 8.363,4C8.37,4 8.376,4 8.383,4C8.39,4 8.397,4 8.404,4C8.411,4 8.417,4 8.424,4C8.431,4 8.438,4 8.445,4C8.452,4 8.458,4 8.465,4C8.472,4 8.479,4 8.486,4C8.493,4 8.499,4 8.506,4C8.513,4 8.52,4 8.527,4C8.534,4 8.541,4 8.547,4C8.554,4 8.561,4 8.568,4C8.575,4 8.582,4 8.588,4C8.595,4 8.602,4 8.609,4C8.616,4 8.623,4 8.63,4C8.636,4 8.643,4 8.65,4C8.657,4 8.664,4 8.671,4C8.678,4 8.684,4 8.691,4C8.698,4 8.705,4 8.712,4C8.719,4 8.726,4 8.732,4C8.739,4 8.746,4 8.753,4C8.76,4 8.767,4 8.774,4C8.78,4 8.787,4 8.794,4C8.801,4 8.808,4 8.815,4C8.822,4 8.828,4 8.835,4C8.842,4 8.849,4 8.856,4C8.863,4 8.87,4 8.876,4C8.883,4 8.89,4 8.897,4C8.904,4 8.911,4 8.918,4C8.925,4 8.931,4 8.938,4C8.945,4 8.952,4 8.959,4C8.966,4 8.973,4 8.979,4C8.986,4 8.993,4 9,4L9,0C8.993,0 8.986,0 8.979,0C8.973,0 8.966,0 8.959,0C8.952,0 8.945,0 8.938,0C8.931,0 8.925,0 8.918,0C8.911,0 8.904,0 8.897,0C8.89,0 8.883,0 8.876,0C8.87,0 8.863,0 8.856,0C8.849,0 8.842,0 8.835,0C8.828,0 8.822,0 8.815,0C8.808,0 8.801,0 8.794,0C8.787,0 8.78,0 8.774,0C8.767,0 8.76,0 8.753,0C8.746,0 8.739,0 8.732,0C8.726,0 8.719,0 8.712,0C8.705,0 8.698,0 8.691,0C8.684,0 8.678,0 8.671,0C8.664,0 8.657,0 8.65,0C8.643,0 8.636,0 8.63,0C8.623,0 8.616,0 8.609,0C8.602,0 8.595,0 8.588,0C8.582,0 8.575,0 8.568,0C8.561,0 8.554,0 8.547,0C8.541,0 8.534,0 8.527,0C8.52,0 8.513,0 8.506,0C8.499,0 8.493,0 8.486,0C8.479,0 8.472,0 8.465,0C8.458,0 8.452,0 8.445,0C8.438,0 8.431,0 8.424,0C8.417,0 8.411,0 8.404,0C8.397,0 8.39,0 8.383,0C8.376,0 8.37,0 8.363,0C8.356,0 8.349,0 8.342,0C8.335,0 8.329,0 8.322,0C8.315,0 8.308,0 8.301,0C8.294,0 8.288,0 8.281,0C8.274,0 8.267,0 8.26,0C8.253,0 8.247,0 8.24,0C8.233,0 8.226,0 8.219,0C8.213,0 8.206,0 8.199,0C8.192,0 8.185,0 8.178,0C8.172,0 8.165,0 8.158,0C8.151,0 8.144,0 8.138,0C8.131,0 8.124,0 8.117,0C8.11,0 8.104,0 8.097,0C8.09,0 8.083,0 8.076,0C8.07,0 8.063,0 8.056,0C8.049,0 8.042,0 8.036,0C8.029,0 8.022,0 8.015,0C8.008,0 8.002,0 7.995,0C7.988,0 7.981,0 7.974,0C7.968,0 7.961,0 7.954,0C7.947,0 7.94,0 7.934,0C7.927,0 7.92,0 7.913,0C7.907,0 7.9,0 7.893,0C7.886,0 7.879,0 7.873,0C7.866,0 7.859,0 7.852,0C7.846,0 7.839,0 7.832,0C7.825,0 7.818,0 7.812,0C7.805,0 7.798,0 7.791,0C7.785,0 7.778,0 7.771,0C7.764,0 7.758,0 7.751,0C7.744,0 7.737,0 7.731,0C7.724,0 7.717,0 7.71,0C7.704,0 7.697,0 7.69,0C7.683,0 7.677,0 7.67,0C7.663,0 7.656,0 7.65,0C7.643,0 7.636,0 7.629,0C7.623,0 7.616,0 7.609,0C7.603,0 7.596,0 7.589,0C7.582,0 7.576,0 7.569,0C7.562,0 7.555,0 7.549,0C7.542,0 7.535,0 7.529,0C7.522,0 7.515,0 7.508,0C7.502,0 7.495,0 7.488,0C7.482,0 7.475,0 7.468,0C7.462,0 7.455,0 7.448,0C7.441,0 7.435,0 7.428,0C7.421,0 7.415,0 7.408,0C7.401,0 7.395,0 7.388,0C7.381,0 7.375,0 7.368,0C7.361,0 7.354,0 7.348,0C7.341,0 7.334,0 7.328,0C7.321,0 7.314,0 7.308,0C7.301,0 7.294,0 7.288,0C7.281,0 7.274,0 7.268,0C7.261,0 7.254,0 7.248,0C7.241,0 7.234,0 7.228,0C7.221,0 7.215,0 7.208,0C7.201,0 7.195,0 7.188,0C7.181,0 7.175,0 7.168,0C7.161,0 7.155,0 7.148,0C7.142,0 7.135,0 7.128,0C7.122,0 7.115,0 7.108,0C7.102,0 7.095,0 7.089,0C7.082,0 7.075,0 7.069,0C7.062,0 7.055,0 7.049,0C7.042,0 7.036,0 7.029,0C7.022,0 7.016,0 7.009,0C7.003,0 6.996,0 6.989,0C6.983,0 6.976,0 6.97,0C6.963,0 6.957,0 6.95,0C6.943,0 6.937,0 6.93,0C6.924,0 6.917,0 6.911,0C6.904,0 6.897,0 6.891,0C6.884,0 6.878,0 6.871,0C6.865,0 6.858,0 6.851,0C6.845,0 6.838,0 6.832,0C6.825,0 6.819,0 6.812,0C6.806,0 6.799,0 6.793,0C6.786,0 6.78,0 6.773,0C6.766,0 6.76,0 6.753,0C6.747,0 6.74,0 6.734,0C6.727,0 6.721,0 6.714,0C6.708,0 6.701,0 6.695,0C6.688,0 6.682,0 6.675,0C6.669,0 6.662,0 6.656,0C6.649,0 6.643,0 6.636,0C6.63,0 6.623,0 6.617,0C6.61,0 6.604,0 6.597,0C6.591,0 6.585,0 6.578,0C6.572,0 6.565,0 6.559,0C6.552,0 6.546,0 6.539,0C6.533,0 6.526,0 6.52,0C6.514,0 6.507,0 6.501,0C6.494,0 6.488,0 6.481,0C6.475,0 6.468,0 6.462,0C6.456,0 6.449,0 6.443,0C6.436,0 6.43,0 6.423,0C6.417,0 6.411,0 6.404,0C6.398,0 6.391,0 6.385,0C6.379,0 6.372,0 6.366,0C6.359,0 6.353,0 6.347,0C6.34,0 6.334,0 6.328,0C6.321,0 6.315,0 6.308,0C6.302,0 6.296,0 6.289,0C6.283,0 6.277,0 6.27,0C6.264,0 6.257,0 6.251,0C6.245,0 6.238,0 6.232,0C6.226,0 6.219,0 6.213,0C6.207,0 6.2,0 6.194,0C6.188,0 6.181,0 6.175,0C6.169,0 6.162,0 6.156,0C6.15,0 6.144,0 6.137,0C6.131,0 6.125,0 6.118,0C6.112,0 6.106,0 6.099,0C6.093,0 6.087,0 6.081,0C6.074,0 6.068,0 6.062,0C6.055,0 6.049,0 6.043,0C6.037,0 6.03,0 6.024,0C6.018,0 6.012,0 6.005,0C5.999,0 5.993,0 5.987,0C5.98,0 5.974,0 5.968,0C5.962,0 5.955,0 5.949,0C5.943,0 5.937,0 5.931,0C5.924,0 5.918,0 5.912,0C5.906,0 5.899,0 5.893,0C5.887,0 5.881,0 5.875,0C5.868,0 5.862,0 5.856,0C5.85,0 5.844,0 5.838,0C5.831,0 5.825,0 5.819,0C5.813,0 5.807,0 5.801,0C5.794,0 5.788,0 5.782,0C5.776,0 5.77,0 5.764,0C5.757,0 5.751,0 5.745,0C5.739,0 5.733,0 5.727,0C5.721,0 5.715,0 5.708,0C5.702,0 5.696,0 5.69,0C5.684,0 5.678,0 5.672,0C5.666,0 5.66,0 5.654,0C5.647,0 5.641,0 5.635,0C5.629,0 5.623,0 5.617,0C5.611,0 5.605,0 5.599,0C5.593,0 5.587,0 5.581,0C5.575,0 5.569,0 5.562,0C5.556,0 5.55,0 5.544,0C5.538,0 5.532,0 5.526,0C5.52,0 5.514,0 5.508,0C5.502,0 5.496,0 5.49,0C5.484,0 5.478,0 5.472,0C5.466,0 5.46,0 5.454,0C5.448,0 5.442,0 5.436,0C5.43,0 5.424,0 5.418,0C5.412,0 5.406,0 5.4,0C5.394,0 5.388,0 5.382,0C5.377,0 5.371,0 5.365,0C5.359,0 5.353,0 5.347,0C5.341,0 5.335,0 5.329,0C5.323,0 5.317,0 5.311,0C5.305,0 5.3,0 5.294,0C5.288,0 5.282,0 5.276,0C5.27,0 5.264,0 5.258,0C5.252,0 5.246,0 5.241,0C5.235,0 5.229,0 5.223,0C5.217,0 5.211,0 5.205,0C5.2,0 5.194,0 5.188,0C5.182,0 5.176,0 5.17,0C5.165,0 5.159,0 5.153,0C5.147,0 5.141,0 5.135,0C5.13,0 5.124,0 5.118,0C5.112,0 5.106,0 5.101,0C5.095,0 5.089,0 5.083,0C5.078,0 5.072,0 5.066,0C5.06,0 5.054,0 5.049,0C5.043,0 5.037,0 5.031,0C5.026,0 5.02,0 5.014,0C5.008,0 5.003,0 4.997,0C4.991,0 4.986,0 4.98,0C4.974,0 4.968,0 4.963,0C4.957,0 4.951,0 4.946,0C4.94,0 4.934,0 4.929,0C4.923,0 4.917,0 4.912,0C4.906,0 4.9,0 4.895,0C4.889,0 4.883,0 4.878,0C4.872,0 4.866,0 4.861,0C4.855,0 4.849,0 4.844,0C4.838,0 4.833,0 4.827,0C4.821,0 4.816,0 4.81,0C4.804,0 4.799,0 4.793,0C4.788,0 4.782,0 4.776,0C4.771,0 4.765,0 4.76,0C4.754,0 4.749,0 4.743,0C4.738,0 4.732,0 4.726,0C4.721,0 4.715,0 4.71,0C4.704,0 4.699,0 4.693,0C4.688,0 4.682,0 4.677,0C4.671,0 4.666,0 4.66,0C4.655,0 4.649,0 4.644,0C4.638,0 4.633,0 4.627,0C4.622,0 4.616,0 4.611,0C4.605,0 4.6,0 4.594,0C4.589,0 4.584,0 4.578,0C4.573,0 4.567,0 4.562,0C4.556,0 4.551,0 4.546,0C4.54,0 4.535,0 4.529,0C4.524,0 4.519,0 4.513,0C4.508,0 4.502,0 4.497,0C4.492,0 4.486,0 4.481,0C4.476,0 4.47,0 4.465,0C4.459,0 4.454,0 4.449,0C4.443,0 4.438,0 4.433,0C4.427,0 4.422,0 4.417,0C4.411,0 4.406,0 4.401,0C4.396,0 4.39,0 4.385,0C4.38,0 4.374,0 4.369,0C4.364,0 4.359,0 4.353,0C4.348,0 4.343,0 4.338,0C4.332,0 4.327,0 4.322,0C4.317,0 4.311,0 4.306,0C4.301,0 4.296,0 4.29,0C4.285,0 4.28,0 4.275,0C4.27,0 4.264,0 4.259,0C4.254,0 4.249,0 4.244,0C4.239,0 4.233,0 4.228,0C4.223,0 4.218,0 4.213,0C4.208,0 4.202,0 4.197,0C4.192,0 4.187,0 4.182,0C4.177,0 4.172,0 4.167,0C4.162,0 4.156,0 4.151,0C4.146,0 4.141,0 4.136,0C4.131,0 4.126,0 4.121,0C4.116,0 4.111,0 4.106,0C4.101,0 4.096,0 4.091,0C4.086,0 4.08,0 4.075,0C4.07,0 4.065,0 4.06,0C4.055,0 4.05,0 4.045,0C4.04,0 4.035,0 4.03,0C4.025,0 4.02,0 4.016,0C4.011,0 4.006,0 4.001,0C3.996,0 3.991,0 3.986,0C3.981,0 3.976,0 3.971,0C3.966,0 3.961,0 3.956,0C3.951,0 3.946,0 3.941,0C3.937,0 3.932,0 3.927,0C3.922,0 3.917,0 3.912,0C3.907,0 3.902,0 3.898,0C3.893,0 3.888,0 3.883,0C3.878,0 3.873,0 3.869,0C3.864,0 3.859,0 3.854,0C3.849,0 3.844,0 3.84,0C3.835,0 3.83,0 3.825,0C3.821,0 3.816,0 3.811,0C3.806,0 3.801,0 3.797,0C3.792,0 3.787,0 3.782,0C3.778,0 3.773,0 3.768,0C3.764,0 3.759,0 3.754,0C3.749,0 3.745,0 3.74,0C3.735,0 3.731,0 3.726,0C3.721,0 3.717,0 3.712,0C3.707,0 3.703,0 3.698,0C3.693,0 3.689,0 3.684,0C3.679,0 3.675,0 3.67,0C3.666,0 3.661,0 3.656,0C3.652,0 3.647,0 3.643,0C3.638,0 3.633,0 3.629,0C3.624,0 3.62,0 3.615,0C3.611,0 3.606,0 3.601,0C3.597,0 3.592,0 3.588,0C3.583,0 3.579,0 3.574,0C3.57,0 3.565,0 3.561,0C3.556,0 3.552,0 3.547,0C3.543,0 3.538,0 3.534,0C3.529,0 3.525,0 3.521,0C3.516,0 3.512,0 3.507,0C3.503,0 3.498,0 3.494,0C3.49,0 3.485,0 3.481,0C3.476,0 3.472,0 3.468,0C3.463,0 3.459,0 3.454,0C3.45,0 3.446,0 3.441,0C3.437,0 3.433,0 3.428,0C3.424,0 3.42,0 3.415,0C3.411,0 3.407,0 3.402,0C3.398,0 3.394,0 3.389,0C3.385,0 3.381,0 3.377,0C3.372,0 3.368,0 3.364,0C3.36,0 3.355,0 3.351,0C3.347,0 3.343,0 3.338,0C3.334,0 3.33,0 3.326,0C3.322,0 3.317,0 3.313,0C3.309,0 3.305,0 3.301,0C3.296,0 3.292,0 3.288,0C3.284,0 3.28,0 3.276,0C3.272,0 3.267,0 3.263,0C3.259,0 3.255,0 3.251,0C3.247,0 3.243,0 3.239,0C3.235,0 3.23,0 3.226,0C3.222,0 3.218,0 3.214,0C3.21,0 3.206,0 3.202,0C3.198,0 3.194,0 3.19,0C3.186,0 3.182,0 3.178,0C3.174,0 3.17,0 3.166,0C3.162,0 3.158,0 3.154,0C3.15,0 3.146,0 3.142,0C3.138,0 3.134,0 3.13,0C3.126,0 3.122,0 3.119,0C3.115,0 3.111,0 3.107,0C3.103,0 3.099,0 3.095,0C3.091,0 3.087,0 3.084,0C3.08,0 3.076,0 3.072,0C3.068,0 3.064,0 3.06,0C3.057,0 3.053,0 3.049,0C3.045,0 3.041,0 3.038,0C3.034,0 3.03,0 3.026,0C3.022,0 3.019,0 3.015,0C3.011,0 3.007,0 3.004,0C3,0 2.996,0 2.992,0C2.989,0 2.985,0 2.981,0C2.978,0 2.974,0 2.97,0C2.967,0 2.963,0 2.959,0C2.956,0 2.952,0 2.948,0C2.945,0 2.941,0 2.937,0C2.934,0 2.93,0 2.926,0C2.923,0 2.919,0 2.916,0C2.912,0 2.908,0 2.905,0C2.901,0 2.898,0 2.894,0C2.891,0 2.887,0 2.884,0C2.88,0 2.876,0 2.873,0C2.869,0 2.866,0 2.862,0C2.859,0 2.855,0 2.852,0C2.848,0 2.845,0 2.841,0C2.838,0 2.835,0 2.831,0C2.828,0 2.824,0 2.821,0C2.817,0 2.814,0 2.811,0C2.807,0 2.804,0 2.8,0C2.797,0 2.794,0 2.79,0C2.787,0 2.783,0 2.78,0C2.777,0 2.773,0 2.77,0C2.767,0 2.763,0 2.76,0C2.757,0 2.753,0 2.75,0C2.747,0 2.744,0 2.74,0C2.737,0 2.734,0 2.731,0C2.727,0 2.724,0 2.721,0C2.718,0 2.714,0 2.711,0C2.708,0 2.705,0 2.701,0C2.698,0 2.695,0 2.692,0C2.689,0 2.686,0 2.682,0C2.679,0 2.676,0 2.673,0C2.67,0 2.667,0 2.664,0C2.66,0 2.657,0 2.654,0C2.651,0 2.648,0 2.645,0C2.642,0 2.639,0 2.636,0C2.633,0 2.63,0 2.627,0C2.624,0 2.621,0 2.618,0C2.614,0 2.611,0 2.608,0C2.605,0 2.602,0 2.599,0C2.597,0 2.594,0 2.591,0C2.588,0 2.585,0 2.582,0C2.579,0 2.576,0 2.573,0C2.57,0 2.567,0 2.564,0C2.561,0 2.558,0 2.556,0C2.553,0 2.55,0 2.547,0C2.544,0 2.541,0 2.538,0C2.536,0 2.533,0 2.53,0C2.527,0 2.524,0 2.521,0C2.519,0 2.516,0 2.513,0C2.51,0 2.508,0 2.505,0C2.502,0 2.499,0 2.497,0C2.494,0 2.491,0 2.488,0C2.486,0 2.483,0 2.48,0C2.478,0 2.475,0 2.472,0C2.469,0 2.467,0 2.464,0C2.462,0 2.459,0 2.456,0C2.454,0 2.451,0 2.448,0C2.446,0 2.443,0 2.441,0C2.438,0 2.435,0 2.433,0C2.43,0 2.428,0 2.425,0C2.423,0 2.42,0 2.417,0C2.415,0 2.412,0 2.41,0C2.407,0 2.405,0 2.402,0C2.4,0 2.397,0 2.395,0C2.393,0 2.39,0 2.388,0C2.385,0 2.383,0 2.38,0C2.378,0 2.376,0 2.373,0C2.371,0 2.368,0 2.366,0C2.364,0 2.361,0 2.359,0C2.356,0 2.354,0 2.352,0C2.349,0 2.347,0 2.345,0C2.342,0 2.34,0 2.338,0C2.336,0 2.333,0 2.331,0C2.329,0 2.327,0 2.324,0C2.322,0 2.32,0 2.318,0C2.315,0 2.313,0 2.311,0C2.309,0 2.306,0 2.304,0C2.302,0 2.3,0 2.298,0C2.296,0 2.293,0 2.291,0C2.289,0 2.287,0 2.285,0C2.283,0 2.281,0 2.279,0C2.277,0 2.274,0 2.272,0C2.27,0 2.268,0 2.266,0C2.264,0 2.262,0 2.26,0C2.258,0 2.256,0 2.254,0C2.252,0 2.25,0 2.248,0C2.246,0 2.244,0 2.242,0C2.24,0 2.238,0 2.236,0C2.234,0 2.232,0 2.23,0C2.229,0 2.227,0 2.225,0C2.223,0 2.221,0 2.219,0C2.217,0 2.215,0 2.213,0C2.212,0 2.21,0 2.208,0C2.206,0 2.204,0 2.203,0C2.201,0 2.199,0 2.197,0C2.195,0 2.194,0 2.192,0C2.19,0 2.188,0 2.187,0C2.185,0 2.183,0 2.181,0C2.18,0 2.178,0 2.176,0C2.175,0 2.173,0 2.171,0C2.17,0 2.168,0 2.166,0C2.165,0 2.163,0 2.161,0C2.16,0 2.158,0 2.157,0C2.155,0 2.153,0 2.152,0C2.15,0 2.149,0 2.147,0C2.146,0 2.144,0 2.143,0C2.141,0 2.14,0 2.138,0C2.137,0 2.135,0 2.134,0C2.132,0 2.131,0 2.129,0C2.128,0 2.126,0 2.125,0C2.123,0 2.122,0 2.121,0C2.119,0 2.118,0 2.116,0C2.115,0 2.114,0 2.112,0C2.111,0 2.11,0 2.108,0C2.107,0 2.106,0 2.104,0C2.103,0 2.102,0 2.1,0C2.099,0 2.098,0 2.096,0C2.095,0 2.094,0 2.093,0C2.091,0 2.09,0 2.089,0C2.088,0 2.087,0 2.085,0C2.084,0 2.083,0 2.082,0C2.081,0 2.08,0 2.078,0C2.077,0 2.076,0 2.075,0C2.074,0 2.073,0 2.072,0C2.071,0 2.07,0 2.068,0C2.067,0 2.066,0 2.065,0C2.064,0 2.063,0 2.062,0C2.061,0 2.06,0 2.059,0C2.058,0 2.057,0 2.056,0C2.055,0 2.054,0 2.053,0C2.052,0 2.051,0 2.05,0C2.05,0 2.049,0 2.048,0C2.047,0 2.046,0 2.045,0C2.044,0 2.043,0 2.043,0C2.042,0 2.041,0 2.04,0C2.039,0 2.038,0 2.038,0C2.037,0 2.036,0 2.035,0C2.034,0 2.034,0 2.033,0C2.032,0 2.031,0 2.031,0C2.03,0 2.029,0 2.029,0C2.028,0 2.027,0 2.027,0C2.026,0 2.025,0 2.025,0C2.024,0 2.023,0 2.023,0C2.022,0 2.021,0 2.021,0C2.02,0 2.02,0 2.019,0C2.018,0 2.018,0 2.017,0C2.017,0 2.016,0 2.016,0C2.015,0 2.015,0 2.014,0C2.014,0 2.013,0 2.013,0C2.012,0 2.012,0 2.011,0C2.011,0 2.011,0 2.01,0C2.01,0 2.009,0 2.009,0C2.008,0 2.008,0 2.008,0C2.007,0 2.007,0 2.007,0C2.006,0 2.006,0 2.006,0C2.005,0 2.005,0 2.005,0C2.005,0 2.004,0 2.004,0C2.004,0 2.003,0 2.003,0C2.003,0 2.003,0 2.003,0C2.002,0 2.002,0 2.002,0C2.002,0 2.002,0 2.001,0C2.001,0 2.001,0 2.001,0C2.001,0 2.001,0 2.001,0C2.001,0 2,0 2,0C2,0 2,0 2,0C2,0 2,0 2,0C2,0 2,0 2,2ZM9,4C9.011,4 9.023,4 9.034,4C9.046,4 9.057,4 9.069,4C9.08,4 9.092,4 9.104,4C9.115,4 9.127,4 9.138,4C9.15,4 9.161,4 9.173,4C9.185,4 9.196,4 9.208,4C9.22,4 9.231,4 9.243,4C9.255,4 9.267,4 9.278,4C9.29,4 9.302,4 9.314,4C9.326,4 9.337,4 9.349,4C9.361,4 9.373,4 9.385,4C9.397,4 9.408,4 9.42,4C9.432,4 9.444,4 9.456,4C9.468,4 9.48,4 9.492,4C9.504,4 9.516,4 9.528,4C9.54,4 9.552,4 9.564,4C9.576,4 9.588,4 9.6,4C9.612,4 9.625,4 9.637,4C9.649,4 9.661,4 9.673,4C9.685,4 9.697,4 9.71,4C9.722,4 9.734,4 9.746,4C9.759,4 9.771,4 9.783,4C9.795,4 9.808,4 9.82,4C9.832,4 9.845,4 9.857,4C9.869,4 9.882,4 9.894,4C9.906,4 9.919,4 9.931,4C9.944,4 9.956,4 9.968,4C9.981,4 9.993,4 10.006,4C10.018,4 10.031,4 10.043,4C10.056,4 10.068,4 10.081,4C10.093,4 10.106,4 10.119,4C10.131,4 10.144,4 10.156,4C10.169,4 10.181,4 10.194,4C10.207,4 10.219,4 10.232,4C10.245,4 10.257,4 10.27,4C10.283,4 10.296,4 10.308,4C10.321,4 10.334,4 10.347,4C10.359,4 10.372,4 10.385,4C10.398,4 10.411,4 10.423,4C10.436,4 10.449,4 10.462,4C10.475,4 10.488,4 10.5,4C10.513,4 10.526,4 10.539,4C10.552,4 10.565,4 10.578,4C10.591,4 10.604,4 10.617,4C10.63,4 10.643,4 10.656,4C10.669,4 10.682,4 10.695,4C10.708,4 10.721,4 10.734,4C10.747,4 10.76,4 10.773,4C10.786,4 10.8,4 10.813,4C10.826,4 10.839,4 10.852,4C10.865,4 10.878,4 10.892,4C10.905,4 10.918,4 10.931,4C10.944,4 10.958,4 10.971,4C10.984,4 10.997,4 11.011,4C11.024,4 11.037,4 11.05,4C11.064,4 11.077,4 11.09,4C11.104,4 11.117,4 11.13,4C11.144,4 11.157,4 11.17,4C11.184,4 11.197,4 11.21,4C11.224,4 11.237,4 11.251,4C11.264,4 11.278,4 11.291,4C11.304,4 11.318,4 11.331,4C11.345,4 11.358,4 11.372,4C11.385,4 11.399,4 11.412,4C11.426,4 11.439,4 11.453,4C11.466,4 11.48,4 11.494,4C11.507,4 11.521,4 11.534,4C11.548,4 11.562,4 11.575,4C11.589,4 11.602,4 11.616,4C11.63,4 11.643,4 11.657,4C11.671,4 11.684,4 11.698,4C11.712,4 11.725,4 11.739,4C11.753,4 11.767,4 11.78,4C11.794,4 11.808,4 11.821,4C11.835,4 11.849,4 11.863,4C11.877,4 11.89,4 11.904,4C11.918,4 11.932,4 11.946,4C11.959,4 11.973,4 11.987,4C12.001,4 12.015,4 12.029,4C12.042,4 12.056,4 12.07,4C12.084,4 12.098,4 12.112,4C12.126,4 12.14,4 12.154,4C12.168,4 12.182,4 12.195,4C12.209,4 12.223,4 12.237,4C12.251,4 12.265,4 12.279,4C12.293,4 12.307,4 12.321,4C12.335,4 12.349,4 12.363,4C12.377,4 12.391,4 12.405,4C12.419,4 12.433,4 12.448,4C12.462,4 12.476,4 12.49,4C12.504,4 12.518,4 12.532,4C12.546,4 12.56,4 12.574,4C12.588,4 12.603,4 12.617,4C12.631,4 12.645,4 12.659,4C12.673,4 12.687,4 12.702,4C12.716,4 12.73,4 12.744,4C12.758,4 12.772,4 12.787,4C12.801,4 12.815,4 12.829,4C12.844,4 12.858,4 12.872,4C12.886,4 12.9,4 12.915,4C12.929,4 12.943,4 12.957,4C12.972,4 12.986,4 13,4C13.015,4 13.029,4 13.043,4C13.057,4 13.072,4 13.086,4C13.1,4 13.115,4 13.129,4C13.143,4 13.158,4 13.172,4C13.186,4 13.201,4 13.215,4C13.229,4 13.244,4 13.258,4C13.272,4 13.287,4 13.301,4C13.316,4 13.33,4 13.344,4C13.359,4 13.373,4 13.388,4C13.402,4 13.416,4 13.431,4C13.445,4 13.46,4 13.474,4C13.489,4 13.503,4 13.517,4C13.532,4 13.546,4 13.561,4C13.575,4 13.59,4 13.604,4C13.619,4 13.633,4 13.648,4C13.662,4 13.677,4 13.691,4C13.706,4 13.72,4 13.735,4C13.749,4 13.764,4 13.778,4C13.793,4 13.807,4 13.822,4C13.836,4 13.851,4 13.865,4C13.88,4 13.894,4 13.909,4C13.924,4 13.938,4 13.953,4C13.967,4 13.982,4 13.996,4C14.011,4 14.025,4 14.04,4C14.055,4 14.069,4 14.084,4C14.098,4 14.113,4 14.128,4C14.142,4 14.157,4 14.171,4C14.186,4 14.201,4 14.215,4C14.23,4 14.244,4 14.259,4C14.274,4 14.288,4 14.303,4C14.318,4 14.332,4 14.347,4C14.361,4 14.376,4 14.391,4C14.405,4 14.42,4 14.435,4C14.449,4 14.464,4 14.479,4C14.493,4 14.508,4 14.523,4C14.537,4 14.552,4 14.567,4C14.581,4 14.596,4 14.611,4C14.625,4 14.64,4 14.655,4C14.669,4 14.684,4 14.699,4C14.714,4 14.728,4 14.743,4C14.758,4 14.772,4 14.787,4C14.802,4 14.816,4 14.831,4C14.846,4 14.861,4 14.875,4C14.89,4 14.905,4 14.919,4C14.934,4 14.949,4 14.964,4C14.978,4 14.993,4 15.008,4C15.022,4 15.037,4 15.052,4C15.067,4 15.081,4 15.096,4C15.111,4 15.126,4 15.14,4C15.155,4 15.17,4 15.185,4C15.199,4 15.214,4 15.229,4C15.244,4 15.258,4 15.273,4C15.288,4 15.303,4 15.317,4C15.332,4 15.347,4 15.362,4C15.376,4 15.391,4 15.406,4C15.421,4 15.435,4 15.45,4C15.465,4 15.48,4 15.494,4C15.509,4 15.524,4 15.539,4C15.553,4 15.568,4 15.583,4C15.598,4 15.612,4 15.627,4C15.642,4 15.657,4 15.671,4C15.686,4 15.701,4 15.716,4C15.73,4 15.745,4 15.76,4C15.775,4 15.789,4 15.804,4C15.819,4 15.834,4 15.849,4C15.863,4 15.878,4 15.893,4C15.908,4 15.922,4 15.937,4C15.952,4 15.967,4 15.981,4C15.996,4 16.011,4 16.026,4C16.04,4 16.055,4 16.07,4C16.085,4 16.099,4 16.114,4C16.129,4 16.144,4 16.158,4C16.173,4 16.188,4 16.203,4C16.217,4 16.232,4 16.247,4C16.262,4 16.276,4 16.291,4C16.306,4 16.321,4 16.335,4C16.35,4 16.365,4 16.38,4C16.394,4 16.409,4 16.424,4C16.439,4 16.453,4 16.468,4C16.483,4 16.497,4 16.512,4C16.527,4 16.542,4 16.556,4C16.571,4 16.586,4 16.601,4C16.615,4 16.63,4 16.645,4C16.659,4 16.674,4 16.689,4C16.703,4 16.718,4 16.733,4C16.748,4 16.762,4 16.777,4C16.792,4 16.806,4 16.821,4C16.836,4 16.85,4 16.865,4C16.88,4 16.894,4 16.909,4C16.924,4 16.939,4 16.953,4C16.968,4 16.982,4 16.997,4C17.012,4 17.026,4 17.041,4C17.056,4 17.07,4 17.085,4C17.1,4 17.114,4 17.129,4C17.144,4 17.158,4 17.173,4C17.188,4 17.202,4 17.217,4C17.231,4 17.246,4 17.261,4C17.275,4 17.29,4 17.305,4C17.319,4 17.334,4 17.348,4C17.363,4 17.378,4 17.392,4C17.407,4 17.421,4 17.436,4C17.45,4 17.465,4 17.48,4C17.494,4 17.509,4 17.523,4C17.538,4 17.552,4 17.567,4C17.582,4 17.596,4 17.611,4C17.625,4 17.64,4 17.654,4C17.669,4 17.683,4 17.698,4C17.712,4 17.727,4 17.741,4C17.756,4 17.77,4 17.785,4C17.799,4 17.814,4 17.828,4C17.843,4 17.857,4 17.872,4C17.886,4 17.901,4 17.915,4C17.93,4 17.944,4 17.959,4C17.973,4 17.987,4 18.002,4C18.016,4 18.031,4 18.045,4C18.06,4 18.074,4 18.089,4C18.103,4 18.117,4 18.132,4C18.146,4 18.161,4 18.175,4C18.189,4 18.204,4 18.218,4C18.232,4 18.247,4 18.261,4C18.276,4 18.29,4 18.304,4C18.319,4 18.333,4 18.347,4C18.362,4 18.376,4 18.39,4C18.405,4 18.419,4 18.433,4C18.447,4 18.462,4 18.476,4C18.49,4 18.505,4 18.519,4C18.533,4 18.547,4 18.562,4C18.576,4 18.59,4 18.604,4C18.619,4 18.633,4 18.647,4C18.661,4 18.676,4 18.69,4C18.704,4 18.718,4 18.732,4C18.747,4 18.761,4 18.775,4C18.789,4 18.803,4 18.817,4C18.832,4 18.846,4 18.86,4C18.874,4 18.888,4 18.902,4C18.916,4 18.93,4 18.945,4C18.959,4 18.973,4 18.987,4C19.001,4 19.015,4 19.029,4C19.043,4 19.057,4 19.071,4C19.085,4 19.099,4 19.113,4C19.127,4 19.141,4 19.155,4C19.169,4 19.183,4 19.197,4C19.211,4 19.225,4 19.239,4C19.253,4 19.267,4 19.281,4C19.295,4 19.309,4 19.323,4C19.337,4 19.351,4 19.365,4C19.379,4 19.393,4 19.407,4C19.42,4 19.434,4 19.448,4C19.462,4 19.476,4 19.49,4C19.504,4 19.517,4 19.531,4C19.545,4 19.559,4 19.573,4C19.587,4 19.6,4 19.614,4C19.628,4 19.642,4 19.655,4C19.669,4 19.683,4 19.697,4C19.71,4 19.724,4 19.738,4C19.752,4 19.765,4 19.779,4C19.793,4 19.806,4 19.82,4C19.834,4 19.847,4 19.861,4C19.875,4 19.888,4 19.902,4C19.916,4 19.929,4 19.943,4C19.956,4 19.97,4 19.984,4C19.997,4 20.011,4 20.024,4C20.038,4 20.051,4 20.065,4C20.078,4 20.092,4 20.105,4C20.119,4 20.132,4 20.146,4C20.159,4 20.173,4 20.186,4C20.2,4 20.213,4 20.227,4C20.24,4 20.254,4 20.267,4C20.28,4 20.294,4 20.307,4C20.32,4 20.334,4 20.347,4C20.361,4 20.374,4 20.387,4C20.401,4 20.414,4 20.427,4C20.44,4 20.454,4 20.467,4C20.48,4 20.494,4 20.507,4C20.52,4 20.533,4 20.546,4C20.56,4 20.573,4 20.586,4C20.599,4 20.612,4 20.626,4C20.639,4 20.652,4 20.665,4C20.678,4 20.691,4 20.704,4C20.718,4 20.731,4 20.744,4C20.757,4 20.77,4 20.783,4C20.796,4 20.809,4 20.822,4C20.835,4 20.848,4 20.861,4C20.874,4 20.887,4 20.9,4C20.913,4 20.926,4 20.939,4C20.952,4 20.965,4 20.978,4C20.99,4 21.003,4 21.016,4C21.029,4 21.042,4 21.055,4C21.068,4 21.08,4 21.093,4C21.106,4 21.119,4 21.132,4C21.144,4 21.157,4 21.17,4C21.183,4 21.195,4 21.208,4C21.221,4 21.233,4 21.246,4C21.259,4 21.272,4 21.284,4C21.297,4 21.309,4 21.322,4C21.335,4 21.347,4 21.36,4C21.373,4 21.385,4 21.398,4C21.41,4 21.423,4 21.435,4C21.448,4 21.46,4 21.473,4C21.485,4 21.498,4 21.51,4C21.523,4 21.535,4 21.547,4C21.56,4 21.572,4 21.585,4C21.597,4 21.609,4 21.622,4C21.634,4 21.646,4 21.659,4C21.671,4 21.683,4 21.696,4C21.708,4 21.72,4 21.732,4C21.745,4 21.757,4 21.769,4C21.781,4 21.794,4 21.806,4C21.818,4 21.83,4 21.842,4C21.854,4 21.867,4 21.879,4C21.891,4 21.903,4 21.915,4C21.927,4 21.939,4 21.951,4C21.963,4 21.975,4 21.987,4C21.999,4 22.011,4 22.023,4C22.035,4 22.047,4 22.059,4C22.071,4 22.083,4 22.095,4C22.106,4 22.118,4 22.13,4C22.142,4 22.154,4 22.166,4C22.177,4 22.189,4 22.201,4C22.213,4 22.225,4 22.236,4C22.248,4 22.26,4 22.271,4C22.283,4 22.295,4 22.306,4C22.318,4 22.33,4 22.341,4C22.353,4 22.365,4 22.376,4C22.388,4 22.399,4 22.411,4C22.422,4 22.434,4 22.445,4C22.457,4 22.468,4 22.48,4C22.491,4 22.503,4 22.514,4C22.526,4 22.537,4 22.548,4C22.56,4 22.571,4 22.582,4C22.594,4 22.605,4 22.616,4C22.628,4 22.639,4 22.65,4C22.661,4 22.673,4 22.684,4C22.695,4 22.706,4 22.717,4C22.729,4 22.74,4 22.751,4C22.762,4 22.773,4 22.784,4C22.795,4 22.806,4 22.817,4C22.828,4 22.839,4 22.85,4C22.861,4 22.872,4 22.883,4C22.894,4 22.905,4 22.916,4C22.927,4 22.938,4 22.949,4C22.96,4 22.971,4 22.981,4C22.992,4 23.003,4 23.014,4C23.025,4 23.035,4 23.046,4C23.057,4 23.068,4 23.078,4C23.089,4 23.1,4 23.11,4C23.121,4 23.132,4 23.142,4C23.153,4 23.163,4 23.174,4C23.184,4 23.195,4 23.206,4C23.216,4 23.227,4 23.237,4C23.247,4 23.258,4 23.268,4C23.279,4 23.289,4 23.3,4C23.31,4 23.32,4 23.331,4C23.341,4 23.351,4 23.362,4C23.372,4 23.382,4 23.392,4C23.403,4 23.413,4 23.423,4C23.433,4 23.443,4 23.453,4C23.464,4 23.474,4 23.484,4C23.494,4 23.504,4 23.514,4C23.524,4 23.534,4 23.544,4C23.554,4 23.564,4 23.574,4C23.584,4 23.594,4 23.604,4C23.614,4 23.624,4 23.633,4C23.643,4 23.653,4 23.663,4C23.673,4 23.682,4 23.692,4C23.702,4 23.712,4 23.721,4C23.731,4 23.741,4 23.75,4C23.76,4 23.77,4 23.779,4C23.789,4 23.798,4 23.808,4C23.818,4 23.827,4 23.837,4C23.846,4 23.856,4 23.865,4C23.874,4 23.884,4 23.893,4C23.903,4 23.912,4 23.921,4C23.931,4 23.94,4 23.949,4C23.959,4 23.968,4 23.977,4C23.986,4 23.996,4 24.005,4C24.014,4 24.023,4 24.032,4C24.042,4 24.051,4 24.06,4C24.069,4 24.078,4 24.087,4C24.096,4 24.105,4 24.114,4C24.123,4 24.132,4 24.141,4C24.15,4 24.159,4 24.168,4C24.176,4 24.185,4 24.194,4C24.203,4 24.212,4 24.22,4C24.229,4 24.238,4 24.247,4C24.255,4 24.264,4 24.273,4C24.281,4 24.29,4 24.299,4C24.307,4 24.316,4 24.324,4C24.333,4 24.341,4 24.35,4C24.358,4 24.367,4 24.375,4C24.384,4 24.392,4 24.401,4C24.409,4 24.417,4 24.426,4C24.434,4 24.442,4 24.451,4C24.459,4 24.467,4 24.475,4C24.483,4 24.492,4 24.5,4C24.508,4 24.516,4 24.524,4C24.532,4 24.54,4 24.548,4C24.556,4 24.564,4 24.572,4C24.58,4 24.588,4 24.596,4C24.604,4 24.612,4 24.62,4C24.628,4 24.636,4 24.644,4C24.651,4 24.659,4 24.667,4C24.675,4 24.682,4 24.69,4C24.698,4 24.705,4 24.713,4C24.721,4 24.728,4 24.736,4C24.743,4 24.751,4 24.759,4C24.766,4 24.774,4 24.781,4C24.788,4 24.796,4 24.803,4C24.811,4 24.818,4 24.825,4C24.833,4 24.84,4 24.847,4C24.855,4 24.862,4 24.869,4C24.876,4 24.883,4 24.891,4C24.898,4 24.905,4 24.912,4C24.919,4 24.926,4 24.933,4C24.94,4 24.947,4 24.954,4C24.961,4 24.968,4 24.975,4C24.982,4 24.989,4 24.996,4C25.002,4 25.009,4 25.016,4C25.023,4 25.03,4 25.036,4C25.043,4 25.05,4 25.056,4C25.063,4 25.07,4 25.076,4C25.083,4 25.089,4 25.096,4C25.102,4 25.109,4 25.115,4C25.122,4 25.128,4 25.135,4C25.141,4 25.148,4 25.154,4C25.16,4 25.167,4 25.173,4C25.179,4 25.185,4 25.192,4C25.198,4 25.204,4 25.21,4C25.216,4 25.222,4 25.228,4C25.235,4 25.241,4 25.247,4C25.253,4 25.259,4 25.265,4C25.27,4 25.276,4 25.282,4C25.288,4 25.294,4 25.3,4C25.306,4 25.311,4 25.317,4C25.323,4 25.329,4 25.334,4C25.34,4 25.346,4 25.351,4C25.357,4 25.363,4 25.368,4C25.374,4 25.379,4 25.385,4C25.39,4 25.396,4 25.401,4C25.406,4 25.412,4 25.417,4C25.423,4 25.428,4 25.433,4C25.438,4 25.444,4 25.449,4C25.454,4 25.459,4 25.464,4C25.47,4 25.475,4 25.48,4C25.485,4 25.49,4 25.495,4C25.5,4 25.505,4 25.51,4C25.515,4 25.52,4 25.525,4C25.529,4 25.534,4 25.539,4C25.544,4 25.549,4 25.553,4C25.558,4 25.563,4 25.567,4C25.572,4 25.577,4 25.581,4C25.586,4 25.59,4 25.595,4C25.599,4 25.604,4 25.608,4C25.613,4 25.617,4 25.622,4C25.626,4 25.63,4 25.635,4C25.639,4 25.643,4 25.647,4C25.652,4 25.656,4 25.66,4C25.664,4 25.668,4 25.672,4C25.677,4 25.681,4 25.685,4C25.689,4 25.693,4 25.697,4C25.7,4 25.704,4 25.708,4C25.712,4 25.716,4 25.72,4C25.724,4 25.727,4 25.731,4C25.735,4 25.738,4 25.742,4C25.746,4 25.749,4 25.753,4C25.757,4 25.76,4 25.764,4C25.767,4 25.771,4 25.774,4C25.777,4 25.781,4 25.784,4C25.787,4 25.791,4 25.794,4C25.797,4 25.801,4 25.804,4C25.807,4 25.81,4 25.813,4C25.816,4 25.82,4 25.823,4C25.826,4 25.829,4 25.832,4C25.835,4 25.838,4 25.84,4C25.843,4 25.846,4 25.849,4C25.852,4 25.855,4 25.857,4C25.86,4 25.863,4 25.866,4C25.868,4 25.871,4 25.873,4C25.876,4 25.879,4 25.881,4C25.884,4 25.886,4 25.889,4C25.891,4 25.893,4 25.896,4C25.898,4 25.9,4 25.903,4C25.905,4 25.907,4 25.909,4C25.912,4 25.914,4 25.916,4C25.918,4 25.92,4 25.922,4C25.924,4 25.926,4 25.928,4C25.93,4 25.932,4 25.934,4C25.936,4 25.938,4 25.94,4C25.941,4 25.943,4 25.945,4C25.947,4 25.948,4 25.95,4C25.952,4 25.953,4 25.955,4C25.956,4 25.958,4 25.959,4C25.961,4 25.962,4 25.964,4C25.965,4 25.967,4 25.968,4C25.969,4 25.97,4 25.972,4C25.973,4 25.974,4 25.975,4C25.977,4 25.978,4 25.979,4C25.98,4 25.981,4 25.982,4C25.983,4 25.984,4 25.985,4C25.986,4 25.987,4 25.987,4C25.988,4 25.989,4 25.99,4C25.991,4 25.991,4 25.992,4C25.993,4 25.993,4 25.994,4C25.994,4 25.995,4 25.995,4C25.996,4 25.996,4 25.997,4C25.997,4 25.998,4 25.998,4C25.998,4 25.999,4 25.999,4C25.999,4 25.999,4 25.999,4C26,4 26,4 26,4C26,4 26,4 26,2C26,0 26,0 26,0C26,0 26,0 25.999,0C25.999,0 25.999,0 25.999,0C25.999,0 25.998,0 25.998,0C25.998,0 25.997,0 25.997,0C25.996,0 25.996,0 25.995,0C25.995,0 25.994,0 25.994,0C25.993,0 25.993,0 25.992,0C25.991,0 25.991,0 25.99,0C25.989,0 25.988,0 25.987,0C25.987,0 25.986,0 25.985,0C25.984,0 25.983,0 25.982,0C25.981,0 25.98,0 25.979,0C25.978,0 25.977,0 25.975,0C25.974,0 25.973,0 25.972,0C25.97,0 25.969,0 25.968,0C25.967,0 25.965,0 25.964,0C25.962,0 25.961,0 25.959,0C25.958,0 25.956,0 25.955,0C25.953,0 25.952,0 25.95,0C25.948,0 25.947,0 25.945,0C25.943,0 25.941,0 25.94,0C25.938,0 25.936,0 25.934,0C25.932,0 25.93,0 25.928,0C25.926,0 25.924,0 25.922,0C25.92,0 25.918,0 25.916,0C25.914,0 25.912,0 25.909,0C25.907,0 25.905,0 25.903,0C25.9,0 25.898,0 25.896,0C25.893,0 25.891,0 25.889,0C25.886,0 25.884,0 25.881,0C25.879,0 25.876,0 25.873,0C25.871,0 25.868,0 25.866,0C25.863,0 25.86,0 25.857,0C25.855,0 25.852,0 25.849,0C25.846,0 25.843,0 25.84,0C25.838,0 25.835,0 25.832,0C25.829,0 25.826,0 25.823,0C25.82,0 25.816,0 25.813,0C25.81,0 25.807,0 25.804,0C25.801,0 25.797,0 25.794,0C25.791,0 25.787,0 25.784,0C25.781,0 25.777,0 25.774,0C25.771,0 25.767,0 25.764,0C25.76,0 25.757,0 25.753,0C25.749,0 25.746,0 25.742,0C25.738,0 25.735,0 25.731,0C25.727,0 25.724,0 25.72,0C25.716,0 25.712,0 25.708,0C25.704,0 25.7,0 25.697,0C25.693,0 25.689,0 25.685,0C25.681,0 25.677,0 25.672,0C25.668,0 25.664,0 25.66,0C25.656,0 25.652,0 25.647,0C25.643,0 25.639,0 25.635,0C25.63,0 25.626,0 25.622,0C25.617,0 25.613,0 25.608,0C25.604,0 25.599,0 25.595,0C25.59,0 25.586,0 25.581,0C25.577,0 25.572,0 25.567,0C25.563,0 25.558,0 25.553,0C25.549,0 25.544,0 25.539,0C25.534,0 25.529,0 25.525,0C25.52,0 25.515,0 25.51,0C25.505,0 25.5,0 25.495,0C25.49,0 25.485,0 25.48,0C25.475,0 25.47,0 25.464,0C25.459,0 25.454,0 25.449,0C25.444,0 25.438,0 25.433,0C25.428,0 25.423,0 25.417,0C25.412,0 25.406,0 25.401,0C25.396,0 25.39,0 25.385,0C25.379,0 25.374,0 25.368,0C25.363,0 25.357,0 25.351,0C25.346,0 25.34,0 25.334,0C25.329,0 25.323,0 25.317,0C25.311,0 25.306,0 25.3,0C25.294,0 25.288,0 25.282,0C25.276,0 25.27,0 25.265,0C25.259,0 25.253,0 25.247,0C25.241,0 25.235,0 25.228,0C25.222,0 25.216,0 25.21,0C25.204,0 25.198,0 25.192,0C25.185,0 25.179,0 25.173,0C25.167,0 25.16,0 25.154,0C25.148,0 25.141,0 25.135,0C25.128,0 25.122,0 25.115,0C25.109,0 25.102,0 25.096,0C25.089,0 25.083,0 25.076,0C25.07,0 25.063,0 25.056,0C25.05,0 25.043,0 25.036,0C25.03,0 25.023,0 25.016,0C25.009,0 25.002,0 24.996,0C24.989,0 24.982,0 24.975,0C24.968,0 24.961,0 24.954,0C24.947,0 24.94,0 24.933,0C24.926,0 24.919,0 24.912,0C24.905,0 24.898,0 24.891,0C24.883,0 24.876,0 24.869,0C24.862,0 24.855,0 24.847,0C24.84,0 24.833,0 24.825,0C24.818,0 24.811,0 24.803,0C24.796,0 24.788,0 24.781,0C24.774,0 24.766,0 24.759,0C24.751,0 24.743,0 24.736,0C24.728,0 24.721,0 24.713,0C24.705,0 24.698,0 24.69,0C24.682,0 24.675,0 24.667,0C24.659,0 24.651,0 24.644,0C24.636,0 24.628,0 24.62,0C24.612,0 24.604,0 24.596,0C24.588,0 24.58,0 24.572,0C24.564,0 24.556,0 24.548,0C24.54,0 24.532,0 24.524,0C24.516,0 24.508,0 24.5,0C24.492,0 24.483,0 24.475,0C24.467,0 24.459,0 24.451,0C24.442,0 24.434,0 24.426,0C24.417,0 24.409,0 24.401,0C24.392,0 24.384,0 24.375,0C24.367,0 24.358,0 24.35,0C24.341,0 24.333,0 24.324,0C24.316,0 24.307,0 24.299,0C24.29,0 24.281,0 24.273,0C24.264,0 24.255,0 24.247,0C24.238,0 24.229,0 24.22,0C24.212,0 24.203,0 24.194,0C24.185,0 24.176,0 24.168,0C24.159,0 24.15,0 24.141,0C24.132,0 24.123,0 24.114,0C24.105,0 24.096,0 24.087,0C24.078,0 24.069,0 24.06,0C24.051,0 24.042,0 24.032,0C24.023,0 24.014,0 24.005,0C23.996,0 23.986,0 23.977,0C23.968,0 23.959,0 23.949,0C23.94,0 23.931,0 23.921,0C23.912,0 23.903,0 23.893,0C23.884,0 23.874,0 23.865,0C23.856,0 23.846,0 23.837,0C23.827,0 23.818,0 23.808,0C23.798,0 23.789,0 23.779,0C23.77,0 23.76,0 23.75,0C23.741,0 23.731,0 23.721,0C23.712,0 23.702,0 23.692,0C23.682,0 23.673,0 23.663,0C23.653,0 23.643,0 23.633,0C23.624,0 23.614,0 23.604,0C23.594,0 23.584,0 23.574,0C23.564,0 23.554,0 23.544,0C23.534,0 23.524,0 23.514,0C23.504,0 23.494,0 23.484,0C23.474,0 23.464,0 23.453,0C23.443,0 23.433,0 23.423,0C23.413,0 23.403,0 23.392,0C23.382,0 23.372,0 23.362,0C23.351,0 23.341,0 23.331,0C23.32,0 23.31,0 23.3,0C23.289,0 23.279,0 23.268,0C23.258,0 23.247,0 23.237,0C23.227,0 23.216,0 23.206,0C23.195,0 23.184,0 23.174,0C23.163,0 23.153,0 23.142,0C23.132,0 23.121,0 23.11,0C23.1,0 23.089,0 23.078,0C23.068,0 23.057,0 23.046,0C23.035,0 23.025,0 23.014,0C23.003,0 22.992,0 22.981,0C22.971,0 22.96,0 22.949,0C22.938,0 22.927,0 22.916,0C22.905,0 22.894,0 22.883,0C22.872,0 22.861,0 22.85,0C22.839,0 22.828,0 22.817,0C22.806,0 22.795,0 22.784,0C22.773,0 22.762,0 22.751,0C22.74,0 22.729,0 22.717,0C22.706,0 22.695,0 22.684,0C22.673,0 22.661,0 22.65,0C22.639,0 22.628,0 22.616,0C22.605,0 22.594,0 22.582,0C22.571,0 22.56,0 22.548,0C22.537,0 22.526,0 22.514,0C22.503,0 22.491,0 22.48,0C22.468,0 22.457,0 22.445,0C22.434,0 22.422,0 22.411,0C22.399,0 22.388,0 22.376,0C22.365,0 22.353,0 22.341,0C22.33,0 22.318,0 22.306,0C22.295,0 22.283,0 22.271,0C22.26,0 22.248,0 22.236,0C22.225,0 22.213,0 22.201,0C22.189,0 22.177,0 22.166,0C22.154,0 22.142,0 22.13,0C22.118,0 22.106,0 22.095,0C22.083,0 22.071,0 22.059,0C22.047,0 22.035,0 22.023,0C22.011,0 21.999,0 21.987,0C21.975,0 21.963,0 21.951,0C21.939,0 21.927,0 21.915,0C21.903,0 21.891,0 21.879,0C21.867,0 21.854,0 21.842,0C21.83,0 21.818,0 21.806,0C21.794,0 21.781,0 21.769,0C21.757,0 21.745,0 21.732,0C21.72,0 21.708,0 21.696,0C21.683,0 21.671,0 21.659,0C21.646,0 21.634,0 21.622,0C21.609,0 21.597,0 21.585,0C21.572,0 21.56,0 21.547,0C21.535,0 21.523,0 21.51,0C21.498,0 21.485,0 21.473,0C21.46,0 21.448,0 21.435,0C21.423,0 21.41,0 21.398,0C21.385,0 21.373,0 21.36,0C21.347,0 21.335,0 21.322,0C21.309,0 21.297,0 21.284,0C21.272,0 21.259,0 21.246,0C21.233,0 21.221,0 21.208,0C21.195,0 21.183,0 21.17,0C21.157,0 21.144,0 21.132,0C21.119,0 21.106,0 21.093,0C21.08,0 21.068,0 21.055,0C21.042,0 21.029,0 21.016,0C21.003,0 20.99,0 20.978,0C20.965,0 20.952,0 20.939,0C20.926,0 20.913,0 20.9,0C20.887,0 20.874,0 20.861,0C20.848,0 20.835,0 20.822,0C20.809,0 20.796,0 20.783,0C20.77,0 20.757,0 20.744,0C20.731,0 20.718,0 20.704,0C20.691,0 20.678,0 20.665,0C20.652,0 20.639,0 20.626,0C20.612,0 20.599,0 20.586,0C20.573,0 20.56,0 20.546,0C20.533,0 20.52,0 20.507,0C20.494,0 20.48,0 20.467,0C20.454,0 20.44,0 20.427,0C20.414,0 20.401,0 20.387,0C20.374,0 20.361,0 20.347,0C20.334,0 20.32,0 20.307,0C20.294,0 20.28,0 20.267,0C20.254,0 20.24,0 20.227,0C20.213,0 20.2,0 20.186,0C20.173,0 20.159,0 20.146,0C20.132,0 20.119,0 20.105,0C20.092,0 20.078,0 20.065,0C20.051,0 20.038,0 20.024,0C20.011,0 19.997,0 19.984,0C19.97,0 19.956,0 19.943,0C19.929,0 19.916,0 19.902,0C19.888,0 19.875,0 19.861,0C19.847,0 19.834,0 19.82,0C19.806,0 19.793,0 19.779,0C19.765,0 19.752,0 19.738,0C19.724,0 19.71,0 19.697,0C19.683,0 19.669,0 19.655,0C19.642,0 19.628,0 19.614,0C19.6,0 19.587,0 19.573,0C19.559,0 19.545,0 19.531,0C19.517,0 19.504,0 19.49,0C19.476,0 19.462,0 19.448,0C19.434,0 19.42,0 19.407,0C19.393,0 19.379,0 19.365,0C19.351,0 19.337,0 19.323,0C19.309,0 19.295,0 19.281,0C19.267,0 19.253,0 19.239,0C19.225,0 19.211,0 19.197,0C19.183,0 19.169,0 19.155,0C19.141,0 19.127,0 19.113,0C19.099,0 19.085,0 19.071,0C19.057,0 19.043,0 19.029,0C19.015,0 19.001,0 18.987,0C18.973,0 18.959,0 18.945,0C18.93,0 18.916,0 18.902,0C18.888,0 18.874,0 18.86,0C18.846,0 18.832,0 18.817,0C18.803,0 18.789,0 18.775,0C18.761,0 18.747,0 18.732,0C18.718,0 18.704,0 18.69,0C18.676,0 18.661,0 18.647,0C18.633,0 18.619,0 18.604,0C18.59,0 18.576,0 18.562,0C18.547,0 18.533,0 18.519,0C18.505,0 18.49,0 18.476,0C18.462,0 18.447,0 18.433,0C18.419,0 18.405,0 18.39,0C18.376,0 18.362,0 18.347,0C18.333,0 18.319,0 18.304,0C18.29,0 18.276,0 18.261,0C18.247,0 18.232,0 18.218,0C18.204,0 18.189,0 18.175,0C18.161,0 18.146,0 18.132,0C18.117,0 18.103,0 18.089,0C18.074,0 18.06,0 18.045,0C18.031,0 18.016,0 18.002,0C17.987,0 17.973,0 17.959,0C17.944,0 17.93,0 17.915,0C17.901,0 17.886,0 17.872,0C17.857,0 17.843,0 17.828,0C17.814,0 17.799,0 17.785,0C17.77,0 17.756,0 17.741,0C17.727,0 17.712,0 17.698,0C17.683,0 17.669,0 17.654,0C17.64,0 17.625,0 17.611,0C17.596,0 17.582,0 17.567,0C17.552,0 17.538,0 17.523,0C17.509,0 17.494,0 17.48,0C17.465,0 17.45,0 17.436,0C17.421,0 17.407,0 17.392,0C17.378,0 17.363,0 17.348,0C17.334,0 17.319,0 17.305,0C17.29,0 17.275,0 17.261,0C17.246,0 17.231,0 17.217,0C17.202,0 17.188,0 17.173,0C17.158,0 17.144,0 17.129,0C17.114,0 17.1,0 17.085,0C17.07,0 17.056,0 17.041,0C17.026,0 17.012,0 16.997,0C16.982,0 16.968,0 16.953,0C16.939,0 16.924,0 16.909,0C16.894,0 16.88,0 16.865,0C16.85,0 16.836,0 16.821,0C16.806,0 16.792,0 16.777,0C16.762,0 16.748,0 16.733,0C16.718,0 16.703,0 16.689,0C16.674,0 16.659,0 16.645,0C16.63,0 16.615,0 16.601,0C16.586,0 16.571,0 16.556,0C16.542,0 16.527,0 16.512,0C16.497,0 16.483,0 16.468,0C16.453,0 16.439,0 16.424,0C16.409,0 16.394,0 16.38,0C16.365,0 16.35,0 16.335,0C16.321,0 16.306,0 16.291,0C16.276,0 16.262,0 16.247,0C16.232,0 16.217,0 16.203,0C16.188,0 16.173,0 16.158,0C16.144,0 16.129,0 16.114,0C16.099,0 16.085,0 16.07,0C16.055,0 16.04,0 16.026,0C16.011,0 15.996,0 15.981,0C15.967,0 15.952,0 15.937,0C15.922,0 15.908,0 15.893,0C15.878,0 15.863,0 15.849,0C15.834,0 15.819,0 15.804,0C15.789,0 15.775,0 15.76,0C15.745,0 15.73,0 15.716,0C15.701,0 15.686,0 15.671,0C15.657,0 15.642,0 15.627,0C15.612,0 15.598,0 15.583,0C15.568,0 15.553,0 15.539,0C15.524,0 15.509,0 15.494,0C15.48,0 15.465,0 15.45,0C15.435,0 15.421,0 15.406,0C15.391,0 15.376,0 15.362,0C15.347,0 15.332,0 15.317,0C15.303,0 15.288,0 15.273,0C15.258,0 15.244,0 15.229,0C15.214,0 15.199,0 15.185,0C15.17,0 15.155,0 15.14,0C15.126,0 15.111,0 15.096,0C15.081,0 15.067,0 15.052,0C15.037,0 15.022,0 15.008,0C14.993,0 14.978,0 14.964,0C14.949,0 14.934,0 14.919,0C14.905,0 14.89,0 14.875,0C14.861,0 14.846,0 14.831,0C14.816,0 14.802,0 14.787,0C14.772,0 14.758,0 14.743,0C14.728,0 14.714,0 14.699,0C14.684,0 14.669,0 14.655,0C14.64,0 14.625,0 14.611,0C14.596,0 14.581,0 14.567,0C14.552,0 14.537,0 14.523,0C14.508,0 14.493,0 14.479,0C14.464,0 14.449,0 14.435,0C14.42,0 14.405,0 14.391,0C14.376,0 14.361,0 14.347,0C14.332,0 14.318,0 14.303,0C14.288,0 14.274,0 14.259,0C14.244,0 14.23,0 14.215,0C14.201,0 14.186,0 14.171,0C14.157,0 14.142,0 14.128,0C14.113,0 14.098,0 14.084,0C14.069,0 14.055,0 14.04,0C14.025,0 14.011,0 13.996,0C13.982,0 13.967,0 13.953,0C13.938,0 13.924,0 13.909,0C13.894,0 13.88,0 13.865,0C13.851,0 13.836,0 13.822,0C13.807,0 13.793,0 13.778,0C13.764,0 13.749,0 13.735,0C13.72,0 13.706,0 13.691,0C13.677,0 13.662,0 13.648,0C13.633,0 13.619,0 13.604,0C13.59,0 13.575,0 13.561,0C13.546,0 13.532,0 13.517,0C13.503,0 13.489,0 13.474,0C13.46,0 13.445,0 13.431,0C13.416,0 13.402,0 13.388,0C13.373,0 13.359,0 13.344,0C13.33,0 13.316,0 13.301,0C13.287,0 13.272,0 13.258,0C13.244,0 13.229,0 13.215,0C13.201,0 13.186,0 13.172,0C13.158,0 13.143,0 13.129,0C13.115,0 13.1,0 13.086,0C13.072,0 13.057,0 13.043,0C13.029,0 13.015,0 13,0C12.986,0 12.972,0 12.957,0C12.943,0 12.929,0 12.915,0C12.9,0 12.886,0 12.872,0C12.858,0 12.844,0 12.829,0C12.815,0 12.801,0 12.787,0C12.772,0 12.758,0 12.744,0C12.73,0 12.716,0 12.702,0C12.687,0 12.673,0 12.659,0C12.645,0 12.631,0 12.617,0C12.603,0 12.588,0 12.574,0C12.56,0 12.546,0 12.532,0C12.518,0 12.504,0 12.49,0C12.476,0 12.462,0 12.448,0C12.433,0 12.419,0 12.405,0C12.391,0 12.377,0 12.363,0C12.349,0 12.335,0 12.321,0C12.307,0 12.293,0 12.279,0C12.265,0 12.251,0 12.237,0C12.223,0 12.209,0 12.195,0C12.182,0 12.168,0 12.154,0C12.14,0 12.126,0 12.112,0C12.098,0 12.084,0 12.07,0C12.056,0 12.042,0 12.029,0C12.015,0 12.001,0 11.987,0C11.973,0 11.959,0 11.946,0C11.932,0 11.918,0 11.904,0C11.89,0 11.877,0 11.863,0C11.849,0 11.835,0 11.821,0C11.808,0 11.794,0 11.78,0C11.767,0 11.753,0 11.739,0C11.725,0 11.712,0 11.698,0C11.684,0 11.671,0 11.657,0C11.643,0 11.63,0 11.616,0C11.602,0 11.589,0 11.575,0C11.562,0 11.548,0 11.534,0C11.521,0 11.507,0 11.494,0C11.48,0 11.466,0 11.453,0C11.439,0 11.426,0 11.412,0C11.399,0 11.385,0 11.372,0C11.358,0 11.345,0 11.331,0C11.318,0 11.304,0 11.291,0C11.278,0 11.264,0 11.251,0C11.237,0 11.224,0 11.21,0C11.197,0 11.184,0 11.17,0C11.157,0 11.144,0 11.13,0C11.117,0 11.104,0 11.09,0C11.077,0 11.064,0 11.05,0C11.037,0 11.024,0 11.011,0C10.997,0 10.984,0 10.971,0C10.958,0 10.944,0 10.931,0C10.918,0 10.905,0 10.892,0C10.878,0 10.865,0 10.852,0C10.839,0 10.826,0 10.813,0C10.8,0 10.786,0 10.773,0C10.76,0 10.747,0 10.734,0C10.721,0 10.708,0 10.695,0C10.682,0 10.669,0 10.656,0C10.643,0 10.63,0 10.617,0C10.604,0 10.591,0 10.578,0C10.565,0 10.552,0 10.539,0C10.526,0 10.513,0 10.5,0C10.488,0 10.475,0 10.462,0C10.449,0 10.436,0 10.423,0C10.411,0 10.398,0 10.385,0C10.372,0 10.359,0 10.347,0C10.334,0 10.321,0 10.308,0C10.296,0 10.283,0 10.27,0C10.257,0 10.245,0 10.232,0C10.219,0 10.207,0 10.194,0C10.181,0 10.169,0 10.156,0C10.144,0 10.131,0 10.119,0C10.106,0 10.093,0 10.081,0C10.068,0 10.056,0 10.043,0C10.031,0 10.018,0 10.006,0C9.993,0 9.981,0 9.968,0C9.956,0 9.944,0 9.931,0C9.919,0 9.906,0 9.894,0C9.882,0 9.869,0 9.857,0C9.845,0 9.832,0 9.82,0C9.808,0 9.795,0 9.783,0C9.771,0 9.759,0 9.746,0C9.734,0 9.722,0 9.71,0C9.697,0 9.685,0 9.673,0C9.661,0 9.649,0 9.637,0C9.625,0 9.612,0 9.6,0C9.588,0 9.576,0 9.564,0C9.552,0 9.54,0 9.528,0C9.516,0 9.504,0 9.492,0C9.48,0 9.468,0 9.456,0C9.444,0 9.432,0 9.42,0C9.408,0 9.397,0 9.385,0C9.373,0 9.361,0 9.349,0C9.337,0 9.326,0 9.314,0C9.302,0 9.29,0 9.278,0C9.267,0 9.255,0 9.243,0C9.231,0 9.22,0 9.208,0C9.196,0 9.185,0 9.173,0C9.161,0 9.15,0 9.138,0C9.127,0 9.115,0 9.104,0C9.092,0 9.08,0 9.069,0C9.057,0 9.046,0 9.034,0C9.023,0 9.011,0 9,0L9,4ZM4,20C4,22 4,22 4,22C4,22 4,22 4,22C4,22 4,22 4,22C4,22 4,22 4.001,22C4.001,22 4.001,22 4.001,22C4.001,22 4.001,22 4.001,22C4.001,22 4.002,22 4.002,22C4.002,22 4.002,22 4.002,22C4.002,22 4.003,22 4.003,22C4.003,22 4.003,22 4.003,22C4.004,22 4.004,22 4.004,22C4.004,22 4.005,22 4.005,22C4.005,22 4.005,22 4.006,22C4.006,22 4.006,22 4.007,22C4.007,22 4.007,22 4.008,22C4.008,22 4.008,22 4.009,22C4.009,22 4.009,22 4.01,22C4.01,22 4.011,22 4.011,22C4.011,22 4.012,22 4.012,22C4.013,22 4.013,22 4.014,22C4.014,22 4.014,22 4.015,22C4.015,22 4.016,22 4.016,22C4.017,22 4.017,22 4.018,22C4.018,22 4.019,22 4.019,22C4.02,22 4.02,22 4.021,22C4.022,22 4.022,22 4.023,22C4.023,22 4.024,22 4.024,22C4.025,22 4.026,22 4.026,22C4.027,22 4.028,22 4.028,22C4.029,22 4.029,22 4.03,22C4.031,22 4.031,22 4.032,22C4.033,22 4.033,22 4.034,22C4.035,22 4.036,22 4.036,22C4.037,22 4.038,22 4.039,22C4.039,22 4.04,22 4.041,22C4.042,22 4.042,22 4.043,22C4.044,22 4.045,22 4.046,22C4.046,22 4.047,22 4.048,22C4.049,22 4.05,22 4.05,22C4.051,22 4.052,22 4.053,22C4.054,22 4.055,22 4.056,22C4.057,22 4.057,22 4.058,22C4.059,22 4.06,22 4.061,22C4.062,22 4.063,22 4.064,22C4.065,22 4.066,22 4.067,22C4.068,22 4.069,22 4.07,22C4.071,22 4.072,22 4.073,22C4.074,22 4.075,22 4.076,22C4.077,22 4.078,22 4.079,22C4.08,22 4.081,22 4.082,22C4.083,22 4.084,22 4.085,22C4.086,22 4.088,22 4.089,22C4.09,22 4.091,22 4.092,22C4.093,22 4.094,22 4.095,22C4.097,22 4.098,22 4.099,22C4.1,22 4.101,22 4.102,22C4.104,22 4.105,22 4.106,22C4.107,22 4.108,22 4.11,22C4.111,22 4.112,22 4.113,22C4.115,22 4.116,22 4.117,22C4.118,22 4.12,22 4.121,22C4.122,22 4.124,22 4.125,22C4.126,22 4.127,22 4.129,22C4.13,22 4.131,22 4.133,22C4.134,22 4.136,22 4.137,22C4.138,22 4.14,22 4.141,22C4.142,22 4.144,22 4.145,22C4.147,22 4.148,22 4.149,22C4.151,22 4.152,22 4.154,22C4.155,22 4.157,22 4.158,22C4.159,22 4.161,22 4.162,22C4.164,22 4.165,22 4.167,22C4.168,22 4.17,22 4.171,22C4.173,22 4.174,22 4.176,22C4.177,22 4.179,22 4.181,22C4.182,22 4.184,22 4.185,22C4.187,22 4.188,22 4.19,22C4.192,22 4.193,22 4.195,22C4.196,22 4.198,22 4.2,22C4.201,22 4.203,22 4.204,22C4.206,22 4.208,22 4.209,22C4.211,22 4.213,22 4.214,22C4.216,22 4.218,22 4.219,22C4.221,22 4.223,22 4.225,22C4.226,22 4.228,22 4.23,22C4.231,22 4.233,22 4.235,22C4.237,22 4.238,22 4.24,22C4.242,22 4.244,22 4.246,22C4.247,22 4.249,22 4.251,22C4.253,22 4.255,22 4.256,22C4.258,22 4.26,22 4.262,22C4.264,22 4.266,22 4.267,22C4.269,22 4.271,22 4.273,22C4.275,22 4.277,22 4.279,22C4.281,22 4.282,22 4.284,22C4.286,22 4.288,22 4.29,22C4.292,22 4.294,22 4.296,22C4.298,22 4.3,22 4.302,22C4.304,22 4.306,22 4.308,22C4.31,22 4.312,22 4.314,22C4.316,22 4.318,22 4.32,22C4.322,22 4.324,22 4.326,22C4.328,22 4.33,22 4.332,22C4.334,22 4.336,22 4.338,22C4.34,22 4.342,22 4.344,22C4.346,22 4.348,22 4.35,22C4.352,22 4.354,22 4.357,22C4.359,22 4.361,22 4.363,22C4.365,22 4.367,22 4.369,22C4.371,22 4.374,22 4.376,22C4.378,22 4.38,22 4.382,22C4.384,22 4.387,22 4.389,22C4.391,22 4.393,22 4.395,22C4.398,22 4.4,22 4.402,22C4.404,22 4.406,22 4.409,22C4.411,22 4.413,22 4.415,22C4.418,22 4.42,22 4.422,22C4.425,22 4.427,22 4.429,22C4.431,22 4.434,22 4.436,22C4.438,22 4.441,22 4.443,22C4.445,22 4.448,22 4.45,22C4.452,22 4.455,22 4.457,22C4.459,22 4.462,22 4.464,22C4.466,22 4.469,22 4.471,22C4.473,22 4.476,22 4.478,22C4.481,22 4.483,22 4.485,22C4.488,22 4.49,22 4.493,22C4.495,22 4.498,22 4.5,22C4.502,22 4.505,22 4.507,22C4.51,22 4.512,22 4.515,22C4.517,22 4.52,22 4.522,22C4.525,22 4.527,22 4.53,22C4.532,22 4.535,22 4.537,22C4.54,22 4.542,22 4.545,22C4.547,22 4.55,22 4.552,22C4.555,22 4.557,22 4.56,22C4.563,22 4.565,22 4.568,22C4.57,22 4.573,22 4.575,22C4.578,22 4.581,22 4.583,22C4.586,22 4.589,22 4.591,22C4.594,22 4.596,22 4.599,22C4.602,22 4.604,22 4.607,22C4.61,22 4.612,22 4.615,22C4.618,22 4.62,22 4.623,22C4.626,22 4.628,22 4.631,22C4.634,22 4.636,22 4.639,22C4.642,22 4.644,22 4.647,22C4.65,22 4.653,22 4.655,22C4.658,22 4.661,22 4.664,22C4.666,22 4.669,22 4.672,22C4.675,22 4.677,22 4.68,22C4.683,22 4.686,22 4.689,22C4.691,22 4.694,22 4.697,22C4.7,22 4.703,22 4.705,22C4.708,22 4.711,22 4.714,22C4.717,22 4.72,22 4.722,22C4.725,22 4.728,22 4.731,22C4.734,22 4.737,22 4.74,22C4.742,22 4.745,22 4.748,22C4.751,22 4.754,22 4.757,22C4.76,22 4.763,22 4.766,22C4.768,22 4.771,22 4.774,22C4.777,22 4.78,22 4.783,22C4.786,22 4.789,22 4.792,22C4.795,22 4.798,22 4.801,22C4.804,22 4.807,22 4.81,22C4.813,22 4.816,22 4.819,22C4.822,22 4.825,22 4.828,22C4.831,22 4.834,22 4.837,22C4.84,22 4.843,22 4.846,22C4.849,22 4.852,22 4.855,22C4.858,22 4.861,22 4.864,22C4.867,22 4.87,22 4.873,22C4.876,22 4.879,22 4.882,22C4.886,22 4.889,22 4.892,22C4.895,22 4.898,22 4.901,22C4.904,22 4.907,22 4.91,22C4.913,22 4.917,22 4.92,22C4.923,22 4.926,22 4.929,22C4.932,22 4.935,22 4.939,22C4.942,22 4.945,22 4.948,22C4.951,22 4.954,22 4.958,22C4.961,22 4.964,22 4.967,22C4.97,22 4.974,22 4.977,22C4.98,22 4.983,22 4.986,22C4.99,22 4.993,22 4.996,22C4.999,22 5.002,22 5.006,22C5.009,22 5.012,22 5.015,22C5.019,22 5.022,22 5.025,22C5.028,22 5.032,22 5.035,22C5.038,22 5.042,22 5.045,22C5.048,22 5.051,22 5.055,22C5.058,22 5.061,22 5.065,22C5.068,22 5.071,22 5.075,22C5.078,22 5.081,22 5.085,22C5.088,22 5.091,22 5.095,22C5.098,22 5.101,22 5.105,22C5.108,22 5.111,22 5.115,22C5.118,22 5.121,22 5.125,22C5.128,22 5.131,22 5.135,22C5.138,22 5.142,22 5.145,22C5.148,22 5.152,22 5.155,22C5.159,22 5.162,22 5.165,22C5.169,22 5.172,22 5.176,22C5.179,22 5.183,22 5.186,22C5.19,22 5.193,22 5.196,22C5.2,22 5.203,22 5.207,22C5.21,22 5.214,22 5.217,22C5.221,22 5.224,22 5.228,22C5.231,22 5.235,22 5.238,22C5.242,22 5.245,22 5.249,22C5.252,22 5.256,22 5.259,22C5.263,22 5.266,22 5.27,22C5.273,22 5.277,22 5.28,22C5.284,22 5.287,22 5.291,22C5.294,22 5.298,22 5.301,22C5.305,22 5.309,22 5.312,22C5.316,22 5.319,22 5.323,22C5.326,22 5.33,22 5.334,22C5.337,22 5.341,22 5.344,22C5.348,22 5.352,22 5.355,22C5.359,22 5.362,22 5.366,22C5.37,22 5.373,22 5.377,22C5.38,22 5.384,22 5.388,22C5.391,22 5.395,22 5.399,22C5.402,22 5.406,22 5.41,22C5.413,22 5.417,22 5.421,22C5.424,22 5.428,22 5.431,22C5.435,22 5.439,22 5.443,22C5.446,22 5.45,22 5.454,22C5.457,22 5.461,22 5.465,22C5.468,22 5.472,22 5.476,22C5.479,22 5.483,22 5.487,22C5.491,22 5.494,22 5.498,22C5.502,22 5.505,22 5.509,22C5.513,22 5.517,22 5.52,22C5.524,22 5.528,22 5.532,22C5.535,22 5.539,22 5.543,22C5.547,22 5.55,22 5.554,22C5.558,22 5.562,22 5.566,22C5.569,22 5.573,22 5.577,22C5.581,22 5.584,22 5.588,22C5.592,22 5.596,22 5.6,22C5.603,22 5.607,22 5.611,22C5.615,22 5.619,22 5.623,22C5.626,22 5.63,22 5.634,22C5.638,22 5.642,22 5.645,22C5.649,22 5.653,22 5.657,22C5.661,22 5.665,22 5.669,22C5.672,22 5.676,22 5.68,22C5.684,22 5.688,22 5.692,22C5.696,22 5.699,22 5.703,22C5.707,22 5.711,22 5.715,22C5.719,22 5.723,22 5.727,22C5.731,22 5.734,22 5.738,22C5.742,22 5.746,22 5.75,22C5.754,22 5.758,22 5.762,22C5.766,22 5.77,22 5.773,22C5.777,22 5.781,22 5.785,22C5.789,22 5.793,22 5.797,22C5.801,22 5.805,22 5.809,22C5.813,22 5.817,22 5.821,22C5.825,22 5.829,22 5.833,22C5.837,22 5.84,22 5.844,22C5.848,22 5.852,22 5.856,22C5.86,22 5.864,22 5.868,22C5.872,22 5.876,22 5.88,22C5.884,22 5.888,22 5.892,22C5.896,22 5.9,22 5.904,22C5.908,22 5.912,22 5.916,22C5.92,22 5.924,22 5.928,22C5.932,22 5.936,22 5.94,22C5.944,22 5.948,22 5.952,22C5.956,22 5.96,22 5.964,22C5.968,22 5.973,22 5.977,22C5.981,22 5.985,22 5.989,22C5.993,22 5.997,22 6.001,22C6.005,22 6.009,22 6.013,22C6.017,22 6.021,22 6.025,22C6.029,22 6.033,22 6.037,22C6.041,22 6.046,22 6.05,22C6.054,22 6.058,22 6.062,22C6.066,22 6.07,22 6.074,22C6.078,22 6.082,22 6.086,22C6.091,22 6.095,22 6.099,22C6.103,22 6.107,22 6.111,22C6.115,22 6.119,22 6.123,22C6.127,22 6.132,22 6.136,22C6.14,22 6.144,22 6.148,22C6.152,22 6.156,22 6.161,22C6.165,22 6.169,22 6.173,22C6.177,22 6.181,22 6.185,22C6.189,22 6.194,22 6.198,22C6.202,22 6.206,22 6.21,22C6.214,22 6.219,22 6.223,22C6.227,22 6.231,22 6.235,22C6.239,22 6.243,22 6.248,22C6.252,22 6.256,22 6.26,22C6.264,22 6.269,22 6.273,22C6.277,22 6.281,22 6.285,22C6.289,22 6.294,22 6.298,22C6.302,22 6.306,22 6.31,22C6.315,22 6.319,22 6.323,22C6.327,22 6.331,22 6.336,22C6.34,22 6.344,22 6.348,22C6.352,22 6.357,22 6.361,22C6.365,22 6.369,22 6.373,22C6.378,22 6.382,22 6.386,22C6.39,22 6.395,22 6.399,22C6.403,22 6.407,22 6.411,22C6.416,22 6.42,22 6.424,22C6.428,22 6.433,22 6.437,22C6.441,22 6.445,22 6.45,22C6.454,22 6.458,22 6.462,22C6.467,22 6.471,22 6.475,22C6.479,22 6.484,22 6.488,22C6.492,22 6.496,22 6.501,22C6.505,22 6.509,22 6.513,22C6.518,22 6.522,22 6.526,22C6.531,22 6.535,22 6.539,22C6.543,22 6.548,22 6.552,22C6.556,22 6.56,22 6.565,22C6.569,22 6.573,22 6.578,22C6.582,22 6.586,22 6.59,22C6.595,22 6.599,22 6.603,22C6.608,22 6.612,22 6.616,22C6.62,22 6.625,22 6.629,22C6.633,22 6.638,22 6.642,22C6.646,22 6.651,22 6.655,22C6.659,22 6.663,22 6.668,22C6.672,22 6.676,22 6.681,22C6.685,22 6.689,22 6.694,22C6.698,22 6.702,22 6.707,22C6.711,22 6.715,22 6.72,22C6.724,22 6.728,22 6.733,22C6.737,22 6.741,22 6.745,22C6.75,22 6.754,22 6.758,22C6.763,22 6.767,22 6.771,22C6.776,22 6.78,22 6.784,22C6.789,22 6.793,22 6.797,22C6.802,22 6.806,22 6.81,22C6.815,22 6.819,22 6.823,22C6.828,22 6.832,22 6.837,22C6.841,22 6.845,22 6.85,22C6.854,22 6.858,22 6.863,22C6.867,22 6.871,22 6.876,22C6.88,22 6.884,22 6.889,22C6.893,22 6.897,22 6.902,22C6.906,22 6.911,22 6.915,22C6.919,22 6.924,22 6.928,22C6.932,22 6.937,22 6.941,22C6.945,22 6.95,22 6.954,22C6.958,22 6.963,22 6.967,22C6.972,22 6.976,22 6.98,22C6.985,22 6.989,22 6.993,22C6.998,22 7.002,22 7.007,22C7.011,22 7.015,22 7.02,22C7.024,22 7.028,22 7.033,22C7.037,22 7.041,22 7.046,22C7.05,22 7.055,22 7.059,22C7.063,22 7.068,22 7.072,22C7.077,22 7.081,22 7.085,22C7.09,22 7.094,22 7.098,22C7.103,22 7.107,22 7.112,22C7.116,22 7.12,22 7.125,22C7.129,22 7.133,22 7.138,22C7.142,22 7.147,22 7.151,22C7.155,22 7.16,22 7.164,22C7.169,22 7.173,22 7.177,22C7.182,22 7.186,22 7.191,22C7.195,22 7.199,22 7.204,22C7.208,22 7.212,22 7.217,22C7.221,22 7.226,22 7.23,22C7.234,22 7.239,22 7.243,22C7.248,22 7.252,22 7.256,22C7.261,22 7.265,22 7.27,22C7.274,22 7.278,22 7.283,22C7.287,22 7.292,22 7.296,22C7.3,22 7.305,22 7.309,22C7.313,22 7.318,22 7.322,22C7.327,22 7.331,22 7.335,22C7.34,22 7.344,22 7.349,22C7.353,22 7.357,22 7.362,22C7.366,22 7.371,22 7.375,22C7.379,22 7.384,22 7.388,22C7.393,22 7.397,22 7.401,22C7.406,22 7.41,22 7.415,22C7.419,22 7.423,22 7.428,22C7.432,22 7.437,22 7.441,22C7.445,22 7.45,22 7.454,22C7.458,22 7.463,22 7.467,22C7.472,22 7.476,22 7.48,22C7.485,22 7.489,22 7.494,22C7.498,22 7.502,22 7.507,22C7.511,22 7.516,22 7.52,22C7.524,22 7.529,22 7.533,22C7.538,22 7.542,22 7.546,22C7.551,22 7.555,22 7.559,22C7.564,22 7.568,22 7.573,22C7.577,22 7.581,22 7.586,22C7.59,22 7.595,22 7.599,22C7.603,22 7.608,22 7.612,22C7.617,22 7.621,22 7.625,22C7.63,22 7.634,22 7.638,22C7.643,22 7.647,22 7.652,22C7.656,22 7.66,22 7.665,22C7.669,22 7.673,22 7.678,22C7.682,22 7.687,22 7.691,22C7.695,22 7.7,22 7.704,22C7.709,22 7.713,22 7.717,22C7.722,22 7.726,22 7.73,22C7.735,22 7.739,22 7.743,22C7.748,22 7.752,22 7.757,22C7.761,22 7.765,22 7.77,22C7.774,22 7.778,22 7.783,22C7.787,22 7.792,22 7.796,22C7.8,22 7.805,22 7.809,22C7.813,22 7.818,22 7.822,22C7.826,22 7.831,22 7.835,22C7.839,22 7.844,22 7.848,22C7.853,22 7.857,22 7.861,22C7.866,22 7.87,22 7.874,22C7.879,22 7.883,22 7.887,22C7.892,22 7.896,22 7.9,22C7.905,22 7.909,22 7.913,22C7.918,22 7.922,22 7.927,22C7.931,22 7.935,22 7.94,22C7.944,22 7.948,22 7.953,22C7.957,22 7.961,22 7.966,22C7.97,22 7.974,22 7.979,22C7.983,22 7.987,22 7.992,22C7.996,22 8,22 8.005,22C8.009,22 8.013,22 8.017,22C8.022,22 8.026,22 8.03,22C8.035,22 8.039,22 8.043,22C8.048,22 8.052,22 8.056,22C8.061,22 8.065,22 8.069,22C8.074,22 8.078,22 8.082,22C8.087,22 8.091,22 8.095,22C8.099,22 8.104,22 8.108,22C8.112,22 8.117,22 8.121,22C8.125,22 8.13,22 8.134,22C8.138,22 8.142,22 8.147,22C8.151,22 8.155,22 8.16,22C8.164,22 8.168,22 8.172,22C8.177,22 8.181,22 8.185,22C8.19,22 8.194,22 8.198,22C8.202,22 8.207,22 8.211,22C8.215,22 8.219,22 8.224,22C8.228,22 8.232,22 8.237,22C8.241,22 8.245,22 8.249,22C8.254,22 8.258,22 8.262,22C8.266,22 8.271,22 8.275,22C8.279,22 8.283,22 8.288,22C8.292,22 8.296,22 8.3,22C8.305,22 8.309,22 8.313,22C8.317,22 8.322,22 8.326,22C8.33,22 8.334,22 8.339,22C8.343,22 8.347,22 8.351,22C8.355,22 8.36,22 8.364,22C8.368,22 8.372,22 8.377,22C8.381,22 8.385,22 8.389,22C8.393,22 8.398,22 8.402,22C8.406,22 8.41,22 8.414,22C8.419,22 8.423,22 8.427,22C8.431,22 8.435,22 8.44,22C8.444,22 8.448,22 8.452,22C8.456,22 8.461,22 8.465,22C8.469,22 8.473,22 8.477,22C8.481,22 8.486,22 8.49,22C8.494,22 8.498,22 8.502,22C8.507,22 8.511,22 8.515,22C8.519,22 8.523,22 8.527,22C8.531,22 8.536,22 8.54,22C8.544,22 8.548,22 8.552,22C8.556,22 8.561,22 8.565,22C8.569,22 8.573,22 8.577,22C8.581,22 8.585,22 8.589,22C8.594,22 8.598,22 8.602,22C8.606,22 8.61,22 8.614,22C8.618,22 8.623,22 8.627,22C8.631,22 8.635,22 8.639,22C8.643,22 8.647,22 8.651,22C8.655,22 8.659,22 8.664,22C8.668,22 8.672,22 8.676,22C8.68,22 8.684,22 8.688,22C8.692,22 8.696,22 8.7,22C8.704,22 8.709,22 8.713,22C8.717,22 8.721,22 8.725,22C8.729,22 8.733,22 8.737,22C8.741,22 8.745,22 8.749,22C8.753,22 8.757,22 8.761,22C8.765,22 8.769,22 8.773,22C8.777,22 8.782,22 8.786,22C8.79,22 8.794,22 8.798,22C8.802,22 8.806,22 8.81,22C8.814,22 8.818,22 8.822,22C8.826,22 8.83,22 8.834,22C8.838,22 8.842,22 8.846,22C8.85,22 8.854,22 8.858,22C8.862,22 8.866,22 8.87,22C8.874,22 8.878,22 8.882,22C8.886,22 8.89,22 8.894,22C8.898,22 8.902,22 8.906,22C8.91,22 8.913,22 8.917,22C8.921,22 8.925,22 8.929,22C8.933,22 8.937,22 8.941,22C8.945,22 8.949,22 8.953,22C8.957,22 8.961,22 8.965,22C8.969,22 8.973,22 8.977,22C8.98,22 8.984,22 8.988,22C8.992,22 8.996,22 9,22L9,18C8.996,18 8.992,18 8.988,18C8.984,18 8.98,18 8.977,18C8.973,18 8.969,18 8.965,18C8.961,18 8.957,18 8.953,18C8.949,18 8.945,18 8.941,18C8.937,18 8.933,18 8.929,18C8.925,18 8.921,18 8.917,18C8.913,18 8.91,18 8.906,18C8.902,18 8.898,18 8.894,18C8.89,18 8.886,18 8.882,18C8.878,18 8.874,18 8.87,18C8.866,18 8.862,18 8.858,18C8.854,18 8.85,18 8.846,18C8.842,18 8.838,18 8.834,18C8.83,18 8.826,18 8.822,18C8.818,18 8.814,18 8.81,18C8.806,18 8.802,18 8.798,18C8.794,18 8.79,18 8.786,18C8.782,18 8.777,18 8.773,18C8.769,18 8.765,18 8.761,18C8.757,18 8.753,18 8.749,18C8.745,18 8.741,18 8.737,18C8.733,18 8.729,18 8.725,18C8.721,18 8.717,18 8.713,18C8.709,18 8.704,18 8.7,18C8.696,18 8.692,18 8.688,18C8.684,18 8.68,18 8.676,18C8.672,18 8.668,18 8.664,18C8.659,18 8.655,18 8.651,18C8.647,18 8.643,18 8.639,18C8.635,18 8.631,18 8.627,18C8.623,18 8.618,18 8.614,18C8.61,18 8.606,18 8.602,18C8.598,18 8.594,18 8.589,18C8.585,18 8.581,18 8.577,18C8.573,18 8.569,18 8.565,18C8.561,18 8.556,18 8.552,18C8.548,18 8.544,18 8.54,18C8.536,18 8.531,18 8.527,18C8.523,18 8.519,18 8.515,18C8.511,18 8.507,18 8.502,18C8.498,18 8.494,18 8.49,18C8.486,18 8.481,18 8.477,18C8.473,18 8.469,18 8.465,18C8.461,18 8.456,18 8.452,18C8.448,18 8.444,18 8.44,18C8.435,18 8.431,18 8.427,18C8.423,18 8.419,18 8.414,18C8.41,18 8.406,18 8.402,18C8.398,18 8.393,18 8.389,18C8.385,18 8.381,18 8.377,18C8.372,18 8.368,18 8.364,18C8.36,18 8.355,18 8.351,18C8.347,18 8.343,18 8.339,18C8.334,18 8.33,18 8.326,18C8.322,18 8.317,18 8.313,18C8.309,18 8.305,18 8.3,18C8.296,18 8.292,18 8.288,18C8.283,18 8.279,18 8.275,18C8.271,18 8.266,18 8.262,18C8.258,18 8.254,18 8.249,18C8.245,18 8.241,18 8.237,18C8.232,18 8.228,18 8.224,18C8.219,18 8.215,18 8.211,18C8.207,18 8.202,18 8.198,18C8.194,18 8.19,18 8.185,18C8.181,18 8.177,18 8.172,18C8.168,18 8.164,18 8.16,18C8.155,18 8.151,18 8.147,18C8.142,18 8.138,18 8.134,18C8.13,18 8.125,18 8.121,18C8.117,18 8.112,18 8.108,18C8.104,18 8.099,18 8.095,18C8.091,18 8.087,18 8.082,18C8.078,18 8.074,18 8.069,18C8.065,18 8.061,18 8.056,18C8.052,18 8.048,18 8.043,18C8.039,18 8.035,18 8.03,18C8.026,18 8.022,18 8.017,18C8.013,18 8.009,18 8.005,18C8,18 7.996,18 7.992,18C7.987,18 7.983,18 7.979,18C7.974,18 7.97,18 7.966,18C7.961,18 7.957,18 7.953,18C7.948,18 7.944,18 7.94,18C7.935,18 7.931,18 7.927,18C7.922,18 7.918,18 7.913,18C7.909,18 7.905,18 7.9,18C7.896,18 7.892,18 7.887,18C7.883,18 7.879,18 7.874,18C7.87,18 7.866,18 7.861,18C7.857,18 7.853,18 7.848,18C7.844,18 7.839,18 7.835,18C7.831,18 7.826,18 7.822,18C7.818,18 7.813,18 7.809,18C7.805,18 7.8,18 7.796,18C7.792,18 7.787,18 7.783,18C7.778,18 7.774,18 7.77,18C7.765,18 7.761,18 7.757,18C7.752,18 7.748,18 7.743,18C7.739,18 7.735,18 7.73,18C7.726,18 7.722,18 7.717,18C7.713,18 7.709,18 7.704,18C7.7,18 7.695,18 7.691,18C7.687,18 7.682,18 7.678,18C7.673,18 7.669,18 7.665,18C7.66,18 7.656,18 7.652,18C7.647,18 7.643,18 7.638,18C7.634,18 7.63,18 7.625,18C7.621,18 7.617,18 7.612,18C7.608,18 7.603,18 7.599,18C7.595,18 7.59,18 7.586,18C7.581,18 7.577,18 7.573,18C7.568,18 7.564,18 7.559,18C7.555,18 7.551,18 7.546,18C7.542,18 7.538,18 7.533,18C7.529,18 7.524,18 7.52,18C7.516,18 7.511,18 7.507,18C7.502,18 7.498,18 7.494,18C7.489,18 7.485,18 7.48,18C7.476,18 7.472,18 7.467,18C7.463,18 7.458,18 7.454,18C7.45,18 7.445,18 7.441,18C7.437,18 7.432,18 7.428,18C7.423,18 7.419,18 7.415,18C7.41,18 7.406,18 7.401,18C7.397,18 7.393,18 7.388,18C7.384,18 7.379,18 7.375,18C7.371,18 7.366,18 7.362,18C7.357,18 7.353,18 7.349,18C7.344,18 7.34,18 7.335,18C7.331,18 7.327,18 7.322,18C7.318,18 7.313,18 7.309,18C7.305,18 7.3,18 7.296,18C7.292,18 7.287,18 7.283,18C7.278,18 7.274,18 7.27,18C7.265,18 7.261,18 7.256,18C7.252,18 7.248,18 7.243,18C7.239,18 7.234,18 7.23,18C7.226,18 7.221,18 7.217,18C7.212,18 7.208,18 7.204,18C7.199,18 7.195,18 7.191,18C7.186,18 7.182,18 7.177,18C7.173,18 7.169,18 7.164,18C7.16,18 7.155,18 7.151,18C7.147,18 7.142,18 7.138,18C7.133,18 7.129,18 7.125,18C7.12,18 7.116,18 7.112,18C7.107,18 7.103,18 7.098,18C7.094,18 7.09,18 7.085,18C7.081,18 7.077,18 7.072,18C7.068,18 7.063,18 7.059,18C7.055,18 7.05,18 7.046,18C7.041,18 7.037,18 7.033,18C7.028,18 7.024,18 7.02,18C7.015,18 7.011,18 7.007,18C7.002,18 6.998,18 6.993,18C6.989,18 6.985,18 6.98,18C6.976,18 6.972,18 6.967,18C6.963,18 6.958,18 6.954,18C6.95,18 6.945,18 6.941,18C6.937,18 6.932,18 6.928,18C6.924,18 6.919,18 6.915,18C6.911,18 6.906,18 6.902,18C6.897,18 6.893,18 6.889,18C6.884,18 6.88,18 6.876,18C6.871,18 6.867,18 6.863,18C6.858,18 6.854,18 6.85,18C6.845,18 6.841,18 6.837,18C6.832,18 6.828,18 6.823,18C6.819,18 6.815,18 6.81,18C6.806,18 6.802,18 6.797,18C6.793,18 6.789,18 6.784,18C6.78,18 6.776,18 6.771,18C6.767,18 6.763,18 6.758,18C6.754,18 6.75,18 6.745,18C6.741,18 6.737,18 6.733,18C6.728,18 6.724,18 6.72,18C6.715,18 6.711,18 6.707,18C6.702,18 6.698,18 6.694,18C6.689,18 6.685,18 6.681,18C6.676,18 6.672,18 6.668,18C6.663,18 6.659,18 6.655,18C6.651,18 6.646,18 6.642,18C6.638,18 6.633,18 6.629,18C6.625,18 6.62,18 6.616,18C6.612,18 6.608,18 6.603,18C6.599,18 6.595,18 6.59,18C6.586,18 6.582,18 6.578,18C6.573,18 6.569,18 6.565,18C6.56,18 6.556,18 6.552,18C6.548,18 6.543,18 6.539,18C6.535,18 6.531,18 6.526,18C6.522,18 6.518,18 6.513,18C6.509,18 6.505,18 6.501,18C6.496,18 6.492,18 6.488,18C6.484,18 6.479,18 6.475,18C6.471,18 6.467,18 6.462,18C6.458,18 6.454,18 6.45,18C6.445,18 6.441,18 6.437,18C6.433,18 6.428,18 6.424,18C6.42,18 6.416,18 6.411,18C6.407,18 6.403,18 6.399,18C6.395,18 6.39,18 6.386,18C6.382,18 6.378,18 6.373,18C6.369,18 6.365,18 6.361,18C6.357,18 6.352,18 6.348,18C6.344,18 6.34,18 6.336,18C6.331,18 6.327,18 6.323,18C6.319,18 6.315,18 6.31,18C6.306,18 6.302,18 6.298,18C6.294,18 6.289,18 6.285,18C6.281,18 6.277,18 6.273,18C6.269,18 6.264,18 6.26,18C6.256,18 6.252,18 6.248,18C6.243,18 6.239,18 6.235,18C6.231,18 6.227,18 6.223,18C6.219,18 6.214,18 6.21,18C6.206,18 6.202,18 6.198,18C6.194,18 6.189,18 6.185,18C6.181,18 6.177,18 6.173,18C6.169,18 6.165,18 6.161,18C6.156,18 6.152,18 6.148,18C6.144,18 6.14,18 6.136,18C6.132,18 6.127,18 6.123,18C6.119,18 6.115,18 6.111,18C6.107,18 6.103,18 6.099,18C6.095,18 6.091,18 6.086,18C6.082,18 6.078,18 6.074,18C6.07,18 6.066,18 6.062,18C6.058,18 6.054,18 6.05,18C6.046,18 6.041,18 6.037,18C6.033,18 6.029,18 6.025,18C6.021,18 6.017,18 6.013,18C6.009,18 6.005,18 6.001,18C5.997,18 5.993,18 5.989,18C5.985,18 5.981,18 5.977,18C5.973,18 5.968,18 5.964,18C5.96,18 5.956,18 5.952,18C5.948,18 5.944,18 5.94,18C5.936,18 5.932,18 5.928,18C5.924,18 5.92,18 5.916,18C5.912,18 5.908,18 5.904,18C5.9,18 5.896,18 5.892,18C5.888,18 5.884,18 5.88,18C5.876,18 5.872,18 5.868,18C5.864,18 5.86,18 5.856,18C5.852,18 5.848,18 5.844,18C5.84,18 5.837,18 5.833,18C5.829,18 5.825,18 5.821,18C5.817,18 5.813,18 5.809,18C5.805,18 5.801,18 5.797,18C5.793,18 5.789,18 5.785,18C5.781,18 5.777,18 5.773,18C5.77,18 5.766,18 5.762,18C5.758,18 5.754,18 5.75,18C5.746,18 5.742,18 5.738,18C5.734,18 5.731,18 5.727,18C5.723,18 5.719,18 5.715,18C5.711,18 5.707,18 5.703,18C5.699,18 5.696,18 5.692,18C5.688,18 5.684,18 5.68,18C5.676,18 5.672,18 5.669,18C5.665,18 5.661,18 5.657,18C5.653,18 5.649,18 5.645,18C5.642,18 5.638,18 5.634,18C5.63,18 5.626,18 5.623,18C5.619,18 5.615,18 5.611,18C5.607,18 5.603,18 5.6,18C5.596,18 5.592,18 5.588,18C5.584,18 5.581,18 5.577,18C5.573,18 5.569,18 5.566,18C5.562,18 5.558,18 5.554,18C5.55,18 5.547,18 5.543,18C5.539,18 5.535,18 5.532,18C5.528,18 5.524,18 5.52,18C5.517,18 5.513,18 5.509,18C5.505,18 5.502,18 5.498,18C5.494,18 5.491,18 5.487,18C5.483,18 5.479,18 5.476,18C5.472,18 5.468,18 5.465,18C5.461,18 5.457,18 5.454,18C5.45,18 5.446,18 5.443,18C5.439,18 5.435,18 5.431,18C5.428,18 5.424,18 5.421,18C5.417,18 5.413,18 5.41,18C5.406,18 5.402,18 5.399,18C5.395,18 5.391,18 5.388,18C5.384,18 5.38,18 5.377,18C5.373,18 5.37,18 5.366,18C5.362,18 5.359,18 5.355,18C5.352,18 5.348,18 5.344,18C5.341,18 5.337,18 5.334,18C5.33,18 5.326,18 5.323,18C5.319,18 5.316,18 5.312,18C5.309,18 5.305,18 5.301,18C5.298,18 5.294,18 5.291,18C5.287,18 5.284,18 5.28,18C5.277,18 5.273,18 5.27,18C5.266,18 5.263,18 5.259,18C5.256,18 5.252,18 5.249,18C5.245,18 5.242,18 5.238,18C5.235,18 5.231,18 5.228,18C5.224,18 5.221,18 5.217,18C5.214,18 5.21,18 5.207,18C5.203,18 5.2,18 5.196,18C5.193,18 5.19,18 5.186,18C5.183,18 5.179,18 5.176,18C5.172,18 5.169,18 5.165,18C5.162,18 5.159,18 5.155,18C5.152,18 5.148,18 5.145,18C5.142,18 5.138,18 5.135,18C5.131,18 5.128,18 5.125,18C5.121,18 5.118,18 5.115,18C5.111,18 5.108,18 5.105,18C5.101,18 5.098,18 5.095,18C5.091,18 5.088,18 5.085,18C5.081,18 5.078,18 5.075,18C5.071,18 5.068,18 5.065,18C5.061,18 5.058,18 5.055,18C5.051,18 5.048,18 5.045,18C5.042,18 5.038,18 5.035,18C5.032,18 5.028,18 5.025,18C5.022,18 5.019,18 5.015,18C5.012,18 5.009,18 5.006,18C5.002,18 4.999,18 4.996,18C4.993,18 4.99,18 4.986,18C4.983,18 4.98,18 4.977,18C4.974,18 4.97,18 4.967,18C4.964,18 4.961,18 4.958,18C4.954,18 4.951,18 4.948,18C4.945,18 4.942,18 4.939,18C4.935,18 4.932,18 4.929,18C4.926,18 4.923,18 4.92,18C4.917,18 4.913,18 4.91,18C4.907,18 4.904,18 4.901,18C4.898,18 4.895,18 4.892,18C4.889,18 4.886,18 4.882,18C4.879,18 4.876,18 4.873,18C4.87,18 4.867,18 4.864,18C4.861,18 4.858,18 4.855,18C4.852,18 4.849,18 4.846,18C4.843,18 4.84,18 4.837,18C4.834,18 4.831,18 4.828,18C4.825,18 4.822,18 4.819,18C4.816,18 4.813,18 4.81,18C4.807,18 4.804,18 4.801,18C4.798,18 4.795,18 4.792,18C4.789,18 4.786,18 4.783,18C4.78,18 4.777,18 4.774,18C4.771,18 4.768,18 4.766,18C4.763,18 4.76,18 4.757,18C4.754,18 4.751,18 4.748,18C4.745,18 4.742,18 4.74,18C4.737,18 4.734,18 4.731,18C4.728,18 4.725,18 4.722,18C4.72,18 4.717,18 4.714,18C4.711,18 4.708,18 4.705,18C4.703,18 4.7,18 4.697,18C4.694,18 4.691,18 4.689,18C4.686,18 4.683,18 4.68,18C4.677,18 4.675,18 4.672,18C4.669,18 4.666,18 4.664,18C4.661,18 4.658,18 4.655,18C4.653,18 4.65,18 4.647,18C4.644,18 4.642,18 4.639,18C4.636,18 4.634,18 4.631,18C4.628,18 4.626,18 4.623,18C4.62,18 4.618,18 4.615,18C4.612,18 4.61,18 4.607,18C4.604,18 4.602,18 4.599,18C4.596,18 4.594,18 4.591,18C4.589,18 4.586,18 4.583,18C4.581,18 4.578,18 4.575,18C4.573,18 4.57,18 4.568,18C4.565,18 4.563,18 4.56,18C4.557,18 4.555,18 4.552,18C4.55,18 4.547,18 4.545,18C4.542,18 4.54,18 4.537,18C4.535,18 4.532,18 4.53,18C4.527,18 4.525,18 4.522,18C4.52,18 4.517,18 4.515,18C4.512,18 4.51,18 4.507,18C4.505,18 4.502,18 4.5,18C4.498,18 4.495,18 4.493,18C4.49,18 4.488,18 4.485,18C4.483,18 4.481,18 4.478,18C4.476,18 4.473,18 4.471,18C4.469,18 4.466,18 4.464,18C4.462,18 4.459,18 4.457,18C4.455,18 4.452,18 4.45,18C4.448,18 4.445,18 4.443,18C4.441,18 4.438,18 4.436,18C4.434,18 4.431,18 4.429,18C4.427,18 4.425,18 4.422,18C4.42,18 4.418,18 4.415,18C4.413,18 4.411,18 4.409,18C4.406,18 4.404,18 4.402,18C4.4,18 4.398,18 4.395,18C4.393,18 4.391,18 4.389,18C4.387,18 4.384,18 4.382,18C4.38,18 4.378,18 4.376,18C4.374,18 4.371,18 4.369,18C4.367,18 4.365,18 4.363,18C4.361,18 4.359,18 4.357,18C4.354,18 4.352,18 4.35,18C4.348,18 4.346,18 4.344,18C4.342,18 4.34,18 4.338,18C4.336,18 4.334,18 4.332,18C4.33,18 4.328,18 4.326,18C4.324,18 4.322,18 4.32,18C4.318,18 4.316,18 4.314,18C4.312,18 4.31,18 4.308,18C4.306,18 4.304,18 4.302,18C4.3,18 4.298,18 4.296,18C4.294,18 4.292,18 4.29,18C4.288,18 4.286,18 4.284,18C4.282,18 4.281,18 4.279,18C4.277,18 4.275,18 4.273,18C4.271,18 4.269,18 4.267,18C4.266,18 4.264,18 4.262,18C4.26,18 4.258,18 4.256,18C4.255,18 4.253,18 4.251,18C4.249,18 4.247,18 4.246,18C4.244,18 4.242,18 4.24,18C4.238,18 4.237,18 4.235,18C4.233,18 4.231,18 4.23,18C4.228,18 4.226,18 4.225,18C4.223,18 4.221,18 4.219,18C4.218,18 4.216,18 4.214,18C4.213,18 4.211,18 4.209,18C4.208,18 4.206,18 4.204,18C4.203,18 4.201,18 4.2,18C4.198,18 4.196,18 4.195,18C4.193,18 4.192,18 4.19,18C4.188,18 4.187,18 4.185,18C4.184,18 4.182,18 4.181,18C4.179,18 4.177,18 4.176,18C4.174,18 4.173,18 4.171,18C4.17,18 4.168,18 4.167,18C4.165,18 4.164,18 4.162,18C4.161,18 4.159,18 4.158,18C4.157,18 4.155,18 4.154,18C4.152,18 4.151,18 4.149,18C4.148,18 4.147,18 4.145,18C4.144,18 4.142,18 4.141,18C4.14,18 4.138,18 4.137,18C4.136,18 4.134,18 4.133,18C4.131,18 4.13,18 4.129,18C4.127,18 4.126,18 4.125,18C4.124,18 4.122,18 4.121,18C4.12,18 4.118,18 4.117,18C4.116,18 4.115,18 4.113,18C4.112,18 4.111,18 4.11,18C4.108,18 4.107,18 4.106,18C4.105,18 4.104,18 4.102,18C4.101,18 4.1,18 4.099,18C4.098,18 4.097,18 4.095,18C4.094,18 4.093,18 4.092,18C4.091,18 4.09,18 4.089,18C4.088,18 4.086,18 4.085,18C4.084,18 4.083,18 4.082,18C4.081,18 4.08,18 4.079,18C4.078,18 4.077,18 4.076,18C4.075,18 4.074,18 4.073,18C4.072,18 4.071,18 4.07,18C4.069,18 4.068,18 4.067,18C4.066,18 4.065,18 4.064,18C4.063,18 4.062,18 4.061,18C4.06,18 4.059,18 4.058,18C4.057,18 4.057,18 4.056,18C4.055,18 4.054,18 4.053,18C4.052,18 4.051,18 4.05,18C4.05,18 4.049,18 4.048,18C4.047,18 4.046,18 4.046,18C4.045,18 4.044,18 4.043,18C4.042,18 4.042,18 4.041,18C4.04,18 4.039,18 4.039,18C4.038,18 4.037,18 4.036,18C4.036,18 4.035,18 4.034,18C4.033,18 4.033,18 4.032,18C4.031,18 4.031,18 4.03,18C4.029,18 4.029,18 4.028,18C4.028,18 4.027,18 4.026,18C4.026,18 4.025,18 4.024,18C4.024,18 4.023,18 4.023,18C4.022,18 4.022,18 4.021,18C4.02,18 4.02,18 4.019,18C4.019,18 4.018,18 4.018,18C4.017,18 4.017,18 4.016,18C4.016,18 4.015,18 4.015,18C4.014,18 4.014,18 4.014,18C4.013,18 4.013,18 4.012,18C4.012,18 4.011,18 4.011,18C4.011,18 4.01,18 4.01,18C4.009,18 4.009,18 4.009,18C4.008,18 4.008,18 4.008,18C4.007,18 4.007,18 4.007,18C4.006,18 4.006,18 4.006,18C4.005,18 4.005,18 4.005,18C4.005,18 4.004,18 4.004,18C4.004,18 4.004,18 4.003,18C4.003,18 4.003,18 4.003,18C4.003,18 4.002,18 4.002,18C4.002,18 4.002,18 4.002,18C4.002,18 4.001,18 4.001,18C4.001,18 4.001,18 4.001,18C4.001,18 4.001,18 4.001,18C4,18 4,18 4,18C4,18 4,18 4,18C4,18 4,18 4,18C4,18 4,18 4,20ZM9,22C9.971,22 13.125,22.053 16.061,20.749C17.566,20.082 19.08,19.032 20.21,17.389C21.347,15.736 22,13.624 22,11L18,11C18,12.938 17.528,14.231 16.915,15.122C16.295,16.022 15.434,16.652 14.439,17.093C12.375,18.009 10.029,18 9,18L9,22ZM22,11C22,8.376 21.347,6.264 20.21,4.611C19.08,2.969 17.566,1.919 16.061,1.251C13.125,-0.052 9.971,0 9,0L9,4C10.029,4 12.375,3.991 14.439,4.907C15.434,5.349 16.295,5.978 16.915,6.879C17.528,7.769 18,9.062 18,11L22,11Z" fill="#1D1D1D"/>
</svg>
