<svg width="26" height="38" viewBox="0 0 26 38" fill="none" xmlns="http://www.w3.org/2000/svg" xmlns:xlink="http://www.w3.org/1999/xlink">
<path d="M4,21L4,19L-0.828,19L2.586,22.414L4,21ZM19.414,33.586L5.414,19.586L2.586,22.414L16.586,36.414L19.414,33.586ZM2,14L26,14L26,10L2,10L2,14ZM2,3C2,5 2,5 2,5C2,5 2,5 2,5C2,5 2,5 2,5C2,5 2.001,5 2.001,5C2.001,5 2.001,5 2.001,5C2.001,5 2.001,5 2.001,5C2.002,5 2.002,5 2.002,5C2.002,5 2.002,5 2.003,5C2.003,5 2.003,5 2.003,5C2.003,5 2.004,5 2.004,5C2.004,5 2.005,5 2.005,5C2.005,5 2.005,5 2.006,5C2.006,5 2.006,5 2.007,5C2.007,5 2.007,5 2.008,5C2.008,5 2.008,5 2.009,5C2.009,5 2.01,5 2.01,5C2.011,5 2.011,5 2.011,5C2.012,5 2.012,5 2.013,5C2.013,5 2.014,5 2.014,5C2.015,5 2.015,5 2.016,5C2.016,5 2.017,5 2.017,5C2.018,5 2.018,5 2.019,5C2.02,5 2.02,5 2.021,5C2.021,5 2.022,5 2.023,5C2.023,5 2.024,5 2.025,5C2.025,5 2.026,5 2.027,5C2.027,5 2.028,5 2.029,5C2.029,5 2.03,5 2.031,5C2.031,5 2.032,5 2.033,5C2.034,5 2.034,5 2.035,5C2.036,5 2.037,5 2.038,5C2.038,5 2.039,5 2.04,5C2.041,5 2.042,5 2.043,5C2.043,5 2.044,5 2.045,5C2.046,5 2.047,5 2.048,5C2.049,5 2.05,5 2.05,5C2.051,5 2.052,5 2.053,5C2.054,5 2.055,5 2.056,5C2.057,5 2.058,5 2.059,5C2.06,5 2.061,5 2.062,5C2.063,5 2.064,5 2.065,5C2.066,5 2.067,5 2.068,5C2.07,5 2.071,5 2.072,5C2.073,5 2.074,5 2.075,5C2.076,5 2.077,5 2.078,5C2.08,5 2.081,5 2.082,5C2.083,5 2.084,5 2.085,5C2.087,5 2.088,5 2.089,5C2.09,5 2.091,5 2.093,5C2.094,5 2.095,5 2.096,5C2.098,5 2.099,5 2.1,5C2.102,5 2.103,5 2.104,5C2.106,5 2.107,5 2.108,5C2.11,5 2.111,5 2.112,5C2.114,5 2.115,5 2.116,5C2.118,5 2.119,5 2.121,5C2.122,5 2.123,5 2.125,5C2.126,5 2.128,5 2.129,5C2.131,5 2.132,5 2.134,5C2.135,5 2.137,5 2.138,5C2.14,5 2.141,5 2.143,5C2.144,5 2.146,5 2.147,5C2.149,5 2.15,5 2.152,5C2.153,5 2.155,5 2.157,5C2.158,5 2.16,5 2.161,5C2.163,5 2.165,5 2.166,5C2.168,5 2.17,5 2.171,5C2.173,5 2.175,5 2.176,5C2.178,5 2.18,5 2.181,5C2.183,5 2.185,5 2.187,5C2.188,5 2.19,5 2.192,5C2.194,5 2.195,5 2.197,5C2.199,5 2.201,5 2.203,5C2.204,5 2.206,5 2.208,5C2.21,5 2.212,5 2.213,5C2.215,5 2.217,5 2.219,5C2.221,5 2.223,5 2.225,5C2.227,5 2.229,5 2.23,5C2.232,5 2.234,5 2.236,5C2.238,5 2.24,5 2.242,5C2.244,5 2.246,5 2.248,5C2.25,5 2.252,5 2.254,5C2.256,5 2.258,5 2.26,5C2.262,5 2.264,5 2.266,5C2.268,5 2.27,5 2.272,5C2.274,5 2.277,5 2.279,5C2.281,5 2.283,5 2.285,5C2.287,5 2.289,5 2.291,5C2.293,5 2.296,5 2.298,5C2.3,5 2.302,5 2.304,5C2.306,5 2.309,5 2.311,5C2.313,5 2.315,5 2.318,5C2.32,5 2.322,5 2.324,5C2.327,5 2.329,5 2.331,5C2.333,5 2.336,5 2.338,5C2.34,5 2.342,5 2.345,5C2.347,5 2.349,5 2.352,5C2.354,5 2.356,5 2.359,5C2.361,5 2.364,5 2.366,5C2.368,5 2.371,5 2.373,5C2.376,5 2.378,5 2.38,5C2.383,5 2.385,5 2.388,5C2.39,5 2.393,5 2.395,5C2.397,5 2.4,5 2.402,5C2.405,5 2.407,5 2.41,5C2.412,5 2.415,5 2.417,5C2.42,5 2.423,5 2.425,5C2.428,5 2.43,5 2.433,5C2.435,5 2.438,5 2.441,5C2.443,5 2.446,5 2.448,5C2.451,5 2.454,5 2.456,5C2.459,5 2.461,5 2.464,5C2.467,5 2.469,5 2.472,5C2.475,5 2.478,5 2.48,5C2.483,5 2.486,5 2.488,5C2.491,5 2.494,5 2.497,5C2.499,5 2.502,5 2.505,5C2.508,5 2.51,5 2.513,5C2.516,5 2.519,5 2.521,5C2.524,5 2.527,5 2.53,5C2.533,5 2.536,5 2.538,5C2.541,5 2.544,5 2.547,5C2.55,5 2.553,5 2.556,5C2.558,5 2.561,5 2.564,5C2.567,5 2.57,5 2.573,5C2.576,5 2.579,5 2.582,5C2.585,5 2.588,5 2.591,5C2.594,5 2.597,5 2.599,5C2.602,5 2.605,5 2.608,5C2.611,5 2.614,5 2.618,5C2.621,5 2.624,5 2.627,5C2.63,5 2.633,5 2.636,5C2.639,5 2.642,5 2.645,5C2.648,5 2.651,5 2.654,5C2.657,5 2.66,5 2.664,5C2.667,5 2.67,5 2.673,5C2.676,5 2.679,5 2.682,5C2.686,5 2.689,5 2.692,5C2.695,5 2.698,5 2.701,5C2.705,5 2.708,5 2.711,5C2.714,5 2.718,5 2.721,5C2.724,5 2.727,5 2.731,5C2.734,5 2.737,5 2.74,5C2.744,5 2.747,5 2.75,5C2.753,5 2.757,5 2.76,5C2.763,5 2.767,5 2.77,5C2.773,5 2.777,5 2.78,5C2.783,5 2.787,5 2.79,5C2.794,5 2.797,5 2.8,5C2.804,5 2.807,5 2.811,5C2.814,5 2.817,5 2.821,5C2.824,5 2.828,5 2.831,5C2.835,5 2.838,5 2.841,5C2.845,5 2.848,5 2.852,5C2.855,5 2.859,5 2.862,5C2.866,5 2.869,5 2.873,5C2.876,5 2.88,5 2.884,5C2.887,5 2.891,5 2.894,5C2.898,5 2.901,5 2.905,5C2.908,5 2.912,5 2.916,5C2.919,5 2.923,5 2.926,5C2.93,5 2.934,5 2.937,5C2.941,5 2.945,5 2.948,5C2.952,5 2.956,5 2.959,5C2.963,5 2.967,5 2.97,5C2.974,5 2.978,5 2.981,5C2.985,5 2.989,5 2.992,5C2.996,5 3,5 3.004,5C3.007,5 3.011,5 3.015,5C3.019,5 3.022,5 3.026,5C3.03,5 3.034,5 3.038,5C3.041,5 3.045,5 3.049,5C3.053,5 3.057,5 3.06,5C3.064,5 3.068,5 3.072,5C3.076,5 3.08,5 3.084,5C3.087,5 3.091,5 3.095,5C3.099,5 3.103,5 3.107,5C3.111,5 3.115,5 3.119,5C3.122,5 3.126,5 3.13,5C3.134,5 3.138,5 3.142,5C3.146,5 3.15,5 3.154,5C3.158,5 3.162,5 3.166,5C3.17,5 3.174,5 3.178,5C3.182,5 3.186,5 3.19,5C3.194,5 3.198,5 3.202,5C3.206,5 3.21,5 3.214,5C3.218,5 3.222,5 3.226,5C3.23,5 3.235,5 3.239,5C3.243,5 3.247,5 3.251,5C3.255,5 3.259,5 3.263,5C3.267,5 3.272,5 3.276,5C3.28,5 3.284,5 3.288,5C3.292,5 3.296,5 3.301,5C3.305,5 3.309,5 3.313,5C3.317,5 3.322,5 3.326,5C3.33,5 3.334,5 3.338,5C3.343,5 3.347,5 3.351,5C3.355,5 3.36,5 3.364,5C3.368,5 3.372,5 3.377,5C3.381,5 3.385,5 3.389,5C3.394,5 3.398,5 3.402,5C3.407,5 3.411,5 3.415,5C3.42,5 3.424,5 3.428,5C3.433,5 3.437,5 3.441,5C3.446,5 3.45,5 3.454,5C3.459,5 3.463,5 3.468,5C3.472,5 3.476,5 3.481,5C3.485,5 3.49,5 3.494,5C3.498,5 3.503,5 3.507,5C3.512,5 3.516,5 3.521,5C3.525,5 3.529,5 3.534,5C3.538,5 3.543,5 3.547,5C3.552,5 3.556,5 3.561,5C3.565,5 3.57,5 3.574,5C3.579,5 3.583,5 3.588,5C3.592,5 3.597,5 3.601,5C3.606,5 3.611,5 3.615,5C3.62,5 3.624,5 3.629,5C3.633,5 3.638,5 3.643,5C3.647,5 3.652,5 3.656,5C3.661,5 3.666,5 3.67,5C3.675,5 3.679,5 3.684,5C3.689,5 3.693,5 3.698,5C3.703,5 3.707,5 3.712,5C3.717,5 3.721,5 3.726,5C3.731,5 3.735,5 3.74,5C3.745,5 3.749,5 3.754,5C3.759,5 3.764,5 3.768,5C3.773,5 3.778,5 3.782,5C3.787,5 3.792,5 3.797,5C3.801,5 3.806,5 3.811,5C3.816,5 3.821,5 3.825,5C3.83,5 3.835,5 3.84,5C3.844,5 3.849,5 3.854,5C3.859,5 3.864,5 3.869,5C3.873,5 3.878,5 3.883,5C3.888,5 3.893,5 3.898,5C3.902,5 3.907,5 3.912,5C3.917,5 3.922,5 3.927,5C3.932,5 3.937,5 3.941,5C3.946,5 3.951,5 3.956,5C3.961,5 3.966,5 3.971,5C3.976,5 3.981,5 3.986,5C3.991,5 3.996,5 4.001,5C4.006,5 4.011,5 4.016,5C4.02,5 4.025,5 4.03,5C4.035,5 4.04,5 4.045,5C4.05,5 4.055,5 4.06,5C4.065,5 4.07,5 4.075,5C4.08,5 4.086,5 4.091,5C4.096,5 4.101,5 4.106,5C4.111,5 4.116,5 4.121,5C4.126,5 4.131,5 4.136,5C4.141,5 4.146,5 4.151,5C4.156,5 4.162,5 4.167,5C4.172,5 4.177,5 4.182,5C4.187,5 4.192,5 4.197,5C4.202,5 4.208,5 4.213,5C4.218,5 4.223,5 4.228,5C4.233,5 4.239,5 4.244,5C4.249,5 4.254,5 4.259,5C4.264,5 4.27,5 4.275,5C4.28,5 4.285,5 4.29,5C4.296,5 4.301,5 4.306,5C4.311,5 4.317,5 4.322,5C4.327,5 4.332,5 4.338,5C4.343,5 4.348,5 4.353,5C4.359,5 4.364,5 4.369,5C4.374,5 4.38,5 4.385,5C4.39,5 4.396,5 4.401,5C4.406,5 4.412,5 4.417,5C4.422,5 4.427,5 4.433,5C4.438,5 4.443,5 4.449,5C4.454,5 4.459,5 4.465,5C4.47,5 4.476,5 4.481,5C4.486,5 4.492,5 4.497,5C4.502,5 4.508,5 4.513,5C4.519,5 4.524,5 4.529,5C4.535,5 4.54,5 4.546,5C4.551,5 4.556,5 4.562,5C4.567,5 4.573,5 4.578,5C4.584,5 4.589,5 4.594,5C4.6,5 4.605,5 4.611,5C4.616,5 4.622,5 4.627,5C4.633,5 4.638,5 4.644,5C4.649,5 4.655,5 4.66,5C4.666,5 4.671,5 4.677,5C4.682,5 4.688,5 4.693,5C4.699,5 4.704,5 4.71,5C4.715,5 4.721,5 4.726,5C4.732,5 4.738,5 4.743,5C4.749,5 4.754,5 4.76,5C4.765,5 4.771,5 4.776,5C4.782,5 4.788,5 4.793,5C4.799,5 4.804,5 4.81,5C4.816,5 4.821,5 4.827,5C4.832,5 4.838,5 4.844,5C4.849,5 4.855,5 4.861,5C4.866,5 4.872,5 4.878,5C4.883,5 4.889,5 4.895,5C4.9,5 4.906,5 4.912,5C4.917,5 4.923,5 4.929,5C4.934,5 4.94,5 4.946,5C4.951,5 4.957,5 4.963,5C4.968,5 4.974,5 4.98,5C4.986,5 4.991,5 4.997,5C5.003,5 5.008,5 5.014,5C5.02,5 5.026,5 5.031,5C5.037,5 5.043,5 5.049,5C5.054,5 5.06,5 5.066,5C5.072,5 5.078,5 5.083,5C5.089,5 5.095,5 5.101,5C5.106,5 5.112,5 5.118,5C5.124,5 5.13,5 5.135,5C5.141,5 5.147,5 5.153,5C5.159,5 5.165,5 5.17,5C5.176,5 5.182,5 5.188,5C5.194,5 5.2,5 5.205,5C5.211,5 5.217,5 5.223,5C5.229,5 5.235,5 5.241,5C5.246,5 5.252,5 5.258,5C5.264,5 5.27,5 5.276,5C5.282,5 5.288,5 5.294,5C5.3,5 5.305,5 5.311,5C5.317,5 5.323,5 5.329,5C5.335,5 5.341,5 5.347,5C5.353,5 5.359,5 5.365,5C5.371,5 5.377,5 5.382,5C5.388,5 5.394,5 5.4,5C5.406,5 5.412,5 5.418,5C5.424,5 5.43,5 5.436,5C5.442,5 5.448,5 5.454,5C5.46,5 5.466,5 5.472,5C5.478,5 5.484,5 5.49,5C5.496,5 5.502,5 5.508,5C5.514,5 5.52,5 5.526,5C5.532,5 5.538,5 5.544,5C5.55,5 5.556,5 5.562,5C5.569,5 5.575,5 5.581,5C5.587,5 5.593,5 5.599,5C5.605,5 5.611,5 5.617,5C5.623,5 5.629,5 5.635,5C5.641,5 5.647,5 5.654,5C5.66,5 5.666,5 5.672,5C5.678,5 5.684,5 5.69,5C5.696,5 5.702,5 5.708,5C5.715,5 5.721,5 5.727,5C5.733,5 5.739,5 5.745,5C5.751,5 5.757,5 5.764,5C5.77,5 5.776,5 5.782,5C5.788,5 5.794,5 5.801,5C5.807,5 5.813,5 5.819,5C5.825,5 5.831,5 5.838,5C5.844,5 5.85,5 5.856,5C5.862,5 5.868,5 5.875,5C5.881,5 5.887,5 5.893,5C5.899,5 5.906,5 5.912,5C5.918,5 5.924,5 5.931,5C5.937,5 5.943,5 5.949,5C5.955,5 5.962,5 5.968,5C5.974,5 5.98,5 5.987,5C5.993,5 5.999,5 6.005,5C6.012,5 6.018,5 6.024,5C6.03,5 6.037,5 6.043,5C6.049,5 6.055,5 6.062,5C6.068,5 6.074,5 6.081,5C6.087,5 6.093,5 6.099,5C6.106,5 6.112,5 6.118,5C6.125,5 6.131,5 6.137,5C6.144,5 6.15,5 6.156,5C6.162,5 6.169,5 6.175,5C6.181,5 6.188,5 6.194,5C6.2,5 6.207,5 6.213,5C6.219,5 6.226,5 6.232,5C6.238,5 6.245,5 6.251,5C6.257,5 6.264,5 6.27,5C6.277,5 6.283,5 6.289,5C6.296,5 6.302,5 6.308,5C6.315,5 6.321,5 6.328,5C6.334,5 6.34,5 6.347,5C6.353,5 6.359,5 6.366,5C6.372,5 6.379,5 6.385,5C6.391,5 6.398,5 6.404,5C6.411,5 6.417,5 6.423,5C6.43,5 6.436,5 6.443,5C6.449,5 6.456,5 6.462,5C6.468,5 6.475,5 6.481,5C6.488,5 6.494,5 6.501,5C6.507,5 6.514,5 6.52,5C6.526,5 6.533,5 6.539,5C6.546,5 6.552,5 6.559,5C6.565,5 6.572,5 6.578,5C6.585,5 6.591,5 6.597,5C6.604,5 6.61,5 6.617,5C6.623,5 6.63,5 6.636,5C6.643,5 6.649,5 6.656,5C6.662,5 6.669,5 6.675,5C6.682,5 6.688,5 6.695,5C6.701,5 6.708,5 6.714,5C6.721,5 6.727,5 6.734,5C6.74,5 6.747,5 6.753,5C6.76,5 6.766,5 6.773,5C6.78,5 6.786,5 6.793,5C6.799,5 6.806,5 6.812,5C6.819,5 6.825,5 6.832,5C6.838,5 6.845,5 6.851,5C6.858,5 6.865,5 6.871,5C6.878,5 6.884,5 6.891,5C6.897,5 6.904,5 6.911,5C6.917,5 6.924,5 6.93,5C6.937,5 6.943,5 6.95,5C6.957,5 6.963,5 6.97,5C6.976,5 6.983,5 6.989,5C6.996,5 7.003,5 7.009,5C7.016,5 7.022,5 7.029,5C7.036,5 7.042,5 7.049,5C7.055,5 7.062,5 7.069,5C7.075,5 7.082,5 7.089,5C7.095,5 7.102,5 7.108,5C7.115,5 7.122,5 7.128,5C7.135,5 7.141,5 7.148,5C7.155,5 7.161,5 7.168,5C7.175,5 7.181,5 7.188,5C7.195,5 7.201,5 7.208,5C7.215,5 7.221,5 7.228,5C7.234,5 7.241,5 7.248,5C7.254,5 7.261,5 7.268,5C7.274,5 7.281,5 7.288,5C7.294,5 7.301,5 7.308,5C7.314,5 7.321,5 7.328,5C7.334,5 7.341,5 7.348,5C7.354,5 7.361,5 7.368,5C7.374,5 7.381,5 7.388,5C7.395,5 7.401,5 7.408,5C7.415,5 7.421,5 7.428,5C7.435,5 7.441,5 7.448,5C7.455,5 7.461,5 7.468,5C7.475,5 7.482,5 7.488,5C7.495,5 7.502,5 7.508,5C7.515,5 7.522,5 7.529,5C7.535,5 7.542,5 7.549,5C7.555,5 7.562,5 7.569,5C7.576,5 7.582,5 7.589,5C7.596,5 7.603,5 7.609,5C7.616,5 7.623,5 7.629,5C7.636,5 7.643,5 7.65,5C7.656,5 7.663,5 7.67,5C7.677,5 7.683,5 7.69,5C7.697,5 7.704,5 7.71,5C7.717,5 7.724,5 7.731,5C7.737,5 7.744,5 7.751,5C7.758,5 7.764,5 7.771,5C7.778,5 7.785,5 7.791,5C7.798,5 7.805,5 7.812,5C7.818,5 7.825,5 7.832,5C7.839,5 7.846,5 7.852,5C7.859,5 7.866,5 7.873,5C7.879,5 7.886,5 7.893,5C7.9,5 7.907,5 7.913,5C7.92,5 7.927,5 7.934,5C7.94,5 7.947,5 7.954,5C7.961,5 7.968,5 7.974,5C7.981,5 7.988,5 7.995,5C8.002,5 8.008,5 8.015,5C8.022,5 8.029,5 8.035,5C8.042,5 8.049,5 8.056,5C8.063,5 8.069,5 8.076,5C8.083,5 8.09,5 8.097,5C8.104,5 8.11,5 8.117,5C8.124,5 8.131,5 8.138,5C8.144,5 8.151,5 8.158,5C8.165,5 8.172,5 8.178,5C8.185,5 8.192,5 8.199,5C8.206,5 8.213,5 8.219,5C8.226,5 8.233,5 8.24,5C8.247,5 8.253,5 8.26,5C8.267,5 8.274,5 8.281,5C8.288,5 8.294,5 8.301,5C8.308,5 8.315,5 8.322,5C8.329,5 8.335,5 8.342,5C8.349,5 8.356,5 8.363,5C8.37,5 8.376,5 8.383,5C8.39,5 8.397,5 8.404,5C8.411,5 8.417,5 8.424,5C8.431,5 8.438,5 8.445,5C8.452,5 8.458,5 8.465,5C8.472,5 8.479,5 8.486,5C8.493,5 8.499,5 8.506,5C8.513,5 8.52,5 8.527,5C8.534,5 8.541,5 8.547,5C8.554,5 8.561,5 8.568,5C8.575,5 8.582,5 8.588,5C8.595,5 8.602,5 8.609,5C8.616,5 8.623,5 8.63,5C8.636,5 8.643,5 8.65,5C8.657,5 8.664,5 8.671,5C8.678,5 8.684,5 8.691,5C8.698,5 8.705,5 8.712,5C8.719,5 8.726,5 8.732,5C8.739,5 8.746,5 8.753,5C8.76,5 8.767,5 8.774,5C8.78,5 8.787,5 8.794,5C8.801,5 8.808,5 8.815,5C8.822,5 8.828,5 8.835,5C8.842,5 8.849,5 8.856,5C8.863,5 8.87,5 8.876,5C8.883,5 8.89,5 8.897,5C8.904,5 8.911,5 8.918,5C8.925,5 8.931,5 8.938,5C8.945,5 8.952,5 8.959,5C8.966,5 8.973,5 8.979,5C8.986,5 8.993,5 9,5L9,1C8.993,1 8.986,1 8.979,1C8.973,1 8.966,1 8.959,1C8.952,1 8.945,1 8.938,1C8.931,1 8.925,1 8.918,1C8.911,1 8.904,1 8.897,1C8.89,1 8.883,1 8.876,1C8.87,1 8.863,1 8.856,1C8.849,1 8.842,1 8.835,1C8.828,1 8.822,1 8.815,1C8.808,1 8.801,1 8.794,1C8.787,1 8.78,1 8.774,1C8.767,1 8.76,1 8.753,1C8.746,1 8.739,1 8.732,1C8.726,1 8.719,1 8.712,1C8.705,1 8.698,1 8.691,1C8.684,1 8.678,1 8.671,1C8.664,1 8.657,1 8.65,1C8.643,1 8.636,1 8.63,1C8.623,1 8.616,1 8.609,1C8.602,1 8.595,1 8.588,1C8.582,1 8.575,1 8.568,1C8.561,1 8.554,1 8.547,1C8.541,1 8.534,1 8.527,1C8.52,1 8.513,1 8.506,1C8.499,1 8.493,1 8.486,1C8.479,1 8.472,1 8.465,1C8.458,1 8.452,1 8.445,1C8.438,1 8.431,1 8.424,1C8.417,1 8.411,1 8.404,1C8.397,1 8.39,1 8.383,1C8.376,1 8.37,1 8.363,1C8.356,1 8.349,1 8.342,1C8.335,1 8.329,1 8.322,1C8.315,1 8.308,1 8.301,1C8.294,1 8.288,1 8.281,1C8.274,1 8.267,1 8.26,1C8.253,1 8.247,1 8.24,1C8.233,1 8.226,1 8.219,1C8.213,1 8.206,1 8.199,1C8.192,1 8.185,1 8.178,1C8.172,1 8.165,1 8.158,1C8.151,1 8.144,1 8.138,1C8.131,1 8.124,1 8.117,1C8.11,1 8.104,1 8.097,1C8.09,1 8.083,1 8.076,1C8.069,1 8.063,1 8.056,1C8.049,1 8.042,1 8.035,1C8.029,1 8.022,1 8.015,1C8.008,1 8.002,1 7.995,1C7.988,1 7.981,1 7.974,1C7.968,1 7.961,1 7.954,1C7.947,1 7.94,1 7.934,1C7.927,1 7.92,1 7.913,1C7.907,1 7.9,1 7.893,1C7.886,1 7.879,1 7.873,1C7.866,1 7.859,1 7.852,1C7.846,1 7.839,1 7.832,1C7.825,1 7.818,1 7.812,1C7.805,1 7.798,1 7.791,1C7.785,1 7.778,1 7.771,1C7.764,1 7.758,1 7.751,1C7.744,1 7.737,1 7.731,1C7.724,1 7.717,1 7.71,1C7.704,1 7.697,1 7.69,1C7.683,1 7.677,1 7.67,1C7.663,1 7.656,1 7.65,1C7.643,1 7.636,1 7.629,1C7.623,1 7.616,1 7.609,1C7.603,1 7.596,1 7.589,1C7.582,1 7.576,1 7.569,1C7.562,1 7.555,1 7.549,1C7.542,1 7.535,1 7.529,1C7.522,1 7.515,1 7.508,1C7.502,1 7.495,1 7.488,1C7.482,1 7.475,1 7.468,1C7.461,1 7.455,1 7.448,1C7.441,1 7.435,1 7.428,1C7.421,1 7.415,1 7.408,1C7.401,1 7.395,1 7.388,1C7.381,1 7.374,1 7.368,1C7.361,1 7.354,1 7.348,1C7.341,1 7.334,1 7.328,1C7.321,1 7.314,1 7.308,1C7.301,1 7.294,1 7.288,1C7.281,1 7.274,1 7.268,1C7.261,1 7.254,1 7.248,1C7.241,1 7.234,1 7.228,1C7.221,1 7.215,1 7.208,1C7.201,1 7.195,1 7.188,1C7.181,1 7.175,1 7.168,1C7.161,1 7.155,1 7.148,1C7.141,1 7.135,1 7.128,1C7.122,1 7.115,1 7.108,1C7.102,1 7.095,1 7.089,1C7.082,1 7.075,1 7.069,1C7.062,1 7.055,1 7.049,1C7.042,1 7.036,1 7.029,1C7.022,1 7.016,1 7.009,1C7.003,1 6.996,1 6.989,1C6.983,1 6.976,1 6.97,1C6.963,1 6.957,1 6.95,1C6.943,1 6.937,1 6.93,1C6.924,1 6.917,1 6.911,1C6.904,1 6.897,1 6.891,1C6.884,1 6.878,1 6.871,1C6.865,1 6.858,1 6.851,1C6.845,1 6.838,1 6.832,1C6.825,1 6.819,1 6.812,1C6.806,1 6.799,1 6.793,1C6.786,1 6.78,1 6.773,1C6.766,1 6.76,1 6.753,1C6.747,1 6.74,1 6.734,1C6.727,1 6.721,1 6.714,1C6.708,1 6.701,1 6.695,1C6.688,1 6.682,1 6.675,1C6.669,1 6.662,1 6.656,1C6.649,1 6.643,1 6.636,1C6.63,1 6.623,1 6.617,1C6.61,1 6.604,1 6.597,1C6.591,1 6.585,1 6.578,1C6.572,1 6.565,1 6.559,1C6.552,1 6.546,1 6.539,1C6.533,1 6.526,1 6.52,1C6.514,1 6.507,1 6.501,1C6.494,1 6.488,1 6.481,1C6.475,1 6.468,1 6.462,1C6.456,1 6.449,1 6.443,1C6.436,1 6.43,1 6.423,1C6.417,1 6.411,1 6.404,1C6.398,1 6.391,1 6.385,1C6.379,1 6.372,1 6.366,1C6.359,1 6.353,1 6.347,1C6.34,1 6.334,1 6.328,1C6.321,1 6.315,1 6.308,1C6.302,1 6.296,1 6.289,1C6.283,1 6.277,1 6.27,1C6.264,1 6.257,1 6.251,1C6.245,1 6.238,1 6.232,1C6.226,1 6.219,1 6.213,1C6.207,1 6.2,1 6.194,1C6.188,1 6.181,1 6.175,1C6.169,1 6.162,1 6.156,1C6.15,1 6.144,1 6.137,1C6.131,1 6.125,1 6.118,1C6.112,1 6.106,1 6.099,1C6.093,1 6.087,1 6.081,1C6.074,1 6.068,1 6.062,1C6.055,1 6.049,1 6.043,1C6.037,1 6.03,1 6.024,1C6.018,1 6.012,1 6.005,1C5.999,1 5.993,1 5.987,1C5.98,1 5.974,1 5.968,1C5.962,1 5.955,1 5.949,1C5.943,1 5.937,1 5.931,1C5.924,1 5.918,1 5.912,1C5.906,1 5.899,1 5.893,1C5.887,1 5.881,1 5.875,1C5.868,1 5.862,1 5.856,1C5.85,1 5.844,1 5.838,1C5.831,1 5.825,1 5.819,1C5.813,1 5.807,1 5.801,1C5.794,1 5.788,1 5.782,1C5.776,1 5.77,1 5.764,1C5.757,1 5.751,1 5.745,1C5.739,1 5.733,1 5.727,1C5.721,1 5.715,1 5.708,1C5.702,1 5.696,1 5.69,1C5.684,1 5.678,1 5.672,1C5.666,1 5.66,1 5.654,1C5.647,1 5.641,1 5.635,1C5.629,1 5.623,1 5.617,1C5.611,1 5.605,1 5.599,1C5.593,1 5.587,1 5.581,1C5.575,1 5.569,1 5.562,1C5.556,1 5.55,1 5.544,1C5.538,1 5.532,1 5.526,1C5.52,1 5.514,1 5.508,1C5.502,1 5.496,1 5.49,1C5.484,1 5.478,1 5.472,1C5.466,1 5.46,1 5.454,1C5.448,1 5.442,1 5.436,1C5.43,1 5.424,1 5.418,1C5.412,1 5.406,1 5.4,1C5.394,1 5.388,1 5.382,1C5.377,1 5.371,1 5.365,1C5.359,1 5.353,1 5.347,1C5.341,1 5.335,1 5.329,1C5.323,1 5.317,1 5.311,1C5.305,1 5.3,1 5.294,1C5.288,1 5.282,1 5.276,1C5.27,1 5.264,1 5.258,1C5.252,1 5.246,1 5.241,1C5.235,1 5.229,1 5.223,1C5.217,1 5.211,1 5.205,1C5.2,1 5.194,1 5.188,1C5.182,1 5.176,1 5.17,1C5.165,1 5.159,1 5.153,1C5.147,1 5.141,1 5.135,1C5.13,1 5.124,1 5.118,1C5.112,1 5.106,1 5.101,1C5.095,1 5.089,1 5.083,1C5.078,1 5.072,1 5.066,1C5.06,1 5.054,1 5.049,1C5.043,1 5.037,1 5.031,1C5.026,1 5.02,1 5.014,1C5.008,1 5.003,1 4.997,1C4.991,1 4.986,1 4.98,1C4.974,1 4.968,1 4.963,1C4.957,1 4.951,1 4.946,1C4.94,1 4.934,1 4.929,1C4.923,1 4.917,1 4.912,1C4.906,1 4.9,1 4.895,1C4.889,1 4.883,1 4.878,1C4.872,1 4.866,1 4.861,1C4.855,1 4.849,1 4.844,1C4.838,1 4.832,1 4.827,1C4.821,1 4.816,1 4.81,1C4.804,1 4.799,1 4.793,1C4.788,1 4.782,1 4.776,1C4.771,1 4.765,1 4.76,1C4.754,1 4.749,1 4.743,1C4.738,1 4.732,1 4.726,1C4.721,1 4.715,1 4.71,1C4.704,1 4.699,1 4.693,1C4.688,1 4.682,1 4.677,1C4.671,1 4.666,1 4.66,1C4.655,1 4.649,1 4.644,1C4.638,1 4.633,1 4.627,1C4.622,1 4.616,1 4.611,1C4.605,1 4.6,1 4.594,1C4.589,1 4.584,1 4.578,1C4.573,1 4.567,1 4.562,1C4.556,1 4.551,1 4.546,1C4.54,1 4.535,1 4.529,1C4.524,1 4.519,1 4.513,1C4.508,1 4.502,1 4.497,1C4.492,1 4.486,1 4.481,1C4.476,1 4.47,1 4.465,1C4.459,1 4.454,1 4.449,1C4.443,1 4.438,1 4.433,1C4.427,1 4.422,1 4.417,1C4.412,1 4.406,1 4.401,1C4.396,1 4.39,1 4.385,1C4.38,1 4.374,1 4.369,1C4.364,1 4.359,1 4.353,1C4.348,1 4.343,1 4.338,1C4.332,1 4.327,1 4.322,1C4.317,1 4.311,1 4.306,1C4.301,1 4.296,1 4.29,1C4.285,1 4.28,1 4.275,1C4.27,1 4.264,1 4.259,1C4.254,1 4.249,1 4.244,1C4.239,1 4.233,1 4.228,1C4.223,1 4.218,1 4.213,1C4.208,1 4.202,1 4.197,1C4.192,1 4.187,1 4.182,1C4.177,1 4.172,1 4.167,1C4.162,1 4.156,1 4.151,1C4.146,1 4.141,1 4.136,1C4.131,1 4.126,1 4.121,1C4.116,1 4.111,1 4.106,1C4.101,1 4.096,1 4.091,1C4.086,1 4.08,1 4.075,1C4.07,1 4.065,1 4.06,1C4.055,1 4.05,1 4.045,1C4.04,1 4.035,1 4.03,1C4.025,1 4.02,1 4.016,1C4.011,1 4.006,1 4.001,1C3.996,1 3.991,1 3.986,1C3.981,1 3.976,1 3.971,1C3.966,1 3.961,1 3.956,1C3.951,1 3.946,1 3.941,1C3.937,1 3.932,1 3.927,1C3.922,1 3.917,1 3.912,1C3.907,1 3.902,1 3.898,1C3.893,1 3.888,1 3.883,1C3.878,1 3.873,1 3.869,1C3.864,1 3.859,1 3.854,1C3.849,1 3.844,1 3.84,1C3.835,1 3.83,1 3.825,1C3.821,1 3.816,1 3.811,1C3.806,1 3.801,1 3.797,1C3.792,1 3.787,1 3.782,1C3.778,1 3.773,1 3.768,1C3.764,1 3.759,1 3.754,1C3.749,1 3.745,1 3.74,1C3.735,1 3.731,1 3.726,1C3.721,1 3.717,1 3.712,1C3.707,1 3.703,1 3.698,1C3.693,1 3.689,1 3.684,1C3.679,1 3.675,1 3.67,1C3.666,1 3.661,1 3.656,1C3.652,1 3.647,1 3.643,1C3.638,1 3.633,1 3.629,1C3.624,1 3.62,1 3.615,1C3.611,1 3.606,1 3.601,1C3.597,1 3.592,1 3.588,1C3.583,1 3.579,1 3.574,1C3.57,1 3.565,1 3.561,1C3.556,1 3.552,1 3.547,1C3.543,1 3.538,1 3.534,1C3.529,1 3.525,1 3.521,1C3.516,1 3.512,1 3.507,1C3.503,1 3.498,1 3.494,1C3.49,1 3.485,1 3.481,1C3.476,1 3.472,1 3.468,1C3.463,1 3.459,1 3.454,1C3.45,1 3.446,1 3.441,1C3.437,1 3.433,1 3.428,1C3.424,1 3.42,1 3.415,1C3.411,1 3.407,1 3.402,1C3.398,1 3.394,1 3.389,1C3.385,1 3.381,1 3.377,1C3.372,1 3.368,1 3.364,1C3.36,1 3.355,1 3.351,1C3.347,1 3.343,1 3.338,1C3.334,1 3.33,1 3.326,1C3.322,1 3.317,1 3.313,1C3.309,1 3.305,1 3.301,1C3.296,1 3.292,1 3.288,1C3.284,1 3.28,1 3.276,1C3.272,1 3.267,1 3.263,1C3.259,1 3.255,1 3.251,1C3.247,1 3.243,1 3.239,1C3.235,1 3.23,1 3.226,1C3.222,1 3.218,1 3.214,1C3.21,1 3.206,1 3.202,1C3.198,1 3.194,1 3.19,1C3.186,1 3.182,1 3.178,1C3.174,1 3.17,1 3.166,1C3.162,1 3.158,1 3.154,1C3.15,1 3.146,1 3.142,1C3.138,1 3.134,1 3.13,1C3.126,1 3.122,1 3.119,1C3.115,1 3.111,1 3.107,1C3.103,1 3.099,1 3.095,1C3.091,1 3.087,1 3.084,1C3.08,1 3.076,1 3.072,1C3.068,1 3.064,1 3.06,1C3.057,1 3.053,1 3.049,1C3.045,1 3.041,1 3.038,1C3.034,1 3.03,1 3.026,1C3.022,1 3.019,1 3.015,1C3.011,1 3.007,1 3.004,1C3,1 2.996,1 2.992,1C2.989,1 2.985,1 2.981,1C2.978,1 2.974,1 2.97,1C2.967,1 2.963,1 2.959,1C2.956,1 2.952,1 2.948,1C2.945,1 2.941,1 2.937,1C2.934,1 2.93,1 2.926,1C2.923,1 2.919,1 2.916,1C2.912,1 2.908,1 2.905,1C2.901,1 2.898,1 2.894,1C2.891,1 2.887,1 2.884,1C2.88,1 2.876,1 2.873,1C2.869,1 2.866,1 2.862,1C2.859,1 2.855,1 2.852,1C2.848,1 2.845,1 2.841,1C2.838,1 2.835,1 2.831,1C2.828,1 2.824,1 2.821,1C2.817,1 2.814,1 2.811,1C2.807,1 2.804,1 2.8,1C2.797,1 2.794,1 2.79,1C2.787,1 2.783,1 2.78,1C2.777,1 2.773,1 2.77,1C2.767,1 2.763,1 2.76,1C2.757,1 2.753,1 2.75,1C2.747,1 2.744,1 2.74,1C2.737,1 2.734,1 2.731,1C2.727,1 2.724,1 2.721,1C2.718,1 2.714,1 2.711,1C2.708,1 2.705,1 2.701,1C2.698,1 2.695,1 2.692,1C2.689,1 2.686,1 2.682,1C2.679,1 2.676,1 2.673,1C2.67,1 2.667,1 2.664,1C2.66,1 2.657,1 2.654,1C2.651,1 2.648,1 2.645,1C2.642,1 2.639,1 2.636,1C2.633,1 2.63,1 2.627,1C2.624,1 2.621,1 2.618,1C2.614,1 2.611,1 2.608,1C2.605,1 2.602,1 2.599,1C2.597,1 2.594,1 2.591,1C2.588,1 2.585,1 2.582,1C2.579,1 2.576,1 2.573,1C2.57,1 2.567,1 2.564,1C2.561,1 2.558,1 2.556,1C2.553,1 2.55,1 2.547,1C2.544,1 2.541,1 2.538,1C2.536,1 2.533,1 2.53,1C2.527,1 2.524,1 2.521,1C2.519,1 2.516,1 2.513,1C2.51,1 2.508,1 2.505,1C2.502,1 2.499,1 2.497,1C2.494,1 2.491,1 2.488,1C2.486,1 2.483,1 2.48,1C2.478,1 2.475,1 2.472,1C2.469,1 2.467,1 2.464,1C2.461,1 2.459,1 2.456,1C2.454,1 2.451,1 2.448,1C2.446,1 2.443,1 2.441,1C2.438,1 2.435,1 2.433,1C2.43,1 2.428,1 2.425,1C2.423,1 2.42,1 2.417,1C2.415,1 2.412,1 2.41,1C2.407,1 2.405,1 2.402,1C2.4,1 2.397,1 2.395,1C2.393,1 2.39,1 2.388,1C2.385,1 2.383,1 2.38,1C2.378,1 2.376,1 2.373,1C2.371,1 2.368,1 2.366,1C2.364,1 2.361,1 2.359,1C2.356,1 2.354,1 2.352,1C2.349,1 2.347,1 2.345,1C2.342,1 2.34,1 2.338,1C2.336,1 2.333,1 2.331,1C2.329,1 2.327,1 2.324,1C2.322,1 2.32,1 2.318,1C2.315,1 2.313,1 2.311,1C2.309,1 2.306,1 2.304,1C2.302,1 2.3,1 2.298,1C2.296,1 2.293,1 2.291,1C2.289,1 2.287,1 2.285,1C2.283,1 2.281,1 2.279,1C2.277,1 2.274,1 2.272,1C2.27,1 2.268,1 2.266,1C2.264,1 2.262,1 2.26,1C2.258,1 2.256,1 2.254,1C2.252,1 2.25,1 2.248,1C2.246,1 2.244,1 2.242,1C2.24,1 2.238,1 2.236,1C2.234,1 2.232,1 2.23,1C2.229,1 2.227,1 2.225,1C2.223,1 2.221,1 2.219,1C2.217,1 2.215,1 2.213,1C2.212,1 2.21,1 2.208,1C2.206,1 2.204,1 2.203,1C2.201,1 2.199,1 2.197,1C2.195,1 2.194,1 2.192,1C2.19,1 2.188,1 2.187,1C2.185,1 2.183,1 2.181,1C2.18,1 2.178,1 2.176,1C2.175,1 2.173,1 2.171,1C2.17,1 2.168,1 2.166,1C2.165,1 2.163,1 2.161,1C2.16,1 2.158,1 2.157,1C2.155,1 2.153,1 2.152,1C2.15,1 2.149,1 2.147,1C2.146,1 2.144,1 2.143,1C2.141,1 2.14,1 2.138,1C2.137,1 2.135,1 2.134,1C2.132,1 2.131,1 2.129,1C2.128,1 2.126,1 2.125,1C2.123,1 2.122,1 2.121,1C2.119,1 2.118,1 2.116,1C2.115,1 2.114,1 2.112,1C2.111,1 2.11,1 2.108,1C2.107,1 2.106,1 2.104,1C2.103,1 2.102,1 2.1,1C2.099,1 2.098,1 2.096,1C2.095,1 2.094,1 2.093,1C2.091,1 2.09,1 2.089,1C2.088,1 2.087,1 2.085,1C2.084,1 2.083,1 2.082,1C2.081,1 2.08,1 2.078,1C2.077,1 2.076,1 2.075,1C2.074,1 2.073,1 2.072,1C2.071,1 2.07,1 2.068,1C2.067,1 2.066,1 2.065,1C2.064,1 2.063,1 2.062,1C2.061,1 2.06,1 2.059,1C2.058,1 2.057,1 2.056,1C2.055,1 2.054,1 2.053,1C2.052,1 2.051,1 2.05,1C2.05,1 2.049,1 2.048,1C2.047,1 2.046,1 2.045,1C2.044,1 2.043,1 2.043,1C2.042,1 2.041,1 2.04,1C2.039,1 2.038,1 2.038,1C2.037,1 2.036,1 2.035,1C2.034,1 2.034,1 2.033,1C2.032,1 2.031,1 2.031,1C2.03,1 2.029,1 2.029,1C2.028,1 2.027,1 2.027,1C2.026,1 2.025,1 2.025,1C2.024,1 2.023,1 2.023,1C2.022,1 2.021,1 2.021,1C2.02,1 2.02,1 2.019,1C2.018,1 2.018,1 2.017,1C2.017,1 2.016,1 2.016,1C2.015,1 2.015,1 2.014,1C2.014,1 2.013,1 2.013,1C2.012,1 2.012,1 2.011,1C2.011,1 2.011,1 2.01,1C2.01,1 2.009,1 2.009,1C2.008,1 2.008,1 2.008,1C2.007,1 2.007,1 2.007,1C2.006,1 2.006,1 2.006,1C2.005,1 2.005,1 2.005,1C2.005,1 2.004,1 2.004,1C2.004,1 2.003,1 2.003,1C2.003,1 2.003,1 2.003,1C2.002,1 2.002,1 2.002,1C2.002,1 2.002,1 2.001,1C2.001,1 2.001,1 2.001,1C2.001,1 2.001,1 2.001,1C2.001,1 2,1 2,1C2,1 2,1 2,1C2,1 2,1 2,1C2,1 2,1 2,3ZM9,5C9.011,5 9.023,5 9.034,5C9.046,5 9.057,5 9.069,5C9.08,5 9.092,5 9.104,5C9.115,5 9.127,5 9.138,5C9.15,5 9.161,5 9.173,5C9.185,5 9.196,5 9.208,5C9.22,5 9.231,5 9.243,5C9.255,5 9.267,5 9.278,5C9.29,5 9.302,5 9.314,5C9.326,5 9.337,5 9.349,5C9.361,5 9.373,5 9.385,5C9.397,5 9.408,5 9.42,5C9.432,5 9.444,5 9.456,5C9.468,5 9.48,5 9.492,5C9.504,5 9.516,5 9.528,5C9.54,5 9.552,5 9.564,5C9.576,5 9.588,5 9.6,5C9.612,5 9.625,5 9.637,5C9.649,5 9.661,5 9.673,5C9.685,5 9.697,5 9.71,5C9.722,5 9.734,5 9.746,5C9.759,5 9.771,5 9.783,5C9.795,5 9.808,5 9.82,5C9.832,5 9.845,5 9.857,5C9.869,5 9.882,5 9.894,5C9.906,5 9.919,5 9.931,5C9.944,5 9.956,5 9.968,5C9.981,5 9.993,5 10.006,5C10.018,5 10.031,5 10.043,5C10.056,5 10.068,5 10.081,5C10.093,5 10.106,5 10.118,5C10.131,5 10.144,5 10.156,5C10.169,5 10.181,5 10.194,5C10.207,5 10.219,5 10.232,5C10.245,5 10.257,5 10.27,5C10.283,5 10.296,5 10.308,5C10.321,5 10.334,5 10.347,5C10.359,5 10.372,5 10.385,5C10.398,5 10.41,5 10.423,5C10.436,5 10.449,5 10.462,5C10.475,5 10.488,5 10.5,5C10.513,5 10.526,5 10.539,5C10.552,5 10.565,5 10.578,5C10.591,5 10.604,5 10.617,5C10.63,5 10.643,5 10.656,5C10.669,5 10.682,5 10.695,5C10.708,5 10.721,5 10.734,5C10.747,5 10.76,5 10.773,5C10.786,5 10.8,5 10.813,5C10.826,5 10.839,5 10.852,5C10.865,5 10.878,5 10.892,5C10.905,5 10.918,5 10.931,5C10.944,5 10.958,5 10.971,5C10.984,5 10.997,5 11.011,5C11.024,5 11.037,5 11.05,5C11.064,5 11.077,5 11.09,5C11.104,5 11.117,5 11.13,5C11.144,5 11.157,5 11.17,5C11.184,5 11.197,5 11.21,5C11.224,5 11.237,5 11.251,5C11.264,5 11.278,5 11.291,5C11.304,5 11.318,5 11.331,5C11.345,5 11.358,5 11.372,5C11.385,5 11.399,5 11.412,5C11.426,5 11.439,5 11.453,5C11.466,5 11.48,5 11.494,5C11.507,5 11.521,5 11.534,5C11.548,5 11.562,5 11.575,5C11.589,5 11.602,5 11.616,5C11.63,5 11.643,5 11.657,5C11.671,5 11.684,5 11.698,5C11.712,5 11.725,5 11.739,5C11.753,5 11.767,5 11.78,5C11.794,5 11.808,5 11.821,5C11.835,5 11.849,5 11.863,5C11.877,5 11.89,5 11.904,5C11.918,5 11.932,5 11.946,5C11.959,5 11.973,5 11.987,5C12.001,5 12.015,5 12.029,5C12.042,5 12.056,5 12.07,5C12.084,5 12.098,5 12.112,5C12.126,5 12.14,5 12.154,5C12.168,5 12.182,5 12.195,5C12.209,5 12.223,5 12.237,5C12.251,5 12.265,5 12.279,5C12.293,5 12.307,5 12.321,5C12.335,5 12.349,5 12.363,5C12.377,5 12.391,5 12.405,5C12.419,5 12.433,5 12.448,5C12.462,5 12.476,5 12.49,5C12.504,5 12.518,5 12.532,5C12.546,5 12.56,5 12.574,5C12.588,5 12.603,5 12.617,5C12.631,5 12.645,5 12.659,5C12.673,5 12.687,5 12.702,5C12.716,5 12.73,5 12.744,5C12.758,5 12.772,5 12.787,5C12.801,5 12.815,5 12.829,5C12.844,5 12.858,5 12.872,5C12.886,5 12.9,5 12.915,5C12.929,5 12.943,5 12.957,5C12.972,5 12.986,5 13,5C13.015,5 13.029,5 13.043,5C13.057,5 13.072,5 13.086,5C13.1,5 13.115,5 13.129,5C13.143,5 13.158,5 13.172,5C13.186,5 13.201,5 13.215,5C13.229,5 13.244,5 13.258,5C13.272,5 13.287,5 13.301,5C13.316,5 13.33,5 13.344,5C13.359,5 13.373,5 13.388,5C13.402,5 13.416,5 13.431,5C13.445,5 13.46,5 13.474,5C13.489,5 13.503,5 13.517,5C13.532,5 13.546,5 13.561,5C13.575,5 13.59,5 13.604,5C13.619,5 13.633,5 13.648,5C13.662,5 13.677,5 13.691,5C13.706,5 13.72,5 13.735,5C13.749,5 13.764,5 13.778,5C13.793,5 13.807,5 13.822,5C13.836,5 13.851,5 13.865,5C13.88,5 13.894,5 13.909,5C13.923,5 13.938,5 13.953,5C13.967,5 13.982,5 13.996,5C14.011,5 14.025,5 14.04,5C14.055,5 14.069,5 14.084,5C14.098,5 14.113,5 14.128,5C14.142,5 14.157,5 14.171,5C14.186,5 14.201,5 14.215,5C14.23,5 14.244,5 14.259,5C14.274,5 14.288,5 14.303,5C14.318,5 14.332,5 14.347,5C14.361,5 14.376,5 14.391,5C14.405,5 14.42,5 14.435,5C14.449,5 14.464,5 14.479,5C14.493,5 14.508,5 14.523,5C14.537,5 14.552,5 14.567,5C14.581,5 14.596,5 14.611,5C14.625,5 14.64,5 14.655,5C14.669,5 14.684,5 14.699,5C14.713,5 14.728,5 14.743,5C14.758,5 14.772,5 14.787,5C14.802,5 14.816,5 14.831,5C14.846,5 14.861,5 14.875,5C14.89,5 14.905,5 14.919,5C14.934,5 14.949,5 14.964,5C14.978,5 14.993,5 15.008,5C15.022,5 15.037,5 15.052,5C15.067,5 15.081,5 15.096,5C15.111,5 15.126,5 15.14,5C15.155,5 15.17,5 15.185,5C15.199,5 15.214,5 15.229,5C15.244,5 15.258,5 15.273,5C15.288,5 15.303,5 15.317,5C15.332,5 15.347,5 15.362,5C15.376,5 15.391,5 15.406,5C15.421,5 15.435,5 15.45,5C15.465,5 15.48,5 15.494,5C15.509,5 15.524,5 15.539,5C15.553,5 15.568,5 15.583,5C15.598,5 15.612,5 15.627,5C15.642,5 15.657,5 15.671,5C15.686,5 15.701,5 15.716,5C15.73,5 15.745,5 15.76,5C15.775,5 15.789,5 15.804,5C15.819,5 15.834,5 15.849,5C15.863,5 15.878,5 15.893,5C15.908,5 15.922,5 15.937,5C15.952,5 15.967,5 15.981,5C15.996,5 16.011,5 16.026,5C16.04,5 16.055,5 16.07,5C16.085,5 16.099,5 16.114,5C16.129,5 16.144,5 16.158,5C16.173,5 16.188,5 16.203,5C16.217,5 16.232,5 16.247,5C16.262,5 16.276,5 16.291,5C16.306,5 16.321,5 16.335,5C16.35,5 16.365,5 16.38,5C16.394,5 16.409,5 16.424,5C16.439,5 16.453,5 16.468,5C16.483,5 16.497,5 16.512,5C16.527,5 16.542,5 16.556,5C16.571,5 16.586,5 16.601,5C16.615,5 16.63,5 16.645,5C16.659,5 16.674,5 16.689,5C16.703,5 16.718,5 16.733,5C16.748,5 16.762,5 16.777,5C16.792,5 16.806,5 16.821,5C16.836,5 16.85,5 16.865,5C16.88,5 16.894,5 16.909,5C16.924,5 16.938,5 16.953,5C16.968,5 16.982,5 16.997,5C17.012,5 17.026,5 17.041,5C17.056,5 17.07,5 17.085,5C17.1,5 17.114,5 17.129,5C17.144,5 17.158,5 17.173,5C17.188,5 17.202,5 17.217,5C17.231,5 17.246,5 17.261,5C17.275,5 17.29,5 17.305,5C17.319,5 17.334,5 17.348,5C17.363,5 17.378,5 17.392,5C17.407,5 17.421,5 17.436,5C17.45,5 17.465,5 17.48,5C17.494,5 17.509,5 17.523,5C17.538,5 17.552,5 17.567,5C17.582,5 17.596,5 17.611,5C17.625,5 17.64,5 17.654,5C17.669,5 17.683,5 17.698,5C17.712,5 17.727,5 17.741,5C17.756,5 17.77,5 17.785,5C17.799,5 17.814,5 17.828,5C17.843,5 17.857,5 17.872,5C17.886,5 17.901,5 17.915,5C17.93,5 17.944,5 17.959,5C17.973,5 17.988,5 18.002,5C18.016,5 18.031,5 18.045,5C18.06,5 18.074,5 18.088,5C18.103,5 18.117,5 18.132,5C18.146,5 18.161,5 18.175,5C18.189,5 18.204,5 18.218,5C18.232,5 18.247,5 18.261,5C18.276,5 18.29,5 18.304,5C18.319,5 18.333,5 18.347,5C18.362,5 18.376,5 18.39,5C18.405,5 18.419,5 18.433,5C18.447,5 18.462,5 18.476,5C18.49,5 18.505,5 18.519,5C18.533,5 18.547,5 18.562,5C18.576,5 18.59,5 18.604,5C18.619,5 18.633,5 18.647,5C18.661,5 18.675,5 18.69,5C18.704,5 18.718,5 18.732,5C18.747,5 18.761,5 18.775,5C18.789,5 18.803,5 18.817,5C18.832,5 18.846,5 18.86,5C18.874,5 18.888,5 18.902,5C18.916,5 18.93,5 18.945,5C18.959,5 18.973,5 18.987,5C19.001,5 19.015,5 19.029,5C19.043,5 19.057,5 19.071,5C19.085,5 19.099,5 19.113,5C19.127,5 19.141,5 19.155,5C19.169,5 19.183,5 19.197,5C19.211,5 19.225,5 19.239,5C19.253,5 19.267,5 19.281,5C19.295,5 19.309,5 19.323,5C19.337,5 19.351,5 19.365,5C19.379,5 19.393,5 19.407,5C19.42,5 19.434,5 19.448,5C19.462,5 19.476,5 19.49,5C19.504,5 19.517,5 19.531,5C19.545,5 19.559,5 19.573,5C19.587,5 19.6,5 19.614,5C19.628,5 19.642,5 19.655,5C19.669,5 19.683,5 19.697,5C19.71,5 19.724,5 19.738,5C19.752,5 19.765,5 19.779,5C19.793,5 19.806,5 19.82,5C19.834,5 19.847,5 19.861,5C19.875,5 19.888,5 19.902,5C19.916,5 19.929,5 19.943,5C19.956,5 19.97,5 19.984,5C19.997,5 20.011,5 20.024,5C20.038,5 20.051,5 20.065,5C20.078,5 20.092,5 20.105,5C20.119,5 20.132,5 20.146,5C20.159,5 20.173,5 20.186,5C20.2,5 20.213,5 20.227,5C20.24,5 20.254,5 20.267,5C20.28,5 20.294,5 20.307,5C20.32,5 20.334,5 20.347,5C20.361,5 20.374,5 20.387,5C20.401,5 20.414,5 20.427,5C20.44,5 20.454,5 20.467,5C20.48,5 20.494,5 20.507,5C20.52,5 20.533,5 20.546,5C20.56,5 20.573,5 20.586,5C20.599,5 20.612,5 20.626,5C20.639,5 20.652,5 20.665,5C20.678,5 20.691,5 20.704,5C20.718,5 20.731,5 20.744,5C20.757,5 20.77,5 20.783,5C20.796,5 20.809,5 20.822,5C20.835,5 20.848,5 20.861,5C20.874,5 20.887,5 20.9,5C20.913,5 20.926,5 20.939,5C20.952,5 20.965,5 20.978,5C20.99,5 21.003,5 21.016,5C21.029,5 21.042,5 21.055,5C21.068,5 21.08,5 21.093,5C21.106,5 21.119,5 21.132,5C21.144,5 21.157,5 21.17,5C21.183,5 21.195,5 21.208,5C21.221,5 21.234,5 21.246,5C21.259,5 21.272,5 21.284,5C21.297,5 21.309,5 21.322,5C21.335,5 21.347,5 21.36,5C21.372,5 21.385,5 21.398,5C21.41,5 21.423,5 21.435,5C21.448,5 21.46,5 21.473,5C21.485,5 21.498,5 21.51,5C21.523,5 21.535,5 21.547,5C21.56,5 21.572,5 21.585,5C21.597,5 21.609,5 21.622,5C21.634,5 21.646,5 21.659,5C21.671,5 21.683,5 21.696,5C21.708,5 21.72,5 21.732,5C21.745,5 21.757,5 21.769,5C21.781,5 21.794,5 21.806,5C21.818,5 21.83,5 21.842,5C21.854,5 21.867,5 21.879,5C21.891,5 21.903,5 21.915,5C21.927,5 21.939,5 21.951,5C21.963,5 21.975,5 21.987,5C21.999,5 22.011,5 22.023,5C22.035,5 22.047,5 22.059,5C22.071,5 22.083,5 22.095,5C22.106,5 22.118,5 22.13,5C22.142,5 22.154,5 22.166,5C22.177,5 22.189,5 22.201,5C22.213,5 22.225,5 22.236,5C22.248,5 22.26,5 22.271,5C22.283,5 22.295,5 22.306,5C22.318,5 22.33,5 22.341,5C22.353,5 22.365,5 22.376,5C22.388,5 22.399,5 22.411,5C22.422,5 22.434,5 22.445,5C22.457,5 22.468,5 22.48,5C22.491,5 22.503,5 22.514,5C22.526,5 22.537,5 22.548,5C22.56,5 22.571,5 22.582,5C22.594,5 22.605,5 22.616,5C22.628,5 22.639,5 22.65,5C22.661,5 22.673,5 22.684,5C22.695,5 22.706,5 22.717,5C22.729,5 22.74,5 22.751,5C22.762,5 22.773,5 22.784,5C22.795,5 22.806,5 22.817,5C22.828,5 22.839,5 22.85,5C22.861,5 22.872,5 22.883,5C22.894,5 22.905,5 22.916,5C22.927,5 22.938,5 22.949,5C22.96,5 22.971,5 22.981,5C22.992,5 23.003,5 23.014,5C23.025,5 23.035,5 23.046,5C23.057,5 23.068,5 23.078,5C23.089,5 23.1,5 23.11,5C23.121,5 23.132,5 23.142,5C23.153,5 23.163,5 23.174,5C23.184,5 23.195,5 23.206,5C23.216,5 23.227,5 23.237,5C23.247,5 23.258,5 23.268,5C23.279,5 23.289,5 23.3,5C23.31,5 23.32,5 23.331,5C23.341,5 23.351,5 23.362,5C23.372,5 23.382,5 23.392,5C23.403,5 23.413,5 23.423,5C23.433,5 23.443,5 23.453,5C23.464,5 23.474,5 23.484,5C23.494,5 23.504,5 23.514,5C23.524,5 23.534,5 23.544,5C23.554,5 23.564,5 23.574,5C23.584,5 23.594,5 23.604,5C23.614,5 23.624,5 23.633,5C23.643,5 23.653,5 23.663,5C23.673,5 23.682,5 23.692,5C23.702,5 23.712,5 23.721,5C23.731,5 23.741,5 23.75,5C23.76,5 23.77,5 23.779,5C23.789,5 23.798,5 23.808,5C23.818,5 23.827,5 23.837,5C23.846,5 23.856,5 23.865,5C23.874,5 23.884,5 23.893,5C23.903,5 23.912,5 23.921,5C23.931,5 23.94,5 23.949,5C23.959,5 23.968,5 23.977,5C23.986,5 23.996,5 24.005,5C24.014,5 24.023,5 24.032,5C24.042,5 24.051,5 24.06,5C24.069,5 24.078,5 24.087,5C24.096,5 24.105,5 24.114,5C24.123,5 24.132,5 24.141,5C24.15,5 24.159,5 24.168,5C24.176,5 24.185,5 24.194,5C24.203,5 24.212,5 24.22,5C24.229,5 24.238,5 24.247,5C24.255,5 24.264,5 24.273,5C24.281,5 24.29,5 24.299,5C24.307,5 24.316,5 24.324,5C24.333,5 24.341,5 24.35,5C24.358,5 24.367,5 24.375,5C24.384,5 24.392,5 24.401,5C24.409,5 24.417,5 24.426,5C24.434,5 24.442,5 24.451,5C24.459,5 24.467,5 24.475,5C24.483,5 24.492,5 24.5,5C24.508,5 24.516,5 24.524,5C24.532,5 24.54,5 24.548,5C24.556,5 24.564,5 24.572,5C24.58,5 24.588,5 24.596,5C24.604,5 24.612,5 24.62,5C24.628,5 24.636,5 24.644,5C24.651,5 24.659,5 24.667,5C24.675,5 24.682,5 24.69,5C24.698,5 24.705,5 24.713,5C24.721,5 24.728,5 24.736,5C24.743,5 24.751,5 24.759,5C24.766,5 24.774,5 24.781,5C24.788,5 24.796,5 24.803,5C24.811,5 24.818,5 24.825,5C24.833,5 24.84,5 24.847,5C24.855,5 24.862,5 24.869,5C24.876,5 24.883,5 24.891,5C24.898,5 24.905,5 24.912,5C24.919,5 24.926,5 24.933,5C24.94,5 24.947,5 24.954,5C24.961,5 24.968,5 24.975,5C24.982,5 24.989,5 24.996,5C25.002,5 25.009,5 25.016,5C25.023,5 25.03,5 25.036,5C25.043,5 25.05,5 25.056,5C25.063,5 25.07,5 25.076,5C25.083,5 25.089,5 25.096,5C25.102,5 25.109,5 25.115,5C25.122,5 25.128,5 25.135,5C25.141,5 25.148,5 25.154,5C25.16,5 25.167,5 25.173,5C25.179,5 25.185,5 25.192,5C25.198,5 25.204,5 25.21,5C25.216,5 25.222,5 25.228,5C25.235,5 25.241,5 25.247,5C25.253,5 25.259,5 25.265,5C25.27,5 25.276,5 25.282,5C25.288,5 25.294,5 25.3,5C25.306,5 25.311,5 25.317,5C25.323,5 25.329,5 25.334,5C25.34,5 25.346,5 25.351,5C25.357,5 25.363,5 25.368,5C25.374,5 25.379,5 25.385,5C25.39,5 25.396,5 25.401,5C25.406,5 25.412,5 25.417,5C25.423,5 25.428,5 25.433,5C25.438,5 25.444,5 25.449,5C25.454,5 25.459,5 25.464,5C25.47,5 25.475,5 25.48,5C25.485,5 25.49,5 25.495,5C25.5,5 25.505,5 25.51,5C25.515,5 25.52,5 25.525,5C25.529,5 25.534,5 25.539,5C25.544,5 25.549,5 25.553,5C25.558,5 25.563,5 25.567,5C25.572,5 25.577,5 25.581,5C25.586,5 25.59,5 25.595,5C25.599,5 25.604,5 25.608,5C25.613,5 25.617,5 25.622,5C25.626,5 25.63,5 25.635,5C25.639,5 25.643,5 25.647,5C25.652,5 25.656,5 25.66,5C25.664,5 25.668,5 25.672,5C25.677,5 25.681,5 25.685,5C25.689,5 25.693,5 25.697,5C25.7,5 25.704,5 25.708,5C25.712,5 25.716,5 25.72,5C25.724,5 25.727,5 25.731,5C25.735,5 25.738,5 25.742,5C25.746,5 25.749,5 25.753,5C25.757,5 25.76,5 25.764,5C25.767,5 25.771,5 25.774,5C25.777,5 25.781,5 25.784,5C25.787,5 25.791,5 25.794,5C25.797,5 25.801,5 25.804,5C25.807,5 25.81,5 25.813,5C25.816,5 25.82,5 25.823,5C25.826,5 25.829,5 25.832,5C25.835,5 25.838,5 25.84,5C25.843,5 25.846,5 25.849,5C25.852,5 25.855,5 25.857,5C25.86,5 25.863,5 25.866,5C25.868,5 25.871,5 25.873,5C25.876,5 25.879,5 25.881,5C25.884,5 25.886,5 25.889,5C25.891,5 25.893,5 25.896,5C25.898,5 25.9,5 25.903,5C25.905,5 25.907,5 25.909,5C25.912,5 25.914,5 25.916,5C25.918,5 25.92,5 25.922,5C25.924,5 25.926,5 25.928,5C25.93,5 25.932,5 25.934,5C25.936,5 25.938,5 25.94,5C25.941,5 25.943,5 25.945,5C25.947,5 25.948,5 25.95,5C25.952,5 25.953,5 25.955,5C25.956,5 25.958,5 25.959,5C25.961,5 25.962,5 25.964,5C25.965,5 25.967,5 25.968,5C25.969,5 25.97,5 25.972,5C25.973,5 25.974,5 25.975,5C25.977,5 25.978,5 25.979,5C25.98,5 25.981,5 25.982,5C25.983,5 25.984,5 25.985,5C25.986,5 25.987,5 25.987,5C25.988,5 25.989,5 25.99,5C25.991,5 25.991,5 25.992,5C25.993,5 25.993,5 25.994,5C25.994,5 25.995,5 25.995,5C25.996,5 25.996,5 25.997,5C25.997,5 25.998,5 25.998,5C25.998,5 25.999,5 25.999,5C25.999,5 25.999,5 25.999,5C26,5 26,5 26,5C26,5 26,5 26,3C26,1 26,1 26,1C26,1 26,1 25.999,1C25.999,1 25.999,1 25.999,1C25.999,1 25.998,1 25.998,1C25.998,1 25.997,1 25.997,1C25.996,1 25.996,1 25.995,1C25.995,1 25.994,1 25.994,1C25.993,1 25.993,1 25.992,1C25.991,1 25.991,1 25.99,1C25.989,1 25.988,1 25.987,1C25.987,1 25.986,1 25.985,1C25.984,1 25.983,1 25.982,1C25.981,1 25.98,1 25.979,1C25.978,1 25.977,1 25.975,1C25.974,1 25.973,1 25.972,1C25.97,1 25.969,1 25.968,1C25.967,1 25.965,1 25.964,1C25.962,1 25.961,1 25.959,1C25.958,1 25.956,1 25.955,1C25.953,1 25.952,1 25.95,1C25.948,1 25.947,1 25.945,1C25.943,1 25.941,1 25.94,1C25.938,1 25.936,1 25.934,1C25.932,1 25.93,1 25.928,1C25.926,1 25.924,1 25.922,1C25.92,1 25.918,1 25.916,1C25.914,1 25.912,1 25.909,1C25.907,1 25.905,1 25.903,1C25.9,1 25.898,1 25.896,1C25.893,1 25.891,1 25.889,1C25.886,1 25.884,1 25.881,1C25.879,1 25.876,1 25.873,1C25.871,1 25.868,1 25.866,1C25.863,1 25.86,1 25.857,1C25.855,1 25.852,1 25.849,1C25.846,1 25.843,1 25.84,1C25.838,1 25.835,1 25.832,1C25.829,1 25.826,1 25.823,1C25.82,1 25.816,1 25.813,1C25.81,1 25.807,1 25.804,1C25.801,1 25.797,1 25.794,1C25.791,1 25.787,1 25.784,1C25.781,1 25.777,1 25.774,1C25.771,1 25.767,1 25.764,1C25.76,1 25.757,1 25.753,1C25.749,1 25.746,1 25.742,1C25.738,1 25.735,1 25.731,1C25.727,1 25.724,1 25.72,1C25.716,1 25.712,1 25.708,1C25.704,1 25.7,1 25.697,1C25.693,1 25.689,1 25.685,1C25.681,1 25.677,1 25.672,1C25.668,1 25.664,1 25.66,1C25.656,1 25.652,1 25.647,1C25.643,1 25.639,1 25.635,1C25.63,1 25.626,1 25.622,1C25.617,1 25.613,1 25.608,1C25.604,1 25.599,1 25.595,1C25.59,1 25.586,1 25.581,1C25.577,1 25.572,1 25.567,1C25.563,1 25.558,1 25.553,1C25.549,1 25.544,1 25.539,1C25.534,1 25.529,1 25.525,1C25.52,1 25.515,1 25.51,1C25.505,1 25.5,1 25.495,1C25.49,1 25.485,1 25.48,1C25.475,1 25.47,1 25.464,1C25.459,1 25.454,1 25.449,1C25.444,1 25.438,1 25.433,1C25.428,1 25.423,1 25.417,1C25.412,1 25.406,1 25.401,1C25.396,1 25.39,1 25.385,1C25.379,1 25.374,1 25.368,1C25.363,1 25.357,1 25.351,1C25.346,1 25.34,1 25.334,1C25.329,1 25.323,1 25.317,1C25.311,1 25.306,1 25.3,1C25.294,1 25.288,1 25.282,1C25.276,1 25.27,1 25.265,1C25.259,1 25.253,1 25.247,1C25.241,1 25.235,1 25.228,1C25.222,1 25.216,1 25.21,1C25.204,1 25.198,1 25.192,1C25.185,1 25.179,1 25.173,1C25.167,1 25.16,1 25.154,1C25.148,1 25.141,1 25.135,1C25.128,1 25.122,1 25.115,1C25.109,1 25.102,1 25.096,1C25.089,1 25.083,1 25.076,1C25.07,1 25.063,1 25.056,1C25.05,1 25.043,1 25.036,1C25.03,1 25.023,1 25.016,1C25.009,1 25.002,1 24.996,1C24.989,1 24.982,1 24.975,1C24.968,1 24.961,1 24.954,1C24.947,1 24.94,1 24.933,1C24.926,1 24.919,1 24.912,1C24.905,1 24.898,1 24.891,1C24.883,1 24.876,1 24.869,1C24.862,1 24.855,1 24.847,1C24.84,1 24.833,1 24.825,1C24.818,1 24.811,1 24.803,1C24.796,1 24.788,1 24.781,1C24.774,1 24.766,1 24.759,1C24.751,1 24.743,1 24.736,1C24.728,1 24.721,1 24.713,1C24.705,1 24.698,1 24.69,1C24.682,1 24.675,1 24.667,1C24.659,1 24.651,1 24.644,1C24.636,1 24.628,1 24.62,1C24.612,1 24.604,1 24.596,1C24.588,1 24.58,1 24.572,1C24.564,1 24.556,1 24.548,1C24.54,1 24.532,1 24.524,1C24.516,1 24.508,1 24.5,1C24.492,1 24.483,1 24.475,1C24.467,1 24.459,1 24.451,1C24.442,1 24.434,1 24.426,1C24.417,1 24.409,1 24.401,1C24.392,1 24.384,1 24.375,1C24.367,1 24.358,1 24.35,1C24.341,1 24.333,1 24.324,1C24.316,1 24.307,1 24.299,1C24.29,1 24.281,1 24.273,1C24.264,1 24.255,1 24.247,1C24.238,1 24.229,1 24.22,1C24.212,1 24.203,1 24.194,1C24.185,1 24.176,1 24.168,1C24.159,1 24.15,1 24.141,1C24.132,1 24.123,1 24.114,1C24.105,1 24.096,1 24.087,1C24.078,1 24.069,1 24.06,1C24.051,1 24.042,1 24.032,1C24.023,1 24.014,1 24.005,1C23.996,1 23.986,1 23.977,1C23.968,1 23.959,1 23.949,1C23.94,1 23.931,1 23.921,1C23.912,1 23.903,1 23.893,1C23.884,1 23.874,1 23.865,1C23.856,1 23.846,1 23.837,1C23.827,1 23.818,1 23.808,1C23.798,1 23.789,1 23.779,1C23.77,1 23.76,1 23.75,1C23.741,1 23.731,1 23.721,1C23.712,1 23.702,1 23.692,1C23.682,1 23.673,1 23.663,1C23.653,1 23.643,1 23.633,1C23.624,1 23.614,1 23.604,1C23.594,1 23.584,1 23.574,1C23.564,1 23.554,1 23.544,1C23.534,1 23.524,1 23.514,1C23.504,1 23.494,1 23.484,1C23.474,1 23.464,1 23.453,1C23.443,1 23.433,1 23.423,1C23.413,1 23.403,1 23.392,1C23.382,1 23.372,1 23.362,1C23.351,1 23.341,1 23.331,1C23.32,1 23.31,1 23.3,1C23.289,1 23.279,1 23.268,1C23.258,1 23.247,1 23.237,1C23.227,1 23.216,1 23.206,1C23.195,1 23.184,1 23.174,1C23.163,1 23.153,1 23.142,1C23.132,1 23.121,1 23.11,1C23.1,1 23.089,1 23.078,1C23.068,1 23.057,1 23.046,1C23.035,1 23.025,1 23.014,1C23.003,1 22.992,1 22.981,1C22.971,1 22.96,1 22.949,1C22.938,1 22.927,1 22.916,1C22.905,1 22.894,1 22.883,1C22.872,1 22.861,1 22.85,1C22.839,1 22.828,1 22.817,1C22.806,1 22.795,1 22.784,1C22.773,1 22.762,1 22.751,1C22.74,1 22.729,1 22.717,1C22.706,1 22.695,1 22.684,1C22.673,1 22.661,1 22.65,1C22.639,1 22.628,1 22.616,1C22.605,1 22.594,1 22.582,1C22.571,1 22.56,1 22.548,1C22.537,1 22.526,1 22.514,1C22.503,1 22.491,1 22.48,1C22.468,1 22.457,1 22.445,1C22.434,1 22.422,1 22.411,1C22.399,1 22.388,1 22.376,1C22.365,1 22.353,1 22.341,1C22.33,1 22.318,1 22.306,1C22.295,1 22.283,1 22.271,1C22.26,1 22.248,1 22.236,1C22.225,1 22.213,1 22.201,1C22.189,1 22.177,1 22.166,1C22.154,1 22.142,1 22.13,1C22.118,1 22.106,1 22.095,1C22.083,1 22.071,1 22.059,1C22.047,1 22.035,1 22.023,1C22.011,1 21.999,1 21.987,1C21.975,1 21.963,1 21.951,1C21.939,1 21.927,1 21.915,1C21.903,1 21.891,1 21.879,1C21.867,1 21.854,1 21.842,1C21.83,1 21.818,1 21.806,1C21.794,1 21.781,1 21.769,1C21.757,1 21.745,1 21.732,1C21.72,1 21.708,1 21.696,1C21.683,1 21.671,1 21.659,1C21.646,1 21.634,1 21.622,1C21.609,1 21.597,1 21.585,1C21.572,1 21.56,1 21.547,1C21.535,1 21.523,1 21.51,1C21.498,1 21.485,1 21.473,1C21.46,1 21.448,1 21.435,1C21.423,1 21.41,1 21.398,1C21.385,1 21.372,1 21.36,1C21.347,1 21.335,1 21.322,1C21.309,1 21.297,1 21.284,1C21.272,1 21.259,1 21.246,1C21.234,1 21.221,1 21.208,1C21.195,1 21.183,1 21.17,1C21.157,1 21.144,1 21.132,1C21.119,1 21.106,1 21.093,1C21.08,1 21.068,1 21.055,1C21.042,1 21.029,1 21.016,1C21.003,1 20.99,1 20.978,1C20.965,1 20.952,1 20.939,1C20.926,1 20.913,1 20.9,1C20.887,1 20.874,1 20.861,1C20.848,1 20.835,1 20.822,1C20.809,1 20.796,1 20.783,1C20.77,1 20.757,1 20.744,1C20.731,1 20.718,1 20.704,1C20.691,1 20.678,1 20.665,1C20.652,1 20.639,1 20.626,1C20.612,1 20.599,1 20.586,1C20.573,1 20.56,1 20.546,1C20.533,1 20.52,1 20.507,1C20.494,1 20.48,1 20.467,1C20.454,1 20.44,1 20.427,1C20.414,1 20.401,1 20.387,1C20.374,1 20.361,1 20.347,1C20.334,1 20.32,1 20.307,1C20.294,1 20.28,1 20.267,1C20.254,1 20.24,1 20.227,1C20.213,1 20.2,1 20.186,1C20.173,1 20.159,1 20.146,1C20.132,1 20.119,1 20.105,1C20.092,1 20.078,1 20.065,1C20.051,1 20.038,1 20.024,1C20.011,1 19.997,1 19.984,1C19.97,1 19.956,1 19.943,1C19.929,1 19.916,1 19.902,1C19.888,1 19.875,1 19.861,1C19.847,1 19.834,1 19.82,1C19.806,1 19.793,1 19.779,1C19.765,1 19.752,1 19.738,1C19.724,1 19.71,1 19.697,1C19.683,1 19.669,1 19.655,1C19.642,1 19.628,1 19.614,1C19.6,1 19.587,1 19.573,1C19.559,1 19.545,1 19.531,1C19.517,1 19.504,1 19.49,1C19.476,1 19.462,1 19.448,1C19.434,1 19.42,1 19.407,1C19.393,1 19.379,1 19.365,1C19.351,1 19.337,1 19.323,1C19.309,1 19.295,1 19.281,1C19.267,1 19.253,1 19.239,1C19.225,1 19.211,1 19.197,1C19.183,1 19.169,1 19.155,1C19.141,1 19.127,1 19.113,1C19.099,1 19.085,1 19.071,1C19.057,1 19.043,1 19.029,1C19.015,1 19.001,1 18.987,1C18.973,1 18.959,1 18.945,1C18.93,1 18.916,1 18.902,1C18.888,1 18.874,1 18.86,1C18.846,1 18.832,1 18.817,1C18.803,1 18.789,1 18.775,1C18.761,1 18.747,1 18.732,1C18.718,1 18.704,1 18.69,1C18.675,1 18.661,1 18.647,1C18.633,1 18.619,1 18.604,1C18.59,1 18.576,1 18.562,1C18.547,1 18.533,1 18.519,1C18.505,1 18.49,1 18.476,1C18.462,1 18.447,1 18.433,1C18.419,1 18.405,1 18.39,1C18.376,1 18.362,1 18.347,1C18.333,1 18.319,1 18.304,1C18.29,1 18.276,1 18.261,1C18.247,1 18.232,1 18.218,1C18.204,1 18.189,1 18.175,1C18.161,1 18.146,1 18.132,1C18.117,1 18.103,1 18.088,1C18.074,1 18.06,1 18.045,1C18.031,1 18.016,1 18.002,1C17.988,1 17.973,1 17.959,1C17.944,1 17.93,1 17.915,1C17.901,1 17.886,1 17.872,1C17.857,1 17.843,1 17.828,1C17.814,1 17.799,1 17.785,1C17.77,1 17.756,1 17.741,1C17.727,1 17.712,1 17.698,1C17.683,1 17.669,1 17.654,1C17.64,1 17.625,1 17.611,1C17.596,1 17.582,1 17.567,1C17.552,1 17.538,1 17.523,1C17.509,1 17.494,1 17.48,1C17.465,1 17.45,1 17.436,1C17.421,1 17.407,1 17.392,1C17.378,1 17.363,1 17.348,1C17.334,1 17.319,1 17.305,1C17.29,1 17.275,1 17.261,1C17.246,1 17.231,1 17.217,1C17.202,1 17.188,1 17.173,1C17.158,1 17.144,1 17.129,1C17.114,1 17.1,1 17.085,1C17.07,1 17.056,1 17.041,1C17.026,1 17.012,1 16.997,1C16.982,1 16.968,1 16.953,1C16.938,1 16.924,1 16.909,1C16.894,1 16.88,1 16.865,1C16.85,1 16.836,1 16.821,1C16.806,1 16.792,1 16.777,1C16.762,1 16.748,1 16.733,1C16.718,1 16.703,1 16.689,1C16.674,1 16.659,1 16.645,1C16.63,1 16.615,1 16.601,1C16.586,1 16.571,1 16.556,1C16.542,1 16.527,1 16.512,1C16.497,1 16.483,1 16.468,1C16.453,1 16.439,1 16.424,1C16.409,1 16.394,1 16.38,1C16.365,1 16.35,1 16.335,1C16.321,1 16.306,1 16.291,1C16.276,1 16.262,1 16.247,1C16.232,1 16.217,1 16.203,1C16.188,1 16.173,1 16.158,1C16.144,1 16.129,1 16.114,1C16.099,1 16.085,1 16.07,1C16.055,1 16.04,1 16.026,1C16.011,1 15.996,1 15.981,1C15.967,1 15.952,1 15.937,1C15.922,1 15.908,1 15.893,1C15.878,1 15.863,1 15.849,1C15.834,1 15.819,1 15.804,1C15.789,1 15.775,1 15.76,1C15.745,1 15.73,1 15.716,1C15.701,1 15.686,1 15.671,1C15.657,1 15.642,1 15.627,1C15.612,1 15.598,1 15.583,1C15.568,1 15.553,1 15.539,1C15.524,1 15.509,1 15.494,1C15.48,1 15.465,1 15.45,1C15.435,1 15.421,1 15.406,1C15.391,1 15.376,1 15.362,1C15.347,1 15.332,1 15.317,1C15.303,1 15.288,1 15.273,1C15.258,1 15.244,1 15.229,1C15.214,1 15.199,1 15.185,1C15.17,1 15.155,1 15.14,1C15.126,1 15.111,1 15.096,1C15.081,1 15.067,1 15.052,1C15.037,1 15.022,1 15.008,1C14.993,1 14.978,1 14.964,1C14.949,1 14.934,1 14.919,1C14.905,1 14.89,1 14.875,1C14.861,1 14.846,1 14.831,1C14.816,1 14.802,1 14.787,1C14.772,1 14.758,1 14.743,1C14.728,1 14.713,1 14.699,1C14.684,1 14.669,1 14.655,1C14.64,1 14.625,1 14.611,1C14.596,1 14.581,1 14.567,1C14.552,1 14.537,1 14.523,1C14.508,1 14.493,1 14.479,1C14.464,1 14.449,1 14.435,1C14.42,1 14.405,1 14.391,1C14.376,1 14.361,1 14.347,1C14.332,1 14.318,1 14.303,1C14.288,1 14.274,1 14.259,1C14.244,1 14.23,1 14.215,1C14.201,1 14.186,1 14.171,1C14.157,1 14.142,1 14.128,1C14.113,1 14.098,1 14.084,1C14.069,1 14.055,1 14.04,1C14.025,1 14.011,1 13.996,1C13.982,1 13.967,1 13.953,1C13.938,1 13.923,1 13.909,1C13.894,1 13.88,1 13.865,1C13.851,1 13.836,1 13.822,1C13.807,1 13.793,1 13.778,1C13.764,1 13.749,1 13.735,1C13.72,1 13.706,1 13.691,1C13.677,1 13.662,1 13.648,1C13.633,1 13.619,1 13.604,1C13.59,1 13.575,1 13.561,1C13.546,1 13.532,1 13.517,1C13.503,1 13.489,1 13.474,1C13.46,1 13.445,1 13.431,1C13.416,1 13.402,1 13.388,1C13.373,1 13.359,1 13.344,1C13.33,1 13.316,1 13.301,1C13.287,1 13.272,1 13.258,1C13.244,1 13.229,1 13.215,1C13.201,1 13.186,1 13.172,1C13.158,1 13.143,1 13.129,1C13.115,1 13.1,1 13.086,1C13.072,1 13.057,1 13.043,1C13.029,1 13.015,1 13,1C12.986,1 12.972,1 12.957,1C12.943,1 12.929,1 12.915,1C12.9,1 12.886,1 12.872,1C12.858,1 12.844,1 12.829,1C12.815,1 12.801,1 12.787,1C12.772,1 12.758,1 12.744,1C12.73,1 12.716,1 12.702,1C12.687,1 12.673,1 12.659,1C12.645,1 12.631,1 12.617,1C12.603,1 12.588,1 12.574,1C12.56,1 12.546,1 12.532,1C12.518,1 12.504,1 12.49,1C12.476,1 12.462,1 12.448,1C12.433,1 12.419,1 12.405,1C12.391,1 12.377,1 12.363,1C12.349,1 12.335,1 12.321,1C12.307,1 12.293,1 12.279,1C12.265,1 12.251,1 12.237,1C12.223,1 12.209,1 12.195,1C12.182,1 12.168,1 12.154,1C12.14,1 12.126,1 12.112,1C12.098,1 12.084,1 12.07,1C12.056,1 12.042,1 12.029,1C12.015,1 12.001,1 11.987,1C11.973,1 11.959,1 11.946,1C11.932,1 11.918,1 11.904,1C11.89,1 11.877,1 11.863,1C11.849,1 11.835,1 11.821,1C11.808,1 11.794,1 11.78,1C11.767,1 11.753,1 11.739,1C11.725,1 11.712,1 11.698,1C11.684,1 11.671,1 11.657,1C11.643,1 11.63,1 11.616,1C11.602,1 11.589,1 11.575,1C11.562,1 11.548,1 11.534,1C11.521,1 11.507,1 11.494,1C11.48,1 11.466,1 11.453,1C11.439,1 11.426,1 11.412,1C11.399,1 11.385,1 11.372,1C11.358,1 11.345,1 11.331,1C11.318,1 11.304,1 11.291,1C11.278,1 11.264,1 11.251,1C11.237,1 11.224,1 11.21,1C11.197,1 11.184,1 11.17,1C11.157,1 11.144,1 11.13,1C11.117,1 11.104,1 11.09,1C11.077,1 11.064,1 11.05,1C11.037,1 11.024,1 11.011,1C10.997,1 10.984,1 10.971,1C10.958,1 10.944,1 10.931,1C10.918,1 10.905,1 10.892,1C10.878,1 10.865,1 10.852,1C10.839,1 10.826,1 10.813,1C10.8,1 10.786,1 10.773,1C10.76,1 10.747,1 10.734,1C10.721,1 10.708,1 10.695,1C10.682,1 10.669,1 10.656,1C10.643,1 10.63,1 10.617,1C10.604,1 10.591,1 10.578,1C10.565,1 10.552,1 10.539,1C10.526,1 10.513,1 10.5,1C10.488,1 10.475,1 10.462,1C10.449,1 10.436,1 10.423,1C10.41,1 10.398,1 10.385,1C10.372,1 10.359,1 10.347,1C10.334,1 10.321,1 10.308,1C10.296,1 10.283,1 10.27,1C10.257,1 10.245,1 10.232,1C10.219,1 10.207,1 10.194,1C10.181,1 10.169,1 10.156,1C10.144,1 10.131,1 10.118,1C10.106,1 10.093,1 10.081,1C10.068,1 10.056,1 10.043,1C10.031,1 10.018,1 10.006,1C9.993,1 9.981,1 9.968,1C9.956,1 9.944,1 9.931,1C9.919,1 9.906,1 9.894,1C9.882,1 9.869,1 9.857,1C9.845,1 9.832,1 9.82,1C9.808,1 9.795,1 9.783,1C9.771,1 9.759,1 9.746,1C9.734,1 9.722,1 9.71,1C9.697,1 9.685,1 9.673,1C9.661,1 9.649,1 9.637,1C9.625,1 9.612,1 9.6,1C9.588,1 9.576,1 9.564,1C9.552,1 9.54,1 9.528,1C9.516,1 9.504,1 9.492,1C9.48,1 9.468,1 9.456,1C9.444,1 9.432,1 9.42,1C9.408,1 9.397,1 9.385,1C9.373,1 9.361,1 9.349,1C9.337,1 9.326,1 9.314,1C9.302,1 9.29,1 9.278,1C9.267,1 9.255,1 9.243,1C9.231,1 9.22,1 9.208,1C9.196,1 9.185,1 9.173,1C9.161,1 9.15,1 9.138,1C9.127,1 9.115,1 9.104,1C9.092,1 9.08,1 9.069,1C9.057,1 9.046,1 9.034,1C9.023,1 9.011,1 9,1L9,5ZM4,21C4,23 4,23 4,23C4,23 4,23 4,23C4,23 4,23 4,23C4,23 4,23 4.001,23C4.001,23 4.001,23 4.001,23C4.001,23 4.001,23 4.001,23C4.001,23 4.002,23 4.002,23C4.002,23 4.002,23 4.002,23C4.002,23 4.003,23 4.003,23C4.003,23 4.003,23 4.003,23C4.004,23 4.004,23 4.004,23C4.004,23 4.005,23 4.005,23C4.005,23 4.005,23 4.006,23C4.006,23 4.006,23 4.007,23C4.007,23 4.007,23 4.008,23C4.008,23 4.008,23 4.009,23C4.009,23 4.009,23 4.01,23C4.01,23 4.011,23 4.011,23C4.011,23 4.012,23 4.012,23C4.013,23 4.013,23 4.014,23C4.014,23 4.014,23 4.015,23C4.015,23 4.016,23 4.016,23C4.017,23 4.017,23 4.018,23C4.018,23 4.019,23 4.019,23C4.02,23 4.02,23 4.021,23C4.022,23 4.022,23 4.023,23C4.023,23 4.024,23 4.024,23C4.025,23 4.026,23 4.026,23C4.027,23 4.027,23 4.028,23C4.029,23 4.029,23 4.03,23C4.031,23 4.031,23 4.032,23C4.033,23 4.033,23 4.034,23C4.035,23 4.036,23 4.036,23C4.037,23 4.038,23 4.039,23C4.039,23 4.04,23 4.041,23C4.042,23 4.042,23 4.043,23C4.044,23 4.045,23 4.046,23C4.046,23 4.047,23 4.048,23C4.049,23 4.05,23 4.05,23C4.051,23 4.052,23 4.053,23C4.054,23 4.055,23 4.056,23C4.057,23 4.057,23 4.058,23C4.059,23 4.06,23 4.061,23C4.062,23 4.063,23 4.064,23C4.065,23 4.066,23 4.067,23C4.068,23 4.069,23 4.07,23C4.071,23 4.072,23 4.073,23C4.074,23 4.075,23 4.076,23C4.077,23 4.078,23 4.079,23C4.08,23 4.081,23 4.082,23C4.083,23 4.084,23 4.085,23C4.086,23 4.088,23 4.089,23C4.09,23 4.091,23 4.092,23C4.093,23 4.094,23 4.095,23C4.097,23 4.098,23 4.099,23C4.1,23 4.101,23 4.102,23C4.104,23 4.105,23 4.106,23C4.107,23 4.108,23 4.11,23C4.111,23 4.112,23 4.113,23C4.115,23 4.116,23 4.117,23C4.118,23 4.12,23 4.121,23C4.122,23 4.124,23 4.125,23C4.126,23 4.127,23 4.129,23C4.13,23 4.131,23 4.133,23C4.134,23 4.135,23 4.137,23C4.138,23 4.14,23 4.141,23C4.142,23 4.144,23 4.145,23C4.147,23 4.148,23 4.149,23C4.151,23 4.152,23 4.154,23C4.155,23 4.157,23 4.158,23C4.159,23 4.161,23 4.162,23C4.164,23 4.165,23 4.167,23C4.168,23 4.17,23 4.171,23C4.173,23 4.174,23 4.176,23C4.177,23 4.179,23 4.181,23C4.182,23 4.184,23 4.185,23C4.187,23 4.188,23 4.19,23C4.192,23 4.193,23 4.195,23C4.196,23 4.198,23 4.2,23C4.201,23 4.203,23 4.204,23C4.206,23 4.208,23 4.209,23C4.211,23 4.213,23 4.214,23C4.216,23 4.218,23 4.219,23C4.221,23 4.223,23 4.225,23C4.226,23 4.228,23 4.23,23C4.231,23 4.233,23 4.235,23C4.237,23 4.238,23 4.24,23C4.242,23 4.244,23 4.246,23C4.247,23 4.249,23 4.251,23C4.253,23 4.255,23 4.256,23C4.258,23 4.26,23 4.262,23C4.264,23 4.266,23 4.267,23C4.269,23 4.271,23 4.273,23C4.275,23 4.277,23 4.279,23C4.281,23 4.282,23 4.284,23C4.286,23 4.288,23 4.29,23C4.292,23 4.294,23 4.296,23C4.298,23 4.3,23 4.302,23C4.304,23 4.306,23 4.308,23C4.31,23 4.312,23 4.314,23C4.316,23 4.318,23 4.32,23C4.322,23 4.324,23 4.326,23C4.328,23 4.33,23 4.332,23C4.334,23 4.336,23 4.338,23C4.34,23 4.342,23 4.344,23C4.346,23 4.348,23 4.35,23C4.352,23 4.354,23 4.357,23C4.359,23 4.361,23 4.363,23C4.365,23 4.367,23 4.369,23C4.371,23 4.374,23 4.376,23C4.378,23 4.38,23 4.382,23C4.384,23 4.387,23 4.389,23C4.391,23 4.393,23 4.395,23C4.398,23 4.4,23 4.402,23C4.404,23 4.406,23 4.409,23C4.411,23 4.413,23 4.415,23C4.418,23 4.42,23 4.422,23C4.425,23 4.427,23 4.429,23C4.431,23 4.434,23 4.436,23C4.438,23 4.441,23 4.443,23C4.445,23 4.448,23 4.45,23C4.452,23 4.455,23 4.457,23C4.459,23 4.462,23 4.464,23C4.466,23 4.469,23 4.471,23C4.473,23 4.476,23 4.478,23C4.481,23 4.483,23 4.485,23C4.488,23 4.49,23 4.493,23C4.495,23 4.498,23 4.5,23C4.502,23 4.505,23 4.507,23C4.51,23 4.512,23 4.515,23C4.517,23 4.52,23 4.522,23C4.525,23 4.527,23 4.53,23C4.532,23 4.535,23 4.537,23C4.54,23 4.542,23 4.545,23C4.547,23 4.55,23 4.552,23C4.555,23 4.557,23 4.56,23C4.563,23 4.565,23 4.568,23C4.57,23 4.573,23 4.575,23C4.578,23 4.581,23 4.583,23C4.586,23 4.589,23 4.591,23C4.594,23 4.596,23 4.599,23C4.602,23 4.604,23 4.607,23C4.61,23 4.612,23 4.615,23C4.618,23 4.62,23 4.623,23C4.626,23 4.628,23 4.631,23C4.634,23 4.636,23 4.639,23C4.642,23 4.645,23 4.647,23C4.65,23 4.653,23 4.655,23C4.658,23 4.661,23 4.664,23C4.666,23 4.669,23 4.672,23C4.675,23 4.677,23 4.68,23C4.683,23 4.686,23 4.689,23C4.691,23 4.694,23 4.697,23C4.7,23 4.703,23 4.705,23C4.708,23 4.711,23 4.714,23C4.717,23 4.72,23 4.722,23C4.725,23 4.728,23 4.731,23C4.734,23 4.737,23 4.74,23C4.742,23 4.745,23 4.748,23C4.751,23 4.754,23 4.757,23C4.76,23 4.763,23 4.766,23C4.768,23 4.771,23 4.774,23C4.777,23 4.78,23 4.783,23C4.786,23 4.789,23 4.792,23C4.795,23 4.798,23 4.801,23C4.804,23 4.807,23 4.81,23C4.813,23 4.816,23 4.819,23C4.822,23 4.825,23 4.828,23C4.831,23 4.834,23 4.837,23C4.84,23 4.843,23 4.846,23C4.849,23 4.852,23 4.855,23C4.858,23 4.861,23 4.864,23C4.867,23 4.87,23 4.873,23C4.876,23 4.879,23 4.882,23C4.886,23 4.889,23 4.892,23C4.895,23 4.898,23 4.901,23C4.904,23 4.907,23 4.91,23C4.913,23 4.917,23 4.92,23C4.923,23 4.926,23 4.929,23C4.932,23 4.935,23 4.939,23C4.942,23 4.945,23 4.948,23C4.951,23 4.954,23 4.958,23C4.961,23 4.964,23 4.967,23C4.97,23 4.974,23 4.977,23C4.98,23 4.983,23 4.986,23C4.99,23 4.993,23 4.996,23C4.999,23 5.002,23 5.006,23C5.009,23 5.012,23 5.015,23C5.019,23 5.022,23 5.025,23C5.028,23 5.032,23 5.035,23C5.038,23 5.042,23 5.045,23C5.048,23 5.051,23 5.055,23C5.058,23 5.061,23 5.065,23C5.068,23 5.071,23 5.075,23C5.078,23 5.081,23 5.084,23C5.088,23 5.091,23 5.095,23C5.098,23 5.101,23 5.105,23C5.108,23 5.111,23 5.115,23C5.118,23 5.121,23 5.125,23C5.128,23 5.131,23 5.135,23C5.138,23 5.142,23 5.145,23C5.148,23 5.152,23 5.155,23C5.159,23 5.162,23 5.165,23C5.169,23 5.172,23 5.176,23C5.179,23 5.183,23 5.186,23C5.19,23 5.193,23 5.196,23C5.2,23 5.203,23 5.207,23C5.21,23 5.214,23 5.217,23C5.221,23 5.224,23 5.228,23C5.231,23 5.235,23 5.238,23C5.242,23 5.245,23 5.249,23C5.252,23 5.256,23 5.259,23C5.263,23 5.266,23 5.27,23C5.273,23 5.277,23 5.28,23C5.284,23 5.287,23 5.291,23C5.294,23 5.298,23 5.301,23C5.305,23 5.309,23 5.312,23C5.316,23 5.319,23 5.323,23C5.326,23 5.33,23 5.334,23C5.337,23 5.341,23 5.344,23C5.348,23 5.352,23 5.355,23C5.359,23 5.362,23 5.366,23C5.37,23 5.373,23 5.377,23C5.38,23 5.384,23 5.388,23C5.391,23 5.395,23 5.399,23C5.402,23 5.406,23 5.41,23C5.413,23 5.417,23 5.421,23C5.424,23 5.428,23 5.431,23C5.435,23 5.439,23 5.443,23C5.446,23 5.45,23 5.454,23C5.457,23 5.461,23 5.465,23C5.468,23 5.472,23 5.476,23C5.479,23 5.483,23 5.487,23C5.491,23 5.494,23 5.498,23C5.502,23 5.505,23 5.509,23C5.513,23 5.517,23 5.52,23C5.524,23 5.528,23 5.532,23C5.535,23 5.539,23 5.543,23C5.547,23 5.55,23 5.554,23C5.558,23 5.562,23 5.566,23C5.569,23 5.573,23 5.577,23C5.581,23 5.584,23 5.588,23C5.592,23 5.596,23 5.6,23C5.603,23 5.607,23 5.611,23C5.615,23 5.619,23 5.623,23C5.626,23 5.63,23 5.634,23C5.638,23 5.642,23 5.645,23C5.649,23 5.653,23 5.657,23C5.661,23 5.665,23 5.669,23C5.672,23 5.676,23 5.68,23C5.684,23 5.688,23 5.692,23C5.696,23 5.699,23 5.703,23C5.707,23 5.711,23 5.715,23C5.719,23 5.723,23 5.727,23C5.73,23 5.734,23 5.738,23C5.742,23 5.746,23 5.75,23C5.754,23 5.758,23 5.762,23C5.766,23 5.77,23 5.773,23C5.777,23 5.781,23 5.785,23C5.789,23 5.793,23 5.797,23C5.801,23 5.805,23 5.809,23C5.813,23 5.817,23 5.821,23C5.825,23 5.829,23 5.833,23C5.837,23 5.84,23 5.844,23C5.848,23 5.852,23 5.856,23C5.86,23 5.864,23 5.868,23C5.872,23 5.876,23 5.88,23C5.884,23 5.888,23 5.892,23C5.896,23 5.9,23 5.904,23C5.908,23 5.912,23 5.916,23C5.92,23 5.924,23 5.928,23C5.932,23 5.936,23 5.94,23C5.944,23 5.948,23 5.952,23C5.956,23 5.96,23 5.964,23C5.969,23 5.973,23 5.977,23C5.981,23 5.985,23 5.989,23C5.993,23 5.997,23 6.001,23C6.005,23 6.009,23 6.013,23C6.017,23 6.021,23 6.025,23C6.029,23 6.033,23 6.037,23C6.041,23 6.046,23 6.05,23C6.054,23 6.058,23 6.062,23C6.066,23 6.07,23 6.074,23C6.078,23 6.082,23 6.086,23C6.091,23 6.095,23 6.099,23C6.103,23 6.107,23 6.111,23C6.115,23 6.119,23 6.123,23C6.128,23 6.132,23 6.136,23C6.14,23 6.144,23 6.148,23C6.152,23 6.156,23 6.16,23C6.165,23 6.169,23 6.173,23C6.177,23 6.181,23 6.185,23C6.189,23 6.194,23 6.198,23C6.202,23 6.206,23 6.21,23C6.214,23 6.219,23 6.223,23C6.227,23 6.231,23 6.235,23C6.239,23 6.243,23 6.248,23C6.252,23 6.256,23 6.26,23C6.264,23 6.269,23 6.273,23C6.277,23 6.281,23 6.285,23C6.289,23 6.294,23 6.298,23C6.302,23 6.306,23 6.31,23C6.315,23 6.319,23 6.323,23C6.327,23 6.331,23 6.336,23C6.34,23 6.344,23 6.348,23C6.352,23 6.357,23 6.361,23C6.365,23 6.369,23 6.373,23C6.378,23 6.382,23 6.386,23C6.39,23 6.395,23 6.399,23C6.403,23 6.407,23 6.412,23C6.416,23 6.42,23 6.424,23C6.428,23 6.433,23 6.437,23C6.441,23 6.445,23 6.45,23C6.454,23 6.458,23 6.462,23C6.467,23 6.471,23 6.475,23C6.479,23 6.484,23 6.488,23C6.492,23 6.496,23 6.501,23C6.505,23 6.509,23 6.513,23C6.518,23 6.522,23 6.526,23C6.531,23 6.535,23 6.539,23C6.543,23 6.548,23 6.552,23C6.556,23 6.56,23 6.565,23C6.569,23 6.573,23 6.578,23C6.582,23 6.586,23 6.59,23C6.595,23 6.599,23 6.603,23C6.608,23 6.612,23 6.616,23C6.62,23 6.625,23 6.629,23C6.633,23 6.638,23 6.642,23C6.646,23 6.651,23 6.655,23C6.659,23 6.663,23 6.668,23C6.672,23 6.676,23 6.681,23C6.685,23 6.689,23 6.694,23C6.698,23 6.702,23 6.707,23C6.711,23 6.715,23 6.72,23C6.724,23 6.728,23 6.733,23C6.737,23 6.741,23 6.745,23C6.75,23 6.754,23 6.758,23C6.763,23 6.767,23 6.771,23C6.776,23 6.78,23 6.784,23C6.789,23 6.793,23 6.797,23C6.802,23 6.806,23 6.81,23C6.815,23 6.819,23 6.823,23C6.828,23 6.832,23 6.837,23C6.841,23 6.845,23 6.85,23C6.854,23 6.858,23 6.863,23C6.867,23 6.871,23 6.876,23C6.88,23 6.884,23 6.889,23C6.893,23 6.897,23 6.902,23C6.906,23 6.91,23 6.915,23C6.919,23 6.924,23 6.928,23C6.932,23 6.937,23 6.941,23C6.945,23 6.95,23 6.954,23C6.958,23 6.963,23 6.967,23C6.972,23 6.976,23 6.98,23C6.985,23 6.989,23 6.993,23C6.998,23 7.002,23 7.007,23C7.011,23 7.015,23 7.02,23C7.024,23 7.028,23 7.033,23C7.037,23 7.041,23 7.046,23C7.05,23 7.055,23 7.059,23C7.063,23 7.068,23 7.072,23C7.077,23 7.081,23 7.085,23C7.09,23 7.094,23 7.098,23C7.103,23 7.107,23 7.112,23C7.116,23 7.12,23 7.125,23C7.129,23 7.133,23 7.138,23C7.142,23 7.147,23 7.151,23C7.155,23 7.16,23 7.164,23C7.169,23 7.173,23 7.177,23C7.182,23 7.186,23 7.191,23C7.195,23 7.199,23 7.204,23C7.208,23 7.212,23 7.217,23C7.221,23 7.226,23 7.23,23C7.234,23 7.239,23 7.243,23C7.248,23 7.252,23 7.256,23C7.261,23 7.265,23 7.27,23C7.274,23 7.278,23 7.283,23C7.287,23 7.292,23 7.296,23C7.3,23 7.305,23 7.309,23C7.313,23 7.318,23 7.322,23C7.327,23 7.331,23 7.335,23C7.34,23 7.344,23 7.349,23C7.353,23 7.357,23 7.362,23C7.366,23 7.371,23 7.375,23C7.379,23 7.384,23 7.388,23C7.393,23 7.397,23 7.401,23C7.406,23 7.41,23 7.415,23C7.419,23 7.423,23 7.428,23C7.432,23 7.437,23 7.441,23C7.445,23 7.45,23 7.454,23C7.458,23 7.463,23 7.467,23C7.472,23 7.476,23 7.48,23C7.485,23 7.489,23 7.494,23C7.498,23 7.502,23 7.507,23C7.511,23 7.516,23 7.52,23C7.524,23 7.529,23 7.533,23C7.538,23 7.542,23 7.546,23C7.551,23 7.555,23 7.559,23C7.564,23 7.568,23 7.573,23C7.577,23 7.581,23 7.586,23C7.59,23 7.595,23 7.599,23C7.603,23 7.608,23 7.612,23C7.617,23 7.621,23 7.625,23C7.63,23 7.634,23 7.638,23C7.643,23 7.647,23 7.652,23C7.656,23 7.66,23 7.665,23C7.669,23 7.673,23 7.678,23C7.682,23 7.687,23 7.691,23C7.695,23 7.7,23 7.704,23C7.709,23 7.713,23 7.717,23C7.722,23 7.726,23 7.73,23C7.735,23 7.739,23 7.743,23C7.748,23 7.752,23 7.757,23C7.761,23 7.765,23 7.77,23C7.774,23 7.778,23 7.783,23C7.787,23 7.792,23 7.796,23C7.8,23 7.805,23 7.809,23C7.813,23 7.818,23 7.822,23C7.826,23 7.831,23 7.835,23C7.84,23 7.844,23 7.848,23C7.853,23 7.857,23 7.861,23C7.866,23 7.87,23 7.874,23C7.879,23 7.883,23 7.887,23C7.892,23 7.896,23 7.9,23C7.905,23 7.909,23 7.913,23C7.918,23 7.922,23 7.927,23C7.931,23 7.935,23 7.94,23C7.944,23 7.948,23 7.953,23C7.957,23 7.961,23 7.966,23C7.97,23 7.974,23 7.979,23C7.983,23 7.987,23 7.992,23C7.996,23 8,23 8.005,23C8.009,23 8.013,23 8.017,23C8.022,23 8.026,23 8.03,23C8.035,23 8.039,23 8.043,23C8.048,23 8.052,23 8.056,23C8.061,23 8.065,23 8.069,23C8.074,23 8.078,23 8.082,23C8.087,23 8.091,23 8.095,23C8.099,23 8.104,23 8.108,23C8.112,23 8.117,23 8.121,23C8.125,23 8.13,23 8.134,23C8.138,23 8.142,23 8.147,23C8.151,23 8.155,23 8.16,23C8.164,23 8.168,23 8.172,23C8.177,23 8.181,23 8.185,23C8.19,23 8.194,23 8.198,23C8.202,23 8.207,23 8.211,23C8.215,23 8.219,23 8.224,23C8.228,23 8.232,23 8.237,23C8.241,23 8.245,23 8.249,23C8.254,23 8.258,23 8.262,23C8.266,23 8.271,23 8.275,23C8.279,23 8.283,23 8.288,23C8.292,23 8.296,23 8.3,23C8.305,23 8.309,23 8.313,23C8.317,23 8.322,23 8.326,23C8.33,23 8.334,23 8.338,23C8.343,23 8.347,23 8.351,23C8.355,23 8.36,23 8.364,23C8.368,23 8.372,23 8.377,23C8.381,23 8.385,23 8.389,23C8.393,23 8.398,23 8.402,23C8.406,23 8.41,23 8.414,23C8.419,23 8.423,23 8.427,23C8.431,23 8.435,23 8.44,23C8.444,23 8.448,23 8.452,23C8.456,23 8.461,23 8.465,23C8.469,23 8.473,23 8.477,23C8.481,23 8.486,23 8.49,23C8.494,23 8.498,23 8.502,23C8.507,23 8.511,23 8.515,23C8.519,23 8.523,23 8.527,23C8.531,23 8.536,23 8.54,23C8.544,23 8.548,23 8.552,23C8.556,23 8.561,23 8.565,23C8.569,23 8.573,23 8.577,23C8.581,23 8.585,23 8.59,23C8.594,23 8.598,23 8.602,23C8.606,23 8.61,23 8.614,23C8.618,23 8.622,23 8.627,23C8.631,23 8.635,23 8.639,23C8.643,23 8.647,23 8.651,23C8.655,23 8.659,23 8.664,23C8.668,23 8.672,23 8.676,23C8.68,23 8.684,23 8.688,23C8.692,23 8.696,23 8.7,23C8.704,23 8.709,23 8.713,23C8.717,23 8.721,23 8.725,23C8.729,23 8.733,23 8.737,23C8.741,23 8.745,23 8.749,23C8.753,23 8.757,23 8.761,23C8.765,23 8.769,23 8.773,23C8.777,23 8.781,23 8.786,23C8.79,23 8.794,23 8.798,23C8.802,23 8.806,23 8.81,23C8.814,23 8.818,23 8.822,23C8.826,23 8.83,23 8.834,23C8.838,23 8.842,23 8.846,23C8.85,23 8.854,23 8.858,23C8.862,23 8.866,23 8.87,23C8.874,23 8.878,23 8.882,23C8.886,23 8.89,23 8.894,23C8.898,23 8.902,23 8.906,23C8.91,23 8.913,23 8.917,23C8.921,23 8.925,23 8.929,23C8.933,23 8.937,23 8.941,23C8.945,23 8.949,23 8.953,23C8.957,23 8.961,23 8.965,23C8.969,23 8.973,23 8.977,23C8.98,23 8.984,23 8.988,23C8.992,23 8.996,23 9,23L9,19C8.996,19 8.992,19 8.988,19C8.984,19 8.98,19 8.977,19C8.973,19 8.969,19 8.965,19C8.961,19 8.957,19 8.953,19C8.949,19 8.945,19 8.941,19C8.937,19 8.933,19 8.929,19C8.925,19 8.921,19 8.917,19C8.913,19 8.91,19 8.906,19C8.902,19 8.898,19 8.894,19C8.89,19 8.886,19 8.882,19C8.878,19 8.874,19 8.87,19C8.866,19 8.862,19 8.858,19C8.854,19 8.85,19 8.846,19C8.842,19 8.838,19 8.834,19C8.83,19 8.826,19 8.822,19C8.818,19 8.814,19 8.81,19C8.806,19 8.802,19 8.798,19C8.794,19 8.79,19 8.786,19C8.781,19 8.777,19 8.773,19C8.769,19 8.765,19 8.761,19C8.757,19 8.753,19 8.749,19C8.745,19 8.741,19 8.737,19C8.733,19 8.729,19 8.725,19C8.721,19 8.717,19 8.713,19C8.709,19 8.704,19 8.7,19C8.696,19 8.692,19 8.688,19C8.684,19 8.68,19 8.676,19C8.672,19 8.668,19 8.664,19C8.659,19 8.655,19 8.651,19C8.647,19 8.643,19 8.639,19C8.635,19 8.631,19 8.627,19C8.622,19 8.618,19 8.614,19C8.61,19 8.606,19 8.602,19C8.598,19 8.594,19 8.59,19C8.585,19 8.581,19 8.577,19C8.573,19 8.569,19 8.565,19C8.561,19 8.556,19 8.552,19C8.548,19 8.544,19 8.54,19C8.536,19 8.531,19 8.527,19C8.523,19 8.519,19 8.515,19C8.511,19 8.507,19 8.502,19C8.498,19 8.494,19 8.49,19C8.486,19 8.481,19 8.477,19C8.473,19 8.469,19 8.465,19C8.461,19 8.456,19 8.452,19C8.448,19 8.444,19 8.44,19C8.435,19 8.431,19 8.427,19C8.423,19 8.419,19 8.414,19C8.41,19 8.406,19 8.402,19C8.398,19 8.393,19 8.389,19C8.385,19 8.381,19 8.377,19C8.372,19 8.368,19 8.364,19C8.36,19 8.355,19 8.351,19C8.347,19 8.343,19 8.338,19C8.334,19 8.33,19 8.326,19C8.322,19 8.317,19 8.313,19C8.309,19 8.305,19 8.3,19C8.296,19 8.292,19 8.288,19C8.283,19 8.279,19 8.275,19C8.271,19 8.266,19 8.262,19C8.258,19 8.254,19 8.249,19C8.245,19 8.241,19 8.237,19C8.232,19 8.228,19 8.224,19C8.219,19 8.215,19 8.211,19C8.207,19 8.202,19 8.198,19C8.194,19 8.19,19 8.185,19C8.181,19 8.177,19 8.172,19C8.168,19 8.164,19 8.16,19C8.155,19 8.151,19 8.147,19C8.142,19 8.138,19 8.134,19C8.13,19 8.125,19 8.121,19C8.117,19 8.112,19 8.108,19C8.104,19 8.099,19 8.095,19C8.091,19 8.087,19 8.082,19C8.078,19 8.074,19 8.069,19C8.065,19 8.061,19 8.056,19C8.052,19 8.048,19 8.043,19C8.039,19 8.035,19 8.03,19C8.026,19 8.022,19 8.017,19C8.013,19 8.009,19 8.005,19C8,19 7.996,19 7.992,19C7.987,19 7.983,19 7.979,19C7.974,19 7.97,19 7.966,19C7.961,19 7.957,19 7.953,19C7.948,19 7.944,19 7.94,19C7.935,19 7.931,19 7.927,19C7.922,19 7.918,19 7.913,19C7.909,19 7.905,19 7.9,19C7.896,19 7.892,19 7.887,19C7.883,19 7.879,19 7.874,19C7.87,19 7.866,19 7.861,19C7.857,19 7.853,19 7.848,19C7.844,19 7.84,19 7.835,19C7.831,19 7.826,19 7.822,19C7.818,19 7.813,19 7.809,19C7.805,19 7.8,19 7.796,19C7.792,19 7.787,19 7.783,19C7.778,19 7.774,19 7.77,19C7.765,19 7.761,19 7.757,19C7.752,19 7.748,19 7.743,19C7.739,19 7.735,19 7.73,19C7.726,19 7.722,19 7.717,19C7.713,19 7.709,19 7.704,19C7.7,19 7.695,19 7.691,19C7.687,19 7.682,19 7.678,19C7.673,19 7.669,19 7.665,19C7.66,19 7.656,19 7.652,19C7.647,19 7.643,19 7.638,19C7.634,19 7.63,19 7.625,19C7.621,19 7.617,19 7.612,19C7.608,19 7.603,19 7.599,19C7.595,19 7.59,19 7.586,19C7.581,19 7.577,19 7.573,19C7.568,19 7.564,19 7.559,19C7.555,19 7.551,19 7.546,19C7.542,19 7.538,19 7.533,19C7.529,19 7.524,19 7.52,19C7.516,19 7.511,19 7.507,19C7.502,19 7.498,19 7.494,19C7.489,19 7.485,19 7.48,19C7.476,19 7.472,19 7.467,19C7.463,19 7.458,19 7.454,19C7.45,19 7.445,19 7.441,19C7.437,19 7.432,19 7.428,19C7.423,19 7.419,19 7.415,19C7.41,19 7.406,19 7.401,19C7.397,19 7.393,19 7.388,19C7.384,19 7.379,19 7.375,19C7.371,19 7.366,19 7.362,19C7.357,19 7.353,19 7.349,19C7.344,19 7.34,19 7.335,19C7.331,19 7.327,19 7.322,19C7.318,19 7.313,19 7.309,19C7.305,19 7.3,19 7.296,19C7.292,19 7.287,19 7.283,19C7.278,19 7.274,19 7.27,19C7.265,19 7.261,19 7.256,19C7.252,19 7.248,19 7.243,19C7.239,19 7.234,19 7.23,19C7.226,19 7.221,19 7.217,19C7.212,19 7.208,19 7.204,19C7.199,19 7.195,19 7.191,19C7.186,19 7.182,19 7.177,19C7.173,19 7.169,19 7.164,19C7.16,19 7.155,19 7.151,19C7.147,19 7.142,19 7.138,19C7.133,19 7.129,19 7.125,19C7.12,19 7.116,19 7.112,19C7.107,19 7.103,19 7.098,19C7.094,19 7.09,19 7.085,19C7.081,19 7.077,19 7.072,19C7.068,19 7.063,19 7.059,19C7.055,19 7.05,19 7.046,19C7.041,19 7.037,19 7.033,19C7.028,19 7.024,19 7.02,19C7.015,19 7.011,19 7.007,19C7.002,19 6.998,19 6.993,19C6.989,19 6.985,19 6.98,19C6.976,19 6.972,19 6.967,19C6.963,19 6.958,19 6.954,19C6.95,19 6.945,19 6.941,19C6.937,19 6.932,19 6.928,19C6.924,19 6.919,19 6.915,19C6.91,19 6.906,19 6.902,19C6.897,19 6.893,19 6.889,19C6.884,19 6.88,19 6.876,19C6.871,19 6.867,19 6.863,19C6.858,19 6.854,19 6.85,19C6.845,19 6.841,19 6.837,19C6.832,19 6.828,19 6.823,19C6.819,19 6.815,19 6.81,19C6.806,19 6.802,19 6.797,19C6.793,19 6.789,19 6.784,19C6.78,19 6.776,19 6.771,19C6.767,19 6.763,19 6.758,19C6.754,19 6.75,19 6.745,19C6.741,19 6.737,19 6.733,19C6.728,19 6.724,19 6.72,19C6.715,19 6.711,19 6.707,19C6.702,19 6.698,19 6.694,19C6.689,19 6.685,19 6.681,19C6.676,19 6.672,19 6.668,19C6.663,19 6.659,19 6.655,19C6.651,19 6.646,19 6.642,19C6.638,19 6.633,19 6.629,19C6.625,19 6.62,19 6.616,19C6.612,19 6.608,19 6.603,19C6.599,19 6.595,19 6.59,19C6.586,19 6.582,19 6.578,19C6.573,19 6.569,19 6.565,19C6.56,19 6.556,19 6.552,19C6.548,19 6.543,19 6.539,19C6.535,19 6.531,19 6.526,19C6.522,19 6.518,19 6.513,19C6.509,19 6.505,19 6.501,19C6.496,19 6.492,19 6.488,19C6.484,19 6.479,19 6.475,19C6.471,19 6.467,19 6.462,19C6.458,19 6.454,19 6.45,19C6.445,19 6.441,19 6.437,19C6.433,19 6.428,19 6.424,19C6.42,19 6.416,19 6.412,19C6.407,19 6.403,19 6.399,19C6.395,19 6.39,19 6.386,19C6.382,19 6.378,19 6.373,19C6.369,19 6.365,19 6.361,19C6.357,19 6.352,19 6.348,19C6.344,19 6.34,19 6.336,19C6.331,19 6.327,19 6.323,19C6.319,19 6.315,19 6.31,19C6.306,19 6.302,19 6.298,19C6.294,19 6.289,19 6.285,19C6.281,19 6.277,19 6.273,19C6.269,19 6.264,19 6.26,19C6.256,19 6.252,19 6.248,19C6.243,19 6.239,19 6.235,19C6.231,19 6.227,19 6.223,19C6.219,19 6.214,19 6.21,19C6.206,19 6.202,19 6.198,19C6.194,19 6.189,19 6.185,19C6.181,19 6.177,19 6.173,19C6.169,19 6.165,19 6.16,19C6.156,19 6.152,19 6.148,19C6.144,19 6.14,19 6.136,19C6.132,19 6.128,19 6.123,19C6.119,19 6.115,19 6.111,19C6.107,19 6.103,19 6.099,19C6.095,19 6.091,19 6.086,19C6.082,19 6.078,19 6.074,19C6.07,19 6.066,19 6.062,19C6.058,19 6.054,19 6.05,19C6.046,19 6.041,19 6.037,19C6.033,19 6.029,19 6.025,19C6.021,19 6.017,19 6.013,19C6.009,19 6.005,19 6.001,19C5.997,19 5.993,19 5.989,19C5.985,19 5.981,19 5.977,19C5.973,19 5.969,19 5.964,19C5.96,19 5.956,19 5.952,19C5.948,19 5.944,19 5.94,19C5.936,19 5.932,19 5.928,19C5.924,19 5.92,19 5.916,19C5.912,19 5.908,19 5.904,19C5.9,19 5.896,19 5.892,19C5.888,19 5.884,19 5.88,19C5.876,19 5.872,19 5.868,19C5.864,19 5.86,19 5.856,19C5.852,19 5.848,19 5.844,19C5.84,19 5.837,19 5.833,19C5.829,19 5.825,19 5.821,19C5.817,19 5.813,19 5.809,19C5.805,19 5.801,19 5.797,19C5.793,19 5.789,19 5.785,19C5.781,19 5.777,19 5.773,19C5.77,19 5.766,19 5.762,19C5.758,19 5.754,19 5.75,19C5.746,19 5.742,19 5.738,19C5.734,19 5.73,19 5.727,19C5.723,19 5.719,19 5.715,19C5.711,19 5.707,19 5.703,19C5.699,19 5.696,19 5.692,19C5.688,19 5.684,19 5.68,19C5.676,19 5.672,19 5.669,19C5.665,19 5.661,19 5.657,19C5.653,19 5.649,19 5.645,19C5.642,19 5.638,19 5.634,19C5.63,19 5.626,19 5.623,19C5.619,19 5.615,19 5.611,19C5.607,19 5.603,19 5.6,19C5.596,19 5.592,19 5.588,19C5.584,19 5.581,19 5.577,19C5.573,19 5.569,19 5.566,19C5.562,19 5.558,19 5.554,19C5.55,19 5.547,19 5.543,19C5.539,19 5.535,19 5.532,19C5.528,19 5.524,19 5.52,19C5.517,19 5.513,19 5.509,19C5.505,19 5.502,19 5.498,19C5.494,19 5.491,19 5.487,19C5.483,19 5.479,19 5.476,19C5.472,19 5.468,19 5.465,19C5.461,19 5.457,19 5.454,19C5.45,19 5.446,19 5.443,19C5.439,19 5.435,19 5.431,19C5.428,19 5.424,19 5.421,19C5.417,19 5.413,19 5.41,19C5.406,19 5.402,19 5.399,19C5.395,19 5.391,19 5.388,19C5.384,19 5.38,19 5.377,19C5.373,19 5.37,19 5.366,19C5.362,19 5.359,19 5.355,19C5.352,19 5.348,19 5.344,19C5.341,19 5.337,19 5.334,19C5.33,19 5.326,19 5.323,19C5.319,19 5.316,19 5.312,19C5.309,19 5.305,19 5.301,19C5.298,19 5.294,19 5.291,19C5.287,19 5.284,19 5.28,19C5.277,19 5.273,19 5.27,19C5.266,19 5.263,19 5.259,19C5.256,19 5.252,19 5.249,19C5.245,19 5.242,19 5.238,19C5.235,19 5.231,19 5.228,19C5.224,19 5.221,19 5.217,19C5.214,19 5.21,19 5.207,19C5.203,19 5.2,19 5.196,19C5.193,19 5.19,19 5.186,19C5.183,19 5.179,19 5.176,19C5.172,19 5.169,19 5.165,19C5.162,19 5.159,19 5.155,19C5.152,19 5.148,19 5.145,19C5.142,19 5.138,19 5.135,19C5.131,19 5.128,19 5.125,19C5.121,19 5.118,19 5.115,19C5.111,19 5.108,19 5.105,19C5.101,19 5.098,19 5.095,19C5.091,19 5.088,19 5.084,19C5.081,19 5.078,19 5.075,19C5.071,19 5.068,19 5.065,19C5.061,19 5.058,19 5.055,19C5.051,19 5.048,19 5.045,19C5.042,19 5.038,19 5.035,19C5.032,19 5.028,19 5.025,19C5.022,19 5.019,19 5.015,19C5.012,19 5.009,19 5.006,19C5.002,19 4.999,19 4.996,19C4.993,19 4.99,19 4.986,19C4.983,19 4.98,19 4.977,19C4.974,19 4.97,19 4.967,19C4.964,19 4.961,19 4.958,19C4.954,19 4.951,19 4.948,19C4.945,19 4.942,19 4.939,19C4.935,19 4.932,19 4.929,19C4.926,19 4.923,19 4.92,19C4.917,19 4.913,19 4.91,19C4.907,19 4.904,19 4.901,19C4.898,19 4.895,19 4.892,19C4.889,19 4.886,19 4.882,19C4.879,19 4.876,19 4.873,19C4.87,19 4.867,19 4.864,19C4.861,19 4.858,19 4.855,19C4.852,19 4.849,19 4.846,19C4.843,19 4.84,19 4.837,19C4.834,19 4.831,19 4.828,19C4.825,19 4.822,19 4.819,19C4.816,19 4.813,19 4.81,19C4.807,19 4.804,19 4.801,19C4.798,19 4.795,19 4.792,19C4.789,19 4.786,19 4.783,19C4.78,19 4.777,19 4.774,19C4.771,19 4.768,19 4.766,19C4.763,19 4.76,19 4.757,19C4.754,19 4.751,19 4.748,19C4.745,19 4.742,19 4.74,19C4.737,19 4.734,19 4.731,19C4.728,19 4.725,19 4.722,19C4.72,19 4.717,19 4.714,19C4.711,19 4.708,19 4.705,19C4.703,19 4.7,19 4.697,19C4.694,19 4.691,19 4.689,19C4.686,19 4.683,19 4.68,19C4.677,19 4.675,19 4.672,19C4.669,19 4.666,19 4.664,19C4.661,19 4.658,19 4.655,19C4.653,19 4.65,19 4.647,19C4.645,19 4.642,19 4.639,19C4.636,19 4.634,19 4.631,19C4.628,19 4.626,19 4.623,19C4.62,19 4.618,19 4.615,19C4.612,19 4.61,19 4.607,19C4.604,19 4.602,19 4.599,19C4.596,19 4.594,19 4.591,19C4.589,19 4.586,19 4.583,19C4.581,19 4.578,19 4.575,19C4.573,19 4.57,19 4.568,19C4.565,19 4.563,19 4.56,19C4.557,19 4.555,19 4.552,19C4.55,19 4.547,19 4.545,19C4.542,19 4.54,19 4.537,19C4.535,19 4.532,19 4.53,19C4.527,19 4.525,19 4.522,19C4.52,19 4.517,19 4.515,19C4.512,19 4.51,19 4.507,19C4.505,19 4.502,19 4.5,19C4.498,19 4.495,19 4.493,19C4.49,19 4.488,19 4.485,19C4.483,19 4.481,19 4.478,19C4.476,19 4.473,19 4.471,19C4.469,19 4.466,19 4.464,19C4.462,19 4.459,19 4.457,19C4.455,19 4.452,19 4.45,19C4.448,19 4.445,19 4.443,19C4.441,19 4.438,19 4.436,19C4.434,19 4.431,19 4.429,19C4.427,19 4.425,19 4.422,19C4.42,19 4.418,19 4.415,19C4.413,19 4.411,19 4.409,19C4.406,19 4.404,19 4.402,19C4.4,19 4.398,19 4.395,19C4.393,19 4.391,19 4.389,19C4.387,19 4.384,19 4.382,19C4.38,19 4.378,19 4.376,19C4.374,19 4.371,19 4.369,19C4.367,19 4.365,19 4.363,19C4.361,19 4.359,19 4.357,19C4.354,19 4.352,19 4.35,19C4.348,19 4.346,19 4.344,19C4.342,19 4.34,19 4.338,19C4.336,19 4.334,19 4.332,19C4.33,19 4.328,19 4.326,19C4.324,19 4.322,19 4.32,19C4.318,19 4.316,19 4.314,19C4.312,19 4.31,19 4.308,19C4.306,19 4.304,19 4.302,19C4.3,19 4.298,19 4.296,19C4.294,19 4.292,19 4.29,19C4.288,19 4.286,19 4.284,19C4.282,19 4.281,19 4.279,19C4.277,19 4.275,19 4.273,19C4.271,19 4.269,19 4.267,19C4.266,19 4.264,19 4.262,19C4.26,19 4.258,19 4.256,19C4.255,19 4.253,19 4.251,19C4.249,19 4.247,19 4.246,19C4.244,19 4.242,19 4.24,19C4.238,19 4.237,19 4.235,19C4.233,19 4.231,19 4.23,19C4.228,19 4.226,19 4.225,19C4.223,19 4.221,19 4.219,19C4.218,19 4.216,19 4.214,19C4.213,19 4.211,19 4.209,19C4.208,19 4.206,19 4.204,19C4.203,19 4.201,19 4.2,19C4.198,19 4.196,19 4.195,19C4.193,19 4.192,19 4.19,19C4.188,19 4.187,19 4.185,19C4.184,19 4.182,19 4.181,19C4.179,19 4.177,19 4.176,19C4.174,19 4.173,19 4.171,19C4.17,19 4.168,19 4.167,19C4.165,19 4.164,19 4.162,19C4.161,19 4.159,19 4.158,19C4.157,19 4.155,19 4.154,19C4.152,19 4.151,19 4.149,19C4.148,19 4.147,19 4.145,19C4.144,19 4.142,19 4.141,19C4.14,19 4.138,19 4.137,19C4.135,19 4.134,19 4.133,19C4.131,19 4.13,19 4.129,19C4.127,19 4.126,19 4.125,19C4.124,19 4.122,19 4.121,19C4.12,19 4.118,19 4.117,19C4.116,19 4.115,19 4.113,19C4.112,19 4.111,19 4.11,19C4.108,19 4.107,19 4.106,19C4.105,19 4.104,19 4.102,19C4.101,19 4.1,19 4.099,19C4.098,19 4.097,19 4.095,19C4.094,19 4.093,19 4.092,19C4.091,19 4.09,19 4.089,19C4.088,19 4.086,19 4.085,19C4.084,19 4.083,19 4.082,19C4.081,19 4.08,19 4.079,19C4.078,19 4.077,19 4.076,19C4.075,19 4.074,19 4.073,19C4.072,19 4.071,19 4.07,19C4.069,19 4.068,19 4.067,19C4.066,19 4.065,19 4.064,19C4.063,19 4.062,19 4.061,19C4.06,19 4.059,19 4.058,19C4.057,19 4.057,19 4.056,19C4.055,19 4.054,19 4.053,19C4.052,19 4.051,19 4.05,19C4.05,19 4.049,19 4.048,19C4.047,19 4.046,19 4.046,19C4.045,19 4.044,19 4.043,19C4.042,19 4.042,19 4.041,19C4.04,19 4.039,19 4.039,19C4.038,19 4.037,19 4.036,19C4.036,19 4.035,19 4.034,19C4.033,19 4.033,19 4.032,19C4.031,19 4.031,19 4.03,19C4.029,19 4.029,19 4.028,19C4.027,19 4.027,19 4.026,19C4.026,19 4.025,19 4.024,19C4.024,19 4.023,19 4.023,19C4.022,19 4.022,19 4.021,19C4.02,19 4.02,19 4.019,19C4.019,19 4.018,19 4.018,19C4.017,19 4.017,19 4.016,19C4.016,19 4.015,19 4.015,19C4.014,19 4.014,19 4.014,19C4.013,19 4.013,19 4.012,19C4.012,19 4.011,19 4.011,19C4.011,19 4.01,19 4.01,19C4.009,19 4.009,19 4.009,19C4.008,19 4.008,19 4.008,19C4.007,19 4.007,19 4.007,19C4.006,19 4.006,19 4.006,19C4.005,19 4.005,19 4.005,19C4.005,19 4.004,19 4.004,19C4.004,19 4.004,19 4.003,19C4.003,19 4.003,19 4.003,19C4.003,19 4.002,19 4.002,19C4.002,19 4.002,19 4.002,19C4.002,19 4.001,19 4.001,19C4.001,19 4.001,19 4.001,19C4.001,19 4.001,19 4.001,19C4,19 4,19 4,19C4,19 4,19 4,19C4,19 4,19 4,19C4,19 4,19 4,21ZM9,23C9.971,23 13.125,23.053 16.061,21.749C17.566,21.082 19.08,20.032 20.21,18.389C21.347,16.736 22,14.624 22,12L18,12C18,13.938 17.528,15.231 16.915,16.121C16.295,17.022 15.434,17.652 14.439,18.093C12.375,19.009 10.029,19 9,19L9,23ZM22,12C22,9.376 21.347,7.264 20.21,5.611C19.08,3.969 17.566,2.919 16.061,2.251C13.125,0.948 9.971,1 9,1L9,5C10.029,5 12.375,4.991 14.439,5.907C15.434,6.349 16.295,6.978 16.915,7.879C17.528,8.769 18,10.062 18,12L22,12Z" fill="#3BB77E"/>
</svg>
