<svg width="28" height="26" viewBox="0 0 28 26" fill="none" xmlns="http://www.w3.org/2000/svg" xmlns:xlink="http://www.w3.org/1999/xlink">
<path d="M21.891,15.094C21.546,15.429 21.387,15.913 21.466,16.387L22.651,22.947C22.751,23.503 22.517,24.066 22.051,24.387C21.595,24.721 20.989,24.761 20.491,24.494L14.586,21.414C14.381,21.305 14.153,21.246 13.919,21.239L13.558,21.239C13.433,21.258 13.31,21.298 13.198,21.359L7.291,24.454C6.999,24.601 6.669,24.653 6.345,24.601C5.555,24.451 5.029,23.699 5.158,22.906L6.345,16.346C6.423,15.867 6.265,15.381 5.919,15.041L1.105,10.374C0.702,9.983 0.562,9.397 0.746,8.867C0.925,8.339 1.381,7.954 1.931,7.867L8.558,6.906C9.062,6.854 9.505,6.547 9.731,6.094L12.651,0.107C12.721,-0.026 12.81,-0.149 12.918,-0.253L13.038,-0.346C13.101,-0.415 13.173,-0.473 13.253,-0.519L13.398,-0.573L13.625,-0.666L14.186,-0.666C14.687,-0.614 15.129,-0.314 15.359,0.134L18.318,6.094C18.531,6.53 18.946,6.833 19.425,6.906L26.051,7.867C26.611,7.947 27.079,8.334 27.265,8.867C27.439,9.402 27.289,9.989 26.878,10.374L21.891,15.094Z" fill="#FDC040"/>
</svg>
