<svg width="28" height="26" viewBox="0 0 28 26" fill="none" xmlns="http://www.w3.org/2000/svg" xmlns:xlink="http://www.w3.org/1999/xlink">
<path d="M21.891,16.092C21.546,16.427 21.387,16.911 21.466,17.385L22.651,23.945C22.751,24.501 22.517,25.064 22.051,25.385C21.595,25.719 20.989,25.759 20.491,25.492L14.586,22.412C14.381,22.303 14.153,22.244 13.919,22.237L13.558,22.237C13.433,22.256 13.31,22.296 13.198,22.357L7.291,25.452C6.999,25.599 6.669,25.651 6.345,25.599C5.555,25.449 5.029,24.697 5.158,23.904L6.345,17.344C6.423,16.865 6.265,16.379 5.919,16.039L1.105,11.372C0.702,10.981 0.562,10.395 0.746,9.865C0.925,9.337 1.381,8.952 1.931,8.865L8.558,7.904C9.062,7.852 9.505,7.545 9.731,7.092L12.651,1.105C12.721,0.972 12.81,0.849 12.918,0.745L13.038,0.652C13.101,0.583 13.173,0.525 13.253,0.479L13.398,0.425L13.625,0.332L14.186,0.332C14.687,0.384 15.129,0.684 15.359,1.132L18.318,7.092C18.531,7.528 18.946,7.831 19.425,7.904L26.051,8.865C26.611,8.945 27.079,9.332 27.265,9.865C27.439,10.4 27.289,10.987 26.878,11.372L21.891,16.092Z" fill="#FDC040"/>
</svg>
