<svg width="28" height="26" viewBox="0 0 28 26" fill="none" xmlns="http://www.w3.org/2000/svg" xmlns:xlink="http://www.w3.org/1999/xlink">
<path d="M21.891,16.424C21.546,16.759 21.387,17.243 21.466,17.717L22.651,24.277C22.751,24.833 22.517,25.396 22.051,25.717C21.595,26.051 20.989,26.091 20.491,25.824L14.586,22.744C14.381,22.635 14.153,22.576 13.919,22.569L13.558,22.569C13.433,22.588 13.31,22.628 13.198,22.689L7.291,25.784C6.999,25.931 6.669,25.983 6.345,25.931C5.555,25.781 5.029,25.029 5.158,24.236L6.345,17.676C6.423,17.197 6.265,16.711 5.919,16.371L1.105,11.704C0.702,11.313 0.562,10.727 0.746,10.197C0.925,9.669 1.381,9.284 1.931,9.197L8.558,8.236C9.062,8.184 9.505,7.877 9.731,7.424L12.651,1.437C12.721,1.304 12.81,1.181 12.918,1.077L13.038,0.984C13.101,0.915 13.173,0.857 13.253,0.811L13.398,0.757L13.625,0.664L14.186,0.664C14.687,0.716 15.129,1.016 15.359,1.464L18.318,7.424C18.531,7.86 18.946,8.163 19.425,8.236L26.051,9.197C26.611,9.277 27.079,9.664 27.265,10.197C27.439,10.732 27.289,11.319 26.878,11.704L21.891,16.424Z" fill="#D4D4D4"/>
</svg>
