<svg width="28" height="26" viewBox="0 0 28 26" fill="none" xmlns="http://www.w3.org/2000/svg" xmlns:xlink="http://www.w3.org/1999/xlink">
<path d="M21.893,15.094C21.548,15.429 21.389,15.913 21.468,16.387L22.653,22.947C22.753,23.503 22.519,24.066 22.053,24.387C21.597,24.721 20.991,24.761 20.493,24.494L14.588,21.414C14.382,21.305 14.154,21.246 13.921,21.239L13.56,21.239C13.434,21.258 13.312,21.298 13.2,21.359L7.293,24.454C7.001,24.601 6.67,24.653 6.346,24.601C5.557,24.451 5.03,23.699 5.16,22.906L6.346,16.346C6.425,15.867 6.266,15.381 5.921,15.041L1.106,10.374C0.704,9.983 0.564,9.397 0.748,8.867C0.926,8.339 1.382,7.954 1.933,7.867L8.56,6.906C9.064,6.854 9.506,6.547 9.733,6.094L12.653,0.107C12.722,-0.026 12.812,-0.149 12.92,-0.253L13.04,-0.346C13.102,-0.415 13.174,-0.473 13.254,-0.519L13.4,-0.573L13.626,-0.666L14.188,-0.666C14.689,-0.614 15.13,-0.314 15.361,0.134L18.32,6.094C18.533,6.53 18.948,6.833 19.426,6.906L26.053,7.867C26.613,7.947 27.081,8.334 27.267,8.867C27.441,9.402 27.291,9.989 26.88,10.374L21.893,15.094Z" fill="#FDC040"/>
</svg>
