<svg width="28" height="26" viewBox="0 0 28 26" fill="none" xmlns="http://www.w3.org/2000/svg" xmlns:xlink="http://www.w3.org/1999/xlink">
<path d="M20.893,15.762C20.548,16.097 20.389,16.581 20.468,17.055L21.653,23.615C21.753,24.171 21.519,24.734 21.053,25.055C20.597,25.389 19.991,25.429 19.493,25.162L13.588,22.082C13.382,21.973 13.154,21.914 12.921,21.907L12.56,21.907C12.434,21.926 12.312,21.966 12.2,22.027L6.293,25.122C6.001,25.269 5.67,25.321 5.346,25.269C4.557,25.119 4.03,24.367 4.16,23.574L5.346,17.014C5.425,16.535 5.266,16.049 4.921,15.709L0.106,11.042C-0.296,10.651 -0.436,10.065 -0.252,9.535C-0.074,9.007 0.382,8.622 0.933,8.535L7.56,7.574C8.064,7.522 8.506,7.215 8.733,6.762L11.653,0.775C11.722,0.642 11.812,0.519 11.92,0.415L12.04,0.322C12.102,0.253 12.174,0.195 12.254,0.149L12.4,0.095L12.626,0.002L13.188,0.002C13.689,0.054 14.13,0.354 14.361,0.802L17.32,6.762C17.533,7.198 17.948,7.501 18.426,7.574L25.053,8.535C25.613,8.615 26.081,9.002 26.267,9.535C26.441,10.07 26.291,10.657 25.88,11.042L20.893,15.762Z" fill="#D4D4D4"/>
</svg>
