<svg width="28" height="26" viewBox="0 0 28 26" fill="none" xmlns="http://www.w3.org/2000/svg" xmlns:xlink="http://www.w3.org/1999/xlink">
<path d="M21.893,15.093C21.548,15.428 21.389,15.912 21.468,16.387L22.653,22.947C22.753,23.503 22.519,24.065 22.053,24.387C21.597,24.72 20.991,24.76 20.493,24.493L14.588,21.413C14.382,21.304 14.154,21.245 13.921,21.239L13.56,21.239C13.434,21.257 13.312,21.297 13.2,21.359L7.293,24.453C7.001,24.6 6.67,24.652 6.346,24.6C5.557,24.451 5.03,23.699 5.16,22.905L6.346,16.345C6.425,15.867 6.266,15.38 5.921,15.04L1.106,10.373C0.704,9.983 0.564,9.396 0.748,8.867C0.926,8.339 1.382,7.953 1.933,7.867L8.56,6.905C9.064,6.853 9.506,6.547 9.733,6.093L12.653,0.107C12.722,-0.027 12.812,-0.149 12.92,-0.253L13.04,-0.347C13.102,-0.416 13.174,-0.473 13.254,-0.52L13.4,-0.573L13.626,-0.667L14.188,-0.667C14.689,-0.615 15.13,-0.315 15.361,0.133L18.32,6.093C18.533,6.529 18.948,6.832 19.426,6.905L26.053,7.867C26.613,7.947 27.081,8.333 27.267,8.867C27.441,9.401 27.291,9.988 26.88,10.373L21.893,15.093Z" fill="#D4D4D4"/>
</svg>
