<svg width="28" height="26" viewBox="0 0 28 26" fill="none" xmlns="http://www.w3.org/2000/svg" xmlns:xlink="http://www.w3.org/1999/xlink">
<path d="M21.891,15.424C21.546,15.759 21.387,16.243 21.466,16.717L22.651,23.277C22.751,23.833 22.517,24.396 22.051,24.717C21.595,25.051 20.989,25.091 20.491,24.824L14.586,21.744C14.381,21.635 14.153,21.576 13.919,21.569L13.558,21.569C13.433,21.588 13.31,21.628 13.198,21.689L7.291,24.784C6.999,24.931 6.669,24.983 6.345,24.931C5.555,24.781 5.029,24.029 5.158,23.236L6.345,16.676C6.423,16.197 6.265,15.711 5.919,15.371L1.105,10.704C0.702,10.313 0.562,9.727 0.746,9.197C0.925,8.669 1.381,8.284 1.931,8.197L8.558,7.236C9.062,7.184 9.505,6.877 9.731,6.424L12.651,0.437C12.721,0.304 12.81,0.181 12.918,0.077L13.038,-0.016C13.101,-0.085 13.173,-0.143 13.253,-0.189L13.398,-0.243L13.625,-0.336L14.186,-0.336C14.687,-0.284 15.129,0.016 15.359,0.464L18.318,6.424C18.531,6.86 18.946,7.163 19.425,7.236L26.051,8.197C26.611,8.277 27.079,8.664 27.265,9.197C27.439,9.732 27.289,10.319 26.878,10.704L21.891,15.424Z" fill="#FDC040"/>
</svg>
