<svg width="28" height="26" viewBox="0 0 28 26" fill="none" xmlns="http://www.w3.org/2000/svg" xmlns:xlink="http://www.w3.org/1999/xlink">
<path d="M21.891,15.093C21.546,15.428 21.387,15.912 21.466,16.386L22.651,22.946C22.751,23.502 22.517,24.065 22.051,24.386C21.595,24.72 20.989,24.76 20.491,24.493L14.586,21.413C14.381,21.304 14.153,21.245 13.919,21.238L13.558,21.238C13.433,21.257 13.31,21.297 13.198,21.358L7.291,24.453C6.999,24.6 6.669,24.652 6.345,24.6C5.555,24.45 5.029,23.698 5.158,22.905L6.345,16.345C6.423,15.866 6.265,15.38 5.919,15.04L1.105,10.373C0.702,9.982 0.562,9.396 0.746,8.866C0.925,8.338 1.381,7.953 1.931,7.866L8.558,6.905C9.062,6.853 9.505,6.546 9.731,6.093L12.651,0.106C12.721,-0.027 12.81,-0.15 12.918,-0.254L13.038,-0.347C13.101,-0.416 13.173,-0.474 13.253,-0.52L13.398,-0.574L13.625,-0.667L14.186,-0.667C14.687,-0.615 15.129,-0.315 15.359,0.133L18.318,6.093C18.531,6.529 18.946,6.832 19.425,6.905L26.051,7.866C26.611,7.946 27.079,8.333 27.265,8.866C27.439,9.401 27.289,9.988 26.878,10.373L21.891,15.093Z" fill="#FDC040"/>
</svg>
