<svg width="28" height="26" viewBox="0 0 28 26" fill="none" xmlns="http://www.w3.org/2000/svg" xmlns:xlink="http://www.w3.org/1999/xlink">
<path d="M21.891,15.092C21.546,15.427 21.387,15.911 21.466,16.385L22.651,22.945C22.751,23.501 22.517,24.064 22.051,24.385C21.595,24.719 20.989,24.759 20.491,24.492L14.586,21.412C14.381,21.303 14.153,21.244 13.919,21.237L13.558,21.237C13.433,21.256 13.31,21.296 13.198,21.357L7.291,24.452C6.999,24.599 6.669,24.651 6.345,24.599C5.555,24.449 5.029,23.697 5.158,22.904L6.345,16.344C6.423,15.865 6.265,15.379 5.919,15.039L1.105,10.372C0.702,9.981 0.562,9.395 0.746,8.865C0.925,8.337 1.381,7.952 1.931,7.865L8.558,6.904C9.062,6.852 9.505,6.545 9.731,6.092L12.651,0.105C12.721,-0.028 12.81,-0.151 12.918,-0.255L13.038,-0.348C13.101,-0.417 13.173,-0.475 13.253,-0.521L13.398,-0.575L13.625,-0.668L14.186,-0.668C14.687,-0.616 15.129,-0.316 15.359,0.132L18.318,6.092C18.531,6.528 18.946,6.831 19.425,6.904L26.051,7.865C26.611,7.945 27.079,8.332 27.265,8.865C27.439,9.4 27.289,9.987 26.878,10.372L21.891,15.092Z" fill="#D4D4D4"/>
</svg>
