<svg width="28" height="26" viewBox="0 0 28 26" fill="none" xmlns="http://www.w3.org/2000/svg" xmlns:xlink="http://www.w3.org/1999/xlink">
<path d="M20.893,15.76C20.548,16.095 20.389,16.579 20.468,17.053L21.653,23.613C21.753,24.169 21.519,24.732 21.053,25.053C20.597,25.387 19.991,25.427 19.493,25.16L13.588,22.08C13.382,21.971 13.154,21.912 12.921,21.905L12.56,21.905C12.434,21.924 12.312,21.964 12.2,22.025L6.293,25.12C6.001,25.267 5.67,25.319 5.346,25.267C4.557,25.117 4.03,24.365 4.16,23.572L5.346,17.012C5.425,16.533 5.266,16.047 4.921,15.707L0.106,11.04C-0.296,10.649 -0.436,10.063 -0.252,9.533C-0.074,9.005 0.382,8.62 0.933,8.533L7.56,7.572C8.064,7.52 8.506,7.213 8.733,6.76L11.653,0.773C11.722,0.64 11.812,0.517 11.92,0.413L12.04,0.32C12.102,0.251 12.174,0.193 12.254,0.147L12.4,0.093L12.626,0L13.188,0C13.689,0.052 14.13,0.352 14.361,0.8L17.32,6.76C17.533,7.196 17.948,7.499 18.426,7.572L25.053,8.533C25.613,8.613 26.081,9 26.267,9.533C26.441,10.068 26.291,10.655 25.88,11.04L20.893,15.76Z" fill="#D4D4D4"/>
</svg>
