<svg width="34" height="36" viewBox="0 0 34 36" fill="none" xmlns="http://www.w3.org/2000/svg" xmlns:xlink="http://www.w3.org/1999/xlink">
<path d="M1.481,3.812L1.602,3.685C4.814,0.473 6.906,-0.379 9.138,0.905C9.78,1.274 10.382,1.791 11.201,2.622L13.711,5.225C15.098,6.739 15.413,8.19 14.962,9.89L14.899,10.115L14.83,10.339L14.495,11.323C13.776,13.532 14.076,14.777 16.632,17.333C19.29,19.99 20.531,20.207 22.909,19.376L23.333,19.229L23.846,19.062L24.07,19C25.877,18.518 27.403,18.903 29.022,20.52L31.045,22.474L31.64,23.06C32.3,23.733 32.737,24.266 33.059,24.83C34.334,27.062 33.482,29.152 30.177,32.445L29.862,32.763C29.369,33.239 28.908,33.58 28.231,33.901C27.094,34.441 25.751,34.645 24.19,34.428C20.344,33.893 15.467,30.858 9.286,24.679C8.783,24.176 8.301,23.683 7.84,23.199L6.945,22.245C-1.438,13.137 -2.177,7.542 1.258,4.033L1.481,3.812ZM9.177,4.134C8.634,3.598 8.24,3.272 7.892,3.072C7.123,2.63 6.292,2.817 4.755,4.139L4.272,4.571C4.188,4.649 4.102,4.729 4.014,4.813L3.46,5.353L3.41,5.415L3.035,5.792C2.127,6.719 1.698,7.85 2.068,9.795C2.676,12.987 5.457,17.316 11.054,22.911C16.885,28.741 21.328,31.506 24.534,31.951C26.403,32.211 27.357,31.759 28.329,30.763L29.07,30.014C29.418,29.651 29.715,29.321 29.966,29.02L30.308,28.589C31.182,27.424 31.262,26.725 30.888,26.071C30.746,25.822 30.539,25.549 30.238,25.215L29.829,24.784L29.587,24.542L27.035,22.077C26.182,21.291 25.599,21.179 24.715,21.415L24.459,21.489L23.402,21.848C20.335,22.838 18.123,22.358 14.865,19.101C11.49,15.727 11.094,13.474 12.225,10.231L12.298,10.022L12.498,9.418L12.597,9.033C12.772,8.194 12.572,7.61 11.671,6.709C11.634,6.672 11.592,6.63 11.547,6.584L9.177,4.134Z" clip-rule="evenodd" fill-rule="evenodd" fill="#3BB77E"/>
</svg>
