<svg width="34" height="36" viewBox="0 0 34 36" fill="none" xmlns="http://www.w3.org/2000/svg" xmlns:xlink="http://www.w3.org/1999/xlink">
<path d="M1.386,3.814L1.507,3.687C4.719,0.475 6.811,-0.377 9.043,0.907C9.685,1.276 10.287,1.793 11.106,2.624L13.616,5.227C15.003,6.741 15.318,8.192 14.867,9.892L14.805,10.117L14.736,10.341L14.4,11.325C13.682,13.534 13.982,14.779 16.537,17.335C19.195,19.992 20.436,20.209 22.814,19.378L23.238,19.231L23.751,19.064L23.975,19.002C25.782,18.52 27.308,18.904 28.927,20.522L30.95,22.476L31.545,23.062C32.205,23.735 32.642,24.268 32.964,24.832C34.24,27.064 33.387,29.154 30.082,32.447L29.768,32.765C29.274,33.241 28.813,33.582 28.136,33.903C26.999,34.443 25.656,34.647 24.095,34.43C20.249,33.895 15.372,30.86 9.191,24.681C8.688,24.178 8.206,23.685 7.745,23.201L6.851,22.247C-1.532,13.139 -2.272,7.544 1.164,4.035L1.386,3.814ZM9.082,4.136C8.539,3.6 8.145,3.274 7.797,3.074C7.028,2.632 6.197,2.819 4.66,4.141L4.178,4.573C4.093,4.651 4.007,4.731 3.919,4.815L3.365,5.355L3.315,5.417L2.94,5.794C2.033,6.721 1.603,7.852 1.973,9.797C2.581,12.988 5.362,17.318 10.959,22.913C16.79,28.743 21.233,31.508 24.44,31.953C26.309,32.213 27.262,31.761 28.234,30.765L28.976,30.016C29.323,29.653 29.62,29.323 29.871,29.022L30.213,28.591C31.088,27.426 31.168,26.727 30.794,26.073C30.651,25.824 30.444,25.551 30.143,25.217L29.734,24.786L29.492,24.544L26.94,22.079C26.087,21.293 25.505,21.181 24.62,21.417L24.364,21.491L23.307,21.85C20.24,22.84 18.028,22.36 14.77,19.103C11.395,15.729 11,13.476 12.13,10.233L12.203,10.024L12.403,9.42L12.502,9.035C12.677,8.196 12.477,7.612 11.576,6.711C11.539,6.674 11.498,6.632 11.452,6.586L9.082,4.136Z" clip-rule="evenodd" fill-rule="evenodd" fill="#FDC040"/>
</svg>
