<svg width="34" height="36" viewBox="0 0 34 36" fill="none" xmlns="http://www.w3.org/2000/svg" xmlns:xlink="http://www.w3.org/1999/xlink">
<path d="M1.386,3.812L1.507,3.685C4.719,0.473 6.811,-0.379 9.043,0.905C9.685,1.274 10.287,1.791 11.106,2.622L13.616,5.225C15.003,6.739 15.318,8.19 14.867,9.89L14.805,10.115L14.736,10.339L14.4,11.323C13.682,13.532 13.982,14.777 16.537,17.333C19.195,19.99 20.436,20.207 22.814,19.376L23.238,19.229L23.751,19.062L23.975,19C25.782,18.518 27.308,18.903 28.927,20.52L30.95,22.474L31.545,23.06C32.205,23.733 32.642,24.266 32.964,24.83C34.24,27.062 33.387,29.152 30.082,32.445L29.768,32.763C29.274,33.239 28.813,33.58 28.136,33.901C26.999,34.441 25.656,34.645 24.095,34.428C20.249,33.893 15.372,30.858 9.191,24.679C8.688,24.176 8.206,23.683 7.745,23.199L6.851,22.245C-1.532,13.137 -2.272,7.542 1.164,4.033L1.386,3.812ZM9.082,4.134C8.539,3.598 8.145,3.272 7.797,3.072C7.028,2.63 6.197,2.817 4.66,4.139L4.178,4.571C4.093,4.649 4.007,4.729 3.919,4.813L3.365,5.353L3.315,5.415L2.94,5.792C2.033,6.719 1.603,7.85 1.973,9.795C2.581,12.987 5.362,17.316 10.959,22.911C16.79,28.741 21.233,31.506 24.44,31.951C26.309,32.211 27.262,31.759 28.234,30.763L28.976,30.014C29.323,29.651 29.62,29.321 29.871,29.02L30.213,28.589C31.088,27.424 31.168,26.725 30.794,26.071C30.651,25.822 30.444,25.549 30.143,25.215L29.734,24.784L29.492,24.542L26.94,22.077C26.087,21.291 25.505,21.179 24.62,21.415L24.364,21.489L23.307,21.848C20.24,22.838 18.028,22.358 14.77,19.101C11.395,15.727 11,13.474 12.13,10.231L12.203,10.022L12.403,9.418L12.502,9.033C12.677,8.194 12.477,7.61 11.576,6.709C11.539,6.672 11.498,6.63 11.452,6.584L9.082,4.134Z" clip-rule="evenodd" fill-rule="evenodd" fill="#FDC040"/>
</svg>
