<svg width="34" height="36" viewBox="0 0 34 36" fill="none" xmlns="http://www.w3.org/2000/svg" xmlns:xlink="http://www.w3.org/1999/xlink">
<path d="M1.576,3.814L1.697,3.687C4.909,0.475 7.001,-0.377 9.233,0.907C9.875,1.276 10.477,1.793 11.295,2.624L13.806,5.227C15.193,6.741 15.508,8.192 15.056,9.892L14.994,10.117L14.925,10.341L14.589,11.325C13.871,13.534 14.171,14.779 16.727,17.335C19.385,19.992 20.625,20.209 23.004,19.378L23.428,19.231L23.941,19.064L24.165,19.002C25.972,18.52 27.498,18.904 29.116,20.522L31.139,22.476L31.735,23.062C32.395,23.735 32.831,24.268 33.154,24.832C34.429,27.064 33.577,29.154 30.272,32.447L29.957,32.765C29.464,33.241 29.003,33.582 28.325,33.903C27.189,34.443 25.845,34.647 24.285,34.43C20.439,33.895 15.561,30.86 9.381,24.681C8.878,24.178 8.396,23.685 7.935,23.201L7.04,22.247C-1.343,13.139 -2.082,7.544 1.353,4.035L1.576,3.814ZM9.272,4.136C8.729,3.6 8.334,3.274 7.987,3.074C7.217,2.632 6.387,2.819 4.85,4.141L4.367,4.573C4.283,4.651 4.197,4.731 4.108,4.815L3.555,5.355L3.505,5.417L3.129,5.794C2.222,6.721 1.792,7.852 2.163,9.797C2.77,12.988 5.552,17.318 11.148,22.913C16.98,28.743 21.423,31.508 24.629,31.953C26.498,32.213 27.451,31.761 28.424,30.765L29.165,30.016C29.513,29.653 29.81,29.323 30.061,29.022L30.403,28.591C31.277,27.426 31.357,26.727 30.983,26.073C30.841,25.824 30.634,25.551 30.333,25.217L29.924,24.786L29.682,24.544L27.13,22.079C26.277,21.293 25.694,21.181 24.809,21.417L24.554,21.491L23.497,21.85C20.43,22.84 18.217,22.36 14.959,19.103C11.585,15.729 11.189,13.476 12.32,10.233L12.392,10.024L12.593,9.42L12.691,9.035C12.866,8.196 12.667,7.612 11.766,6.711C11.728,6.674 11.687,6.632 11.642,6.586L9.272,4.136Z" clip-rule="evenodd" fill-rule="evenodd" fill="#3BB77E"/>
</svg>
