<svg width="34" height="36" viewBox="0 0 34 36" fill="none" xmlns="http://www.w3.org/2000/svg" xmlns:xlink="http://www.w3.org/1999/xlink">
<path d="M1.482,3.814L1.603,3.687C4.815,0.475 6.907,-0.377 9.139,0.907C9.781,1.276 10.383,1.793 11.202,2.624L13.712,5.227C15.099,6.741 15.414,8.192 14.963,9.892L14.9,10.117L14.831,10.341L14.496,11.325C13.777,13.534 14.077,14.779 16.633,17.335C19.291,19.992 20.532,20.209 22.91,19.378L23.334,19.231L23.847,19.064L24.071,19.002C25.878,18.52 27.404,18.904 29.023,20.522L31.046,22.476L31.641,23.062C32.301,23.735 32.738,24.268 33.06,24.832C34.335,27.064 33.483,29.154 30.178,32.447L29.863,32.765C29.37,33.241 28.909,33.582 28.232,33.903C27.095,34.443 25.752,34.647 24.191,34.43C20.345,33.895 15.468,30.86 9.287,24.681C8.784,24.178 8.302,23.685 7.841,23.201L6.946,22.247C-1.437,13.139 -2.176,7.544 1.259,4.035L1.482,3.814ZM9.178,4.136C8.635,3.6 8.241,3.274 7.893,3.074C7.124,2.632 6.293,2.819 4.756,4.141L4.273,4.573C4.189,4.651 4.103,4.731 4.015,4.815L3.461,5.355L3.411,5.417L3.036,5.794C2.128,6.721 1.699,7.852 2.069,9.797C2.677,12.988 5.458,17.318 11.055,22.913C16.886,28.743 21.329,31.508 24.535,31.953C26.404,32.213 27.358,31.761 28.33,30.765L29.071,30.016C29.419,29.653 29.716,29.323 29.967,29.022L30.309,28.591C31.183,27.426 31.263,26.727 30.889,26.073C30.747,25.824 30.54,25.551 30.239,25.217L29.83,24.786L29.588,24.544L27.036,22.079C26.183,21.293 25.6,21.181 24.716,21.417L24.46,21.491L23.403,21.85C20.336,22.84 18.124,22.36 14.866,19.103C11.491,15.729 11.095,13.476 12.226,10.233L12.299,10.024L12.499,9.42L12.598,9.035C12.773,8.196 12.573,7.612 11.672,6.711C11.635,6.674 11.593,6.632 11.548,6.586L9.178,4.136Z" clip-rule="evenodd" fill-rule="evenodd" fill="#3BB77E"/>
</svg>
