<svg width="34" height="36" viewBox="0 0 34 36" fill="none" xmlns="http://www.w3.org/2000/svg" xmlns:xlink="http://www.w3.org/1999/xlink">
<path d="M1.48,3.812L1.601,3.685C4.813,0.473 6.905,-0.379 9.137,0.905C9.779,1.274 10.381,1.791 11.2,2.622L13.71,5.225C15.097,6.739 15.412,8.19 14.961,9.89L14.898,10.115L14.829,10.339L14.494,11.323C13.775,13.532 14.075,14.777 16.631,17.333C19.289,19.99 20.53,20.207 22.908,19.376L23.332,19.229L23.845,19.062L24.069,19C25.876,18.518 27.402,18.903 29.021,20.52L31.044,22.474L31.639,23.06C32.299,23.733 32.736,24.266 33.058,24.83C34.333,27.062 33.481,29.152 30.176,32.445L29.861,32.763C29.368,33.239 28.907,33.58 28.23,33.901C27.093,34.441 25.75,34.645 24.189,34.428C20.343,33.893 15.466,30.858 9.285,24.679C8.782,24.176 8.3,23.683 7.839,23.199L6.944,22.245C-1.439,13.137 -2.178,7.542 1.257,4.033L1.48,3.812ZM9.176,4.134C8.633,3.598 8.239,3.272 7.891,3.072C7.122,2.63 6.291,2.817 4.754,4.139L4.271,4.571C4.187,4.649 4.101,4.729 4.013,4.813L3.459,5.353L3.409,5.415L3.034,5.792C2.126,6.719 1.697,7.85 2.067,9.795C2.675,12.987 5.456,17.316 11.053,22.911C16.884,28.741 21.327,31.506 24.533,31.951C26.402,32.211 27.356,31.759 28.328,30.763L29.069,30.014C29.417,29.651 29.714,29.321 29.965,29.02L30.307,28.589C31.181,27.424 31.261,26.725 30.887,26.071C30.745,25.822 30.538,25.549 30.237,25.215L29.828,24.784L29.586,24.542L27.034,22.077C26.181,21.291 25.598,21.179 24.714,21.415L24.458,21.489L23.401,21.848C20.334,22.838 18.122,22.358 14.864,19.101C11.489,15.727 11.093,13.474 12.224,10.231L12.297,10.022L12.497,9.418L12.596,9.033C12.771,8.194 12.571,7.61 11.67,6.709C11.633,6.672 11.591,6.63 11.546,6.584L9.176,4.134Z" clip-rule="evenodd" fill-rule="evenodd" fill="#3BB77E"/>
</svg>
