<svg width="34" height="36" viewBox="0 0 34 36" fill="none" xmlns="http://www.w3.org/2000/svg" xmlns:xlink="http://www.w3.org/1999/xlink">
<path d="M1.482,3.812L1.603,3.685C4.815,0.473 6.907,-0.379 9.139,0.905C9.781,1.274 10.383,1.791 11.202,2.622L13.712,5.225C15.099,6.739 15.414,8.19 14.963,9.89L14.9,10.115L14.831,10.339L14.496,11.323C13.777,13.532 14.077,14.777 16.633,17.333C19.291,19.99 20.532,20.207 22.91,19.376L23.334,19.229L23.847,19.062L24.071,19C25.878,18.518 27.404,18.903 29.023,20.52L31.046,22.474L31.641,23.06C32.301,23.733 32.738,24.266 33.06,24.83C34.335,27.062 33.483,29.152 30.178,32.445L29.863,32.763C29.37,33.239 28.909,33.58 28.232,33.901C27.095,34.441 25.752,34.645 24.191,34.428C20.345,33.893 15.468,30.858 9.287,24.679C8.784,24.176 8.302,23.683 7.841,23.199L6.946,22.245C-1.437,13.137 -2.176,7.542 1.259,4.033L1.482,3.812ZM9.178,4.134C8.635,3.598 8.241,3.272 7.893,3.072C7.124,2.63 6.293,2.817 4.756,4.139L4.273,4.571C4.189,4.649 4.103,4.729 4.015,4.813L3.461,5.353L3.411,5.415L3.036,5.792C2.128,6.719 1.699,7.85 2.069,9.795C2.677,12.987 5.458,17.316 11.055,22.911C16.886,28.741 21.329,31.506 24.535,31.951C26.404,32.211 27.358,31.759 28.33,30.763L29.071,30.014C29.419,29.651 29.716,29.321 29.967,29.02L30.309,28.589C31.183,27.424 31.263,26.725 30.889,26.071C30.747,25.822 30.54,25.549 30.239,25.215L29.83,24.784L29.588,24.542L27.036,22.077C26.183,21.291 25.6,21.179 24.716,21.415L24.46,21.489L23.403,21.848C20.336,22.838 18.124,22.358 14.866,19.101C11.491,15.727 11.095,13.474 12.226,10.231L12.299,10.022L12.499,9.418L12.598,9.033C12.773,8.194 12.573,7.61 11.672,6.709C11.635,6.672 11.593,6.63 11.548,6.584L9.178,4.134Z" clip-rule="evenodd" fill-rule="evenodd" fill="#3BB77E"/>
</svg>
