<svg width="34" height="36" viewBox="0 0 34 36" fill="none" xmlns="http://www.w3.org/2000/svg" xmlns:xlink="http://www.w3.org/1999/xlink">
<path d="M1.385,3.812L1.506,3.685C4.718,0.473 6.81,-0.379 9.042,0.905C9.684,1.274 10.286,1.791 11.105,2.622L13.615,5.225C15.002,6.739 15.317,8.19 14.866,9.89L14.804,10.115L14.735,10.339L14.399,11.323C13.681,13.532 13.981,14.777 16.536,17.333C19.194,19.99 20.435,20.207 22.814,19.376L23.238,19.229L23.75,19.062L23.975,19C25.781,18.518 27.307,18.903 28.926,20.52L30.949,22.474L31.544,23.06C32.205,23.733 32.641,24.266 32.963,24.83C34.239,27.062 33.386,29.152 30.081,32.445L29.767,32.763C29.273,33.239 28.812,33.58 28.135,33.901C26.998,34.441 25.655,34.645 24.094,34.428C20.249,33.893 15.371,30.858 9.19,24.679C8.687,24.176 8.205,23.683 7.744,23.199L6.85,22.245C-1.533,13.137 -2.273,7.542 1.163,4.033L1.385,3.812ZM9.081,4.134C8.538,3.598 8.144,3.272 7.796,3.072C7.027,2.63 6.196,2.817 4.659,4.139L4.177,4.571C4.092,4.649 4.006,4.729 3.918,4.813L3.364,5.353L3.314,5.415L2.939,5.792C2.032,6.719 1.602,7.85 1.972,9.795C2.58,12.987 5.361,17.316 10.958,22.911C16.789,28.741 21.233,31.506 24.439,31.951C26.308,32.211 27.261,31.759 28.233,30.763L28.975,30.014C29.322,29.651 29.619,29.321 29.87,29.02L30.212,28.589C31.087,27.424 31.167,26.725 30.793,26.071C30.651,25.822 30.444,25.549 30.142,25.215L29.733,24.784L29.492,24.542L26.94,22.077C26.087,21.291 25.504,21.179 24.619,21.415L24.364,21.489L23.306,21.848C20.24,22.838 18.027,22.358 14.769,19.101C11.394,15.727 10.999,13.474 12.129,10.231L12.202,10.022L12.402,9.418L12.501,9.033C12.676,8.194 12.476,7.61 11.575,6.709C11.538,6.672 11.497,6.63 11.451,6.584L9.081,4.134Z" clip-rule="evenodd" fill-rule="evenodd" fill="#FDC040"/>
</svg>
