<svg width="34" height="36" viewBox="0 0 34 36" fill="none" xmlns="http://www.w3.org/2000/svg" xmlns:xlink="http://www.w3.org/1999/xlink">
<path d="M1.574,3.812L1.695,3.685C4.907,0.473 6.999,-0.379 9.231,0.905C9.873,1.274 10.475,1.791 11.293,2.622L13.804,5.225C15.191,6.739 15.506,8.19 15.054,9.89L14.992,10.115L14.923,10.339L14.588,11.323C13.869,13.532 14.169,14.777 16.725,17.333C19.383,19.99 20.623,20.207 23.002,19.376L23.426,19.229L23.939,19.062L24.163,19C25.97,18.518 27.496,18.903 29.114,20.52L31.137,22.474L31.733,23.06C32.393,23.733 32.829,24.266 33.152,24.83C34.427,27.062 33.575,29.152 30.27,32.445L29.955,32.763C29.462,33.239 29.001,33.58 28.323,33.901C27.187,34.441 25.843,34.645 24.283,34.428C20.437,33.893 15.559,30.858 9.379,24.679C8.876,24.176 8.394,23.683 7.933,23.199L7.038,22.245C-1.345,13.137 -2.084,7.542 1.351,4.033L1.574,3.812ZM9.27,4.134C8.727,3.598 8.332,3.272 7.985,3.072C7.215,2.63 6.385,2.817 4.848,4.139L4.365,4.571C4.281,4.649 4.195,4.729 4.106,4.813L3.553,5.353L3.503,5.415L3.127,5.792C2.22,6.719 1.79,7.85 2.161,9.795C2.768,12.987 5.55,17.316 11.146,22.911C16.978,28.741 21.421,31.506 24.627,31.951C26.496,32.211 27.449,31.759 28.422,30.763L29.163,30.014C29.511,29.651 29.808,29.321 30.059,29.02L30.401,28.589C31.275,27.424 31.355,26.725 30.981,26.071C30.839,25.822 30.632,25.549 30.331,25.215L29.922,24.784L29.68,24.542L27.128,22.077C26.275,21.291 25.692,21.179 24.807,21.415L24.552,21.489L23.495,21.848C20.428,22.838 18.215,22.358 14.957,19.101C11.583,15.727 11.187,13.474 12.318,10.231L12.39,10.022L12.591,9.418L12.69,9.033C12.864,8.194 12.665,7.61 11.764,6.709C11.726,6.672 11.685,6.63 11.64,6.584L9.27,4.134Z" clip-rule="evenodd" fill-rule="evenodd" fill="#3BB77E"/>
</svg>
