<svg width="34" height="36" viewBox="0 0 34 36" fill="none" xmlns="http://www.w3.org/2000/svg" xmlns:xlink="http://www.w3.org/1999/xlink">
<path d="M1.578,3.812L1.698,3.685C4.911,0.473 7.003,-0.379 9.235,0.905C9.877,1.274 10.479,1.791 11.297,2.622L13.808,5.225C15.195,6.739 15.51,8.19 15.058,9.89L14.996,10.115L14.927,10.339L14.591,11.323C13.873,13.532 14.173,14.777 16.729,17.333C19.387,19.99 20.627,20.207 23.006,19.376L23.43,19.229L23.942,19.062L24.167,19C25.973,18.518 27.5,18.903 29.118,20.52L31.141,22.474L31.737,23.06C32.397,23.733 32.833,24.266 33.155,24.83C34.431,27.062 33.578,29.152 30.273,32.445L29.959,32.763C29.466,33.239 29.005,33.58 28.327,33.901C27.19,34.441 25.847,34.645 24.287,34.428C20.441,33.893 15.563,30.858 9.383,24.679C8.88,24.176 8.398,23.683 7.937,23.199L7.042,22.245C-1.341,13.137 -2.08,7.542 1.355,4.033L1.578,3.812ZM9.274,4.134C8.731,3.598 8.336,3.272 7.989,3.072C7.219,2.63 6.389,2.817 4.852,4.139L4.369,4.571C4.285,4.649 4.198,4.729 4.11,4.813L3.557,5.353L3.507,5.415L3.131,5.792C2.224,6.719 1.794,7.85 2.165,9.795C2.772,12.987 5.554,17.316 11.15,22.911C16.982,28.741 21.425,31.506 24.631,31.951C26.5,32.211 27.453,31.759 28.426,30.763L29.167,30.014C29.515,29.651 29.812,29.321 30.063,29.02L30.405,28.589C31.279,27.424 31.359,26.725 30.985,26.071C30.843,25.822 30.636,25.549 30.334,25.215L29.926,24.784L29.684,24.542L27.132,22.077C26.279,21.291 25.696,21.179 24.811,21.415L24.556,21.489L23.499,21.848C20.432,22.838 18.219,22.358 14.961,19.101C11.587,15.727 11.191,13.474 12.322,10.231L12.394,10.022L12.595,9.418L12.693,9.033C12.868,8.194 12.669,7.61 11.768,6.709C11.73,6.672 11.689,6.63 11.644,6.584L9.274,4.134Z" clip-rule="evenodd" fill-rule="evenodd" fill="#FDC040"/>
</svg>
