<svg width="34" height="36" viewBox="0 0 34 36" fill="none" xmlns="http://www.w3.org/2000/svg" xmlns:xlink="http://www.w3.org/1999/xlink">
<path d="M1.574,3.813L1.695,3.686C4.907,0.474 6.999,-0.378 9.231,0.906C9.873,1.275 10.475,1.792 11.293,2.623L13.804,5.226C15.191,6.74 15.506,8.191 15.054,9.891L14.992,10.116L14.923,10.34L14.588,11.324C13.869,13.533 14.169,14.778 16.725,17.334C19.383,19.991 20.623,20.208 23.002,19.377L23.426,19.23L23.939,19.063L24.163,19.001C25.97,18.519 27.496,18.904 29.114,20.521L31.137,22.475L31.733,23.061C32.393,23.734 32.829,24.267 33.152,24.831C34.427,27.063 33.575,29.153 30.27,32.446L29.955,32.764C29.462,33.24 29.001,33.581 28.323,33.902C27.187,34.442 25.843,34.646 24.283,34.429C20.437,33.894 15.559,30.859 9.379,24.68C8.876,24.177 8.394,23.684 7.933,23.2L7.038,22.246C-1.345,13.138 -2.084,7.543 1.351,4.034L1.574,3.813ZM9.27,4.135C8.727,3.599 8.332,3.273 7.985,3.073C7.215,2.631 6.385,2.818 4.848,4.14L4.365,4.572C4.281,4.65 4.195,4.73 4.106,4.814L3.553,5.354L3.503,5.416L3.127,5.793C2.22,6.72 1.79,7.851 2.161,9.796C2.768,12.987 5.55,17.317 11.146,22.912C16.978,28.742 21.421,31.507 24.627,31.952C26.496,32.212 27.449,31.76 28.422,30.764L29.163,30.015C29.511,29.652 29.808,29.322 30.059,29.021L30.401,28.59C31.275,27.425 31.355,26.726 30.981,26.072C30.839,25.823 30.632,25.55 30.331,25.216L29.922,24.785L29.68,24.543L27.128,22.078C26.275,21.292 25.692,21.18 24.807,21.416L24.552,21.49L23.495,21.849C20.428,22.839 18.215,22.359 14.957,19.102C11.583,15.728 11.187,13.475 12.318,10.232L12.39,10.023L12.591,9.419L12.69,9.034C12.864,8.195 12.665,7.611 11.764,6.71C11.726,6.673 11.685,6.631 11.64,6.585L9.27,4.135Z" clip-rule="evenodd" fill-rule="evenodd" fill="#3BB77E"/>
</svg>
