<svg width="34" height="32" viewBox="0 0 34 32" fill="none" xmlns="http://www.w3.org/2000/svg" xmlns:xlink="http://www.w3.org/1999/xlink">
<path d="M30.56,-0.061C31.146,0.525 31.146,1.475 30.56,2.061L28.621,4L32.06,7.439C32.646,8.025 32.646,8.975 32.06,9.561L26.81,14.811C26.224,15.396 25.275,15.396 24.689,14.811L21.249,11.371L17.13,15.491C17.591,16.115 17.977,16.793 18.279,17.511C18.777,18.697 19.036,19.969 19.04,21.255C19.044,22.541 18.794,23.815 18.304,25.004C17.814,26.192 17.094,27.273 16.184,28.182C15.275,29.091 14.195,29.812 13.006,30.302C11.817,30.792 10.543,31.042 9.257,31.038C7.971,31.033 6.699,30.775 5.514,30.277C4.328,29.778 3.253,29.051 2.35,28.136L2.338,28.124C0.562,26.285 -0.42,23.822 -0.398,21.266C-0.376,18.709 0.65,16.264 2.457,14.456C4.265,12.649 6.71,11.623 9.267,11.601C11.326,11.583 13.325,12.217 14.985,13.393L28.439,-0.061C29.025,-0.646 29.974,-0.646 30.56,-0.061ZM26.499,6.121L23.371,9.25L25.749,11.629L28.878,8.5L26.499,6.121ZM4.491,26.034C3.265,24.762 2.586,23.059 2.602,21.292C2.617,19.522 3.327,17.829 4.579,16.578C5.83,15.326 7.523,14.616 9.293,14.601C11.063,14.586 12.768,15.266 14.041,16.495C14.682,17.115 15.17,17.857 15.513,18.673C15.858,19.494 16.037,20.375 16.04,21.265C16.043,22.155 15.87,23.037 15.531,23.86C15.191,24.683 14.692,25.431 14.063,26.061C13.434,26.69 12.686,27.189 11.863,27.528C11.04,27.867 10.158,28.041 9.267,28.038C8.377,28.035 7.496,27.856 6.676,27.511C5.857,27.167 5.115,26.665 4.491,26.034ZM4.491,26.034L4.496,26.04L4.485,26.028L4.491,26.034Z" clip-rule="evenodd" fill-rule="evenodd" fill="#ADADAD"/>
</svg>
