<svg width="32" height="24" viewBox="0 0 32 24" fill="none" xmlns="http://www.w3.org/2000/svg" xmlns:xlink="http://www.w3.org/1999/xlink">
<path d="M21.898,14.411C21.898,13.294 21.619,12.235 21.06,11.236C20.518,10.254 19.769,9.395 18.812,8.658C17.856,7.922 16.734,7.342 15.447,6.918C14.16,6.495 12.789,6.284 11.332,6.284C10.299,6.284 9.305,6.394 8.348,6.614C7.391,6.834 6.498,7.147 5.668,7.553C5.126,7.232 4.475,6.94 3.713,6.677C2.951,6.415 2.104,6.284 1.173,6.284C1.088,6.284 1.012,6.305 0.944,6.347C0.876,6.389 0.826,6.453 0.792,6.538C0.758,6.605 0.749,6.681 0.766,6.766C0.783,6.851 0.817,6.918 0.868,6.969C0.885,6.969 1.109,7.24 1.541,7.782C1.973,8.324 2.358,8.976 2.697,9.738C2.087,10.398 1.613,11.126 1.274,11.922C0.936,12.718 0.766,13.548 0.766,14.411C0.766,15.529 1.046,16.587 1.604,17.586C2.146,18.568 2.896,19.428 3.852,20.164C4.809,20.901 5.931,21.481 7.218,21.904C8.505,22.327 9.876,22.539 11.332,22.539C12.789,22.539 14.16,22.327 15.447,21.904C16.734,21.481 17.856,20.901 18.812,20.164C19.769,19.428 20.518,18.568 21.06,17.586C21.619,16.587 21.898,15.529 21.898,14.411ZM28.096,3.236C28.435,2.474 28.82,1.822 29.252,1.28C29.683,0.738 29.908,0.467 29.925,0.467C29.975,0.399 30.009,0.327 30.026,0.251C30.043,0.175 30.035,0.103 30.001,0.035C29.967,-0.049 29.916,-0.113 29.848,-0.155C29.781,-0.198 29.705,-0.219 29.62,-0.219C28.689,-0.219 27.842,-0.087 27.08,0.175C26.318,0.437 25.666,0.73 25.124,1.051C24.294,0.645 23.406,0.332 22.457,0.111C21.509,-0.109 20.51,-0.219 19.46,-0.219C18.36,-0.219 17.31,-0.1 16.311,0.137C15.312,0.391 14.389,0.738 13.542,1.178C12.695,1.619 11.95,2.143 11.307,2.753C10.647,3.363 10.122,4.031 9.732,4.76C9.986,4.726 10.249,4.7 10.52,4.683C10.791,4.666 11.061,4.658 11.332,4.658C13.009,4.658 14.592,4.912 16.082,5.42C17.555,5.928 18.842,6.626 19.943,7.515C21.043,8.404 21.915,9.441 22.559,10.627C23.202,11.812 23.524,13.074 23.524,14.411C23.524,14.581 23.52,14.75 23.511,14.919C23.503,15.089 23.482,15.258 23.448,15.427C24.413,15.122 25.302,14.725 26.115,14.233C26.911,13.726 27.601,13.146 28.185,12.494C28.769,11.842 29.222,11.126 29.544,10.347C29.865,9.568 30.026,8.756 30.026,7.909C30.026,7.045 29.857,6.216 29.518,5.42C29.18,4.624 28.706,3.896 28.096,3.236Z" fill="#EEC044"/>
</svg>
