<svg width="34" height="34" viewBox="0 0 34 34" fill="none" xmlns="http://www.w3.org/2000/svg" xmlns:xlink="http://www.w3.org/1999/xlink">
<path d="M27.834,32.395C27.699,32.395 27.564,32.395 27.414,32.38C22.569,31.855 17.859,30.175 13.794,27.535C10.014,25.135 6.744,21.865 4.344,18.085C1.704,14.005 0.024,9.28 -0.486,4.435C-0.546,3.79 -0.471,3.175 -0.276,2.575C-0.081,1.975 0.249,1.435 0.669,0.97C1.089,0.505 1.599,0.145 2.169,-0.11C2.754,-0.365 3.369,-0.5 3.999,-0.5L8.499,-0.5C9.549,-0.5 10.629,-0.125 11.469,0.595C12.294,1.3 12.834,2.29 12.984,3.37C13.164,4.705 13.494,6.025 13.959,7.27C14.259,8.08 14.334,8.95 14.139,9.79C13.959,10.63 13.539,11.41 12.939,12.01L11.859,13.09C13.629,15.85 15.969,18.205 18.744,19.975L19.824,18.895C20.439,18.28 21.219,17.86 22.059,17.695C22.899,17.515 23.769,17.575 24.579,17.875C25.824,18.34 27.144,18.67 28.464,18.85C29.574,19 30.564,19.555 31.284,20.395C31.989,21.235 32.379,22.3 32.349,23.395L32.349,27.88C32.349,28.51 32.229,29.11 31.974,29.695C31.719,30.265 31.344,30.79 30.894,31.21C30.429,31.63 29.889,31.96 29.289,32.155C28.809,32.32 28.329,32.395 27.834,32.395ZM8.529,2.5L8.514,2.5L3.999,2.5C3.789,2.5 3.594,2.545 3.399,2.635C3.204,2.71 3.024,2.83 2.889,2.98C2.739,3.13 2.634,3.31 2.574,3.52C2.514,3.715 2.484,3.925 2.499,4.135C2.964,8.5 4.479,12.76 6.864,16.465C9.039,19.885 11.994,22.84 15.414,25.015C19.104,27.415 23.364,28.915 27.714,29.395C27.894,29.41 28.104,29.38 28.299,29.32C28.494,29.26 28.674,29.14 28.839,29.005C29.004,28.87 29.124,28.69 29.199,28.495C29.289,28.3 29.319,28.09 29.319,27.88L29.319,23.38C29.319,23.365 29.319,23.35 29.319,23.35C29.334,22.975 29.199,22.63 28.959,22.345C28.719,22.06 28.389,21.88 28.029,21.835C26.499,21.64 24.969,21.25 23.499,20.71C23.229,20.605 22.929,20.59 22.659,20.65C22.374,20.71 22.119,20.845 21.909,21.055L20.019,22.96C19.539,23.44 18.804,23.53 18.219,23.2C14.229,20.935 10.929,17.62 8.649,13.645C8.334,13.015 8.424,12.28 8.904,11.8L10.809,9.895C11.004,9.7 11.139,9.445 11.199,9.16C11.259,8.875 11.244,8.59 11.139,8.32C10.584,6.85 10.209,5.32 9.999,3.775C9.954,3.43 9.774,3.1 9.504,2.86C9.234,2.635 8.889,2.5 8.529,2.5Z" fill="#3BB77E"/>
</svg>
