<svg width="20" height="44" viewBox="0 0 20 44" fill="none" xmlns="http://www.w3.org/2000/svg" xmlns:xlink="http://www.w3.org/1999/xlink">
<path d="M10.711,19.036C7.34,18.227 6.953,17.906 6.953,15.906C6.953,13.255 10.848,11.946 12.437,14.079C13.446,15.424 15.359,15.698 16.704,14.686C18.049,13.678 18.319,11.767 17.311,10.419C16.227,8.975 14.717,7.955 13.047,7.357L13.047,3.719C13.047,2.035 11.684,0.672 10,0.672C8.316,0.672 6.953,2.035 6.953,3.719L6.953,7.327C3.414,8.589 0.859,11.939 0.859,15.906C0.859,22.937 6.135,24.205 9.289,24.964C12.66,25.773 13.047,26.094 13.047,28.094C13.047,29.775 11.681,31.141 10,31.141C9.033,31.141 8.143,30.697 7.563,29.921C6.554,28.576 4.65,28.311 3.296,29.314C1.951,30.322 1.681,32.233 2.689,33.58C3.773,35.025 5.283,36.045 6.953,36.643L6.953,40.281C6.953,41.965 8.316,43.328 10,43.328C11.684,43.328 13.047,41.965 13.047,40.281L13.047,36.673C16.586,35.411 19.141,32.061 19.141,28.094C19.141,21.063 13.865,19.795 10.711,19.036L10.711,19.036Z" fill="url(#pf_0_2985_752)"/>
<defs>
<linearGradient id="pf_0_2985_752" x1="10" y1="43.328" x2="10" y2="0.672" gradientUnits="userSpaceOnUse">
<stop stop-color="#C3FFE8"/>
<stop offset="0.997" stop-color="#F0FFF4"/>
</linearGradient>
</defs>
</svg>
