<svg width="34" height="34" viewBox="0 0 34 34" fill="none" xmlns="http://www.w3.org/2000/svg" xmlns:xlink="http://www.w3.org/1999/xlink">
<path d="M27.836,32.395C27.701,32.395 27.566,32.395 27.416,32.38C22.571,31.855 17.861,30.175 13.796,27.535C10.016,25.135 6.746,21.865 4.346,18.085C1.706,14.005 0.026,9.28 -0.484,4.435C-0.544,3.79 -0.469,3.175 -0.274,2.575C-0.079,1.975 0.251,1.435 0.671,0.97C1.091,0.505 1.601,0.145 2.171,-0.11C2.756,-0.365 3.371,-0.5 4.001,-0.5L8.501,-0.5C9.551,-0.5 10.631,-0.125 11.471,0.595C12.296,1.3 12.836,2.29 12.986,3.37C13.166,4.705 13.496,6.025 13.961,7.27C14.261,8.08 14.336,8.95 14.141,9.79C13.961,10.63 13.541,11.41 12.941,12.01L11.861,13.09C13.631,15.85 15.971,18.205 18.746,19.975L19.826,18.895C20.441,18.28 21.221,17.86 22.061,17.695C22.901,17.515 23.771,17.575 24.581,17.875C25.826,18.34 27.146,18.67 28.466,18.85C29.576,19 30.566,19.555 31.286,20.395C31.991,21.235 32.381,22.3 32.351,23.395L32.351,27.88C32.351,28.51 32.231,29.11 31.976,29.695C31.721,30.265 31.346,30.79 30.896,31.21C30.431,31.63 29.891,31.96 29.291,32.155C28.811,32.32 28.331,32.395 27.836,32.395ZM8.531,2.5L8.516,2.5L4.001,2.5C3.791,2.5 3.596,2.545 3.401,2.635C3.206,2.71 3.026,2.83 2.891,2.98C2.741,3.13 2.636,3.31 2.576,3.52C2.516,3.715 2.486,3.925 2.501,4.135C2.966,8.5 4.481,12.76 6.866,16.465C9.041,19.885 11.996,22.84 15.416,25.015C19.106,27.415 23.366,28.915 27.716,29.395C27.896,29.41 28.106,29.38 28.301,29.32C28.496,29.26 28.676,29.14 28.841,29.005C29.006,28.87 29.126,28.69 29.201,28.495C29.291,28.3 29.321,28.09 29.321,27.88L29.321,23.38C29.321,23.365 29.321,23.35 29.321,23.35C29.336,22.975 29.201,22.63 28.961,22.345C28.721,22.06 28.391,21.88 28.031,21.835C26.501,21.64 24.971,21.25 23.501,20.71C23.231,20.605 22.931,20.59 22.661,20.65C22.376,20.71 22.121,20.845 21.911,21.055L20.021,22.96C19.541,23.44 18.806,23.53 18.221,23.2C14.231,20.935 10.931,17.62 8.651,13.645C8.336,13.015 8.426,12.28 8.906,11.8L10.811,9.895C11.006,9.7 11.141,9.445 11.201,9.16C11.261,8.875 11.246,8.59 11.141,8.32C10.586,6.85 10.211,5.32 10.001,3.775C9.956,3.43 9.776,3.1 9.506,2.86C9.236,2.635 8.891,2.5 8.531,2.5Z" fill="#3BB77E"/>
</svg>
