<svg width="26" height="26" viewBox="0 0 26 26" fill="none" xmlns="http://www.w3.org/2000/svg" xmlns:xlink="http://www.w3.org/1999/xlink">
<path d="M11.91,25.75C13.653,25.75 15.286,25.42 16.809,24.76C18.332,24.1 19.665,23.199 20.807,22.057C21.949,20.915 22.85,19.582 23.51,18.059C24.17,16.536 24.5,14.903 24.5,13.16C24.5,11.417 24.17,9.784 23.51,8.261C22.85,6.738 21.949,5.405 20.807,4.263C19.665,3.121 18.332,2.22 16.809,1.56C15.286,0.9 13.653,0.57 11.91,0.57C10.167,0.57 8.534,0.9 7.011,1.56C5.488,2.22 4.156,3.121 3.014,4.263C1.871,5.405 0.97,6.738 0.31,8.261C-0.35,9.784 -0.68,11.417 -0.68,13.16C-0.68,14.903 -0.35,16.536 0.31,18.059C0.97,19.582 1.871,20.915 3.014,22.057C4.156,23.199 5.488,24.1 7.011,24.76C8.534,25.42 10.167,25.75 11.91,25.75ZM11.91,20.876C10.675,20.876 9.622,20.441 8.75,19.569C7.879,18.698 7.443,17.644 7.443,16.409C7.443,15.174 7.879,14.12 8.75,13.249C9.622,12.377 10.675,11.942 11.91,11.942C13.146,11.942 14.199,12.377 15.071,13.249C15.942,14.12 16.378,15.174 16.378,16.409C16.378,17.644 15.942,18.698 15.071,19.569C14.199,20.441 13.146,20.876 11.91,20.876ZM11.91,3.413C12.655,3.413 13.374,3.498 14.068,3.667C14.779,3.819 15.447,4.047 16.073,4.352C16.699,4.657 17.292,5.02 17.85,5.444C18.408,5.867 18.908,6.34 19.348,6.865C18.874,7.762 18.193,8.494 17.304,9.061C16.416,9.628 15.43,9.911 14.347,9.911C14.279,9.911 14.216,9.907 14.157,9.898C14.097,9.89 14.042,9.877 13.992,9.86C13.653,9.759 13.311,9.674 12.964,9.606C12.617,9.539 12.266,9.505 11.91,9.505C11.555,9.505 11.204,9.539 10.857,9.606C10.51,9.674 10.167,9.759 9.829,9.86C9.778,9.877 9.723,9.89 9.664,9.898C9.605,9.907 9.541,9.911 9.474,9.911C8.391,9.911 7.405,9.628 6.516,9.061C5.628,8.494 4.947,7.762 4.473,6.865C4.913,6.34 5.412,5.867 5.971,5.444C6.529,5.02 7.121,4.657 7.747,4.352C8.374,4.047 9.042,3.819 9.753,3.667C10.447,3.498 11.166,3.413 11.91,3.413Z" fill="#EEC044"/>
</svg>
