<svg width="12" height="10" viewBox="0 0 12 10" fill="none" xmlns="http://www.w3.org/2000/svg" xmlns:xlink="http://www.w3.org/1999/xlink">
<path d="M10.569,1.945C10.96,1.555 10.96,0.922 10.569,0.531C10.179,0.141 9.546,0.141 9.155,0.531L10.569,1.945ZM3.493,7.608L2.786,8.315C3.176,8.705 3.809,8.705 4.2,8.315L3.493,7.608ZM1.305,4.005C0.914,3.615 0.281,3.615 -0.109,4.005C-0.5,4.396 -0.5,5.029 -0.109,5.42L1.305,4.005ZM9.155,0.531L2.786,6.901L4.2,8.315L10.569,1.945L9.155,0.531ZM4.2,6.901L1.305,4.005L-0.109,5.42L2.786,8.315L4.2,6.901Z" fill="#FFFFFF"/>
</svg>
