<svg width="30" height="24" viewBox="0 0 30 24" fill="none" xmlns="http://www.w3.org/2000/svg" xmlns:xlink="http://www.w3.org/1999/xlink">
<path d="M20.398,14.411C20.398,13.294 20.119,12.235 19.56,11.236C19.018,10.254 18.269,9.395 17.312,8.658C16.356,7.922 15.234,7.342 13.947,6.918C12.66,6.495 11.289,6.284 9.832,6.284C8.799,6.284 7.805,6.394 6.848,6.614C5.891,6.834 4.998,7.147 4.168,7.553C3.626,7.232 2.975,6.94 2.213,6.677C1.451,6.415 0.604,6.284 -0.327,6.284C-0.412,6.284 -0.488,6.305 -0.556,6.347C-0.624,6.389 -0.674,6.453 -0.708,6.538C-0.742,6.605 -0.751,6.681 -0.734,6.766C-0.717,6.851 -0.683,6.918 -0.632,6.969C-0.615,6.969 -0.391,7.24 0.041,7.782C0.473,8.324 0.858,8.976 1.197,9.738C0.587,10.398 0.113,11.126 -0.226,11.922C-0.564,12.718 -0.734,13.548 -0.734,14.411C-0.734,15.529 -0.454,16.587 0.104,17.586C0.646,18.568 1.396,19.428 2.352,20.164C3.309,20.901 4.431,21.481 5.718,21.904C7.005,22.327 8.376,22.539 9.832,22.539C11.289,22.539 12.66,22.327 13.947,21.904C15.234,21.481 16.356,20.901 17.312,20.164C18.269,19.428 19.018,18.568 19.56,17.586C20.119,16.587 20.398,15.529 20.398,14.411ZM26.596,3.236C26.935,2.474 27.32,1.822 27.752,1.28C28.183,0.738 28.408,0.467 28.425,0.467C28.475,0.399 28.509,0.327 28.526,0.251C28.543,0.175 28.535,0.103 28.501,0.035C28.467,-0.049 28.416,-0.113 28.348,-0.155C28.281,-0.198 28.205,-0.219 28.12,-0.219C27.189,-0.219 26.342,-0.087 25.58,0.175C24.818,0.437 24.166,0.73 23.624,1.051C22.794,0.645 21.906,0.332 20.957,0.111C20.009,-0.109 19.01,-0.219 17.96,-0.219C16.86,-0.219 15.81,-0.1 14.811,0.137C13.812,0.391 12.889,0.738 12.042,1.178C11.195,1.619 10.45,2.143 9.807,2.753C9.147,3.363 8.622,4.031 8.232,4.76C8.486,4.726 8.749,4.7 9.02,4.683C9.291,4.666 9.561,4.658 9.832,4.658C11.509,4.658 13.092,4.912 14.582,5.42C16.055,5.928 17.342,6.626 18.443,7.515C19.543,8.404 20.415,9.441 21.059,10.627C21.702,11.812 22.024,13.074 22.024,14.411C22.024,14.581 22.02,14.75 22.011,14.919C22.003,15.089 21.982,15.258 21.948,15.427C22.913,15.122 23.802,14.725 24.615,14.233C25.411,13.726 26.101,13.146 26.685,12.494C27.269,11.842 27.722,11.126 28.044,10.347C28.365,9.568 28.526,8.756 28.526,7.909C28.526,7.045 28.357,6.216 28.018,5.42C27.68,4.624 27.206,3.896 26.596,3.236Z" fill="#EEC044"/>
</svg>
