<svg width="104" height="104" viewBox="0 0 104 104" fill="none" xmlns="http://www.w3.org/2000/svg" xmlns:xlink="http://www.w3.org/1999/xlink">
<path d="M104,52.203C104,26.248 84.639,4.164 58.963,0.835C57.392,0.614 55.991,1.614 55.616,3.117L52.62,15.105C52.167,16.904 53.424,18.708 55.304,18.878C72.645,20.419 85.719,34.746 85.719,52.203C85.719,63.441 80.071,73.888 70.815,80.065L66.828,74.751C65.305,72.713 62.055,73.34 61.436,75.84L55.342,100.215C54.86,102.131 56.313,104 58.297,104L82.672,104C85.185,104 86.61,101.123 85.109,99.126L81.815,94.731C95.77,85.037 104,69.375 104,52.203L104,52.203ZM48.696,85.122C31.355,83.581 18.281,69.254 18.281,51.797C18.281,40.559 23.929,30.112 33.185,23.935L37.172,29.249C38.681,31.263 41.941,30.68 42.564,28.16L48.658,3.785C49.14,1.869 47.687,0 45.703,0L21.328,0C18.815,0 17.39,2.877 18.891,4.874L22.185,9.269C8.23,18.963 0,34.625 0,51.797C0,77.752 19.361,99.836 45.037,103.165C46.553,103.368 48.006,102.398 48.384,100.883L51.38,88.895C51.833,87.096 50.576,85.292 48.696,85.122L48.696,85.122Z" fill="url(#pf_0_2985_755)"/>
<defs>
<linearGradient id="pf_0_2985_755" x1="52" y1="104" x2="52" y2="0" gradientUnits="userSpaceOnUse">
<stop stop-color="#00B59C"/>
<stop offset="1" stop-color="#9CFFAC"/>
</linearGradient>
</defs>
</svg>
