<svg width="34" height="34" viewBox="0 0 34 34" fill="none" xmlns="http://www.w3.org/2000/svg" xmlns:xlink="http://www.w3.org/1999/xlink">
<path d="M27.835,32.395C27.7,32.395 27.565,32.395 27.415,32.38C22.57,31.855 17.86,30.175 13.795,27.535C10.015,25.135 6.745,21.865 4.345,18.085C1.705,14.005 0.025,9.28 -0.485,4.435C-0.545,3.79 -0.47,3.175 -0.275,2.575C-0.08,1.975 0.25,1.435 0.67,0.97C1.09,0.505 1.6,0.145 2.17,-0.11C2.755,-0.365 3.37,-0.5 4,-0.5L8.5,-0.5C9.55,-0.5 10.63,-0.125 11.47,0.595C12.295,1.3 12.835,2.29 12.985,3.37C13.165,4.705 13.495,6.025 13.96,7.27C14.26,8.08 14.335,8.95 14.14,9.79C13.96,10.63 13.54,11.41 12.94,12.01L11.86,13.09C13.63,15.85 15.97,18.205 18.745,19.975L19.825,18.895C20.44,18.28 21.22,17.86 22.06,17.695C22.9,17.515 23.77,17.575 24.58,17.875C25.825,18.34 27.145,18.67 28.465,18.85C29.575,19 30.565,19.555 31.285,20.395C31.99,21.235 32.38,22.3 32.35,23.395L32.35,27.88C32.35,28.51 32.23,29.11 31.975,29.695C31.72,30.265 31.345,30.79 30.895,31.21C30.43,31.63 29.89,31.96 29.29,32.155C28.81,32.32 28.33,32.395 27.835,32.395ZM8.53,2.5L8.515,2.5L4,2.5C3.79,2.5 3.595,2.545 3.4,2.635C3.205,2.71 3.025,2.83 2.89,2.98C2.74,3.13 2.635,3.31 2.575,3.52C2.515,3.715 2.485,3.925 2.5,4.135C2.965,8.5 4.48,12.76 6.865,16.465C9.04,19.885 11.995,22.84 15.415,25.015C19.105,27.415 23.365,28.915 27.715,29.395C27.895,29.41 28.105,29.38 28.3,29.32C28.495,29.26 28.675,29.14 28.84,29.005C29.005,28.87 29.125,28.69 29.2,28.495C29.29,28.3 29.32,28.09 29.32,27.88L29.32,23.38C29.32,23.365 29.32,23.35 29.32,23.35C29.335,22.975 29.2,22.63 28.96,22.345C28.72,22.06 28.39,21.88 28.03,21.835C26.5,21.64 24.97,21.25 23.5,20.71C23.23,20.605 22.93,20.59 22.66,20.65C22.375,20.71 22.12,20.845 21.91,21.055L20.02,22.96C19.54,23.44 18.805,23.53 18.22,23.2C14.23,20.935 10.93,17.62 8.65,13.645C8.335,13.015 8.425,12.28 8.905,11.8L10.81,9.895C11.005,9.7 11.14,9.445 11.2,9.16C11.26,8.875 11.245,8.59 11.14,8.32C10.585,6.85 10.21,5.32 10,3.775C9.955,3.43 9.775,3.1 9.505,2.86C9.235,2.635 8.89,2.5 8.53,2.5Z" fill="#3BB77E"/>
</svg>
