<svg width="12" height="10" viewBox="0 0 12 10" fill="none" xmlns="http://www.w3.org/2000/svg" xmlns:xlink="http://www.w3.org/1999/xlink">
<path d="M11.675,2.443C12.065,2.052 12.065,1.419 11.675,1.029C11.284,0.638 10.651,0.638 10.261,1.029L11.675,2.443ZM4.598,8.105L3.891,8.812C4.282,9.203 4.915,9.203 5.305,8.812L4.598,8.105ZM2.41,4.503C2.02,4.112 1.387,4.112 0.996,4.503C0.605,4.893 0.605,5.527 0.996,5.917L2.41,4.503ZM10.261,1.029L3.891,7.398L5.305,8.812L11.675,2.443L10.261,1.029ZM5.305,7.398L2.41,4.503L0.996,5.917L3.891,8.812L5.305,7.398Z" fill="#FFFFFF"/>
</svg>
