<svg width="24" height="24" viewBox="0 0 24 24" fill="none" xmlns="http://www.w3.org/2000/svg" xmlns:xlink="http://www.w3.org/1999/xlink">
<path d="M11.5,1C11.898,1 12.279,1.158 12.561,1.439C12.842,1.721 13,2.102 13,2.5L13,11L21.5,11C21.898,11 22.279,11.158 22.561,11.439C22.842,11.721 23,12.102 23,12.5C23,12.898 22.842,13.279 22.561,13.561C22.279,13.842 21.898,14 21.5,14L13,14L13,22.5C13,22.898 12.842,23.279 12.561,23.561C12.279,23.842 11.898,24 11.5,24C11.102,24 10.721,23.842 10.439,23.561C10.158,23.279 10,22.898 10,22.5L10,14L1.5,14C1.102,14 0.721,13.842 0.439,13.561C0.158,13.279 0,12.898 0,12.5C0,12.102 0.158,11.721 0.439,11.439C0.721,11.158 1.102,11 1.5,11L10,11L10,2.5C10,2.102 10.158,1.721 10.439,1.439C10.721,1.158 11.102,1 11.5,1Z" fill="#3BB77E"/>
</svg>
