<svg width="42" height="48" viewBox="0 0 42 48" fill="none" xmlns="http://www.w3.org/2000/svg" xmlns:xlink="http://www.w3.org/1999/xlink">
<path d="M28.973,-0.001C26.25,0.183 23.336,1.803 21.533,3.989C19.954,5.913 18.63,8.736 19.133,11.669C18.683,11.53 18.274,11.515 17.783,11.339C16.444,10.863 14.914,10.349 13.013,10.349C9.237,10.349 5.37,12.595 2.933,16.349C-0.615,21.801 0.098,31.397 5.483,39.599C6.432,41.039 7.538,42.61 8.903,43.859C10.268,45.107 11.918,46.06 13.853,46.079C15.507,46.097 16.658,45.546 17.693,45.089C18.728,44.631 19.692,44.226 21.503,44.219C21.514,44.219 21.521,44.219 21.533,44.219C23.336,44.204 24.27,44.601 25.283,45.059C26.295,45.516 27.435,46.094 29.093,46.079C31.065,46.064 32.741,44.984 34.133,43.649C35.524,42.314 36.668,40.675 37.613,39.239C38.966,37.176 39.51,36.051 40.553,33.749C40.661,33.509 40.665,33.231 40.56,32.987C40.459,32.744 40.26,32.552 40.013,32.459C36.6,31.169 34.654,28.15 34.373,24.959C34.091,21.767 35.441,18.483 38.843,16.619C39.094,16.484 39.27,16.248 39.33,15.97C39.386,15.693 39.319,15.4 39.143,15.179C36.701,12.145 33.266,10.349 29.903,10.349C27.758,10.349 26.183,10.855 24.893,11.339C24.679,11.421 24.521,11.414 24.323,11.489C25.631,10.799 26.786,9.843 27.653,8.729C29.228,6.708 30.443,3.831 29.993,0.809C29.918,0.314 29.471,-0.039 28.973,-0.001ZM27.953,2.279C27.889,4.218 27.225,6.115 26.123,7.529C24.968,9.014 23.025,10.041 21.143,10.349C21.176,8.485 21.911,6.554 23.033,5.189C24.21,3.764 26.16,2.736 27.953,2.279ZM13.013,12.269C13.853,12.269 15.803,12.67 17.123,13.139C18.443,13.608 19.834,14.159 21.473,14.159C23.074,14.159 24.341,13.604 25.583,13.139C26.824,12.674 28.061,12.269 29.903,12.269C32.306,12.269 34.905,13.518 36.953,15.689C33.675,18.003 32.141,21.61 32.453,25.109C32.764,28.645 34.894,32.001 38.393,33.749C38.388,33.76 38.383,33.771 38.378,33.781C37.629,35.413 37.129,36.501 36.023,38.189C35.104,39.587 34.013,41.117 32.813,42.269C31.613,43.42 30.341,44.147 29.063,44.159C27.829,44.17 27.128,43.802 26.063,43.319C24.998,42.835 23.621,42.28 21.503,42.299C19.388,42.31 17.993,42.842 16.913,43.319C15.833,43.795 15.124,44.17 13.883,44.159C12.57,44.147 11.352,43.51 10.193,42.449C9.034,41.387 7.988,39.94 7.073,38.549C2.033,30.869 1.628,21.846 4.523,17.399C6.645,14.133 12.173,12.269 13.013,12.269Z" fill="#000000"/>
<path d="M13.013,12.269C13.853,12.269 15.803,12.67 17.123,13.139C18.443,13.608 19.834,14.159 21.473,14.159C23.074,14.159 24.341,13.604 25.583,13.139C26.824,12.674 28.061,12.269 29.903,12.269C32.306,12.269 34.905,13.518 36.953,15.689C33.675,18.003 32.141,21.61 32.453,25.109C32.764,28.645 34.894,32.001 38.393,33.749L38.378,33.781C37.629,35.413 37.129,36.501 36.023,38.189C35.104,39.587 34.013,41.117 32.813,42.269C31.613,43.42 30.341,44.147 29.063,44.159C27.829,44.17 27.128,43.802 26.063,43.319C24.998,42.835 23.621,42.28 21.503,42.299C19.388,42.31 17.993,42.842 16.913,43.319C15.833,43.795 15.124,44.17 13.883,44.159C12.57,44.147 11.352,43.51 10.193,42.449C9.034,41.387 7.988,39.94 7.073,38.549C2.033,30.869 1.628,21.846 4.523,17.399C6.645,14.133 12.173,12.269 13.013,12.269Z" fill="#000000"/>
<path d="M27.953,2.279C27.889,4.218 27.225,6.115 26.123,7.529C24.968,9.014 23.025,10.041 21.143,10.349C21.176,8.485 21.911,6.554 23.033,5.189C24.21,3.764 26.16,2.736 27.953,2.279Z" fill="#000000"/>
</svg>
