<svg width="12" height="10" viewBox="0 0 12 10" fill="none" xmlns="http://www.w3.org/2000/svg" xmlns:xlink="http://www.w3.org/1999/xlink">
<path d="M10.569,2.634C10.96,2.243 10.96,1.61 10.569,1.22C10.179,0.829 9.546,0.829 9.155,1.22L10.569,2.634ZM3.493,8.296L2.786,9.003C3.176,9.394 3.809,9.394 4.2,9.003L3.493,8.296ZM1.305,4.694C0.914,4.303 0.281,4.303 -0.109,4.694C-0.5,5.084 -0.5,5.718 -0.109,6.108L1.305,4.694ZM9.155,1.22L2.786,7.589L4.2,9.003L10.569,2.634L9.155,1.22ZM4.2,7.589L1.305,4.694L-0.109,6.108L2.786,9.003L4.2,7.589Z" fill="#FFFFFF"/>
</svg>
