<svg width="48" height="40" viewBox="0 0 48 40" fill="none" xmlns="http://www.w3.org/2000/svg" xmlns:xlink="http://www.w3.org/1999/xlink">
<path d="M48,5.117C46.215,5.9 44.313,6.419 42.33,6.671C44.37,5.453 45.927,3.539 46.659,1.232C44.757,2.366 42.657,3.167 40.419,3.614C38.613,1.691 36.039,0.5 33.231,0.5C27.783,0.5 23.397,4.922 23.397,10.343C23.397,11.123 23.463,11.873 23.625,12.587C15.444,12.188 8.205,8.267 3.342,2.294C2.493,3.767 1.995,5.453 1.995,7.268C1.995,10.676 3.75,13.697 6.366,15.446C4.785,15.416 3.234,14.957 1.92,14.234C1.92,14.264 1.92,14.303 1.92,14.342C1.92,19.124 5.331,23.096 9.804,24.011C9.003,24.23 8.13,24.335 7.224,24.335C6.594,24.335 5.958,24.299 5.361,24.167C6.636,28.064 10.254,30.929 14.556,31.022C11.208,33.641 6.957,35.219 2.355,35.219C1.548,35.219 0.774,35.183 0,35.084C4.359,37.895 9.525,39.5 15.096,39.5C33.204,39.5 43.104,24.5 43.104,11.498C43.104,11.063 43.089,10.643 43.068,10.226C45.021,8.84 46.662,7.109 48,5.117Z" fill="#FFFFFF"/>
</svg>
