<svg width="26" height="26" viewBox="0 0 26 26" fill="none" xmlns="http://www.w3.org/2000/svg" xmlns:xlink="http://www.w3.org/1999/xlink">
<path d="M12.41,25.75C14.153,25.75 15.786,25.42 17.309,24.76C18.832,24.1 20.165,23.199 21.307,22.057C22.449,20.915 23.35,19.582 24.01,18.059C24.67,16.536 25,14.903 25,13.16C25,11.417 24.67,9.784 24.01,8.261C23.35,6.738 22.449,5.405 21.307,4.263C20.165,3.121 18.832,2.22 17.309,1.56C15.786,0.9 14.153,0.57 12.41,0.57C10.667,0.57 9.034,0.9 7.511,1.56C5.988,2.22 4.656,3.121 3.514,4.263C2.371,5.405 1.47,6.738 0.81,8.261C0.15,9.784 -0.18,11.417 -0.18,13.16C-0.18,14.903 0.15,16.536 0.81,18.059C1.47,19.582 2.371,20.915 3.514,22.057C4.656,23.199 5.988,24.1 7.511,24.76C9.034,25.42 10.667,25.75 12.41,25.75ZM12.41,20.876C11.175,20.876 10.122,20.441 9.25,19.569C8.379,18.698 7.943,17.644 7.943,16.409C7.943,15.174 8.379,14.12 9.25,13.249C10.122,12.377 11.175,11.942 12.41,11.942C13.646,11.942 14.699,12.377 15.571,13.249C16.442,14.12 16.878,15.174 16.878,16.409C16.878,17.644 16.442,18.698 15.571,19.569C14.699,20.441 13.646,20.876 12.41,20.876ZM12.41,3.413C13.155,3.413 13.874,3.498 14.568,3.667C15.279,3.819 15.947,4.047 16.573,4.352C17.199,4.657 17.792,5.02 18.35,5.444C18.908,5.867 19.408,6.34 19.848,6.865C19.374,7.762 18.693,8.494 17.804,9.061C16.916,9.628 15.93,9.911 14.847,9.911C14.779,9.911 14.716,9.907 14.657,9.898C14.597,9.89 14.542,9.877 14.492,9.86C14.153,9.759 13.811,9.674 13.464,9.606C13.117,9.539 12.766,9.505 12.41,9.505C12.055,9.505 11.704,9.539 11.357,9.606C11.01,9.674 10.667,9.759 10.329,9.86C10.278,9.877 10.223,9.89 10.164,9.898C10.105,9.907 10.041,9.911 9.974,9.911C8.891,9.911 7.905,9.628 7.016,9.061C6.128,8.494 5.447,7.762 4.973,6.865C5.413,6.34 5.912,5.867 6.471,5.444C7.029,5.02 7.621,4.657 8.247,4.352C8.874,4.047 9.542,3.819 10.253,3.667C10.947,3.498 11.666,3.413 12.41,3.413Z" fill="#EEC044"/>
</svg>
