<svg width="66" height="56" viewBox="0 0 66 56" fill="none" xmlns="http://www.w3.org/2000/svg" xmlns:xlink="http://www.w3.org/1999/xlink">
<path d="M12.437,0.946C14.706,0.042 17.139,-0.424 19.596,-0.424C22.052,-0.424 24.485,0.042 26.754,0.946C29.023,1.851 31.084,3.176 32.818,4.847L32.827,4.856L32.998,5.022L33.168,4.856L33.177,4.847C34.912,3.176 36.972,1.851 39.241,0.946C41.51,0.042 43.943,-0.424 46.4,-0.424C48.856,-0.424 51.289,0.042 53.558,0.946C55.826,1.85 57.886,3.175 59.62,4.845C67.043,11.973 67.208,23.759 58.412,32.361L58.393,32.379L35.06,54.779C34.513,55.304 33.771,55.599 32.998,55.599C32.224,55.599 31.482,55.304 30.935,54.779L7.583,32.361C-1.213,23.759 -1.048,11.973 6.375,4.845C8.109,3.175 10.169,1.85 12.437,0.946ZM19.596,5.176C17.907,5.176 16.234,5.496 14.674,6.118C13.114,6.74 11.698,7.651 10.505,8.8L10.502,8.803C5.562,13.545 4.968,21.801 11.737,28.429L32.998,48.84L54.259,28.429C61.027,21.801 60.433,13.545 55.494,8.803L55.49,8.8C54.298,7.651 52.881,6.74 51.321,6.118C49.761,5.496 48.089,5.176 46.4,5.176C44.711,5.176 43.038,5.496 41.478,6.118C39.92,6.739 38.505,7.649 37.314,8.795C37.313,8.797 37.311,8.798 37.309,8.8L35.073,10.974C34.525,11.507 33.778,11.807 32.998,11.807C32.218,11.807 31.47,11.507 30.922,10.974L28.686,8.8C28.684,8.798 28.683,8.797 28.681,8.795C27.49,7.649 26.075,6.739 24.517,6.118C22.957,5.496 21.285,5.176 19.596,5.176Z" clip-rule="evenodd" fill-rule="evenodd" fill="#797979"/>
</svg>
