<svg width="66" height="56" viewBox="0 0 66 56" fill="none" xmlns="http://www.w3.org/2000/svg" xmlns:xlink="http://www.w3.org/1999/xlink">
<path d="M12.439,0.946C14.708,0.042 17.141,-0.424 19.598,-0.424C22.054,-0.424 24.487,0.042 26.756,0.946C29.025,1.851 31.086,3.176 32.82,4.847L32.829,4.856L33,5.022L33.17,4.856L33.179,4.847C34.914,3.176 36.974,1.851 39.243,0.946C41.512,0.042 43.945,-0.424 46.402,-0.424C48.858,-0.424 51.291,0.042 53.56,0.946C55.828,1.85 57.888,3.175 59.622,4.845C67.045,11.973 67.21,23.759 58.414,32.361L58.395,32.379L35.062,54.779C34.515,55.304 33.773,55.599 33,55.599C32.226,55.599 31.484,55.304 30.937,54.779L7.585,32.361C-1.211,23.759 -1.046,11.973 6.377,4.845C8.111,3.175 10.171,1.85 12.439,0.946ZM19.598,5.176C17.908,5.176 16.236,5.496 14.676,6.118C13.116,6.74 11.699,7.651 10.507,8.8L10.504,8.803C5.564,13.545 4.97,21.801 11.739,28.429L33,48.84L54.261,28.429C61.029,21.801 60.435,13.545 55.496,8.803L55.492,8.8C54.3,7.651 52.883,6.74 51.323,6.118C49.763,5.496 48.091,5.176 46.402,5.176C44.713,5.176 43.04,5.496 41.48,6.118C39.922,6.739 38.507,7.649 37.316,8.795C37.315,8.797 37.313,8.798 37.311,8.8L35.075,10.974C34.527,11.507 33.78,11.807 33,11.807C32.22,11.807 31.472,11.507 30.924,10.974L28.688,8.8C28.686,8.798 28.685,8.797 28.683,8.795C27.492,7.649 26.077,6.739 24.519,6.118C22.959,5.496 21.287,5.176 19.598,5.176Z" clip-rule="evenodd" fill-rule="evenodd" fill="#797979"/>
</svg>
