<svg width="160" height="160" viewBox="0 0 160 160" fill="none" xmlns="http://www.w3.org/2000/svg" xmlns:xlink="http://www.w3.org/1999/xlink">
<path d="M160,80.312C160,40.382 130.213,6.407 90.713,1.284C88.296,0.945 86.14,2.483 85.563,4.795L80.953,23.238C80.257,26.006 82.191,28.781 85.083,29.043C111.761,31.414 131.875,53.456 131.875,80.312C131.875,97.602 123.187,113.674 108.946,123.177L102.812,115.002C100.47,111.866 95.469,112.83 94.517,116.677L85.142,154.177C84.4,157.125 86.636,160 89.688,160L127.188,160C131.054,160 133.246,155.574 130.937,152.502L125.869,145.741C147.338,130.827 160,106.73 160,80.312L160,80.312ZM74.917,130.957C48.239,128.586 28.125,106.544 28.125,79.688C28.125,62.398 36.813,46.326 51.054,36.823L57.188,44.998C59.51,48.097 64.524,47.2 65.483,43.323L74.858,5.823C75.6,2.875 73.364,0 70.312,0L32.812,0C28.946,0 26.754,4.426 29.063,7.498L34.131,14.259C12.662,29.173 0,53.27 0,79.688C0,119.618 29.787,153.593 69.287,158.716C71.62,159.027 73.856,157.536 74.437,155.205L79.047,136.762C79.743,133.994 77.809,131.219 74.917,130.957L74.917,130.957Z" fill="url(#pf_0_3100_9408)"/>
<defs>
<linearGradient id="pf_0_3100_9408" x1="80" y1="160" x2="80" y2="0" gradientUnits="userSpaceOnUse">
<stop stop-color="#00B59C"/>
<stop offset="1" stop-color="#9CFFAC"/>
</linearGradient>
</defs>
</svg>
