<svg width="202" height="64" viewBox="0 0 202 64" fill="none" xmlns="http://www.w3.org/2000/svg" xmlns:xlink="http://www.w3.org/1999/xlink">
<path d="M49.431,63.421L31.984,63.421L18.901,14.389C18.28,12.134 16.961,10.14 15.022,9.2C10.182,6.838 4.848,4.958 -0.971,4.01L-0.971,2.123L27.135,2.123C31.014,2.123 33.924,4.958 34.409,8.252L41.197,43.621L58.636,2.123L75.598,2.123L49.431,63.421ZM85.296,63.421L68.818,63.421L82.386,2.123L98.864,2.123L85.296,63.421ZM120.181,19.104C120.666,15.803 123.576,13.915 126.97,13.915C132.303,13.441 138.114,14.389 142.962,16.743L145.872,3.545C141.023,1.657 135.689,0.709 130.849,0.709C114.856,0.709 103.219,9.2 103.219,20.984C103.219,29.949 111.462,34.656 117.281,37.492C123.576,40.319 126,42.207 125.515,45.034C125.515,49.276 120.666,51.163 115.826,51.163C110.007,51.163 104.189,49.75 98.864,47.388L95.954,60.594C101.773,62.948 108.068,63.896 113.886,63.896C131.819,64.361 142.962,55.879 142.962,43.147C142.962,27.113 120.181,26.173 120.181,19.104L120.181,19.104ZM200.629,63.421L187.546,2.123L173.493,2.123C170.584,2.123 167.674,4.01 166.705,6.838L142.477,63.421L159.44,63.421L162.825,54.465L183.667,54.465L185.606,63.421L200.629,63.421ZM175.917,18.63L180.758,41.733L167.189,41.733L175.917,18.63Z" clip-rule="evenodd" fill-rule="evenodd" fill="#172B85"/>
</svg>
