<svg width="70" height="70" viewBox="0 0 70 70" fill="none" xmlns="http://www.w3.org/2000/svg" xmlns:xlink="http://www.w3.org/1999/xlink">
<path d="M46.625,63.438C46.625,64.995 47.244,66.49 48.346,67.592L50.467,65.471C49.928,64.931 49.625,64.2 49.625,63.438L46.625,63.438ZM48.346,67.592C49.448,68.694 50.942,69.313 52.5,69.313L52.5,66.313C51.737,66.313 51.006,66.01 50.467,65.471L48.346,67.592ZM52.5,69.313C54.058,69.313 55.553,68.694 56.654,67.592L54.533,65.471C53.994,66.01 53.263,66.313 52.5,66.313L52.5,69.313ZM56.654,67.592C57.756,66.49 58.375,64.995 58.375,63.438L55.375,63.438C55.375,64.2 55.072,64.931 54.533,65.471L56.654,67.592ZM58.375,63.438C58.375,61.88 57.756,60.385 56.654,59.283L54.533,61.404C55.072,61.944 55.375,62.675 55.375,63.438L58.375,63.438ZM56.654,59.283C55.553,58.181 54.058,57.563 52.5,57.563L52.5,60.563C53.263,60.563 53.994,60.865 54.533,61.404L56.654,59.283ZM52.5,57.563C50.942,57.563 49.448,58.181 48.346,59.283L50.467,61.404C51.006,60.865 51.737,60.563 52.5,60.563L52.5,57.563ZM48.346,59.283C47.244,60.385 46.625,61.88 46.625,63.438L49.625,63.438C49.625,62.675 49.928,61.944 50.467,61.404L48.346,59.283Z" fill="#797979"/>
<path d="M5.063,63.438C5.063,64.996 5.681,66.49 6.783,67.592L8.905,65.471C8.365,64.931 8.063,64.2 8.063,63.438L5.063,63.438ZM6.783,67.592C7.885,68.694 9.379,69.313 10.938,69.313L10.938,66.313C10.175,66.313 9.444,66.01 8.905,65.471L6.783,67.592ZM10.938,69.313C12.496,69.313 13.99,68.694 15.092,67.592L12.97,65.471C12.431,66.01 11.7,66.313 10.938,66.313L10.938,69.313ZM15.092,67.592C16.194,66.49 16.813,64.996 16.813,63.438L13.813,63.438C13.813,64.2 13.51,64.931 12.97,65.471L15.092,67.592ZM16.813,63.438C16.813,61.879 16.194,60.385 15.092,59.283L12.97,61.404C13.51,61.944 13.813,62.675 13.813,63.438L16.813,63.438ZM15.092,59.283C13.99,58.181 12.496,57.563 10.938,57.563L10.938,60.563C11.7,60.563 12.431,60.865 12.97,61.404L15.092,59.283ZM10.938,57.563C9.379,57.563 7.885,58.181 6.783,59.283L8.905,61.404C9.444,60.865 10.175,60.563 10.938,60.563L10.938,57.563ZM6.783,59.283C5.681,60.385 5.063,61.879 5.063,63.438L8.063,63.438C8.063,62.675 8.365,61.944 8.905,61.404L6.783,59.283Z" fill="#797979"/>
<path d="M2.188,51C1.359,51 0.688,51.672 0.688,52.5C0.688,53.328 1.359,54 2.188,54L2.188,51ZM48.65,52.5L48.652,51L48.65,51L48.65,52.5ZM52.996,48.679L51.508,48.485L51.508,48.489L52.996,48.679ZM58.567,6.008L60.054,6.203L60.054,6.198L58.567,6.008ZM60.018,3.277L59.027,2.15L59.027,2.15L60.018,3.277ZM62.912,2.188L62.911,3.688L62.912,3.688L62.912,2.188ZM67.813,3.688C68.641,3.688 69.313,3.016 69.313,2.188C69.313,1.359 68.641,0.688 67.813,0.688L67.813,3.688ZM2.188,54L48.65,54L48.65,51L2.188,51L2.188,54ZM48.648,54C50.079,54.002 51.461,53.482 52.535,52.537L50.554,50.284C50.029,50.747 49.352,51.001 48.652,51L48.648,54ZM52.535,52.537C53.609,51.592 54.302,50.288 54.484,48.869L51.508,48.489C51.419,49.183 51.08,49.822 50.554,50.284L52.535,52.537ZM54.483,48.873L60.054,6.203L57.079,5.814L51.508,48.485L54.483,48.873ZM60.054,6.198C60.143,5.504 60.482,4.866 61.008,4.403L59.027,2.15C57.953,3.095 57.26,4.399 57.079,5.818L60.054,6.198ZM61.008,4.403C61.534,3.941 62.21,3.687 62.911,3.688L62.914,0.688C61.484,0.686 60.102,1.206 59.027,2.15L61.008,4.403ZM62.912,3.688L67.813,3.688L67.813,0.688L62.912,0.688L62.912,3.688Z" fill="#797979"/>
<path d="M13.125,12.438L39.375,12.438L39.375,9.438L13.125,9.438L13.125,12.438ZM39.375,10.938C39.375,12.438 39.374,12.438 39.374,12.438C39.373,12.438 39.373,12.437 39.372,12.437C39.371,12.437 39.371,12.437 39.37,12.437C39.368,12.437 39.367,12.437 39.366,12.437C39.364,12.437 39.363,12.437 39.363,12.437C39.363,12.437 39.367,12.437 39.374,12.438C39.389,12.438 39.416,12.439 39.456,12.442C39.536,12.448 39.66,12.46 39.812,12.485C40.124,12.537 40.517,12.639 40.892,12.826C41.261,13.01 41.584,13.264 41.818,13.615C42.046,13.958 42.25,14.481 42.25,15.313L45.25,15.313C45.25,13.956 44.907,12.839 44.314,11.951C43.729,11.072 42.958,10.505 42.233,10.143C41.514,9.783 40.814,9.611 40.305,9.526C40.047,9.483 39.829,9.461 39.67,9.45C39.59,9.444 39.524,9.441 39.474,9.439C39.449,9.439 39.428,9.438 39.412,9.438C39.403,9.438 39.396,9.438 39.39,9.438C39.387,9.438 39.384,9.438 39.382,9.438C39.38,9.438 39.379,9.438 39.378,9.438C39.378,9.438 39.377,9.438 39.377,9.438C39.376,9.438 39.375,9.438 39.375,10.938ZM42.25,15.313L42.25,39.375L45.25,39.375L45.25,15.313L42.25,15.313ZM43.75,39.375C42.25,39.375 42.25,39.374 42.25,39.374C42.25,39.373 42.25,39.373 42.25,39.372C42.25,39.372 42.25,39.371 42.25,39.37C42.25,39.369 42.25,39.367 42.25,39.366C42.25,39.364 42.25,39.363 42.25,39.363C42.25,39.363 42.25,39.367 42.25,39.374C42.249,39.389 42.248,39.416 42.245,39.456C42.24,39.536 42.227,39.66 42.202,39.812C42.15,40.124 42.049,40.517 41.861,40.892C41.677,41.261 41.424,41.584 41.072,41.818C40.73,42.047 40.206,42.25 39.375,42.25L39.375,45.25C40.731,45.25 41.848,44.907 42.736,44.315C43.615,43.729 44.182,42.958 44.545,42.233C44.904,41.514 45.076,40.814 45.161,40.305C45.204,40.048 45.226,39.829 45.238,39.67C45.243,39.59 45.246,39.524 45.248,39.474C45.249,39.449 45.249,39.428 45.25,39.412C45.25,39.404 45.25,39.396 45.25,39.39C45.25,39.387 45.25,39.384 45.25,39.382C45.25,39.38 45.25,39.379 45.25,39.378C45.25,39.377 45.25,39.377 45.25,39.376C45.25,39.376 45.25,39.375 43.75,39.375ZM39.375,42.25L13.125,42.25L13.125,45.25L39.375,45.25L39.375,42.25ZM13.125,43.75C13.125,42.25 13.126,42.25 13.126,42.25C13.127,42.25 13.127,42.25 13.128,42.25C13.129,42.25 13.129,42.25 13.13,42.25C13.132,42.25 13.133,42.25 13.134,42.25C13.136,42.25 13.137,42.25 13.137,42.25C13.137,42.25 13.133,42.25 13.126,42.25C13.111,42.249 13.084,42.248 13.044,42.245C12.964,42.239 12.84,42.228 12.688,42.202C12.376,42.15 11.983,42.049 11.608,41.861C11.239,41.677 10.916,41.424 10.682,41.072C10.454,40.73 10.25,40.206 10.25,39.375L7.25,39.375C7.25,40.731 7.593,41.848 8.186,42.736C8.771,43.615 9.542,44.182 10.267,44.545C10.986,44.904 11.686,45.076 12.195,45.161C12.453,45.204 12.671,45.226 12.83,45.238C12.91,45.243 12.976,45.247 13.026,45.248C13.051,45.249 13.072,45.25 13.088,45.25C13.097,45.25 13.104,45.25 13.11,45.25C13.113,45.25 13.116,45.25 13.118,45.25C13.12,45.25 13.121,45.25 13.122,45.25C13.122,45.25 13.123,45.25 13.123,45.25C13.124,45.25 13.125,45.25 13.125,43.75ZM10.25,39.375L10.25,15.313L7.25,15.313L7.25,39.375L10.25,39.375ZM8.75,15.313C10.25,15.313 10.25,15.313 10.25,15.314C10.25,15.314 10.25,15.315 10.25,15.315C10.25,15.316 10.25,15.317 10.25,15.318C10.25,15.319 10.25,15.32 10.25,15.321C10.25,15.323 10.25,15.324 10.25,15.324C10.25,15.324 10.25,15.321 10.25,15.313C10.251,15.299 10.252,15.271 10.255,15.231C10.26,15.152 10.273,15.028 10.298,14.875C10.35,14.564 10.451,14.171 10.639,13.796C10.823,13.427 11.076,13.104 11.428,12.869C11.77,12.641 12.294,12.438 13.125,12.438L13.125,9.438C11.769,9.438 10.652,9.781 9.764,10.373C8.885,10.959 8.318,11.729 7.955,12.454C7.596,13.173 7.424,13.874 7.339,14.382C7.296,14.64 7.274,14.858 7.262,15.018C7.257,15.098 7.254,15.164 7.252,15.213C7.251,15.238 7.251,15.259 7.25,15.276C7.25,15.284 7.25,15.291 7.25,15.297C7.25,15.301 7.25,15.303 7.25,15.306C7.25,15.307 7.25,15.308 7.25,15.309C7.25,15.31 7.25,15.311 7.25,15.311C7.25,15.312 7.25,15.313 8.75,15.313Z" fill="#797979"/>
<path d="M31.355,25.521L31.355,27.021C32.183,27.021 32.855,26.349 32.855,25.521L31.355,25.521ZM21.146,25.521L19.646,25.521C19.646,26.349 20.318,27.021 21.146,27.021L21.146,25.521ZM21.146,10.938L21.146,9.438C20.318,9.438 19.646,10.109 19.646,10.938L21.146,10.938ZM31.355,10.938L32.855,10.938C32.855,10.109 32.183,9.438 31.355,9.438L31.355,10.938ZM31.355,24.021L21.146,24.021L21.146,27.021L31.355,27.021L31.355,24.021ZM22.646,25.521L22.646,10.938L19.646,10.938L19.646,25.521L22.646,25.521ZM21.146,12.438L31.355,12.438L31.355,9.438L21.146,9.438L21.146,12.438ZM29.855,10.938L29.855,25.521L32.855,25.521L32.855,10.938L29.855,10.938Z" fill="#797979"/>
</svg>
