<svg width="108" height="98" viewBox="0 0 108 98" fill="none" xmlns="http://www.w3.org/2000/svg" xmlns:xlink="http://www.w3.org/1999/xlink">
<path d="M72.75,88.813C72.75,90.884 73.658,92.838 75.219,94.255L77.235,92.033C76.264,91.152 75.75,89.99 75.75,88.813L72.75,88.813ZM75.219,94.255C76.775,95.666 78.857,96.438 81,96.438L81,93.438C79.563,93.438 78.211,92.918 77.235,92.033L75.219,94.255ZM81,96.438C83.143,96.438 85.225,95.666 86.781,94.255L84.765,92.033C83.789,92.918 82.437,93.438 81,93.438L81,96.438ZM86.781,94.255C88.342,92.838 89.25,90.884 89.25,88.813L86.25,88.813C86.25,89.99 85.736,91.152 84.765,92.033L86.781,94.255ZM89.25,88.813C89.25,86.741 88.342,84.787 86.781,83.37L84.765,85.592C85.736,86.473 86.25,87.635 86.25,88.813L89.25,88.813ZM86.781,83.37C85.225,81.959 83.143,81.188 81,81.188L81,84.188C82.437,84.188 83.789,84.707 84.765,85.592L86.781,83.37ZM81,81.188C78.857,81.188 76.775,81.959 75.219,83.37L77.235,85.592C78.211,84.707 79.563,84.188 81,84.188L81,81.188ZM75.219,83.37C73.658,84.787 72.75,86.741 72.75,88.813L75.75,88.813C75.75,87.635 76.264,86.473 77.235,85.592L75.219,83.37Z" fill="#1BC29E"/>
<path d="M8.625,88.813C8.625,90.884 9.533,92.838 11.094,94.255L13.11,92.033C12.139,91.152 11.625,89.989 11.625,88.813L8.625,88.813ZM11.094,94.255C12.65,95.666 14.732,96.438 16.875,96.438L16.875,93.438C15.438,93.438 14.086,92.918 13.11,92.033L11.094,94.255ZM16.875,96.438C19.018,96.438 21.1,95.666 22.656,94.255L20.64,92.033C19.664,92.918 18.312,93.438 16.875,93.438L16.875,96.438ZM22.656,94.255C24.217,92.838 25.125,90.884 25.125,88.813L22.125,88.813C22.125,89.989 21.611,91.152 20.64,92.033L22.656,94.255ZM25.125,88.813C25.125,86.741 24.217,84.787 22.656,83.37L20.64,85.592C21.611,86.473 22.125,87.636 22.125,88.813L25.125,88.813ZM22.656,83.37C21.1,81.959 19.018,81.188 16.875,81.188L16.875,84.188C18.312,84.188 19.664,84.707 20.64,85.592L22.656,83.37ZM16.875,81.188C14.732,81.188 12.65,81.959 11.094,83.37L13.11,85.592C14.086,84.707 15.438,84.188 16.875,84.188L16.875,81.188ZM11.094,83.37C9.533,84.787 8.625,86.741 8.625,88.813L11.625,88.813C11.625,87.636 12.139,86.473 13.11,85.592L11.094,83.37Z" fill="#1BC29E"/>
<path d="M3.375,72C2.547,72 1.875,72.672 1.875,73.5C1.875,74.328 2.547,75 3.375,75L3.375,72ZM75.06,73.5L75.062,72L75.06,72L75.06,73.5ZM81.765,68.151L80.28,67.937L80.28,67.942L81.765,68.151ZM90.36,8.412L91.845,8.625L91.845,8.621L90.36,8.412ZM92.599,4.588L91.663,3.415L91.663,3.415L92.599,4.588ZM97.065,3.063L97.063,4.563L97.065,4.563L97.065,3.063ZM104.625,4.563C105.453,4.563 106.125,3.891 106.125,3.063C106.125,2.234 105.453,1.563 104.625,1.563L104.625,4.563ZM3.375,75L75.06,75L75.06,72L3.375,72L3.375,75ZM75.058,75C77.027,75.002 78.95,74.354 80.462,73.147L78.591,70.802C77.634,71.566 76.38,72.002 75.062,72L75.058,75ZM80.462,73.147C81.977,71.939 82.985,70.242 83.25,68.36L80.28,67.942C80.128,69.018 79.544,70.041 78.591,70.802L80.462,73.147ZM83.25,68.364L91.845,8.625L88.875,8.198L80.28,67.937L83.25,68.364ZM91.845,8.621C91.997,7.544 92.581,6.521 93.534,5.76L91.663,3.415C90.148,4.624 89.14,6.32 88.875,8.202L91.845,8.621ZM93.534,5.76C94.491,4.997 95.745,4.561 97.063,4.563L97.067,1.563C95.098,1.56 93.175,2.209 91.663,3.415L93.534,5.76ZM97.065,4.563L104.625,4.563L104.625,1.563L97.065,1.563L97.065,4.563Z" fill="#1BC29E"/>
<path d="M20.25,16.813L60.75,16.813L60.75,13.813L20.25,13.813L20.25,16.813ZM60.75,15.313C60.75,16.813 60.749,16.813 60.749,16.813C60.749,16.813 60.748,16.812 60.748,16.812C60.747,16.812 60.746,16.812 60.746,16.812C60.745,16.812 60.744,16.812 60.744,16.812C60.744,16.812 60.745,16.812 60.747,16.813C60.753,16.813 60.764,16.813 60.78,16.813C60.814,16.814 60.869,16.817 60.943,16.821C61.091,16.831 61.312,16.851 61.58,16.891C62.125,16.974 62.825,17.135 63.505,17.444C64.183,17.752 64.795,18.183 65.236,18.785C65.666,19.369 66,20.201 66,21.438L69,21.438C69,19.612 68.491,18.147 67.654,17.008C66.83,15.887 65.754,15.17 64.745,14.712C63.738,14.255 62.75,14.034 62.029,13.925C61.664,13.87 61.358,13.842 61.137,13.828C61.026,13.82 60.937,13.817 60.871,13.815C60.838,13.814 60.812,13.813 60.791,13.813C60.781,13.813 60.773,13.813 60.766,13.813C60.762,13.813 60.759,13.813 60.757,13.813C60.755,13.813 60.754,13.813 60.753,13.813C60.752,13.813 60.752,13.813 60.751,13.813C60.751,13.813 60.75,13.813 60.75,15.313ZM66,21.438L66,55.125L69,55.125L69,21.438L66,21.438ZM67.5,55.125C66,55.125 66,55.124 66,55.124C66,55.123 66,55.123 66,55.122C66,55.121 66,55.12 66,55.12C66,55.118 66,55.117 66,55.116C66,55.115 66,55.115 66,55.116C66,55.118 66,55.126 65.999,55.139C65.998,55.164 65.996,55.209 65.991,55.27C65.982,55.394 65.961,55.582 65.919,55.811C65.834,56.276 65.665,56.878 65.342,57.464C65.024,58.041 64.562,58.594 63.876,59.01C63.192,59.423 62.203,59.75 60.75,59.75L60.75,62.75C62.672,62.75 64.214,62.311 65.429,61.576C66.641,60.843 67.444,59.865 67.97,58.911C68.491,57.966 68.744,57.036 68.87,56.353C68.933,56.008 68.966,55.717 68.982,55.506C68.991,55.4 68.995,55.313 68.997,55.249C68.999,55.217 68.999,55.19 69,55.169C69,55.159 69,55.15 69,55.143C69,55.139 69,55.136 69,55.133C69,55.131 69,55.13 69,55.128C69,55.128 69,55.127 69,55.127C69,55.126 69,55.125 67.5,55.125ZM60.75,59.75L20.25,59.75L20.25,62.75L60.75,62.75L60.75,59.75ZM20.25,61.25C20.25,59.75 20.251,59.75 20.251,59.75C20.251,59.75 20.252,59.75 20.252,59.75C20.253,59.75 20.254,59.75 20.254,59.75C20.255,59.75 20.256,59.75 20.256,59.75C20.256,59.75 20.255,59.75 20.253,59.75C20.247,59.75 20.236,59.75 20.22,59.749C20.186,59.748 20.131,59.746 20.057,59.741C19.909,59.732 19.688,59.712 19.42,59.671C18.875,59.589 18.175,59.427 17.495,59.118C16.817,58.811 16.205,58.379 15.764,57.778C15.334,57.194 15,56.362 15,55.125L12,55.125C12,56.95 12.509,58.416 13.346,59.554C14.17,60.676 15.246,61.392 16.255,61.85C17.262,62.307 18.25,62.528 18.971,62.638C19.336,62.693 19.642,62.72 19.863,62.735C19.974,62.742 20.063,62.746 20.129,62.748C20.162,62.749 20.188,62.749 20.209,62.75C20.219,62.75 20.227,62.75 20.234,62.75C20.238,62.75 20.241,62.75 20.243,62.75C20.245,62.75 20.246,62.75 20.247,62.75C20.248,62.75 20.248,62.75 20.249,62.75C20.249,62.75 20.25,62.75 20.25,61.25ZM15,55.125L15,21.438L12,21.438L12,55.125L15,55.125ZM13.5,21.438C15,21.438 15,21.438 15,21.439C15,21.439 15,21.44 15,21.44C15,21.441 15,21.442 15,21.443C15,21.444 15,21.445 15,21.446C15,21.448 15,21.448 15,21.447C15,21.444 15,21.436 15.001,21.424C15.002,21.398 15.004,21.354 15.009,21.292C15.018,21.168 15.039,20.981 15.081,20.751C15.166,20.286 15.335,19.685 15.658,19.099C15.976,18.522 16.438,17.968 17.124,17.553C17.808,17.139 18.797,16.813 20.25,16.813L20.25,13.813C18.328,13.813 16.786,14.251 15.571,14.986C14.359,15.719 13.556,16.697 13.03,17.651C12.509,18.596 12.256,19.526 12.13,20.21C12.067,20.554 12.034,20.845 12.018,21.057C12.009,21.163 12.005,21.249 12.003,21.314C12.001,21.346 12.001,21.373 12,21.393C12,21.404 12,21.413 12,21.42C12,21.424 12,21.427 12,21.43C12,21.431 12,21.433 12,21.434C12,21.435 12,21.435 12,21.436C12,21.437 12,21.438 13.5,21.438Z" fill="#1BC29E"/>
<path d="M48.375,35.729L48.375,37.229C49.203,37.229 49.875,36.557 49.875,35.729L48.375,35.729ZM32.625,35.729L31.125,35.729C31.125,36.557 31.797,37.229 32.625,37.229L32.625,35.729ZM32.625,15.313L32.625,13.813C31.797,13.813 31.125,14.484 31.125,15.313L32.625,15.313ZM48.375,15.313L49.875,15.313C49.875,14.484 49.203,13.813 48.375,13.813L48.375,15.313ZM48.375,34.229L32.625,34.229L32.625,37.229L48.375,37.229L48.375,34.229ZM34.125,35.729L34.125,15.313L31.125,15.313L31.125,35.729L34.125,35.729ZM32.625,16.813L48.375,16.813L48.375,13.813L32.625,13.813L32.625,16.813ZM46.875,15.313L46.875,35.729L49.875,35.729L49.875,15.313L46.875,15.313Z" fill="#1BC29E"/>
</svg>
